%TF.GenerationSoftware,KiCad,Pcbnew,8.0.0*%
%TF.CreationDate,2024-03-22T12:56:57+01:00*%
%TF.ProjectId,WCH-ETH-LOW,5743482d-4554-4482-9d4c-4f572e6b6963,rev?*%
%TF.SameCoordinates,Original*%
%TF.FileFunction,Legend,Top*%
%TF.FilePolarity,Positive*%
%FSLAX46Y46*%
G04 Gerber Fmt 4.6, Leading zero omitted, Abs format (unit mm)*
G04 Created by KiCad (PCBNEW 8.0.0) date 2024-03-22 12:56:57*
%MOMM*%
%LPD*%
G01*
G04 APERTURE LIST*
G04 Aperture macros list*
%AMRoundRect*
0 Rectangle with rounded corners*
0 $1 Rounding radius*
0 $2 $3 $4 $5 $6 $7 $8 $9 X,Y pos of 4 corners*
0 Add a 4 corners polygon primitive as box body*
4,1,4,$2,$3,$4,$5,$6,$7,$8,$9,$2,$3,0*
0 Add four circle primitives for the rounded corners*
1,1,$1+$1,$2,$3*
1,1,$1+$1,$4,$5*
1,1,$1+$1,$6,$7*
1,1,$1+$1,$8,$9*
0 Add four rect primitives between the rounded corners*
20,1,$1+$1,$2,$3,$4,$5,0*
20,1,$1+$1,$4,$5,$6,$7,0*
20,1,$1+$1,$6,$7,$8,$9,0*
20,1,$1+$1,$8,$9,$2,$3,0*%
G04 Aperture macros list end*
%ADD10C,0.150000*%
%ADD11C,0.120000*%
%ADD12C,0.250000*%
%ADD13C,0.400000*%
%ADD14RoundRect,0.250000X2.500000X-0.250000X2.500000X0.250000X-2.500000X0.250000X-2.500000X-0.250000X0*%
%ADD15RoundRect,0.250000X1.250000X-0.550000X1.250000X0.550000X-1.250000X0.550000X-1.250000X-0.550000X0*%
%ADD16RoundRect,0.250000X-2.500000X0.250000X-2.500000X-0.250000X2.500000X-0.250000X2.500000X0.250000X0*%
%ADD17RoundRect,0.250000X-1.250000X0.550000X-1.250000X-0.550000X1.250000X-0.550000X1.250000X0.550000X0*%
%ADD18RoundRect,0.218750X0.218750X0.256250X-0.218750X0.256250X-0.218750X-0.256250X0.218750X-0.256250X0*%
%ADD19RoundRect,0.147500X-0.172500X0.147500X-0.172500X-0.147500X0.172500X-0.147500X0.172500X0.147500X0*%
%ADD20C,0.650000*%
%ADD21R,0.600000X1.450000*%
%ADD22R,0.300000X1.450000*%
%ADD23O,1.000000X2.100000*%
%ADD24O,1.000000X1.600000*%
%ADD25C,3.200000*%
%ADD26R,0.750000X2.000000*%
%ADD27C,3.600000*%
%ADD28C,5.600000*%
%ADD29RoundRect,0.250000X-0.650000X0.325000X-0.650000X-0.325000X0.650000X-0.325000X0.650000X0.325000X0*%
%ADD30RoundRect,0.250000X-1.250000X-0.550000X1.250000X-0.550000X1.250000X0.550000X-1.250000X0.550000X0*%
%ADD31RoundRect,0.140000X0.170000X-0.140000X0.170000X0.140000X-0.170000X0.140000X-0.170000X-0.140000X0*%
%ADD32RoundRect,0.140000X0.140000X0.170000X-0.140000X0.170000X-0.140000X-0.170000X0.140000X-0.170000X0*%
%ADD33C,2.500000*%
%ADD34C,1.520000*%
%ADD35C,3.300000*%
%ADD36C,1.524000*%
%ADD37RoundRect,0.250000X0.325000X0.650000X-0.325000X0.650000X-0.325000X-0.650000X0.325000X-0.650000X0*%
%ADD38R,1.000000X1.700000*%
%ADD39RoundRect,0.250000X-0.250000X-2.500000X0.250000X-2.500000X0.250000X2.500000X-0.250000X2.500000X0*%
%ADD40RoundRect,0.250000X-0.550000X-1.250000X0.550000X-1.250000X0.550000X1.250000X-0.550000X1.250000X0*%
%ADD41C,0.990600*%
G04 APERTURE END LIST*
D10*
X78990160Y-82345200D02*
X79133017Y-82392819D01*
X79133017Y-82392819D02*
X79371112Y-82392819D01*
X79371112Y-82392819D02*
X79466350Y-82345200D01*
X79466350Y-82345200D02*
X79513969Y-82297580D01*
X79513969Y-82297580D02*
X79561588Y-82202342D01*
X79561588Y-82202342D02*
X79561588Y-82107104D01*
X79561588Y-82107104D02*
X79513969Y-82011866D01*
X79513969Y-82011866D02*
X79466350Y-81964247D01*
X79466350Y-81964247D02*
X79371112Y-81916628D01*
X79371112Y-81916628D02*
X79180636Y-81869009D01*
X79180636Y-81869009D02*
X79085398Y-81821390D01*
X79085398Y-81821390D02*
X79037779Y-81773771D01*
X79037779Y-81773771D02*
X78990160Y-81678533D01*
X78990160Y-81678533D02*
X78990160Y-81583295D01*
X78990160Y-81583295D02*
X79037779Y-81488057D01*
X79037779Y-81488057D02*
X79085398Y-81440438D01*
X79085398Y-81440438D02*
X79180636Y-81392819D01*
X79180636Y-81392819D02*
X79418731Y-81392819D01*
X79418731Y-81392819D02*
X79561588Y-81440438D01*
X79942541Y-81488057D02*
X79990160Y-81440438D01*
X79990160Y-81440438D02*
X80085398Y-81392819D01*
X80085398Y-81392819D02*
X80323493Y-81392819D01*
X80323493Y-81392819D02*
X80418731Y-81440438D01*
X80418731Y-81440438D02*
X80466350Y-81488057D01*
X80466350Y-81488057D02*
X80513969Y-81583295D01*
X80513969Y-81583295D02*
X80513969Y-81678533D01*
X80513969Y-81678533D02*
X80466350Y-81821390D01*
X80466350Y-81821390D02*
X79894922Y-82392819D01*
X79894922Y-82392819D02*
X80513969Y-82392819D01*
X78990160Y-86409200D02*
X79133017Y-86456819D01*
X79133017Y-86456819D02*
X79371112Y-86456819D01*
X79371112Y-86456819D02*
X79466350Y-86409200D01*
X79466350Y-86409200D02*
X79513969Y-86361580D01*
X79513969Y-86361580D02*
X79561588Y-86266342D01*
X79561588Y-86266342D02*
X79561588Y-86171104D01*
X79561588Y-86171104D02*
X79513969Y-86075866D01*
X79513969Y-86075866D02*
X79466350Y-86028247D01*
X79466350Y-86028247D02*
X79371112Y-85980628D01*
X79371112Y-85980628D02*
X79180636Y-85933009D01*
X79180636Y-85933009D02*
X79085398Y-85885390D01*
X79085398Y-85885390D02*
X79037779Y-85837771D01*
X79037779Y-85837771D02*
X78990160Y-85742533D01*
X78990160Y-85742533D02*
X78990160Y-85647295D01*
X78990160Y-85647295D02*
X79037779Y-85552057D01*
X79037779Y-85552057D02*
X79085398Y-85504438D01*
X79085398Y-85504438D02*
X79180636Y-85456819D01*
X79180636Y-85456819D02*
X79418731Y-85456819D01*
X79418731Y-85456819D02*
X79561588Y-85504438D01*
X80180636Y-85456819D02*
X80275874Y-85456819D01*
X80275874Y-85456819D02*
X80371112Y-85504438D01*
X80371112Y-85504438D02*
X80418731Y-85552057D01*
X80418731Y-85552057D02*
X80466350Y-85647295D01*
X80466350Y-85647295D02*
X80513969Y-85837771D01*
X80513969Y-85837771D02*
X80513969Y-86075866D01*
X80513969Y-86075866D02*
X80466350Y-86266342D01*
X80466350Y-86266342D02*
X80418731Y-86361580D01*
X80418731Y-86361580D02*
X80371112Y-86409200D01*
X80371112Y-86409200D02*
X80275874Y-86456819D01*
X80275874Y-86456819D02*
X80180636Y-86456819D01*
X80180636Y-86456819D02*
X80085398Y-86409200D01*
X80085398Y-86409200D02*
X80037779Y-86361580D01*
X80037779Y-86361580D02*
X79990160Y-86266342D01*
X79990160Y-86266342D02*
X79942541Y-86075866D01*
X79942541Y-86075866D02*
X79942541Y-85837771D01*
X79942541Y-85837771D02*
X79990160Y-85647295D01*
X79990160Y-85647295D02*
X80037779Y-85552057D01*
X80037779Y-85552057D02*
X80085398Y-85504438D01*
X80085398Y-85504438D02*
X80180636Y-85456819D01*
X78990160Y-84377200D02*
X79133017Y-84424819D01*
X79133017Y-84424819D02*
X79371112Y-84424819D01*
X79371112Y-84424819D02*
X79466350Y-84377200D01*
X79466350Y-84377200D02*
X79513969Y-84329580D01*
X79513969Y-84329580D02*
X79561588Y-84234342D01*
X79561588Y-84234342D02*
X79561588Y-84139104D01*
X79561588Y-84139104D02*
X79513969Y-84043866D01*
X79513969Y-84043866D02*
X79466350Y-83996247D01*
X79466350Y-83996247D02*
X79371112Y-83948628D01*
X79371112Y-83948628D02*
X79180636Y-83901009D01*
X79180636Y-83901009D02*
X79085398Y-83853390D01*
X79085398Y-83853390D02*
X79037779Y-83805771D01*
X79037779Y-83805771D02*
X78990160Y-83710533D01*
X78990160Y-83710533D02*
X78990160Y-83615295D01*
X78990160Y-83615295D02*
X79037779Y-83520057D01*
X79037779Y-83520057D02*
X79085398Y-83472438D01*
X79085398Y-83472438D02*
X79180636Y-83424819D01*
X79180636Y-83424819D02*
X79418731Y-83424819D01*
X79418731Y-83424819D02*
X79561588Y-83472438D01*
X80513969Y-84424819D02*
X79942541Y-84424819D01*
X80228255Y-84424819D02*
X80228255Y-83424819D01*
X80228255Y-83424819D02*
X80133017Y-83567676D01*
X80133017Y-83567676D02*
X80037779Y-83662914D01*
X80037779Y-83662914D02*
X79942541Y-83710533D01*
X80836680Y-91142965D02*
X81312871Y-90809632D01*
X80836680Y-90571537D02*
X81836680Y-90571537D01*
X81836680Y-90571537D02*
X81836680Y-90952489D01*
X81836680Y-90952489D02*
X81789061Y-91047727D01*
X81789061Y-91047727D02*
X81741442Y-91095346D01*
X81741442Y-91095346D02*
X81646204Y-91142965D01*
X81646204Y-91142965D02*
X81503347Y-91142965D01*
X81503347Y-91142965D02*
X81408109Y-91095346D01*
X81408109Y-91095346D02*
X81360490Y-91047727D01*
X81360490Y-91047727D02*
X81312871Y-90952489D01*
X81312871Y-90952489D02*
X81312871Y-90571537D01*
X80884300Y-91952489D02*
X80836680Y-91857251D01*
X80836680Y-91857251D02*
X80836680Y-91666775D01*
X80836680Y-91666775D02*
X80884300Y-91571537D01*
X80884300Y-91571537D02*
X80979538Y-91523918D01*
X80979538Y-91523918D02*
X81360490Y-91523918D01*
X81360490Y-91523918D02*
X81455728Y-91571537D01*
X81455728Y-91571537D02*
X81503347Y-91666775D01*
X81503347Y-91666775D02*
X81503347Y-91857251D01*
X81503347Y-91857251D02*
X81455728Y-91952489D01*
X81455728Y-91952489D02*
X81360490Y-92000108D01*
X81360490Y-92000108D02*
X81265252Y-92000108D01*
X81265252Y-92000108D02*
X81170014Y-91523918D01*
X80884300Y-92381061D02*
X80836680Y-92476299D01*
X80836680Y-92476299D02*
X80836680Y-92666775D01*
X80836680Y-92666775D02*
X80884300Y-92762013D01*
X80884300Y-92762013D02*
X80979538Y-92809632D01*
X80979538Y-92809632D02*
X81027157Y-92809632D01*
X81027157Y-92809632D02*
X81122395Y-92762013D01*
X81122395Y-92762013D02*
X81170014Y-92666775D01*
X81170014Y-92666775D02*
X81170014Y-92523918D01*
X81170014Y-92523918D02*
X81217633Y-92428680D01*
X81217633Y-92428680D02*
X81312871Y-92381061D01*
X81312871Y-92381061D02*
X81360490Y-92381061D01*
X81360490Y-92381061D02*
X81455728Y-92428680D01*
X81455728Y-92428680D02*
X81503347Y-92523918D01*
X81503347Y-92523918D02*
X81503347Y-92666775D01*
X81503347Y-92666775D02*
X81455728Y-92762013D01*
X80884300Y-93619156D02*
X80836680Y-93523918D01*
X80836680Y-93523918D02*
X80836680Y-93333442D01*
X80836680Y-93333442D02*
X80884300Y-93238204D01*
X80884300Y-93238204D02*
X80979538Y-93190585D01*
X80979538Y-93190585D02*
X81360490Y-93190585D01*
X81360490Y-93190585D02*
X81455728Y-93238204D01*
X81455728Y-93238204D02*
X81503347Y-93333442D01*
X81503347Y-93333442D02*
X81503347Y-93523918D01*
X81503347Y-93523918D02*
X81455728Y-93619156D01*
X81455728Y-93619156D02*
X81360490Y-93666775D01*
X81360490Y-93666775D02*
X81265252Y-93666775D01*
X81265252Y-93666775D02*
X81170014Y-93190585D01*
X81503347Y-93952490D02*
X81503347Y-94333442D01*
X81836680Y-94095347D02*
X80979538Y-94095347D01*
X80979538Y-94095347D02*
X80884300Y-94142966D01*
X80884300Y-94142966D02*
X80836680Y-94238204D01*
X80836680Y-94238204D02*
X80836680Y-94333442D01*
X80633219Y-121313533D02*
X81347504Y-121313533D01*
X81347504Y-121313533D02*
X81490361Y-121361152D01*
X81490361Y-121361152D02*
X81585600Y-121456390D01*
X81585600Y-121456390D02*
X81633219Y-121599247D01*
X81633219Y-121599247D02*
X81633219Y-121694485D01*
X80728457Y-120884961D02*
X80680838Y-120837342D01*
X80680838Y-120837342D02*
X80633219Y-120742104D01*
X80633219Y-120742104D02*
X80633219Y-120504009D01*
X80633219Y-120504009D02*
X80680838Y-120408771D01*
X80680838Y-120408771D02*
X80728457Y-120361152D01*
X80728457Y-120361152D02*
X80823695Y-120313533D01*
X80823695Y-120313533D02*
X80918933Y-120313533D01*
X80918933Y-120313533D02*
X81061790Y-120361152D01*
X81061790Y-120361152D02*
X81633219Y-120932580D01*
X81633219Y-120932580D02*
X81633219Y-120313533D01*
X101537419Y-99977533D02*
X102251704Y-99977533D01*
X102251704Y-99977533D02*
X102394561Y-100025152D01*
X102394561Y-100025152D02*
X102489800Y-100120390D01*
X102489800Y-100120390D02*
X102537419Y-100263247D01*
X102537419Y-100263247D02*
X102537419Y-100358485D01*
X101537419Y-99072771D02*
X101537419Y-99263247D01*
X101537419Y-99263247D02*
X101585038Y-99358485D01*
X101585038Y-99358485D02*
X101632657Y-99406104D01*
X101632657Y-99406104D02*
X101775514Y-99501342D01*
X101775514Y-99501342D02*
X101965990Y-99548961D01*
X101965990Y-99548961D02*
X102346942Y-99548961D01*
X102346942Y-99548961D02*
X102442180Y-99501342D01*
X102442180Y-99501342D02*
X102489800Y-99453723D01*
X102489800Y-99453723D02*
X102537419Y-99358485D01*
X102537419Y-99358485D02*
X102537419Y-99168009D01*
X102537419Y-99168009D02*
X102489800Y-99072771D01*
X102489800Y-99072771D02*
X102442180Y-99025152D01*
X102442180Y-99025152D02*
X102346942Y-98977533D01*
X102346942Y-98977533D02*
X102108847Y-98977533D01*
X102108847Y-98977533D02*
X102013609Y-99025152D01*
X102013609Y-99025152D02*
X101965990Y-99072771D01*
X101965990Y-99072771D02*
X101918371Y-99168009D01*
X101918371Y-99168009D02*
X101918371Y-99358485D01*
X101918371Y-99358485D02*
X101965990Y-99453723D01*
X101965990Y-99453723D02*
X102013609Y-99501342D01*
X102013609Y-99501342D02*
X102108847Y-99548961D01*
X104854476Y-79723819D02*
X104854476Y-80438104D01*
X104854476Y-80438104D02*
X104806857Y-80580961D01*
X104806857Y-80580961D02*
X104711619Y-80676200D01*
X104711619Y-80676200D02*
X104568762Y-80723819D01*
X104568762Y-80723819D02*
X104473524Y-80723819D01*
X105854476Y-80723819D02*
X105283048Y-80723819D01*
X105568762Y-80723819D02*
X105568762Y-79723819D01*
X105568762Y-79723819D02*
X105473524Y-79866676D01*
X105473524Y-79866676D02*
X105378286Y-79961914D01*
X105378286Y-79961914D02*
X105283048Y-80009533D01*
X106473524Y-79723819D02*
X106568762Y-79723819D01*
X106568762Y-79723819D02*
X106664000Y-79771438D01*
X106664000Y-79771438D02*
X106711619Y-79819057D01*
X106711619Y-79819057D02*
X106759238Y-79914295D01*
X106759238Y-79914295D02*
X106806857Y-80104771D01*
X106806857Y-80104771D02*
X106806857Y-80342866D01*
X106806857Y-80342866D02*
X106759238Y-80533342D01*
X106759238Y-80533342D02*
X106711619Y-80628580D01*
X106711619Y-80628580D02*
X106664000Y-80676200D01*
X106664000Y-80676200D02*
X106568762Y-80723819D01*
X106568762Y-80723819D02*
X106473524Y-80723819D01*
X106473524Y-80723819D02*
X106378286Y-80676200D01*
X106378286Y-80676200D02*
X106330667Y-80628580D01*
X106330667Y-80628580D02*
X106283048Y-80533342D01*
X106283048Y-80533342D02*
X106235429Y-80342866D01*
X106235429Y-80342866D02*
X106235429Y-80104771D01*
X106235429Y-80104771D02*
X106283048Y-79914295D01*
X106283048Y-79914295D02*
X106330667Y-79819057D01*
X106330667Y-79819057D02*
X106378286Y-79771438D01*
X106378286Y-79771438D02*
X106473524Y-79723819D01*
X83983533Y-90193019D02*
X83507343Y-90193019D01*
X83507343Y-90193019D02*
X83507343Y-89193019D01*
X84269248Y-89288257D02*
X84316867Y-89240638D01*
X84316867Y-89240638D02*
X84412105Y-89193019D01*
X84412105Y-89193019D02*
X84650200Y-89193019D01*
X84650200Y-89193019D02*
X84745438Y-89240638D01*
X84745438Y-89240638D02*
X84793057Y-89288257D01*
X84793057Y-89288257D02*
X84840676Y-89383495D01*
X84840676Y-89383495D02*
X84840676Y-89478733D01*
X84840676Y-89478733D02*
X84793057Y-89621590D01*
X84793057Y-89621590D02*
X84221629Y-90193019D01*
X84221629Y-90193019D02*
X84840676Y-90193019D01*
X89320019Y-121364333D02*
X90034304Y-121364333D01*
X90034304Y-121364333D02*
X90177161Y-121411952D01*
X90177161Y-121411952D02*
X90272400Y-121507190D01*
X90272400Y-121507190D02*
X90320019Y-121650047D01*
X90320019Y-121650047D02*
X90320019Y-121745285D01*
X89320019Y-120983380D02*
X89320019Y-120316714D01*
X89320019Y-120316714D02*
X90320019Y-120745285D01*
X104589342Y-123498780D02*
X104541723Y-123546400D01*
X104541723Y-123546400D02*
X104398866Y-123594019D01*
X104398866Y-123594019D02*
X104303628Y-123594019D01*
X104303628Y-123594019D02*
X104160771Y-123546400D01*
X104160771Y-123546400D02*
X104065533Y-123451161D01*
X104065533Y-123451161D02*
X104017914Y-123355923D01*
X104017914Y-123355923D02*
X103970295Y-123165447D01*
X103970295Y-123165447D02*
X103970295Y-123022590D01*
X103970295Y-123022590D02*
X104017914Y-122832114D01*
X104017914Y-122832114D02*
X104065533Y-122736876D01*
X104065533Y-122736876D02*
X104160771Y-122641638D01*
X104160771Y-122641638D02*
X104303628Y-122594019D01*
X104303628Y-122594019D02*
X104398866Y-122594019D01*
X104398866Y-122594019D02*
X104541723Y-122641638D01*
X104541723Y-122641638D02*
X104589342Y-122689257D01*
X105541723Y-123594019D02*
X104970295Y-123594019D01*
X105256009Y-123594019D02*
X105256009Y-122594019D01*
X105256009Y-122594019D02*
X105160771Y-122736876D01*
X105160771Y-122736876D02*
X105065533Y-122832114D01*
X105065533Y-122832114D02*
X104970295Y-122879733D01*
X106160771Y-122594019D02*
X106256009Y-122594019D01*
X106256009Y-122594019D02*
X106351247Y-122641638D01*
X106351247Y-122641638D02*
X106398866Y-122689257D01*
X106398866Y-122689257D02*
X106446485Y-122784495D01*
X106446485Y-122784495D02*
X106494104Y-122974971D01*
X106494104Y-122974971D02*
X106494104Y-123213066D01*
X106494104Y-123213066D02*
X106446485Y-123403542D01*
X106446485Y-123403542D02*
X106398866Y-123498780D01*
X106398866Y-123498780D02*
X106351247Y-123546400D01*
X106351247Y-123546400D02*
X106256009Y-123594019D01*
X106256009Y-123594019D02*
X106160771Y-123594019D01*
X106160771Y-123594019D02*
X106065533Y-123546400D01*
X106065533Y-123546400D02*
X106017914Y-123498780D01*
X106017914Y-123498780D02*
X105970295Y-123403542D01*
X105970295Y-123403542D02*
X105922676Y-123213066D01*
X105922676Y-123213066D02*
X105922676Y-122974971D01*
X105922676Y-122974971D02*
X105970295Y-122784495D01*
X105970295Y-122784495D02*
X106017914Y-122689257D01*
X106017914Y-122689257D02*
X106065533Y-122641638D01*
X106065533Y-122641638D02*
X106160771Y-122594019D01*
X98387819Y-115344533D02*
X99102104Y-115344533D01*
X99102104Y-115344533D02*
X99244961Y-115392152D01*
X99244961Y-115392152D02*
X99340200Y-115487390D01*
X99340200Y-115487390D02*
X99387819Y-115630247D01*
X99387819Y-115630247D02*
X99387819Y-115725485D01*
X98387819Y-114963580D02*
X98387819Y-114344533D01*
X98387819Y-114344533D02*
X98768771Y-114677866D01*
X98768771Y-114677866D02*
X98768771Y-114535009D01*
X98768771Y-114535009D02*
X98816390Y-114439771D01*
X98816390Y-114439771D02*
X98864009Y-114392152D01*
X98864009Y-114392152D02*
X98959247Y-114344533D01*
X98959247Y-114344533D02*
X99197342Y-114344533D01*
X99197342Y-114344533D02*
X99292580Y-114392152D01*
X99292580Y-114392152D02*
X99340200Y-114439771D01*
X99340200Y-114439771D02*
X99387819Y-114535009D01*
X99387819Y-114535009D02*
X99387819Y-114820723D01*
X99387819Y-114820723D02*
X99340200Y-114915961D01*
X99340200Y-114915961D02*
X99292580Y-114963580D01*
X83094580Y-83792219D02*
X82761247Y-83316028D01*
X82523152Y-83792219D02*
X82523152Y-82792219D01*
X82523152Y-82792219D02*
X82904104Y-82792219D01*
X82904104Y-82792219D02*
X82999342Y-82839838D01*
X82999342Y-82839838D02*
X83046961Y-82887457D01*
X83046961Y-82887457D02*
X83094580Y-82982695D01*
X83094580Y-82982695D02*
X83094580Y-83125552D01*
X83094580Y-83125552D02*
X83046961Y-83220790D01*
X83046961Y-83220790D02*
X82999342Y-83268409D01*
X82999342Y-83268409D02*
X82904104Y-83316028D01*
X82904104Y-83316028D02*
X82523152Y-83316028D01*
X83808866Y-82792219D02*
X83808866Y-83506504D01*
X83808866Y-83506504D02*
X83761247Y-83649361D01*
X83761247Y-83649361D02*
X83666009Y-83744600D01*
X83666009Y-83744600D02*
X83523152Y-83792219D01*
X83523152Y-83792219D02*
X83427914Y-83792219D01*
X84808866Y-83792219D02*
X84237438Y-83792219D01*
X84523152Y-83792219D02*
X84523152Y-82792219D01*
X84523152Y-82792219D02*
X84427914Y-82935076D01*
X84427914Y-82935076D02*
X84332676Y-83030314D01*
X84332676Y-83030314D02*
X84237438Y-83077933D01*
X104513142Y-117351980D02*
X104465523Y-117399600D01*
X104465523Y-117399600D02*
X104322666Y-117447219D01*
X104322666Y-117447219D02*
X104227428Y-117447219D01*
X104227428Y-117447219D02*
X104084571Y-117399600D01*
X104084571Y-117399600D02*
X103989333Y-117304361D01*
X103989333Y-117304361D02*
X103941714Y-117209123D01*
X103941714Y-117209123D02*
X103894095Y-117018647D01*
X103894095Y-117018647D02*
X103894095Y-116875790D01*
X103894095Y-116875790D02*
X103941714Y-116685314D01*
X103941714Y-116685314D02*
X103989333Y-116590076D01*
X103989333Y-116590076D02*
X104084571Y-116494838D01*
X104084571Y-116494838D02*
X104227428Y-116447219D01*
X104227428Y-116447219D02*
X104322666Y-116447219D01*
X104322666Y-116447219D02*
X104465523Y-116494838D01*
X104465523Y-116494838D02*
X104513142Y-116542457D01*
X105465523Y-117447219D02*
X104894095Y-117447219D01*
X105179809Y-117447219D02*
X105179809Y-116447219D01*
X105179809Y-116447219D02*
X105084571Y-116590076D01*
X105084571Y-116590076D02*
X104989333Y-116685314D01*
X104989333Y-116685314D02*
X104894095Y-116732933D01*
X105798857Y-116447219D02*
X106417904Y-116447219D01*
X106417904Y-116447219D02*
X106084571Y-116828171D01*
X106084571Y-116828171D02*
X106227428Y-116828171D01*
X106227428Y-116828171D02*
X106322666Y-116875790D01*
X106322666Y-116875790D02*
X106370285Y-116923409D01*
X106370285Y-116923409D02*
X106417904Y-117018647D01*
X106417904Y-117018647D02*
X106417904Y-117256742D01*
X106417904Y-117256742D02*
X106370285Y-117351980D01*
X106370285Y-117351980D02*
X106322666Y-117399600D01*
X106322666Y-117399600D02*
X106227428Y-117447219D01*
X106227428Y-117447219D02*
X105941714Y-117447219D01*
X105941714Y-117447219D02*
X105846476Y-117399600D01*
X105846476Y-117399600D02*
X105798857Y-117351980D01*
X101435819Y-90477933D02*
X102150104Y-90477933D01*
X102150104Y-90477933D02*
X102292961Y-90525552D01*
X102292961Y-90525552D02*
X102388200Y-90620790D01*
X102388200Y-90620790D02*
X102435819Y-90763647D01*
X102435819Y-90763647D02*
X102435819Y-90858885D01*
X101769152Y-89573171D02*
X102435819Y-89573171D01*
X101388200Y-89811266D02*
X102102485Y-90049361D01*
X102102485Y-90049361D02*
X102102485Y-89430314D01*
X98032219Y-105794133D02*
X98746504Y-105794133D01*
X98746504Y-105794133D02*
X98889361Y-105841752D01*
X98889361Y-105841752D02*
X98984600Y-105936990D01*
X98984600Y-105936990D02*
X99032219Y-106079847D01*
X99032219Y-106079847D02*
X99032219Y-106175085D01*
X98032219Y-104841752D02*
X98032219Y-105317942D01*
X98032219Y-105317942D02*
X98508409Y-105365561D01*
X98508409Y-105365561D02*
X98460790Y-105317942D01*
X98460790Y-105317942D02*
X98413171Y-105222704D01*
X98413171Y-105222704D02*
X98413171Y-104984609D01*
X98413171Y-104984609D02*
X98460790Y-104889371D01*
X98460790Y-104889371D02*
X98508409Y-104841752D01*
X98508409Y-104841752D02*
X98603647Y-104794133D01*
X98603647Y-104794133D02*
X98841742Y-104794133D01*
X98841742Y-104794133D02*
X98936980Y-104841752D01*
X98936980Y-104841752D02*
X98984600Y-104889371D01*
X98984600Y-104889371D02*
X99032219Y-104984609D01*
X99032219Y-104984609D02*
X99032219Y-105222704D01*
X99032219Y-105222704D02*
X98984600Y-105317942D01*
X98984600Y-105317942D02*
X98936980Y-105365561D01*
X85442466Y-129274219D02*
X85442466Y-129988504D01*
X85442466Y-129988504D02*
X85394847Y-130131361D01*
X85394847Y-130131361D02*
X85299609Y-130226600D01*
X85299609Y-130226600D02*
X85156752Y-130274219D01*
X85156752Y-130274219D02*
X85061514Y-130274219D01*
X86442466Y-130274219D02*
X85871038Y-130274219D01*
X86156752Y-130274219D02*
X86156752Y-129274219D01*
X86156752Y-129274219D02*
X86061514Y-129417076D01*
X86061514Y-129417076D02*
X85966276Y-129512314D01*
X85966276Y-129512314D02*
X85871038Y-129559933D01*
D11*
%TO.C,J2*%
X74642000Y-121957000D02*
X74642000Y-97787000D01*
X75492000Y-121957000D02*
X74642000Y-121957000D01*
X79012000Y-121957000D02*
X79862000Y-121957000D01*
X79862000Y-121957000D02*
X79862000Y-119632000D01*
X79862000Y-119632000D02*
X82252000Y-119632000D01*
X74642000Y-97787000D02*
X75492000Y-97787000D01*
X79012000Y-97787000D02*
X79862000Y-97787000D01*
X79862000Y-97787000D02*
X79862000Y-100112000D01*
%TO.C,J6*%
X108254000Y-92689000D02*
X108254000Y-100859000D01*
X107404000Y-92689000D02*
X108254000Y-92689000D01*
X103884000Y-92689000D02*
X103034000Y-92689000D01*
X103034000Y-92689000D02*
X103034000Y-95014000D01*
X103034000Y-95014000D02*
X100644000Y-95014000D01*
X108254000Y-100859000D02*
X107404000Y-100859000D01*
X103884000Y-100859000D02*
X103034000Y-100859000D01*
X103034000Y-100859000D02*
X103034000Y-98534000D01*
%TO.C,D26*%
X78701000Y-84555000D02*
X78701000Y-83085000D01*
X78701000Y-83085000D02*
X76416000Y-83085000D01*
X76416000Y-84555000D02*
X78701000Y-84555000D01*
%TO.C,J10*%
X110364000Y-76524000D02*
X110364000Y-74524000D01*
X110364000Y-72624000D02*
X110364000Y-70724000D01*
X110364000Y-70724000D02*
X100964000Y-70724000D01*
X100964000Y-76524000D02*
X100964000Y-74524000D01*
X100964000Y-72624000D02*
X100964000Y-70724000D01*
D12*
%TO.C,L2*%
X83132000Y-88773000D02*
X83132000Y-92454000D01*
X83132000Y-88773000D02*
X84762000Y-88773000D01*
X83132000Y-97155000D02*
X83132000Y-93474000D01*
X84762000Y-97155000D02*
X83132000Y-97155000D01*
X95070000Y-88792000D02*
X96700000Y-88792000D01*
X96700000Y-88792000D02*
X96700000Y-97028000D01*
X96700000Y-97028000D02*
X95070000Y-97028000D01*
X83132000Y-92454000D02*
G75*
G02*
X83132000Y-93474000I0J-510000D01*
G01*
D13*
X84147000Y-97917000D02*
G75*
G02*
X83747000Y-97917000I-200000J0D01*
G01*
X83747000Y-97917000D02*
G75*
G02*
X84147000Y-97917000I200000J0D01*
G01*
D11*
%TO.C,D19*%
X78701000Y-86587000D02*
X78701000Y-85117000D01*
X78701000Y-85117000D02*
X76416000Y-85117000D01*
X76416000Y-86587000D02*
X78701000Y-86587000D01*
%TO.C,J7*%
X83532000Y-121893000D02*
X83532000Y-101723000D01*
X84382000Y-121893000D02*
X83532000Y-121893000D01*
X87902000Y-121893000D02*
X88752000Y-121893000D01*
X88752000Y-121893000D02*
X88752000Y-119568000D01*
X88752000Y-119568000D02*
X91142000Y-119568000D01*
X83532000Y-101723000D02*
X84382000Y-101723000D01*
X87902000Y-101723000D02*
X88752000Y-101723000D01*
X88752000Y-101723000D02*
X88752000Y-104048000D01*
%TO.C,C43*%
X115160000Y-126828748D02*
X115160000Y-128251252D01*
X113340000Y-126828748D02*
X113340000Y-128251252D01*
%TO.C,C10*%
X101531000Y-123283000D02*
X102156000Y-123283000D01*
X101843500Y-122970500D02*
X101843500Y-123595500D01*
X102396000Y-123272437D02*
X102396000Y-123908000D01*
X102396000Y-123272437D02*
X103460437Y-122208000D01*
X102396000Y-126663563D02*
X102396000Y-126028000D01*
X102396000Y-126663563D02*
X103460437Y-127728000D01*
X103460437Y-122208000D02*
X107916000Y-122208000D01*
X103460437Y-127728000D02*
X107916000Y-127728000D01*
X107916000Y-122208000D02*
X107916000Y-123908000D01*
X107916000Y-127728000D02*
X107916000Y-126028000D01*
%TO.C,J3*%
X92422000Y-121957000D02*
X92422000Y-113787000D01*
X93272000Y-121957000D02*
X92422000Y-121957000D01*
X96792000Y-121957000D02*
X97642000Y-121957000D01*
X97642000Y-121957000D02*
X97642000Y-119632000D01*
X97642000Y-119632000D02*
X100032000Y-119632000D01*
X92422000Y-113787000D02*
X93272000Y-113787000D01*
X96792000Y-113787000D02*
X97642000Y-113787000D01*
X97642000Y-113787000D02*
X97642000Y-116112000D01*
%TO.C,C42*%
X111300000Y-99287836D02*
X111300000Y-99072164D01*
X112020000Y-99287836D02*
X112020000Y-99072164D01*
%TO.C,D27*%
X78701000Y-82523000D02*
X78701000Y-81053000D01*
X78701000Y-81053000D02*
X76416000Y-81053000D01*
X76416000Y-82523000D02*
X78701000Y-82523000D01*
%TO.C,C45*%
X111267836Y-102940000D02*
X111052164Y-102940000D01*
X111267836Y-102220000D02*
X111052164Y-102220000D01*
D12*
%TO.C,RJ1*%
X98046000Y-78165000D02*
X98046000Y-70805000D01*
X98046000Y-70805000D02*
X81786000Y-70805000D01*
X81786000Y-70805000D02*
X81786000Y-78295000D01*
X81786000Y-81465000D02*
X81786000Y-86675000D01*
X81786000Y-86675000D02*
X98046000Y-86675000D01*
X98046000Y-86675000D02*
X98046000Y-81465000D01*
D11*
%TO.C,C13*%
X101505000Y-117285000D02*
X102130000Y-117285000D01*
X101817500Y-116972500D02*
X101817500Y-117597500D01*
X102370000Y-117274437D02*
X102370000Y-117910000D01*
X102370000Y-117274437D02*
X103434437Y-116210000D01*
X102370000Y-120665563D02*
X102370000Y-120030000D01*
X102370000Y-120665563D02*
X103434437Y-121730000D01*
X103434437Y-116210000D02*
X107890000Y-116210000D01*
X103434437Y-121730000D02*
X107890000Y-121730000D01*
X107890000Y-116210000D02*
X107890000Y-117910000D01*
X107890000Y-121730000D02*
X107890000Y-120030000D01*
%TO.C,J4*%
X108254000Y-82783000D02*
X108254000Y-90953000D01*
X107404000Y-82783000D02*
X108254000Y-82783000D01*
X103884000Y-82783000D02*
X103034000Y-82783000D01*
X103034000Y-82783000D02*
X103034000Y-85108000D01*
X103034000Y-85108000D02*
X100644000Y-85108000D01*
X108254000Y-90953000D02*
X107404000Y-90953000D01*
X103884000Y-90953000D02*
X103034000Y-90953000D01*
X103034000Y-90953000D02*
X103034000Y-88628000D01*
%TO.C,J5*%
X92422000Y-112305000D02*
X92422000Y-104135000D01*
X93272000Y-112305000D02*
X92422000Y-112305000D01*
X96792000Y-112305000D02*
X97642000Y-112305000D01*
X97642000Y-112305000D02*
X97642000Y-109980000D01*
X97642000Y-109980000D02*
X100032000Y-109980000D01*
X92422000Y-104135000D02*
X93272000Y-104135000D01*
X96792000Y-104135000D02*
X97642000Y-104135000D01*
X97642000Y-104135000D02*
X97642000Y-106460000D01*
%TO.C,C44*%
X108111252Y-130440000D02*
X106688748Y-130440000D01*
X108111252Y-128620000D02*
X106688748Y-128620000D01*
D12*
%TO.C,SW1*%
X75852000Y-93454000D02*
X75852000Y-91554000D01*
X75852000Y-91554000D02*
X76752000Y-90654000D01*
X76752000Y-90654000D02*
X78552000Y-90654000D01*
X78552000Y-90654000D02*
X79552000Y-91654000D01*
X79552000Y-91654000D02*
X79552000Y-93354000D01*
X79552000Y-93354000D02*
X78652000Y-94254000D01*
X78652000Y-94254000D02*
X76652000Y-94254000D01*
X76652000Y-94254000D02*
X75852000Y-93454000D01*
X75102000Y-91174000D02*
X75992000Y-90284000D01*
X76482000Y-89904000D02*
X78822000Y-89904000D01*
X79312000Y-90284000D02*
X80202000Y-91174000D01*
X76482000Y-95004000D02*
X78822000Y-95004000D01*
X79312000Y-94624000D02*
X80202000Y-93734000D01*
X75102000Y-93734000D02*
X75992000Y-94624000D01*
X80202000Y-93734000D02*
X80202000Y-91174000D01*
X75102000Y-93734000D02*
X75102000Y-91174000D01*
X78932000Y-92454000D02*
G75*
G02*
X76372000Y-92454000I-1280000J0D01*
G01*
X76372000Y-92454000D02*
G75*
G02*
X78932000Y-92454000I1280000J0D01*
G01*
D11*
%TO.C,J1*%
X74893000Y-123156000D02*
X87063000Y-123156000D01*
X74893000Y-124006000D02*
X74893000Y-123156000D01*
X74893000Y-127526000D02*
X74893000Y-128376000D01*
X74893000Y-128376000D02*
X77218000Y-128376000D01*
X77218000Y-128376000D02*
X77218000Y-130766000D01*
X87063000Y-123156000D02*
X87063000Y-124006000D01*
X87063000Y-127526000D02*
X87063000Y-128376000D01*
X87063000Y-128376000D02*
X84738000Y-128376000D01*
%TD*%
%LPC*%
D14*
%TO.C,J2*%
X79502000Y-118872000D03*
X79502000Y-116872000D03*
X79502000Y-114872000D03*
X79502000Y-112872000D03*
X79502000Y-110872000D03*
X79502000Y-108872000D03*
X79502000Y-106872000D03*
X79502000Y-104872000D03*
X79502000Y-102872000D03*
X79502000Y-100872000D03*
D15*
X77252000Y-121272000D03*
X77252000Y-98472000D03*
%TD*%
D16*
%TO.C,J6*%
X103394000Y-95774000D03*
X103394000Y-97774000D03*
D17*
X105644000Y-93374000D03*
X105644000Y-100174000D03*
%TD*%
D18*
%TO.C,D26*%
X78003500Y-83820000D03*
X76428500Y-83820000D03*
%TD*%
D19*
%TO.C,L4*%
X111660000Y-100595000D03*
X111660000Y-101565000D03*
%TD*%
D20*
%TO.C,J10*%
X108554000Y-77224000D03*
X102774000Y-77224000D03*
D21*
X108914000Y-78669000D03*
X108114000Y-78669000D03*
D22*
X106914000Y-78669000D03*
X105914000Y-78669000D03*
X105414000Y-78669000D03*
X104414000Y-78669000D03*
D21*
X103214000Y-78669000D03*
X102414000Y-78669000D03*
X102414000Y-78669000D03*
X103214000Y-78669000D03*
D22*
X103914000Y-78669000D03*
X104914000Y-78669000D03*
X106414000Y-78669000D03*
X107414000Y-78669000D03*
D21*
X108114000Y-78669000D03*
X108914000Y-78669000D03*
D23*
X109984000Y-77754000D03*
D24*
X109984000Y-73574000D03*
D23*
X101344000Y-77754000D03*
D24*
X101344000Y-73574000D03*
%TD*%
D25*
%TO.C,H3*%
X96160000Y-128080000D03*
%TD*%
D26*
%TO.C,L2*%
X85471000Y-97164000D03*
X86741000Y-97164000D03*
X88011000Y-97164000D03*
X89281000Y-97164000D03*
X90551000Y-97164000D03*
X91821000Y-97164000D03*
X93091000Y-97164000D03*
X94361000Y-97164000D03*
X94361000Y-88764000D03*
X93091000Y-88764000D03*
X91821000Y-88764000D03*
X90551000Y-88764000D03*
X89281000Y-88764000D03*
X88011000Y-88764000D03*
X86741000Y-88764000D03*
X85471000Y-88764000D03*
%TD*%
D18*
%TO.C,D19*%
X78003500Y-85852000D03*
X76428500Y-85852000D03*
%TD*%
D25*
%TO.C,H2*%
X115062000Y-75692000D03*
%TD*%
D14*
%TO.C,J7*%
X88392000Y-118808000D03*
X88392000Y-116808000D03*
X88392000Y-114808000D03*
X88392000Y-112808000D03*
X88392000Y-110808000D03*
X88392000Y-108808000D03*
X88392000Y-106808000D03*
X88392000Y-104808000D03*
D15*
X86142000Y-121208000D03*
X86142000Y-102408000D03*
%TD*%
D27*
%TO.C,H1*%
X76962000Y-75438000D03*
D28*
X76962000Y-75438000D03*
%TD*%
D29*
%TO.C,C43*%
X114250000Y-126065000D03*
X114250000Y-129015000D03*
%TD*%
D30*
%TO.C,C10*%
X102956000Y-124968000D03*
X107356000Y-124968000D03*
%TD*%
D14*
%TO.C,J3*%
X97282000Y-118872000D03*
X97282000Y-116872000D03*
D15*
X95032000Y-121272000D03*
X95032000Y-114472000D03*
%TD*%
D31*
%TO.C,C42*%
X111660000Y-99660000D03*
X111660000Y-98700000D03*
%TD*%
D18*
%TO.C,D27*%
X78003500Y-81788000D03*
X76428500Y-81788000D03*
%TD*%
D32*
%TO.C,C45*%
X111640000Y-102580000D03*
X110680000Y-102580000D03*
%TD*%
D33*
%TO.C,RJ1*%
X98046000Y-79835000D03*
X81786000Y-79835000D03*
D34*
X83056000Y-85405000D03*
X85346000Y-85405000D03*
X94486000Y-85405000D03*
X96776000Y-85405000D03*
X93486000Y-80595000D03*
X92466000Y-78805000D03*
X91446000Y-80595000D03*
X90426000Y-78805000D03*
X89406000Y-80595000D03*
X88386000Y-78805000D03*
X87366000Y-80595000D03*
X86346000Y-78805000D03*
D35*
X96266000Y-76265000D03*
X83566000Y-76265000D03*
%TD*%
D30*
%TO.C,C13*%
X102930000Y-118970000D03*
X107330000Y-118970000D03*
%TD*%
D36*
%TO.C,U6*%
X110998000Y-80264000D03*
X110998000Y-82804000D03*
X110998000Y-85344000D03*
X110998000Y-87884000D03*
X110998000Y-123484000D03*
X110998000Y-126024000D03*
X110998000Y-128564000D03*
%TD*%
D16*
%TO.C,J4*%
X103394000Y-85868000D03*
X103394000Y-87868000D03*
D17*
X105644000Y-83468000D03*
X105644000Y-90268000D03*
%TD*%
D14*
%TO.C,J5*%
X97282000Y-109220000D03*
X97282000Y-107220000D03*
D15*
X95032000Y-111620000D03*
X95032000Y-104820000D03*
%TD*%
D37*
%TO.C,C44*%
X108875000Y-129530000D03*
X105925000Y-129530000D03*
%TD*%
D38*
%TO.C,SW1*%
X75802000Y-95754000D03*
X75802000Y-89154000D03*
X79502000Y-95754000D03*
X79502000Y-89154000D03*
%TD*%
D39*
%TO.C,J1*%
X77978000Y-128016000D03*
X79978000Y-128016000D03*
X81978000Y-128016000D03*
X83978000Y-128016000D03*
D40*
X75578000Y-125766000D03*
X86378000Y-125766000D03*
%TD*%
D41*
%TO.C,J9*%
X117005000Y-120005000D03*
X111925000Y-118989000D03*
X111925000Y-121021000D03*
%TD*%
%LPD*%
M02*
