%TF.GenerationSoftware,KiCad,Pcbnew,8.0.0*%
%TF.CreationDate,2024-03-22T12:56:57+01:00*%
%TF.ProjectId,WCH-ETH-LOW,5743482d-4554-4482-9d4c-4f572e6b6963,rev?*%
%TF.SameCoordinates,Original*%
%TF.FileFunction,Copper,L1,Top*%
%TF.FilePolarity,Positive*%
%FSLAX46Y46*%
G04 Gerber Fmt 4.6, Leading zero omitted, Abs format (unit mm)*
G04 Created by KiCad (PCBNEW 8.0.0) date 2024-03-22 12:56:57*
%MOMM*%
%LPD*%
G01*
G04 APERTURE LIST*
G04 Aperture macros list*
%AMRoundRect*
0 Rectangle with rounded corners*
0 $1 Rounding radius*
0 $2 $3 $4 $5 $6 $7 $8 $9 X,Y pos of 4 corners*
0 Add a 4 corners polygon primitive as box body*
4,1,4,$2,$3,$4,$5,$6,$7,$8,$9,$2,$3,0*
0 Add four circle primitives for the rounded corners*
1,1,$1+$1,$2,$3*
1,1,$1+$1,$4,$5*
1,1,$1+$1,$6,$7*
1,1,$1+$1,$8,$9*
0 Add four rect primitives between the rounded corners*
20,1,$1+$1,$2,$3,$4,$5,0*
20,1,$1+$1,$4,$5,$6,$7,0*
20,1,$1+$1,$6,$7,$8,$9,0*
20,1,$1+$1,$8,$9,$2,$3,0*%
G04 Aperture macros list end*
%TA.AperFunction,EtchedComponent*%
%ADD10C,0.000000*%
%TD*%
%TA.AperFunction,SMDPad,CuDef*%
%ADD11RoundRect,0.250000X2.500000X-0.250000X2.500000X0.250000X-2.500000X0.250000X-2.500000X-0.250000X0*%
%TD*%
%TA.AperFunction,SMDPad,CuDef*%
%ADD12RoundRect,0.250000X1.250000X-0.550000X1.250000X0.550000X-1.250000X0.550000X-1.250000X-0.550000X0*%
%TD*%
%TA.AperFunction,SMDPad,CuDef*%
%ADD13RoundRect,0.250000X-2.500000X0.250000X-2.500000X-0.250000X2.500000X-0.250000X2.500000X0.250000X0*%
%TD*%
%TA.AperFunction,SMDPad,CuDef*%
%ADD14RoundRect,0.250000X-1.250000X0.550000X-1.250000X-0.550000X1.250000X-0.550000X1.250000X0.550000X0*%
%TD*%
%TA.AperFunction,SMDPad,CuDef*%
%ADD15RoundRect,0.218750X0.218750X0.256250X-0.218750X0.256250X-0.218750X-0.256250X0.218750X-0.256250X0*%
%TD*%
%TA.AperFunction,SMDPad,CuDef*%
%ADD16RoundRect,0.147500X-0.172500X0.147500X-0.172500X-0.147500X0.172500X-0.147500X0.172500X0.147500X0*%
%TD*%
%TA.AperFunction,SMDPad,CuDef*%
%ADD17R,0.600000X1.450000*%
%TD*%
%TA.AperFunction,SMDPad,CuDef*%
%ADD18R,0.300000X1.450000*%
%TD*%
%TA.AperFunction,ComponentPad*%
%ADD19O,1.000000X2.100000*%
%TD*%
%TA.AperFunction,ComponentPad*%
%ADD20O,1.000000X1.600000*%
%TD*%
%TA.AperFunction,SMDPad,CuDef*%
%ADD21R,0.750000X2.000000*%
%TD*%
%TA.AperFunction,ComponentPad*%
%ADD22C,3.600000*%
%TD*%
%TA.AperFunction,ConnectorPad*%
%ADD23C,5.600000*%
%TD*%
%TA.AperFunction,SMDPad,CuDef*%
%ADD24RoundRect,0.250000X-0.650000X0.325000X-0.650000X-0.325000X0.650000X-0.325000X0.650000X0.325000X0*%
%TD*%
%TA.AperFunction,SMDPad,CuDef*%
%ADD25RoundRect,0.250000X-1.250000X-0.550000X1.250000X-0.550000X1.250000X0.550000X-1.250000X0.550000X0*%
%TD*%
%TA.AperFunction,SMDPad,CuDef*%
%ADD26RoundRect,0.140000X0.170000X-0.140000X0.170000X0.140000X-0.170000X0.140000X-0.170000X-0.140000X0*%
%TD*%
%TA.AperFunction,ConnectorPad*%
%ADD27R,0.500000X0.500000*%
%TD*%
%TA.AperFunction,ComponentPad*%
%ADD28R,0.500000X0.900000*%
%TD*%
%TA.AperFunction,SMDPad,CuDef*%
%ADD29RoundRect,0.140000X0.140000X0.170000X-0.140000X0.170000X-0.140000X-0.170000X0.140000X-0.170000X0*%
%TD*%
%TA.AperFunction,ComponentPad*%
%ADD30C,2.500000*%
%TD*%
%TA.AperFunction,ComponentPad*%
%ADD31C,1.520000*%
%TD*%
%TA.AperFunction,ComponentPad*%
%ADD32C,3.300000*%
%TD*%
%TA.AperFunction,ComponentPad*%
%ADD33C,1.524000*%
%TD*%
%TA.AperFunction,SMDPad,CuDef*%
%ADD34RoundRect,0.250000X0.325000X0.650000X-0.325000X0.650000X-0.325000X-0.650000X0.325000X-0.650000X0*%
%TD*%
%TA.AperFunction,SMDPad,CuDef*%
%ADD35R,1.000000X1.700000*%
%TD*%
%TA.AperFunction,SMDPad,CuDef*%
%ADD36RoundRect,0.250000X-0.250000X-2.500000X0.250000X-2.500000X0.250000X2.500000X-0.250000X2.500000X0*%
%TD*%
%TA.AperFunction,SMDPad,CuDef*%
%ADD37RoundRect,0.250000X-0.550000X-1.250000X0.550000X-1.250000X0.550000X1.250000X-0.550000X1.250000X0*%
%TD*%
%TA.AperFunction,ViaPad*%
%ADD38C,0.450000*%
%TD*%
%TA.AperFunction,Conductor*%
%ADD39C,0.500000*%
%TD*%
%TA.AperFunction,Conductor*%
%ADD40C,0.127000*%
%TD*%
%TA.AperFunction,Conductor*%
%ADD41C,0.250000*%
%TD*%
%TA.AperFunction,Conductor*%
%ADD42C,0.254000*%
%TD*%
%TA.AperFunction,Conductor*%
%ADD43C,0.090000*%
%TD*%
%TA.AperFunction,Conductor*%
%ADD44C,0.508000*%
%TD*%
G04 APERTURE END LIST*
D10*
%TA.AperFunction,EtchedComponent*%
%TO.C,AE1*%
G36*
X117885000Y-90480000D02*
G01*
X115245000Y-90480000D01*
X115245000Y-92480000D01*
X117885000Y-92480000D01*
X117885000Y-95180000D01*
X115245000Y-95180000D01*
X115245000Y-97180000D01*
X117885000Y-97180000D01*
X117885000Y-102180000D01*
X112728215Y-102180000D01*
X112485000Y-102180000D01*
X112485000Y-101755156D01*
X112588957Y-101755156D01*
X112601065Y-101797819D01*
X112605419Y-101805731D01*
X112638203Y-101843674D01*
X112680605Y-101867742D01*
X112728215Y-101877583D01*
X112776622Y-101872847D01*
X112821416Y-101853185D01*
X112858186Y-101818245D01*
X112875092Y-101785353D01*
X112882982Y-101737267D01*
X112876408Y-101687682D01*
X112856313Y-101642372D01*
X112823643Y-101607112D01*
X112791417Y-101590218D01*
X112743158Y-101581778D01*
X112693632Y-101588309D01*
X112648447Y-101608868D01*
X112613213Y-101642511D01*
X112602600Y-101661122D01*
X112589700Y-101706637D01*
X112588957Y-101755156D01*
X112485000Y-101755156D01*
X112485000Y-101280000D01*
X117385000Y-101280000D01*
X117385000Y-99880000D01*
X112485000Y-99880000D01*
X112485000Y-99380000D01*
X117385000Y-99380000D01*
X117385000Y-97680000D01*
X114745000Y-97680000D01*
X114745000Y-94680000D01*
X117385000Y-94680000D01*
X117385000Y-92980000D01*
X114745000Y-92980000D01*
X114745000Y-89980000D01*
X117385000Y-89980000D01*
X117385000Y-88280000D01*
X113445000Y-88280000D01*
X113445000Y-87780000D01*
X117885000Y-87780000D01*
X117885000Y-90480000D01*
G37*
%TD.AperFunction*%
%TD*%
D11*
%TO.P,J2,1,Pin_1*%
%TO.N,VCC*%
X79502000Y-118872000D03*
%TO.P,J2,2,Pin_2*%
%TO.N,Net-(J2-Pin_2)*%
X79502000Y-116872000D03*
%TO.P,J2,3,Pin_3*%
%TO.N,Net-(J2-Pin_3)*%
X79502000Y-114872000D03*
%TO.P,J2,4,Pin_4*%
%TO.N,Net-(J2-Pin_4)*%
X79502000Y-112872000D03*
%TO.P,J2,5,Pin_5*%
%TO.N,Net-(J2-Pin_5)*%
X79502000Y-110872000D03*
%TO.P,J2,6,Pin_6*%
%TO.N,Net-(J2-Pin_6)*%
X79502000Y-108872000D03*
%TO.P,J2,7,Pin_7*%
%TO.N,Net-(J2-Pin_7)*%
X79502000Y-106872000D03*
%TO.P,J2,8,Pin_8*%
%TO.N,Net-(J2-Pin_8)*%
X79502000Y-104872000D03*
%TO.P,J2,9,Pin_9*%
%TO.N,Net-(J2-Pin_9)*%
X79502000Y-102872000D03*
%TO.P,J2,10,Pin_10*%
%TO.N,GND*%
X79502000Y-100872000D03*
D12*
%TO.P,J2,MP*%
%TO.N,N/C*%
X77252000Y-121272000D03*
X77252000Y-98472000D03*
%TD*%
D13*
%TO.P,J6,1,Pin_1*%
%TO.N,Net-(D11-A2)*%
X103394000Y-95774000D03*
%TO.P,J6,2,Pin_2*%
%TO.N,Net-(D12-A2)*%
X103394000Y-97774000D03*
D14*
%TO.P,J6,MP*%
%TO.N,N/C*%
X105644000Y-93374000D03*
X105644000Y-100174000D03*
%TD*%
D15*
%TO.P,D26,1,K*%
%TO.N,StatLED01*%
X78003500Y-83820000D03*
%TO.P,D26,2,A*%
%TO.N,Net-(D26-A)*%
X76428500Y-83820000D03*
%TD*%
D16*
%TO.P,L4,1,1*%
%TO.N,Net-(AE1-A)*%
X111660000Y-100595000D03*
%TO.P,L4,2,2*%
%TO.N,Ant*%
X111660000Y-101565000D03*
%TD*%
D17*
%TO.P,J10,A1,GND*%
%TO.N,GND*%
X108914000Y-78669000D03*
%TO.P,J10,A4,VBUS*%
%TO.N,Net-(D28-A)*%
X108114000Y-78669000D03*
D18*
%TO.P,J10,A5,CC1*%
%TO.N,Net-(J10-CC1)*%
X106914000Y-78669000D03*
%TO.P,J10,A6,D+*%
%TO.N,Net-(J10-D+-PadA6)*%
X105914000Y-78669000D03*
%TO.P,J10,A7,D-*%
%TO.N,Net-(J10-D--PadA7)*%
X105414000Y-78669000D03*
%TO.P,J10,A8,SBU1*%
%TO.N,unconnected-(J10-SBU1-PadA8)*%
X104414000Y-78669000D03*
D17*
%TO.P,J10,A9,VBUS*%
%TO.N,Net-(D28-A)*%
X103214000Y-78669000D03*
%TO.P,J10,A12,GND*%
%TO.N,GND*%
X102414000Y-78669000D03*
%TO.P,J10,B1,GND*%
X102414000Y-78669000D03*
%TO.P,J10,B4,VBUS*%
%TO.N,Net-(D28-A)*%
X103214000Y-78669000D03*
D18*
%TO.P,J10,B5,CC2*%
%TO.N,Net-(J10-CC2)*%
X103914000Y-78669000D03*
%TO.P,J10,B6,D+*%
%TO.N,Net-(J10-D+-PadA6)*%
X104914000Y-78669000D03*
%TO.P,J10,B7,D-*%
%TO.N,Net-(J10-D--PadA7)*%
X106414000Y-78669000D03*
%TO.P,J10,B8,SBU2*%
%TO.N,unconnected-(J10-SBU2-PadB8)*%
X107414000Y-78669000D03*
D17*
%TO.P,J10,B9,VBUS*%
%TO.N,Net-(D28-A)*%
X108114000Y-78669000D03*
%TO.P,J10,B12,GND*%
%TO.N,GND*%
X108914000Y-78669000D03*
D19*
%TO.P,J10,S1,SHIELD*%
X109984000Y-77754000D03*
D20*
X109984000Y-73574000D03*
D19*
X101344000Y-77754000D03*
D20*
X101344000Y-73574000D03*
%TD*%
D21*
%TO.P,L2,1,TD+*%
%TO.N,ETH_TXP*%
X85471000Y-97164000D03*
%TO.P,L2,2,TCT*%
%TO.N,+3.3V*%
X86741000Y-97164000D03*
%TO.P,L2,3,TD-*%
%TO.N,ETH_TXN*%
X88011000Y-97164000D03*
%TO.P,L2,4*%
%TO.N,N/C*%
X89281000Y-97164000D03*
%TO.P,L2,5*%
X90551000Y-97164000D03*
%TO.P,L2,6,RD+*%
%TO.N,ETH_RXP*%
X91821000Y-97164000D03*
%TO.P,L2,7,RCT*%
%TO.N,+3.3V*%
X93091000Y-97164000D03*
%TO.P,L2,8,RD-*%
%TO.N,ETH_RXN*%
X94361000Y-97164000D03*
%TO.P,L2,9,RX-*%
%TO.N,Net-(L2-RX-)*%
X94361000Y-88764000D03*
%TO.P,L2,10,RXCT*%
%TO.N,Net-(L2-RXCT)*%
X93091000Y-88764000D03*
%TO.P,L2,11,RX+*%
%TO.N,Net-(L2-RX+)*%
X91821000Y-88764000D03*
%TO.P,L2,12*%
%TO.N,N/C*%
X90551000Y-88764000D03*
%TO.P,L2,13*%
X89281000Y-88764000D03*
%TO.P,L2,14,TX-*%
%TO.N,Net-(L2-TX-)*%
X88011000Y-88764000D03*
%TO.P,L2,15,TXCT*%
%TO.N,Net-(L2-TXCT)*%
X86741000Y-88764000D03*
%TO.P,L2,16,TX+*%
%TO.N,Net-(L2-TX+)*%
X85471000Y-88764000D03*
%TD*%
D15*
%TO.P,D19,1,K*%
%TO.N,StatLED00*%
X78003500Y-85852000D03*
%TO.P,D19,2,A*%
%TO.N,Net-(D19-A)*%
X76428500Y-85852000D03*
%TD*%
D11*
%TO.P,J7,1,Pin_1*%
%TO.N,VCC*%
X88392000Y-118808000D03*
%TO.P,J7,2,Pin_2*%
%TO.N,+3.3V*%
X88392000Y-116808000D03*
%TO.P,J7,3,Pin_3*%
%TO.N,Net-(D20-A2)*%
X88392000Y-114808000D03*
%TO.P,J7,4,Pin_4*%
%TO.N,Net-(D21-A2)*%
X88392000Y-112808000D03*
%TO.P,J7,5,Pin_5*%
%TO.N,Net-(D22-A2)*%
X88392000Y-110808000D03*
%TO.P,J7,6,Pin_6*%
%TO.N,Net-(D23-A2)*%
X88392000Y-108808000D03*
%TO.P,J7,7,Pin_7*%
%TO.N,Net-(D24-A2)*%
X88392000Y-106808000D03*
%TO.P,J7,8,Pin_8*%
%TO.N,Net-(D25-A2)*%
X88392000Y-104808000D03*
D12*
%TO.P,J7,MP*%
%TO.N,N/C*%
X86142000Y-121208000D03*
X86142000Y-102408000D03*
%TD*%
D22*
%TO.P,H1,1,1*%
%TO.N,Earth*%
X76962000Y-75438000D03*
D23*
X76962000Y-75438000D03*
%TD*%
D24*
%TO.P,C43,1*%
%TO.N,VCC*%
X114250000Y-126065000D03*
%TO.P,C43,2*%
%TO.N,GND*%
X114250000Y-129015000D03*
%TD*%
D25*
%TO.P,C10,1*%
%TO.N,VCC*%
X102956000Y-124968000D03*
%TO.P,C10,2*%
%TO.N,GND*%
X107356000Y-124968000D03*
%TD*%
D11*
%TO.P,J3,1,Pin_1*%
%TO.N,Net-(J3-Pin_1)*%
X97282000Y-118872000D03*
%TO.P,J3,2,Pin_2*%
%TO.N,GND*%
X97282000Y-116872000D03*
D12*
%TO.P,J3,MP*%
%TO.N,N/C*%
X95032000Y-121272000D03*
X95032000Y-114472000D03*
%TD*%
D26*
%TO.P,C42,1*%
%TO.N,Net-(AE1-A)*%
X111660000Y-99660000D03*
%TO.P,C42,2*%
%TO.N,GND*%
X111660000Y-98700000D03*
%TD*%
D27*
%TO.P,AE1,1,A*%
%TO.N,Net-(AE1-A)*%
X112735000Y-99630000D03*
D28*
%TO.P,AE1,2,Shield*%
%TO.N,GND*%
X112735000Y-101730000D03*
%TD*%
D15*
%TO.P,D27,1,K*%
%TO.N,StatLED02*%
X78003500Y-81788000D03*
%TO.P,D27,2,A*%
%TO.N,Net-(D27-A)*%
X76428500Y-81788000D03*
%TD*%
D29*
%TO.P,C45,1*%
%TO.N,Ant*%
X111640000Y-102580000D03*
%TO.P,C45,2*%
%TO.N,GND*%
X110680000Y-102580000D03*
%TD*%
D30*
%TO.P,RJ1,14,S*%
%TO.N,Earth*%
X98046000Y-79835000D03*
%TO.P,RJ1,13,S*%
X81786000Y-79835000D03*
D31*
%TO.P,RJ1,12,R-*%
%TO.N,Net-(RJ1-R-)*%
X83056000Y-85405000D03*
%TO.P,RJ1,11,R+*%
%TO.N,EthStatLEDR*%
X85346000Y-85405000D03*
%TO.P,RJ1,10,L-*%
%TO.N,EthStatLEDL*%
X94486000Y-85405000D03*
%TO.P,RJ1,9,L+*%
%TO.N,Net-(RJ1-L+)*%
X96776000Y-85405000D03*
%TO.P,RJ1,8,8*%
%TO.N,Net-(C37-Pad1)*%
X93486000Y-80595000D03*
%TO.P,RJ1,7,7*%
X92466000Y-78805000D03*
%TO.P,RJ1,6,6*%
%TO.N,Net-(L2-RX-)*%
X91446000Y-80595000D03*
%TO.P,RJ1,5,5*%
%TO.N,Net-(C36-Pad1)*%
X90426000Y-78805000D03*
%TO.P,RJ1,4,4*%
X89406000Y-80595000D03*
%TO.P,RJ1,3,3*%
%TO.N,Net-(L2-RX+)*%
X88386000Y-78805000D03*
%TO.P,RJ1,2,2*%
%TO.N,Net-(L2-TX-)*%
X87366000Y-80595000D03*
%TO.P,RJ1,1,1*%
%TO.N,Net-(L2-TX+)*%
X86346000Y-78805000D03*
D32*
%TO.P,RJ1,*%
%TO.N,*%
X96266000Y-76265000D03*
X83566000Y-76265000D03*
%TD*%
D25*
%TO.P,C13,1*%
%TO.N,+3.3V*%
X102930000Y-118970000D03*
%TO.P,C13,2*%
%TO.N,GND*%
X107330000Y-118970000D03*
%TD*%
D33*
%TO.P,U6,1,B1*%
%TO.N,Net-(L2-RXCT)*%
X110998000Y-80264000D03*
%TO.P,U6,2,B1*%
%TO.N,Net-(L2-TXCT)*%
X110998000Y-82804000D03*
%TO.P,U6,3,B2*%
%TO.N,Net-(C36-Pad1)*%
X110998000Y-85344000D03*
%TO.P,U6,4,B2*%
%TO.N,Net-(C37-Pad1)*%
X110998000Y-87884000D03*
%TO.P,U6,5,V-*%
%TO.N,GND*%
X110998000Y-123484000D03*
%TO.P,U6,6,V+*%
%TO.N,VCC*%
X110998000Y-126024000D03*
%TO.P,U6,7,Adj*%
%TO.N,unconnected-(U6-Adj-Pad7)*%
X110998000Y-128564000D03*
%TD*%
D13*
%TO.P,J4,1,Pin_1*%
%TO.N,Net-(D7-A2)*%
X103394000Y-85868000D03*
%TO.P,J4,2,Pin_2*%
%TO.N,Net-(D9-A2)*%
X103394000Y-87868000D03*
D14*
%TO.P,J4,MP*%
%TO.N,N/C*%
X105644000Y-83468000D03*
X105644000Y-90268000D03*
%TD*%
D11*
%TO.P,J5,1,Pin_1*%
%TO.N,Net-(D8-A2)*%
X97282000Y-109220000D03*
%TO.P,J5,2,Pin_2*%
%TO.N,Net-(D10-A2)*%
X97282000Y-107220000D03*
D12*
%TO.P,J5,MP*%
%TO.N,N/C*%
X95032000Y-111620000D03*
X95032000Y-104820000D03*
%TD*%
D34*
%TO.P,C44,1*%
%TO.N,VCC*%
X108875000Y-129530000D03*
%TO.P,C44,2*%
%TO.N,GND*%
X105925000Y-129530000D03*
%TD*%
D35*
%TO.P,SW1,1,1*%
%TO.N,GND*%
X75802000Y-95754000D03*
%TO.P,SW1,2,2*%
%TO.N,NRST*%
X75802000Y-89154000D03*
%TO.P,SW1,3*%
%TO.N,N/C*%
X79502000Y-95754000D03*
%TO.P,SW1,4*%
X79502000Y-89154000D03*
%TD*%
D36*
%TO.P,J1,1,Pin_1*%
%TO.N,VCC*%
X77978000Y-128016000D03*
%TO.P,J1,2,Pin_2*%
%TO.N,Net-(D1-A2)*%
X79978000Y-128016000D03*
%TO.P,J1,3,Pin_3*%
%TO.N,Net-(D2-A2)*%
X81978000Y-128016000D03*
%TO.P,J1,4,Pin_4*%
%TO.N,GND*%
X83978000Y-128016000D03*
D37*
%TO.P,J1,MP*%
%TO.N,N/C*%
X75578000Y-125766000D03*
X86378000Y-125766000D03*
%TD*%
D38*
%TO.N,GND*%
X84070000Y-110970000D03*
X84070000Y-108690000D03*
X84070000Y-115580000D03*
X95620000Y-116010000D03*
X97300000Y-108345500D03*
X80000000Y-83120000D03*
X102310000Y-110855000D03*
X91720000Y-122590000D03*
X74930000Y-95758000D03*
X102360000Y-131310000D03*
X105730000Y-130790000D03*
X90965000Y-122325000D03*
X110000000Y-115720000D03*
X112280000Y-90030000D03*
X91460000Y-111790000D03*
X99000000Y-85850000D03*
X103570000Y-126280000D03*
X84090000Y-120150000D03*
X79020000Y-129470000D03*
X102070000Y-91730000D03*
X80000000Y-82420000D03*
X108960000Y-89190000D03*
X89710000Y-113870000D03*
X82852500Y-128740000D03*
X107495176Y-84187081D03*
X84070000Y-113270000D03*
X86620000Y-111690000D03*
X90691500Y-105933500D03*
X110236000Y-102108000D03*
X103150000Y-96648500D03*
X74390000Y-82460000D03*
X113090000Y-128890000D03*
X74390000Y-83130000D03*
X97896000Y-119964000D03*
X82960000Y-129520000D03*
X113160000Y-107680000D03*
X113410000Y-115905000D03*
X84090000Y-104110000D03*
X87750000Y-109760000D03*
X82850000Y-120010000D03*
X102760000Y-108255000D03*
X108960000Y-84874500D03*
X76252500Y-100890000D03*
X108210000Y-111505000D03*
X91370000Y-115770000D03*
X88060000Y-115770000D03*
X85381240Y-106198660D03*
X95148400Y-97540000D03*
X86630000Y-107890000D03*
X85100000Y-109820000D03*
X80010000Y-101860000D03*
X83960000Y-131210000D03*
X106760000Y-82255000D03*
X113090000Y-129300000D03*
X116467500Y-129380000D03*
X106660000Y-117690000D03*
X86730000Y-92780000D03*
X86860000Y-103582500D03*
X84070000Y-117850000D03*
X113195000Y-121405000D03*
X106934000Y-75184000D03*
X103886000Y-75184000D03*
X115860000Y-105380000D03*
X91430000Y-107760000D03*
X96110000Y-87690000D03*
X107670000Y-123790000D03*
X103260000Y-113230000D03*
X84500000Y-105530000D03*
X94680000Y-102770000D03*
X101870000Y-131310000D03*
X101580114Y-123701856D03*
X106220000Y-130790000D03*
X111658400Y-98221800D03*
X78860000Y-128270000D03*
X108190000Y-101060000D03*
X89910000Y-92760000D03*
X107010000Y-123780000D03*
X81250000Y-124670000D03*
X112060000Y-95240000D03*
X92670000Y-92830000D03*
X107370000Y-117700000D03*
%TO.N,+3.3V*%
X102910000Y-109355000D03*
X92490000Y-124080000D03*
X89910000Y-94880000D03*
X86750000Y-95840000D03*
X93100000Y-95440000D03*
X114460000Y-115880000D03*
X94730000Y-83810000D03*
X105664000Y-82042000D03*
X76962000Y-89662000D03*
X115735000Y-121405000D03*
X93120000Y-94880000D03*
X107410000Y-101870000D03*
X92570502Y-97500000D03*
X102590000Y-116940000D03*
X110653196Y-114981031D03*
X110780000Y-89500000D03*
X115927500Y-127950000D03*
X89900000Y-116000000D03*
X86730000Y-94880000D03*
X103260000Y-117660000D03*
X103260000Y-116950000D03*
X102590000Y-117640000D03*
X111635000Y-115390000D03*
X85370000Y-83820000D03*
X100361648Y-85291500D03*
X103235000Y-111380000D03*
%TO.N,Net-(D1-A2)*%
X79978000Y-131318000D03*
%TO.N,Net-(D2-A2)*%
X81978000Y-131318000D03*
%TO.N,NRST*%
X105285000Y-113755000D03*
X114460000Y-121405000D03*
%TO.N,Net-(L2-RXCT)*%
X93091000Y-87376000D03*
%TO.N,Net-(L2-TXCT)*%
X86741000Y-87376000D03*
%TO.N,Net-(C36-Pad1)*%
X85585000Y-87005000D03*
%TO.N,Net-(C37-Pad1)*%
X94535000Y-87080000D03*
%TO.N,StatLED00*%
X102235000Y-103708200D03*
%TO.N,Net-(D19-A)*%
X78232000Y-87630000D03*
%TO.N,StatLED01*%
X102685000Y-103301800D03*
%TO.N,Net-(D26-A)*%
X76962000Y-87630000D03*
%TO.N,StatLED02*%
X103147438Y-102819200D03*
%TO.N,Net-(D27-A)*%
X75692000Y-87630000D03*
%TO.N,Net-(IC1-FB)*%
X101160000Y-129310000D03*
X102110000Y-122680000D03*
%TO.N,ETH_RXP*%
X109804200Y-104546400D03*
X91210000Y-95250000D03*
%TO.N,ETH_RXN*%
X111725739Y-104020739D03*
X94930000Y-95250000D03*
%TO.N,ETH_TXP*%
X110760000Y-105355000D03*
X85470000Y-95840000D03*
%TO.N,ETH_TXN*%
X88010000Y-95840000D03*
X112266424Y-104611424D03*
%TO.N,CAN0_RX*%
X100810000Y-120130000D03*
X112710000Y-116255000D03*
%TO.N,CAN0_TX*%
X100710000Y-119355000D03*
X111985000Y-116255000D03*
%TO.N,SWD*%
X115760000Y-118480000D03*
X112635000Y-107255000D03*
%TO.N,Ant*%
X114858800Y-107137200D03*
%TO.N,VCC*%
X109110000Y-128290000D03*
X100670000Y-125300000D03*
X100670000Y-124550000D03*
X108650000Y-128290000D03*
%TO.N,Net-(J2-Pin_2)*%
X74422000Y-116872000D03*
%TO.N,Net-(J2-Pin_3)*%
X74422000Y-114872000D03*
%TO.N,Net-(J2-Pin_4)*%
X74422000Y-112872000D03*
%TO.N,Net-(J2-Pin_5)*%
X74422000Y-110872000D03*
%TO.N,Net-(J2-Pin_6)*%
X74422000Y-108872000D03*
%TO.N,Net-(J2-Pin_7)*%
X74422000Y-106872000D03*
%TO.N,Net-(J2-Pin_8)*%
X74422000Y-104902000D03*
%TO.N,Net-(J2-Pin_9)*%
X74422000Y-102870000D03*
%TO.N,Net-(D7-A2)*%
X108210000Y-85860000D03*
%TO.N,Net-(D9-A2)*%
X108230000Y-88150000D03*
%TO.N,Net-(D8-A2)*%
X94710000Y-108280000D03*
%TO.N,Net-(D10-A2)*%
X99610000Y-108345500D03*
%TO.N,Net-(D11-A2)*%
X101530000Y-93210000D03*
%TO.N,Net-(D12-A2)*%
X101470000Y-94600000D03*
%TO.N,Net-(D20-A2)*%
X91920000Y-114800000D03*
%TO.N,Net-(D21-A2)*%
X85578000Y-112808000D03*
%TO.N,Net-(D22-A2)*%
X91950000Y-110808000D03*
%TO.N,Net-(D23-A2)*%
X85090000Y-108808000D03*
%TO.N,Net-(D24-A2)*%
X92010000Y-106800000D03*
%TO.N,Net-(D25-A2)*%
X85090000Y-104808000D03*
%TO.N,RS485_00_A*%
X101550000Y-88742500D03*
X97917000Y-86510000D03*
%TO.N,Net-(D28-A)*%
X107950000Y-80264000D03*
X107950000Y-79756000D03*
X108458000Y-79756000D03*
X108458000Y-80264000D03*
%TO.N,Net-(J10-CC1)*%
X106914000Y-77470000D03*
%TO.N,Net-(J10-D+-PadA6)*%
X105410000Y-77470000D03*
%TO.N,Net-(J10-D--PadA7)*%
X105918000Y-80010000D03*
%TO.N,Net-(J10-CC2)*%
X103914000Y-77470000D03*
%TO.N,USB1DN*%
X114410000Y-105030000D03*
X113135000Y-103730000D03*
%TO.N,USB1DP*%
X113860000Y-105855000D03*
X112435000Y-103655000D03*
%TO.N,Net-(J3-Pin_1)*%
X95819999Y-119960000D03*
X96510000Y-119960000D03*
%TD*%
D39*
%TO.N,Net-(D28-A)*%
X107950000Y-79756000D02*
X107950000Y-80264000D01*
X108458000Y-80264000D02*
X107950000Y-80264000D01*
X108458000Y-79756000D02*
X108458000Y-80264000D01*
X107950000Y-79756000D02*
X108458000Y-79756000D01*
D40*
%TO.N,GND*%
X110236000Y-102108000D02*
X110236000Y-102136000D01*
X110236000Y-102136000D02*
X110680000Y-102580000D01*
%TO.N,ETH_TXN*%
X111925048Y-104952800D02*
X112266424Y-104611424D01*
X100632800Y-104952800D02*
X111925048Y-104952800D01*
X94760000Y-99080000D02*
X100632800Y-104952800D01*
X88011000Y-97781000D02*
X89310000Y-99080000D01*
X89310000Y-99080000D02*
X94760000Y-99080000D01*
X88011000Y-97164000D02*
X88011000Y-97781000D01*
D41*
%TO.N,GND*%
X106220000Y-130790000D02*
X106220000Y-129825000D01*
X113965000Y-129300000D02*
X114250000Y-129015000D01*
X113090000Y-129300000D02*
X113965000Y-129300000D01*
X106660000Y-118176000D02*
X107356000Y-118872000D01*
D42*
X76252500Y-100890000D02*
X79484000Y-100890000D01*
X109069000Y-78669000D02*
X109984000Y-77754000D01*
D41*
X107670000Y-124654000D02*
X107356000Y-124968000D01*
X114125000Y-128890000D02*
X114250000Y-129015000D01*
X83978000Y-131192000D02*
X83978000Y-128016000D01*
X107370000Y-117700000D02*
X107370000Y-118858000D01*
D40*
X111658400Y-98698400D02*
X111660000Y-98700000D01*
D41*
X106660000Y-117690000D02*
X106660000Y-118176000D01*
D40*
X111658400Y-98221800D02*
X111658400Y-98698400D01*
D42*
X102414000Y-78669000D02*
X102259000Y-78669000D01*
X74930000Y-95758000D02*
X75798000Y-95758000D01*
X79484000Y-100890000D02*
X79502000Y-100872000D01*
D41*
X106660000Y-117690000D02*
X107360000Y-117690000D01*
D42*
X75798000Y-95758000D02*
X75802000Y-95754000D01*
D41*
X105730000Y-129725000D02*
X105925000Y-129530000D01*
X105730000Y-130790000D02*
X105730000Y-129725000D01*
X107370000Y-118858000D02*
X107356000Y-118872000D01*
X107670000Y-123790000D02*
X107670000Y-124654000D01*
X83960000Y-131210000D02*
X83978000Y-131192000D01*
X106220000Y-129825000D02*
X105925000Y-129530000D01*
D40*
X95620000Y-116010000D02*
X95620000Y-116920000D01*
D41*
X113090000Y-128890000D02*
X114125000Y-128890000D01*
X107360000Y-117690000D02*
X107370000Y-117700000D01*
D42*
X102259000Y-78669000D02*
X101344000Y-77754000D01*
D40*
X107010000Y-123780000D02*
X107010000Y-124622000D01*
X107010000Y-124622000D02*
X107356000Y-124968000D01*
D42*
X108914000Y-78669000D02*
X109069000Y-78669000D01*
D41*
%TO.N,+3.3V*%
X102590000Y-116940000D02*
X103250000Y-116940000D01*
X102590000Y-116940000D02*
X102590000Y-117640000D01*
X103260000Y-117610000D02*
X102590000Y-116940000D01*
X89900000Y-116000000D02*
X89900000Y-116900000D01*
X103260000Y-116950000D02*
X103260000Y-117660000D01*
X103260000Y-117660000D02*
X103260000Y-118568000D01*
D42*
X93091000Y-95449000D02*
X93091000Y-97164000D01*
D41*
X89900000Y-116900000D02*
X89850000Y-116950000D01*
D42*
X86750000Y-95840000D02*
X86750000Y-97155000D01*
D41*
X102590000Y-117640000D02*
X102590000Y-118506000D01*
X103260000Y-117660000D02*
X103260000Y-117610000D01*
X103250000Y-116940000D02*
X103260000Y-116950000D01*
X103260000Y-118568000D02*
X102956000Y-118872000D01*
D42*
X93100000Y-95440000D02*
X93091000Y-95449000D01*
D41*
X102590000Y-118506000D02*
X102956000Y-118872000D01*
D42*
X86750000Y-97155000D02*
X86741000Y-97164000D01*
D41*
%TO.N,Net-(D1-A2)*%
X79978000Y-131318000D02*
X79978000Y-128016000D01*
%TO.N,Net-(D2-A2)*%
X81978000Y-131318000D02*
X81978000Y-128016000D01*
D40*
%TO.N,NRST*%
X93285000Y-99730000D02*
X99210000Y-105655000D01*
X115110000Y-120755000D02*
X114460000Y-121405000D01*
D42*
X75802000Y-89504000D02*
X75802000Y-89154000D01*
D40*
X115110000Y-115605000D02*
X115110000Y-120755000D01*
X75802000Y-89504000D02*
X86028000Y-99730000D01*
X105285000Y-113755000D02*
X113260000Y-113755000D01*
X113260000Y-113755000D02*
X115110000Y-115605000D01*
X105285000Y-109230000D02*
X105285000Y-113755000D01*
X99210000Y-105655000D02*
X101710000Y-105655000D01*
X101710000Y-105655000D02*
X105285000Y-109230000D01*
X86028000Y-99730000D02*
X93285000Y-99730000D01*
D43*
%TO.N,Net-(L2-RXCT)*%
X93091000Y-87376000D02*
X93091000Y-88764000D01*
D42*
%TO.N,Net-(L2-TXCT)*%
X86741000Y-87376000D02*
X86741000Y-88764000D01*
D41*
%TO.N,Net-(C36-Pad1)*%
X98635000Y-74180000D02*
X100410000Y-75955000D01*
X90426000Y-78805000D02*
X95051000Y-74180000D01*
X112535000Y-83807000D02*
X110998000Y-85344000D01*
X110610000Y-75955000D02*
X112535000Y-77880000D01*
X112535000Y-77880000D02*
X112535000Y-83807000D01*
X95051000Y-74180000D02*
X98635000Y-74180000D01*
X100410000Y-75955000D02*
X110610000Y-75955000D01*
%TO.N,Net-(C37-Pad1)*%
X107819000Y-84705000D02*
X110998000Y-87884000D01*
X99685000Y-84705000D02*
X107819000Y-84705000D01*
X93486000Y-80595000D02*
X95575000Y-80595000D01*
X95575000Y-80595000D02*
X99685000Y-84705000D01*
D40*
X92360000Y-81721000D02*
X92360000Y-84905000D01*
X92360000Y-84905000D02*
X94535000Y-87080000D01*
X93486000Y-80595000D02*
X92360000Y-81721000D01*
%TO.N,StatLED00*%
X80560000Y-90034104D02*
X80560000Y-87320000D01*
X102235000Y-101036656D02*
X95291344Y-94093000D01*
X80560000Y-87320000D02*
X79092000Y-85852000D01*
X84618896Y-94093000D02*
X80560000Y-90034104D01*
X79092000Y-85852000D02*
X78003500Y-85852000D01*
X102235000Y-103708200D02*
X102235000Y-101036656D01*
X95291344Y-94093000D02*
X84618896Y-94093000D01*
D42*
%TO.N,Net-(D19-A)*%
X78206500Y-87630000D02*
X76428500Y-85852000D01*
X78232000Y-87630000D02*
X78206500Y-87630000D01*
D40*
%TO.N,StatLED01*%
X102685000Y-103301800D02*
X102685000Y-101024208D01*
X81014000Y-86830500D02*
X78003500Y-83820000D01*
X81014000Y-89846052D02*
X81014000Y-86830500D01*
X84933948Y-93766000D02*
X81014000Y-89846052D01*
X102685000Y-101024208D02*
X95426792Y-93766000D01*
X95426792Y-93766000D02*
X84933948Y-93766000D01*
D42*
%TO.N,Net-(D26-A)*%
X75664000Y-84584500D02*
X76428500Y-83820000D01*
X76962000Y-87630000D02*
X76708000Y-87630000D01*
X75664000Y-86586000D02*
X75664000Y-84584500D01*
X76708000Y-87630000D02*
X75664000Y-86586000D01*
%TO.N,StatLED02*%
X78003500Y-81788000D02*
X79080000Y-82864500D01*
D40*
X103147438Y-102819200D02*
X103147438Y-101024198D01*
D42*
X79080000Y-82864500D02*
X79080000Y-83790000D01*
D40*
X103147438Y-101024198D02*
X95562240Y-93439000D01*
X95562240Y-93439000D02*
X85249000Y-93439000D01*
X81520000Y-89710000D02*
X81520000Y-86230000D01*
X85249000Y-93439000D02*
X81520000Y-89710000D01*
X81520000Y-86230000D02*
X79080000Y-83790000D01*
D42*
%TO.N,Net-(D27-A)*%
X75210000Y-87148000D02*
X75210000Y-83006500D01*
X75210000Y-83006500D02*
X76428500Y-81788000D01*
X75692000Y-87630000D02*
X75210000Y-87148000D01*
%TO.N,ETH_RXP*%
X91821000Y-95861000D02*
X91821000Y-97164000D01*
D40*
X100709352Y-104571800D02*
X100601276Y-104463724D01*
X109778800Y-104571800D02*
X100709352Y-104571800D01*
X109804200Y-104546400D02*
X109778800Y-104571800D01*
X91821000Y-97801000D02*
X92750000Y-98730000D01*
X97259552Y-101122000D02*
X100601276Y-104463724D01*
D42*
X91210000Y-95250000D02*
X91821000Y-95861000D01*
D40*
X92750000Y-98730000D02*
X94867552Y-98730000D01*
X94867552Y-98730000D02*
X97259552Y-101122000D01*
X91821000Y-97164000D02*
X91821000Y-97801000D01*
%TO.N,ETH_RXN*%
X111631878Y-104114600D02*
X100714600Y-104114600D01*
X100714600Y-104114600D02*
X94361000Y-97761000D01*
D42*
X94930000Y-95250000D02*
X94361000Y-95819000D01*
D40*
X94361000Y-97761000D02*
X94361000Y-97164000D01*
D42*
X94361000Y-95819000D02*
X94361000Y-97164000D01*
D40*
X111725739Y-104020739D02*
X111631878Y-104114600D01*
%TO.N,ETH_TXP*%
X85471000Y-97771000D02*
X87107000Y-99407000D01*
D42*
X85471000Y-95841000D02*
X85470000Y-95840000D01*
D40*
X85471000Y-97164000D02*
X85471000Y-97771000D01*
X87107000Y-99407000D02*
X94619656Y-99407000D01*
X100567656Y-105355000D02*
X101135000Y-105355000D01*
X101135000Y-105355000D02*
X110760000Y-105355000D01*
D42*
X85471000Y-97164000D02*
X85471000Y-95841000D01*
D40*
X94619656Y-99407000D02*
X100567656Y-105355000D01*
D42*
%TO.N,ETH_TXN*%
X88011000Y-97164000D02*
X88011000Y-95841000D01*
X88011000Y-95841000D02*
X88010000Y-95840000D01*
D40*
%TO.N,CAN0_RX*%
X112710000Y-116697000D02*
X112710000Y-116255000D01*
X100810000Y-120130000D02*
X101452000Y-120772000D01*
X108635000Y-120772000D02*
X112710000Y-116697000D01*
X101452000Y-120772000D02*
X108635000Y-120772000D01*
%TO.N,CAN0_TX*%
X111985000Y-117080000D02*
X111985000Y-116255000D01*
X101910000Y-120555000D02*
X108510000Y-120555000D01*
X108510000Y-120555000D02*
X111985000Y-117080000D01*
X100710000Y-119355000D02*
X101910000Y-120555000D01*
D43*
%TO.N,SWD*%
X112635000Y-107255000D02*
X112635000Y-108155000D01*
X112635000Y-108155000D02*
X115760000Y-111280000D01*
X115760000Y-111280000D02*
X115760000Y-118480000D01*
D40*
%TO.N,Ant*%
X114858800Y-104622600D02*
X114858800Y-107137200D01*
X111660000Y-101565000D02*
X111660000Y-102560000D01*
X111640000Y-102580000D02*
X112816200Y-102580000D01*
X111660000Y-102560000D02*
X111640000Y-102580000D01*
X112816200Y-102580000D02*
X114858800Y-104622600D01*
D41*
%TO.N,VCC*%
X100670000Y-124550000D02*
X100670000Y-125300000D01*
X109110000Y-128290000D02*
X109110000Y-129295000D01*
D44*
X84560000Y-118872000D02*
X85620000Y-118872000D01*
X85620000Y-118872000D02*
X89252000Y-118872000D01*
D41*
X108620000Y-127560000D02*
X105990000Y-127560000D01*
D44*
X92665000Y-120825000D02*
X92665000Y-122285000D01*
D41*
X101002000Y-124968000D02*
X100670000Y-125300000D01*
D44*
X90712000Y-118872000D02*
X92665000Y-120825000D01*
D41*
X108650000Y-128290000D02*
X108650000Y-129305000D01*
D44*
X88328000Y-118872000D02*
X88392000Y-118808000D01*
D41*
X108650000Y-129305000D02*
X108875000Y-129530000D01*
X110998000Y-126024000D02*
X109462000Y-127560000D01*
X102538000Y-124550000D02*
X102956000Y-124968000D01*
X109110000Y-129295000D02*
X108875000Y-129530000D01*
X114209000Y-126024000D02*
X114250000Y-126065000D01*
X109150000Y-127560000D02*
X108620000Y-127560000D01*
X109110000Y-127600000D02*
X109150000Y-127560000D01*
D44*
X93740000Y-123360000D02*
X99480000Y-123360000D01*
D41*
X100670000Y-124550000D02*
X102538000Y-124550000D01*
X110998000Y-126024000D02*
X114209000Y-126024000D01*
D44*
X84560000Y-118872000D02*
X90712000Y-118872000D01*
D41*
X109110000Y-128290000D02*
X109110000Y-127600000D01*
D44*
X99480000Y-123360000D02*
X100670000Y-124550000D01*
D41*
X108650000Y-127590000D02*
X108620000Y-127560000D01*
X103398000Y-124968000D02*
X102956000Y-124968000D01*
D44*
X79502000Y-123188000D02*
X79502000Y-118872000D01*
D41*
X109462000Y-127560000D02*
X109150000Y-127560000D01*
D44*
X85620000Y-118872000D02*
X88328000Y-118872000D01*
X77978000Y-124712000D02*
X79502000Y-123188000D01*
D41*
X105990000Y-127560000D02*
X103398000Y-124968000D01*
X88392000Y-118808000D02*
X88645107Y-118808000D01*
D44*
X77978000Y-128016000D02*
X77978000Y-124712000D01*
D41*
X108650000Y-128290000D02*
X108650000Y-127590000D01*
D44*
X79502000Y-118872000D02*
X84560000Y-118872000D01*
X92665000Y-122285000D02*
X93740000Y-123360000D01*
D41*
X102956000Y-124968000D02*
X101002000Y-124968000D01*
%TO.N,Net-(J2-Pin_2)*%
X74676000Y-116872000D02*
X79502000Y-116872000D01*
%TO.N,Net-(J2-Pin_3)*%
X74676000Y-114872000D02*
X79502000Y-114872000D01*
%TO.N,Net-(J2-Pin_4)*%
X74676000Y-112872000D02*
X79502000Y-112872000D01*
%TO.N,Net-(J2-Pin_5)*%
X74676000Y-110872000D02*
X79502000Y-110872000D01*
%TO.N,Net-(J2-Pin_6)*%
X74676000Y-108872000D02*
X79502000Y-108872000D01*
%TO.N,Net-(J2-Pin_7)*%
X74676000Y-106872000D02*
X79502000Y-106872000D01*
%TO.N,Net-(J2-Pin_8)*%
X79472000Y-104902000D02*
X79502000Y-104872000D01*
X74676000Y-104902000D02*
X79472000Y-104902000D01*
%TO.N,Net-(J2-Pin_9)*%
X79500000Y-102870000D02*
X79502000Y-102872000D01*
X74676000Y-102870000D02*
X79500000Y-102870000D01*
D42*
%TO.N,Net-(D7-A2)*%
X108210000Y-85860000D02*
X103402000Y-85860000D01*
X103402000Y-85860000D02*
X103394000Y-85868000D01*
D41*
%TO.N,Net-(D9-A2)*%
X103394000Y-87868000D02*
X107948000Y-87868000D01*
X107948000Y-87868000D02*
X108230000Y-88150000D01*
D42*
%TO.N,Net-(D8-A2)*%
X94710000Y-108280000D02*
X94710000Y-109030000D01*
X94710000Y-109030000D02*
X94980000Y-109300000D01*
X94980000Y-109300000D02*
X95410000Y-109300000D01*
X96170000Y-109220000D02*
X97282000Y-109220000D01*
%TO.N,Net-(D10-A2)*%
X99610000Y-107240000D02*
X99570000Y-107200000D01*
X99610000Y-108345500D02*
X99610000Y-107240000D01*
%TO.N,Net-(D11-A2)*%
X101530000Y-93210000D02*
X102010000Y-93690000D01*
X102814000Y-95774000D02*
X103394000Y-95774000D01*
X103394000Y-95774000D02*
X101054000Y-95774000D01*
X102010000Y-94970000D02*
X102814000Y-95774000D01*
X102010000Y-93690000D02*
X102010000Y-94970000D01*
%TO.N,Net-(D12-A2)*%
X100317000Y-96947000D02*
X100317000Y-95283000D01*
X101000000Y-94600000D02*
X101470000Y-94600000D01*
X103394000Y-97774000D02*
X101144000Y-97774000D01*
X101144000Y-97774000D02*
X100317000Y-96947000D01*
X100317000Y-95283000D02*
X101000000Y-94600000D01*
D41*
%TO.N,Net-(D20-A2)*%
X91912000Y-114808000D02*
X88392000Y-114808000D01*
X91920000Y-114800000D02*
X91912000Y-114808000D01*
%TO.N,Net-(D21-A2)*%
X85578000Y-112808000D02*
X88392000Y-112808000D01*
%TO.N,Net-(D22-A2)*%
X91950000Y-110808000D02*
X88392000Y-110808000D01*
%TO.N,Net-(D23-A2)*%
X85090000Y-108808000D02*
X88392000Y-108808000D01*
%TO.N,Net-(D24-A2)*%
X92002000Y-106808000D02*
X88392000Y-106808000D01*
X92010000Y-106800000D02*
X92002000Y-106808000D01*
%TO.N,Net-(D25-A2)*%
X85090000Y-104808000D02*
X88392000Y-104808000D01*
D40*
%TO.N,Net-(L2-RX-)*%
X91446000Y-84666000D02*
X94361000Y-87581000D01*
X94361000Y-87581000D02*
X94361000Y-88764000D01*
X91446000Y-80595000D02*
X91446000Y-84666000D01*
%TO.N,Net-(L2-RX+)*%
X91821000Y-87341000D02*
X91821000Y-88764000D01*
X88386000Y-78805000D02*
X88386000Y-83906000D01*
X88386000Y-83906000D02*
X91821000Y-87341000D01*
%TO.N,Net-(L2-TX-)*%
X87366000Y-85961000D02*
X88011000Y-86606000D01*
X87366000Y-80595000D02*
X87366000Y-85961000D01*
X88011000Y-86606000D02*
X88011000Y-88764000D01*
%TO.N,Net-(L2-TX+)*%
X86485000Y-82280000D02*
X86485000Y-86880000D01*
X85735000Y-87630000D02*
X85735000Y-88500000D01*
X86346000Y-78805000D02*
X85585000Y-79566000D01*
X85585000Y-81380000D02*
X86485000Y-82280000D01*
X86485000Y-86880000D02*
X85735000Y-87630000D01*
X85585000Y-79566000D02*
X85585000Y-81380000D01*
X85735000Y-88500000D02*
X85471000Y-88764000D01*
D42*
%TO.N,RS485_00_A*%
X100149500Y-88742500D02*
X101550000Y-88742500D01*
X97917000Y-86510000D02*
X100149500Y-88742500D01*
D44*
%TO.N,Net-(D28-A)*%
X103214000Y-78669000D02*
X103214000Y-79592000D01*
X108114000Y-79648000D02*
X108114000Y-78669000D01*
X107435000Y-80780000D02*
X107950000Y-80265000D01*
X104402000Y-80780000D02*
X107435000Y-80780000D01*
X107950000Y-80265000D02*
X107950000Y-80264000D01*
X103214000Y-79592000D02*
X104402000Y-80780000D01*
D42*
%TO.N,Net-(J10-CC1)*%
X106914000Y-78669000D02*
X106914000Y-77470000D01*
%TO.N,Net-(J10-D+-PadA6)*%
X105664000Y-77470000D02*
X105918000Y-77724000D01*
X105410000Y-77470000D02*
X105664000Y-77470000D01*
X104914000Y-78669000D02*
X104914000Y-77712000D01*
X104914000Y-77712000D02*
X105156000Y-77470000D01*
X105156000Y-77470000D02*
X105410000Y-77470000D01*
X105918000Y-77724000D02*
X105918000Y-78665000D01*
X105918000Y-78665000D02*
X105914000Y-78669000D01*
%TO.N,Net-(J10-D--PadA7)*%
X105918000Y-80010000D02*
X105664000Y-79756000D01*
X106172000Y-79756000D02*
X105918000Y-80010000D01*
X105664000Y-79756000D02*
X105410000Y-79502000D01*
X105410000Y-79502000D02*
X105414000Y-79498000D01*
X106414000Y-78669000D02*
X106414000Y-79514000D01*
X105414000Y-79498000D02*
X105414000Y-78669000D01*
X106414000Y-79514000D02*
X106172000Y-79756000D01*
%TO.N,Net-(J10-CC2)*%
X103914000Y-78669000D02*
X103914000Y-77470000D01*
D40*
%TO.N,USB1DN*%
X113135000Y-103730000D02*
X113135000Y-103755000D01*
X113135000Y-103755000D02*
X114410000Y-105030000D01*
%TO.N,USB1DP*%
X113860000Y-105080000D02*
X112435000Y-103655000D01*
X113860000Y-105855000D02*
X113860000Y-105080000D01*
D41*
%TO.N,Net-(J3-Pin_1)*%
X95819999Y-119960000D02*
X95819999Y-118960001D01*
X95819999Y-118960001D02*
X95820000Y-118960000D01*
X96510000Y-118970000D02*
X96530000Y-118950000D01*
X96510000Y-119960000D02*
X96510000Y-118970000D01*
X97274000Y-118880000D02*
X97282000Y-118872000D01*
X96194000Y-119960000D02*
X97282000Y-118872000D01*
X95819999Y-119960000D02*
X96194000Y-119960000D01*
D40*
%TO.N,Net-(AE1-A)*%
X111660000Y-99660000D02*
X112705000Y-99660000D01*
X112705000Y-99660000D02*
X112735000Y-99630000D01*
X111660000Y-99660000D02*
X111660000Y-100595000D01*
%TD*%
M02*
