%TF.GenerationSoftware,KiCad,Pcbnew,8.0.0*%
%TF.CreationDate,2024-03-22T12:56:57+01:00*%
%TF.ProjectId,WCH-ETH-LOW,5743482d-4554-4482-9d4c-4f572e6b6963,rev?*%
%TF.SameCoordinates,Original*%
%TF.FileFunction,Copper,L4,Bot*%
%TF.FilePolarity,Positive*%
%FSLAX46Y46*%
G04 Gerber Fmt 4.6, Leading zero omitted, Abs format (unit mm)*
G04 Created by KiCad (PCBNEW 8.0.0) date 2024-03-22 12:56:57*
%MOMM*%
%LPD*%
G01*
G04 APERTURE LIST*
G04 Aperture macros list*
%AMRoundRect*
0 Rectangle with rounded corners*
0 $1 Rounding radius*
0 $2 $3 $4 $5 $6 $7 $8 $9 X,Y pos of 4 corners*
0 Add a 4 corners polygon primitive as box body*
4,1,4,$2,$3,$4,$5,$6,$7,$8,$9,$2,$3,0*
0 Add four circle primitives for the rounded corners*
1,1,$1+$1,$2,$3*
1,1,$1+$1,$4,$5*
1,1,$1+$1,$6,$7*
1,1,$1+$1,$8,$9*
0 Add four rect primitives between the rounded corners*
20,1,$1+$1,$2,$3,$4,$5,0*
20,1,$1+$1,$4,$5,$6,$7,0*
20,1,$1+$1,$6,$7,$8,$9,0*
20,1,$1+$1,$8,$9,$2,$3,0*%
%AMRotRect*
0 Rectangle, with rotation*
0 The origin of the aperture is its center*
0 $1 length*
0 $2 width*
0 $3 Rotation angle, in degrees counterclockwise*
0 Add horizontal line*
21,1,$1,$2,0,0,$3*%
G04 Aperture macros list end*
%TA.AperFunction,ComponentPad*%
%ADD10O,1.000000X2.100000*%
%TD*%
%TA.AperFunction,ComponentPad*%
%ADD11O,1.000000X1.600000*%
%TD*%
%TA.AperFunction,ComponentPad*%
%ADD12C,3.600000*%
%TD*%
%TA.AperFunction,ConnectorPad*%
%ADD13C,5.600000*%
%TD*%
%TA.AperFunction,ComponentPad*%
%ADD14R,0.500000X0.900000*%
%TD*%
%TA.AperFunction,ComponentPad*%
%ADD15C,2.500000*%
%TD*%
%TA.AperFunction,ComponentPad*%
%ADD16C,1.520000*%
%TD*%
%TA.AperFunction,ComponentPad*%
%ADD17C,3.300000*%
%TD*%
%TA.AperFunction,ComponentPad*%
%ADD18C,1.524000*%
%TD*%
%TA.AperFunction,SMDPad,CuDef*%
%ADD19RoundRect,0.140000X0.021213X-0.219203X0.219203X-0.021213X-0.021213X0.219203X-0.219203X0.021213X0*%
%TD*%
%TA.AperFunction,SMDPad,CuDef*%
%ADD20RoundRect,0.250000X-0.312500X-0.625000X0.312500X-0.625000X0.312500X0.625000X-0.312500X0.625000X0*%
%TD*%
%TA.AperFunction,SMDPad,CuDef*%
%ADD21RoundRect,0.112500X0.112500X-0.187500X0.112500X0.187500X-0.112500X0.187500X-0.112500X-0.187500X0*%
%TD*%
%TA.AperFunction,SMDPad,CuDef*%
%ADD22RoundRect,0.140000X-0.170000X0.140000X-0.170000X-0.140000X0.170000X-0.140000X0.170000X0.140000X0*%
%TD*%
%TA.AperFunction,SMDPad,CuDef*%
%ADD23RoundRect,0.140000X0.140000X0.170000X-0.140000X0.170000X-0.140000X-0.170000X0.140000X-0.170000X0*%
%TD*%
%TA.AperFunction,SMDPad,CuDef*%
%ADD24RoundRect,0.150000X0.587500X0.150000X-0.587500X0.150000X-0.587500X-0.150000X0.587500X-0.150000X0*%
%TD*%
%TA.AperFunction,SMDPad,CuDef*%
%ADD25RoundRect,0.140000X-0.140000X-0.170000X0.140000X-0.170000X0.140000X0.170000X-0.140000X0.170000X0*%
%TD*%
%TA.AperFunction,SMDPad,CuDef*%
%ADD26RoundRect,0.250000X0.312500X0.625000X-0.312500X0.625000X-0.312500X-0.625000X0.312500X-0.625000X0*%
%TD*%
%TA.AperFunction,SMDPad,CuDef*%
%ADD27RoundRect,0.250000X0.325000X0.650000X-0.325000X0.650000X-0.325000X-0.650000X0.325000X-0.650000X0*%
%TD*%
%TA.AperFunction,SMDPad,CuDef*%
%ADD28RoundRect,0.135000X0.185000X-0.135000X0.185000X0.135000X-0.185000X0.135000X-0.185000X-0.135000X0*%
%TD*%
%TA.AperFunction,SMDPad,CuDef*%
%ADD29RoundRect,0.147500X0.147500X0.172500X-0.147500X0.172500X-0.147500X-0.172500X0.147500X-0.172500X0*%
%TD*%
%TA.AperFunction,SMDPad,CuDef*%
%ADD30RoundRect,0.250000X-0.625000X0.312500X-0.625000X-0.312500X0.625000X-0.312500X0.625000X0.312500X0*%
%TD*%
%TA.AperFunction,SMDPad,CuDef*%
%ADD31RoundRect,0.147500X-0.147500X-0.172500X0.147500X-0.172500X0.147500X0.172500X-0.147500X0.172500X0*%
%TD*%
%TA.AperFunction,SMDPad,CuDef*%
%ADD32RoundRect,0.135000X0.135000X0.185000X-0.135000X0.185000X-0.135000X-0.185000X0.135000X-0.185000X0*%
%TD*%
%TA.AperFunction,SMDPad,CuDef*%
%ADD33RoundRect,0.135000X-0.135000X-0.185000X0.135000X-0.185000X0.135000X0.185000X-0.135000X0.185000X0*%
%TD*%
%TA.AperFunction,SMDPad,CuDef*%
%ADD34RoundRect,0.218750X0.218750X0.256250X-0.218750X0.256250X-0.218750X-0.256250X0.218750X-0.256250X0*%
%TD*%
%TA.AperFunction,SMDPad,CuDef*%
%ADD35RoundRect,0.050000X-0.220971X-0.291682X0.291682X0.220971X0.220971X0.291682X-0.291682X-0.220971X0*%
%TD*%
%TA.AperFunction,SMDPad,CuDef*%
%ADD36RoundRect,0.050000X0.220971X-0.291682X0.291682X-0.220971X-0.220971X0.291682X-0.291682X0.220971X0*%
%TD*%
%TA.AperFunction,HeatsinkPad*%
%ADD37RotRect,5.200000X5.200000X45.000000*%
%TD*%
%TA.AperFunction,SMDPad,CuDef*%
%ADD38RoundRect,0.250000X0.650000X-0.325000X0.650000X0.325000X-0.650000X0.325000X-0.650000X-0.325000X0*%
%TD*%
%TA.AperFunction,SMDPad,CuDef*%
%ADD39RoundRect,0.140000X-0.021213X0.219203X-0.219203X0.021213X0.021213X-0.219203X0.219203X-0.021213X0*%
%TD*%
%TA.AperFunction,SMDPad,CuDef*%
%ADD40RoundRect,0.150000X0.150000X-0.512500X0.150000X0.512500X-0.150000X0.512500X-0.150000X-0.512500X0*%
%TD*%
%TA.AperFunction,SMDPad,CuDef*%
%ADD41RoundRect,0.135000X-0.185000X0.135000X-0.185000X-0.135000X0.185000X-0.135000X0.185000X0.135000X0*%
%TD*%
%TA.AperFunction,SMDPad,CuDef*%
%ADD42RoundRect,0.140000X0.219203X0.021213X0.021213X0.219203X-0.219203X-0.021213X-0.021213X-0.219203X0*%
%TD*%
%TA.AperFunction,SMDPad,CuDef*%
%ADD43RoundRect,0.140000X0.170000X-0.140000X0.170000X0.140000X-0.170000X0.140000X-0.170000X-0.140000X0*%
%TD*%
%TA.AperFunction,SMDPad,CuDef*%
%ADD44RoundRect,0.200000X-0.200000X-0.400000X0.200000X-0.400000X0.200000X0.400000X-0.200000X0.400000X0*%
%TD*%
%TA.AperFunction,SMDPad,CuDef*%
%ADD45RoundRect,0.250000X-0.650000X0.325000X-0.650000X-0.325000X0.650000X-0.325000X0.650000X0.325000X0*%
%TD*%
%TA.AperFunction,SMDPad,CuDef*%
%ADD46RoundRect,0.150000X0.825000X0.150000X-0.825000X0.150000X-0.825000X-0.150000X0.825000X-0.150000X0*%
%TD*%
%TA.AperFunction,SMDPad,CuDef*%
%ADD47RoundRect,0.147500X-0.172500X0.147500X-0.172500X-0.147500X0.172500X-0.147500X0.172500X0.147500X0*%
%TD*%
%TA.AperFunction,ConnectorPad*%
%ADD48C,0.787400*%
%TD*%
%TA.AperFunction,SMDPad,CuDef*%
%ADD49RoundRect,0.150000X0.150000X-0.825000X0.150000X0.825000X-0.150000X0.825000X-0.150000X-0.825000X0*%
%TD*%
%TA.AperFunction,SMDPad,CuDef*%
%ADD50R,3.500000X2.350000*%
%TD*%
%TA.AperFunction,SMDPad,CuDef*%
%ADD51RoundRect,0.147500X0.172500X-0.147500X0.172500X0.147500X-0.172500X0.147500X-0.172500X-0.147500X0*%
%TD*%
%TA.AperFunction,ViaPad*%
%ADD52C,0.450000*%
%TD*%
%TA.AperFunction,Conductor*%
%ADD53C,0.500000*%
%TD*%
%TA.AperFunction,Conductor*%
%ADD54C,0.254000*%
%TD*%
%TA.AperFunction,Conductor*%
%ADD55C,0.250000*%
%TD*%
%TA.AperFunction,Conductor*%
%ADD56C,0.127000*%
%TD*%
%TA.AperFunction,Conductor*%
%ADD57C,0.090000*%
%TD*%
%TA.AperFunction,Conductor*%
%ADD58C,0.200000*%
%TD*%
%TA.AperFunction,Conductor*%
%ADD59C,0.508000*%
%TD*%
G04 APERTURE END LIST*
D10*
%TO.P,J10,S1,SHIELD*%
%TO.N,GND*%
X109984000Y-77754000D03*
D11*
X109984000Y-73574000D03*
D10*
X101344000Y-77754000D03*
D11*
X101344000Y-73574000D03*
%TD*%
D12*
%TO.P,H1,1,1*%
%TO.N,Earth*%
X76962000Y-75438000D03*
D13*
X76962000Y-75438000D03*
%TD*%
D14*
%TO.P,AE1,2,Shield*%
%TO.N,GND*%
X112735000Y-101730000D03*
%TD*%
D15*
%TO.P,RJ1,14,S*%
%TO.N,Earth*%
X98046000Y-79835000D03*
%TO.P,RJ1,13,S*%
X81786000Y-79835000D03*
D16*
%TO.P,RJ1,12,R-*%
%TO.N,Net-(RJ1-R-)*%
X83056000Y-85405000D03*
%TO.P,RJ1,11,R+*%
%TO.N,EthStatLEDR*%
X85346000Y-85405000D03*
%TO.P,RJ1,10,L-*%
%TO.N,EthStatLEDL*%
X94486000Y-85405000D03*
%TO.P,RJ1,9,L+*%
%TO.N,Net-(RJ1-L+)*%
X96776000Y-85405000D03*
%TO.P,RJ1,8,8*%
%TO.N,Net-(C37-Pad1)*%
X93486000Y-80595000D03*
%TO.P,RJ1,7,7*%
X92466000Y-78805000D03*
%TO.P,RJ1,6,6*%
%TO.N,Net-(L2-RX-)*%
X91446000Y-80595000D03*
%TO.P,RJ1,5,5*%
%TO.N,Net-(C36-Pad1)*%
X90426000Y-78805000D03*
%TO.P,RJ1,4,4*%
X89406000Y-80595000D03*
%TO.P,RJ1,3,3*%
%TO.N,Net-(L2-RX+)*%
X88386000Y-78805000D03*
%TO.P,RJ1,2,2*%
%TO.N,Net-(L2-TX-)*%
X87366000Y-80595000D03*
%TO.P,RJ1,1,1*%
%TO.N,Net-(L2-TX+)*%
X86346000Y-78805000D03*
D17*
%TO.P,RJ1,*%
%TO.N,*%
X96266000Y-76265000D03*
X83566000Y-76265000D03*
%TD*%
D18*
%TO.P,U6,1,B1*%
%TO.N,Net-(L2-RXCT)*%
X110998000Y-80264000D03*
%TO.P,U6,2,B1*%
%TO.N,Net-(L2-TXCT)*%
X110998000Y-82804000D03*
%TO.P,U6,3,B2*%
%TO.N,Net-(C36-Pad1)*%
X110998000Y-85344000D03*
%TO.P,U6,4,B2*%
%TO.N,Net-(C37-Pad1)*%
X110998000Y-87884000D03*
%TO.P,U6,5,V-*%
%TO.N,GND*%
X110998000Y-123484000D03*
%TO.P,U6,6,V+*%
%TO.N,VCC*%
X110998000Y-126024000D03*
%TO.P,U6,7,Adj*%
%TO.N,unconnected-(U6-Adj-Pad7)*%
X110998000Y-128564000D03*
%TD*%
D19*
%TO.P,C21,1*%
%TO.N,+3.3V*%
X107510589Y-102519411D03*
%TO.P,C21,2*%
%TO.N,GND*%
X108189411Y-101840589D03*
%TD*%
D20*
%TO.P,R8,1*%
%TO.N,Net-(J2-Pin_3)*%
X75753500Y-116588000D03*
%TO.P,R8,2*%
%TO.N,DIN_01*%
X78678500Y-116588000D03*
%TD*%
D21*
%TO.P,D5,1,K*%
%TO.N,VCC*%
X100205250Y-123300000D03*
%TO.P,D5,2,A*%
%TO.N,Net-(D5-A)*%
X100205250Y-121200000D03*
%TD*%
D22*
%TO.P,C38,1*%
%TO.N,GND*%
X89920000Y-93270000D03*
%TO.P,C38,2*%
%TO.N,+3.3V*%
X89920000Y-94230000D03*
%TD*%
D23*
%TO.P,C15,1*%
%TO.N,+3.3V*%
X100440000Y-85860000D03*
%TO.P,C15,2*%
%TO.N,GND*%
X99480000Y-85860000D03*
%TD*%
D24*
%TO.P,Q2,1,G*%
%TO.N,Dout_00*%
X92553000Y-113858000D03*
%TO.P,Q2,2,S*%
%TO.N,GND*%
X92553000Y-115758000D03*
%TO.P,Q2,3,D*%
%TO.N,Net-(D20-A2)*%
X90678000Y-114808000D03*
%TD*%
D25*
%TO.P,C9,1*%
%TO.N,VCC*%
X102120000Y-126280000D03*
%TO.P,C9,2*%
%TO.N,GND*%
X103080000Y-126280000D03*
%TD*%
D22*
%TO.P,C20,1*%
%TO.N,RS485_01_B*%
X108777000Y-91952000D03*
%TO.P,C20,2*%
%TO.N,Net-(C20-Pad2)*%
X108777000Y-92912000D03*
%TD*%
D26*
%TO.P,R32,1*%
%TO.N,RS485_01_A*%
X106429500Y-94996000D03*
%TO.P,R32,2*%
%TO.N,Net-(D12-A2)*%
X103504500Y-94996000D03*
%TD*%
D27*
%TO.P,C14,1*%
%TO.N,VCC*%
X108885000Y-129530000D03*
%TO.P,C14,2*%
%TO.N,GND*%
X105935000Y-129530000D03*
%TD*%
D19*
%TO.P,C46,1*%
%TO.N,Vinta*%
X114820589Y-106419411D03*
%TO.P,C46,2*%
%TO.N,GND*%
X115499411Y-105740589D03*
%TD*%
D28*
%TO.P,R56,1*%
%TO.N,+3.3V*%
X75692000Y-89156000D03*
%TO.P,R56,2*%
%TO.N,Net-(D27-A)*%
X75692000Y-88136000D03*
%TD*%
D25*
%TO.P,C16,1*%
%TO.N,+3.3V*%
X93300000Y-97540000D03*
%TO.P,C16,2*%
%TO.N,GND*%
X94260000Y-97540000D03*
%TD*%
D28*
%TO.P,R49,1*%
%TO.N,GND*%
X94200000Y-111320000D03*
%TO.P,R49,2*%
%TO.N,Dout_02*%
X94200000Y-110300000D03*
%TD*%
D29*
%TO.P,D8,1,A1*%
%TO.N,GND*%
X96402500Y-108960000D03*
%TO.P,D8,2,A2*%
%TO.N,Net-(D8-A2)*%
X95432500Y-108960000D03*
%TD*%
D30*
%TO.P,R25,1*%
%TO.N,RS485_02_B*%
X96080000Y-104547500D03*
%TO.P,R25,2*%
%TO.N,Net-(D8-A2)*%
X96080000Y-107472500D03*
%TD*%
D23*
%TO.P,C41,1*%
%TO.N,VBUS*%
X108930000Y-84190000D03*
%TO.P,C41,2*%
%TO.N,GND*%
X107970000Y-84190000D03*
%TD*%
D31*
%TO.P,D24,1,A1*%
%TO.N,GND*%
X85085000Y-106780000D03*
%TO.P,D24,2,A2*%
%TO.N,Net-(D24-A2)*%
X86055000Y-106780000D03*
%TD*%
D28*
%TO.P,R57,1*%
%TO.N,+3.3V*%
X114460000Y-115415000D03*
%TO.P,R57,2*%
%TO.N,Net-(IC2-BOOT0)*%
X114460000Y-114395000D03*
%TD*%
D24*
%TO.P,Q4,1,G*%
%TO.N,Dout_01*%
X88646000Y-111858000D03*
%TO.P,Q4,2,S*%
%TO.N,GND*%
X88646000Y-113758000D03*
%TO.P,Q4,3,D*%
%TO.N,Net-(D21-A2)*%
X86771000Y-112808000D03*
%TD*%
D25*
%TO.P,C6,1*%
%TO.N,Net-(D2-A2)*%
X81300000Y-128740000D03*
%TO.P,C6,2*%
%TO.N,GND*%
X82260000Y-128740000D03*
%TD*%
D23*
%TO.P,C5,1*%
%TO.N,Net-(D1-A2)*%
X80230000Y-128730000D03*
%TO.P,C5,2*%
%TO.N,GND*%
X79270000Y-128730000D03*
%TD*%
D32*
%TO.P,R65,1*%
%TO.N,+3.3V*%
X84838000Y-83820000D03*
%TO.P,R65,2*%
%TO.N,Net-(RJ1-R-)*%
X83818000Y-83820000D03*
%TD*%
D33*
%TO.P,R61,1*%
%TO.N,+3.3V*%
X95248000Y-83820000D03*
%TO.P,R61,2*%
%TO.N,Net-(RJ1-L+)*%
X96268000Y-83820000D03*
%TD*%
D28*
%TO.P,R48,1*%
%TO.N,GND*%
X90170000Y-113286000D03*
%TO.P,R48,2*%
%TO.N,Dout_01*%
X90170000Y-112266000D03*
%TD*%
D34*
%TO.P,D6,1,K*%
%TO.N,GND*%
X115577500Y-129380000D03*
%TO.P,D6,2,A*%
%TO.N,Net-(D6-A)*%
X114002500Y-129380000D03*
%TD*%
D28*
%TO.P,R16,1*%
%TO.N,RS485_00_DI*%
X96660000Y-90610000D03*
%TO.P,R16,2*%
%TO.N,RS485_00_A*%
X96660000Y-89590000D03*
%TD*%
D35*
%TO.P,IC2,1,VBAT*%
%TO.N,unconnected-(IC2-VBAT-Pad1)*%
X108731534Y-113237484D03*
%TO.P,IC2,2,PC14/OSC32_IN*%
%TO.N,unconnected-(IC2-PC14{slash}OSC32_IN-Pad2)*%
X108448691Y-112954641D03*
%TO.P,IC2,3,PC15/OSC32_OUT*%
%TO.N,unconnected-(IC2-PC15{slash}OSC32_OUT-Pad3)*%
X108165848Y-112671798D03*
%TO.P,IC2,4*%
%TO.N,N/C*%
X107883006Y-112388956D03*
%TO.P,IC2,5,Vss_A*%
%TO.N,GND*%
X107600163Y-112106113D03*
%TO.P,IC2,6,OSC_IN*%
%TO.N,unconnected-(IC2-OSC_IN-Pad6)*%
X107317320Y-111823270D03*
%TO.P,IC2,7,OSC_OUT*%
%TO.N,unconnected-(IC2-OSC_OUT-Pad7)*%
X107034477Y-111540427D03*
%TO.P,IC2,8,NRST*%
%TO.N,NRST*%
X106751635Y-111257585D03*
%TO.P,IC2,9,PC0*%
%TO.N,Dout_02*%
X106468792Y-110974742D03*
%TO.P,IC2,10,PC1*%
%TO.N,DIN_04*%
X106185949Y-110691899D03*
%TO.P,IC2,11,PC2*%
%TO.N,Dout_03*%
X105903107Y-110409057D03*
%TO.P,IC2,12,PC3*%
%TO.N,Dout_04*%
X105620264Y-110126214D03*
%TO.P,IC2,13,VDD_A*%
%TO.N,+3.3V*%
X105337421Y-109843371D03*
%TO.P,IC2,14,PA0*%
%TO.N,Dout_05*%
X105054578Y-109560528D03*
%TO.P,IC2,15,PA1*%
%TO.N,RS485_02_DE*%
X104771736Y-109277686D03*
%TO.P,IC2,16,PA2*%
%TO.N,RS485_02_DI*%
X104488893Y-108994843D03*
%TO.P,IC2,17,Vio_4*%
%TO.N,+3.3V*%
X104206050Y-108712000D03*
D36*
%TO.P,IC2,18,PD4*%
%TO.N,RS485_02_RE*%
X104206050Y-107669018D03*
%TO.P,IC2,19,PA3*%
%TO.N,RS485_02_RO*%
X104488893Y-107386175D03*
%TO.P,IC2,20,PA4*%
%TO.N,StatLED00*%
X104771736Y-107103332D03*
%TO.P,IC2,21,PA5*%
%TO.N,StatLED01*%
X105054578Y-106820490D03*
%TO.P,IC2,22,PA6*%
%TO.N,StatLED02*%
X105337421Y-106537647D03*
%TO.P,IC2,23,PA7*%
%TO.N,DIN_05*%
X105620264Y-106254804D03*
%TO.P,IC2,24,PC4*%
%TO.N,DIN_06*%
X105903107Y-105971961D03*
%TO.P,IC2,25,PC5*%
%TO.N,DIN_07*%
X106185949Y-105689119D03*
%TO.P,IC2,26,PB0*%
%TO.N,EthStatLEDR*%
X106468792Y-105406276D03*
%TO.P,IC2,27,PB1*%
%TO.N,EthStatLEDL*%
X106751635Y-105123433D03*
%TO.P,IC2,28,PB2*%
%TO.N,RS485_00_DE*%
X107034477Y-104840591D03*
%TO.P,IC2,29,PB10*%
%TO.N,RS485_00_DI*%
X107317320Y-104557748D03*
%TO.P,IC2,30,PB11*%
%TO.N,RS485_00_RO*%
X107600163Y-104274905D03*
%TO.P,IC2,31,Vio_1*%
%TO.N,+3.3V*%
X107883006Y-103992062D03*
%TO.P,IC2,32,VDD_1*%
X108165848Y-103709220D03*
%TO.P,IC2,33,PD5*%
%TO.N,RS485_00_RE*%
X108448691Y-103426377D03*
%TO.P,IC2,34,PD6*%
%TO.N,unconnected-(IC2-PD6-Pad34)*%
X108731534Y-103143534D03*
D35*
%TO.P,IC2,35,PB12*%
%TO.N,unconnected-(IC2-PB12-Pad35)*%
X109774516Y-103143534D03*
%TO.P,IC2,36,PB13*%
%TO.N,unconnected-(IC2-PB13-Pad36)*%
X110057359Y-103426377D03*
%TO.P,IC2,37,PB14*%
%TO.N,unconnected-(IC2-PB14-Pad37)*%
X110340202Y-103709220D03*
%TO.P,IC2,38,PB15*%
%TO.N,unconnected-(IC2-PB15-Pad38)*%
X110623044Y-103992062D03*
%TO.P,IC2,39,PC6*%
%TO.N,ETH_RXP*%
X110905887Y-104274905D03*
%TO.P,IC2,40,PC7*%
%TO.N,ETH_RXN*%
X111188730Y-104557748D03*
%TO.P,IC2,41,PC8*%
%TO.N,ETH_TXP*%
X111471573Y-104840591D03*
%TO.P,IC2,42,PC9*%
%TO.N,ETH_TXN*%
X111754415Y-105123433D03*
%TO.P,IC2,43,PA8*%
%TO.N,RS485_01_DE*%
X112037258Y-105406276D03*
%TO.P,IC2,44,PA9*%
%TO.N,RS485_01_DI*%
X112320101Y-105689119D03*
%TO.P,IC2,45,PA10*%
%TO.N,RS485_01_RO*%
X112602943Y-105971961D03*
%TO.P,IC2,46,PA11*%
%TO.N,USB1DN*%
X112885786Y-106254804D03*
%TO.P,IC2,47,PA12*%
%TO.N,USB1DP*%
X113168629Y-106537647D03*
%TO.P,IC2,48,PA13*%
%TO.N,SWD*%
X113451472Y-106820490D03*
%TO.P,IC2,49,Vss_2*%
%TO.N,GND*%
X113734314Y-107103332D03*
%TO.P,IC2,50,Vinta*%
%TO.N,Vinta*%
X114017157Y-107386175D03*
%TO.P,IC2,51,Ant*%
%TO.N,Ant*%
X114300000Y-107669018D03*
D36*
%TO.P,IC2,52,PA14*%
%TO.N,SWCLK*%
X114300000Y-108712000D03*
%TO.P,IC2,53,PA15*%
%TO.N,RS485_01_RE*%
X114017157Y-108994843D03*
%TO.P,IC2,54,PC10*%
%TO.N,unconnected-(IC2-PC10-Pad54)*%
X113734314Y-109277686D03*
%TO.P,IC2,55,PC11*%
%TO.N,unconnected-(IC2-PC11-Pad55)*%
X113451472Y-109560528D03*
%TO.P,IC2,56,PC12*%
%TO.N,unconnected-(IC2-PC12-Pad56)*%
X113168629Y-109843371D03*
%TO.P,IC2,57,PD2*%
%TO.N,unconnected-(IC2-PD2-Pad57)*%
X112885786Y-110126214D03*
%TO.P,IC2,58,PB3*%
%TO.N,DIN_00*%
X112602943Y-110409057D03*
%TO.P,IC2,59,PB4*%
%TO.N,DIN_01*%
X112320101Y-110691899D03*
%TO.P,IC2,60,PB5*%
%TO.N,DIN_02*%
X112037258Y-110974742D03*
%TO.P,IC2,61,PB6*%
%TO.N,DIN_03*%
X111754415Y-111257585D03*
%TO.P,IC2,62,PB7*%
%TO.N,Dout_00*%
X111471573Y-111540427D03*
%TO.P,IC2,63,BOOT0*%
%TO.N,Net-(IC2-BOOT0)*%
X111188730Y-111823270D03*
%TO.P,IC2,64,PB8*%
%TO.N,CAN0_RX*%
X110905887Y-112106113D03*
%TO.P,IC2,65,PB9*%
%TO.N,CAN0_TX*%
X110623044Y-112388956D03*
%TO.P,IC2,66,PD3*%
%TO.N,Dout_01*%
X110340202Y-112671798D03*
%TO.P,IC2,67,Vio_3*%
%TO.N,+3.3V*%
X110057359Y-112954641D03*
%TO.P,IC2,68,VDD_3*%
X109774516Y-113237484D03*
D37*
%TO.P,IC2,69,Vss_Pad*%
%TO.N,GND*%
X109253025Y-108190509D03*
%TD*%
D28*
%TO.P,R64,1*%
%TO.N,Net-(C37-Pad2)*%
X90678000Y-89410000D03*
%TO.P,R64,2*%
%TO.N,Net-(C35-Pad1)*%
X90678000Y-88390000D03*
%TD*%
D38*
%TO.P,C35,1*%
%TO.N,Net-(C35-Pad1)*%
X89916000Y-86819000D03*
%TO.P,C35,2*%
%TO.N,Earth*%
X89916000Y-83869000D03*
%TD*%
D20*
%TO.P,R10,1*%
%TO.N,Net-(J2-Pin_4)*%
X75753500Y-114302000D03*
%TO.P,R10,2*%
%TO.N,DIN_02*%
X78678500Y-114302000D03*
%TD*%
D39*
%TO.P,C8,1*%
%TO.N,+3.3V*%
X110260000Y-114530000D03*
%TO.P,C8,2*%
%TO.N,GND*%
X109581178Y-115208822D03*
%TD*%
D40*
%TO.P,U2,1*%
%TO.N,USB1DN*%
X106614000Y-83433500D03*
%TO.P,U2,2*%
%TO.N,GND*%
X105664000Y-83433500D03*
%TO.P,U2,3*%
%TO.N,USB1DP*%
X104714000Y-83433500D03*
%TO.P,U2,4*%
%TO.N,Net-(J10-D+-PadA6)*%
X104714000Y-81158500D03*
%TO.P,U2,5*%
%TO.N,+3.3V*%
X105664000Y-81158500D03*
%TO.P,U2,6*%
%TO.N,Net-(J10-D--PadA7)*%
X106614000Y-81158500D03*
%TD*%
D20*
%TO.P,R37,1*%
%TO.N,Net-(J2-Pin_9)*%
X75815000Y-102872000D03*
%TO.P,R37,2*%
%TO.N,DIN_07*%
X78740000Y-102872000D03*
%TD*%
D41*
%TO.P,R2,1*%
%TO.N,Net-(U1-CANL)*%
X82296000Y-124206000D03*
%TO.P,R2,2*%
%TO.N,Net-(D2-A2)*%
X82296000Y-125226000D03*
%TD*%
%TO.P,R45,1*%
%TO.N,DIN_07*%
X84074000Y-102614000D03*
%TO.P,R45,2*%
%TO.N,GND*%
X84074000Y-103634000D03*
%TD*%
D42*
%TO.P,C4,1*%
%TO.N,+3.3V*%
X103049411Y-109319411D03*
%TO.P,C4,2*%
%TO.N,GND*%
X102370589Y-108640589D03*
%TD*%
D43*
%TO.P,C25,1*%
%TO.N,DIN_01*%
X80040000Y-117130000D03*
%TO.P,C25,2*%
%TO.N,GND*%
X80040000Y-116170000D03*
%TD*%
D44*
%TO.P,D3,1,K*%
%TO.N,DIN_00*%
X81242000Y-119128000D03*
%TO.P,D3,2,A*%
%TO.N,GND*%
X82842000Y-119128000D03*
%TD*%
%TO.P,D14,1,K*%
%TO.N,DIN_03*%
X81242000Y-112270000D03*
%TO.P,D14,2,A*%
%TO.N,GND*%
X82842000Y-112270000D03*
%TD*%
D28*
%TO.P,R13,1*%
%TO.N,GND*%
X102108000Y-124210000D03*
%TO.P,R13,2*%
%TO.N,Net-(IC1-FB)*%
X102108000Y-123190000D03*
%TD*%
D43*
%TO.P,C30,1*%
%TO.N,DIN_06*%
X80030000Y-105610000D03*
%TO.P,C30,2*%
%TO.N,GND*%
X80030000Y-104650000D03*
%TD*%
D19*
%TO.P,C22,1*%
%TO.N,+3.3V*%
X106770589Y-101739411D03*
%TO.P,C22,2*%
%TO.N,GND*%
X107449411Y-101060589D03*
%TD*%
D41*
%TO.P,R43,1*%
%TO.N,DIN_05*%
X84074000Y-107188000D03*
%TO.P,R43,2*%
%TO.N,GND*%
X84074000Y-108208000D03*
%TD*%
D22*
%TO.P,C36,1*%
%TO.N,Net-(C36-Pad1)*%
X85598000Y-88420000D03*
%TO.P,C36,2*%
%TO.N,Net-(C36-Pad2)*%
X85598000Y-89380000D03*
%TD*%
D28*
%TO.P,R15,1*%
%TO.N,RS485_00_RO*%
X100480000Y-90650000D03*
%TO.P,R15,2*%
%TO.N,RS485_00_B*%
X100480000Y-89630000D03*
%TD*%
D41*
%TO.P,R40,1*%
%TO.N,DIN_02*%
X84074000Y-114046000D03*
%TO.P,R40,2*%
%TO.N,GND*%
X84074000Y-115066000D03*
%TD*%
D45*
%TO.P,R59,1*%
%TO.N,Earth*%
X78486000Y-79805000D03*
%TO.P,R59,2*%
%TO.N,GND*%
X78486000Y-82755000D03*
%TD*%
D32*
%TO.P,R27,1*%
%TO.N,RS485_01_RO*%
X113820000Y-91430000D03*
%TO.P,R27,2*%
%TO.N,RS485_01_B*%
X112800000Y-91430000D03*
%TD*%
D28*
%TO.P,R52,1*%
%TO.N,GND*%
X90170000Y-105412000D03*
%TO.P,R52,2*%
%TO.N,Dout_05*%
X90170000Y-104392000D03*
%TD*%
D46*
%TO.P,U1,1,TXD*%
%TO.N,CAN0_TX*%
X89851000Y-121539000D03*
%TO.P,U1,2,GND*%
%TO.N,GND*%
X89851000Y-122809000D03*
%TO.P,U1,3,VCC*%
%TO.N,+3.3V*%
X89851000Y-124079000D03*
%TO.P,U1,4,RXD*%
%TO.N,CAN0_RX*%
X89851000Y-125349000D03*
%TO.P,U1,5,SHDN*%
%TO.N,unconnected-(U1-SHDN-Pad5)*%
X84901000Y-125349000D03*
%TO.P,U1,6,CANL*%
%TO.N,Net-(U1-CANL)*%
X84901000Y-124079000D03*
%TO.P,U1,7,CANH*%
%TO.N,Net-(U1-CANH)*%
X84901000Y-122809000D03*
%TO.P,U1,8,S*%
%TO.N,unconnected-(U1-S-Pad8)*%
X84901000Y-121539000D03*
%TD*%
D32*
%TO.P,R14,1*%
%TO.N,+3.3V*%
X115334190Y-127950000D03*
%TO.P,R14,2*%
%TO.N,Net-(D6-A)*%
X114314190Y-127950000D03*
%TD*%
D43*
%TO.P,C1,1*%
%TO.N,+3.3V*%
X91710000Y-124080000D03*
%TO.P,C1,2*%
%TO.N,GND*%
X91710000Y-123120000D03*
%TD*%
D24*
%TO.P,Q6,1,G*%
%TO.N,Dout_02*%
X92631500Y-109858000D03*
%TO.P,Q6,2,S*%
%TO.N,GND*%
X92631500Y-111758000D03*
%TO.P,Q6,3,D*%
%TO.N,Net-(D22-A2)*%
X90756500Y-110808000D03*
%TD*%
D29*
%TO.P,D2,1,A1*%
%TO.N,GND*%
X82955000Y-130070000D03*
%TO.P,D2,2,A2*%
%TO.N,Net-(D2-A2)*%
X81985000Y-130070000D03*
%TD*%
D28*
%TO.P,R50,1*%
%TO.N,GND*%
X90170000Y-109474000D03*
%TO.P,R50,2*%
%TO.N,Dout_03*%
X90170000Y-108454000D03*
%TD*%
D40*
%TO.P,IC1,1,CB*%
%TO.N,Net-(IC1-CB)*%
X103058000Y-130169500D03*
%TO.P,IC1,2,GND*%
%TO.N,GND*%
X102108000Y-130169500D03*
%TO.P,IC1,3,FB*%
%TO.N,Net-(IC1-FB)*%
X101158000Y-130169500D03*
%TO.P,IC1,4,EN*%
%TO.N,VCC*%
X101158000Y-127894500D03*
%TO.P,IC1,5,IN*%
X102108000Y-127894500D03*
%TO.P,IC1,6,SW*%
%TO.N,Net-(IC1-SW)*%
X103058000Y-127894500D03*
%TD*%
D41*
%TO.P,R68,1*%
%TO.N,+3.3V*%
X91821000Y-94232000D03*
%TO.P,R68,2*%
%TO.N,ETH_RXP*%
X91821000Y-95252000D03*
%TD*%
D28*
%TO.P,R47,1*%
%TO.N,+3.3V*%
X78232000Y-89156000D03*
%TO.P,R47,2*%
%TO.N,Net-(D19-A)*%
X78232000Y-88136000D03*
%TD*%
D41*
%TO.P,R39,1*%
%TO.N,DIN_01*%
X84074000Y-116332000D03*
%TO.P,R39,2*%
%TO.N,GND*%
X84074000Y-117352000D03*
%TD*%
D43*
%TO.P,C28,1*%
%TO.N,DIN_04*%
X80020000Y-110240000D03*
%TO.P,C28,2*%
%TO.N,GND*%
X80020000Y-109280000D03*
%TD*%
D33*
%TO.P,R6,1*%
%TO.N,Net-(C3-Pad2)*%
X81276000Y-126238000D03*
%TO.P,R6,2*%
%TO.N,Net-(D2-A2)*%
X82296000Y-126238000D03*
%TD*%
D47*
%TO.P,D11,1,A1*%
%TO.N,GND*%
X102070000Y-92235000D03*
%TO.P,D11,2,A2*%
%TO.N,Net-(D11-A2)*%
X102070000Y-93205000D03*
%TD*%
D41*
%TO.P,R67,1*%
%TO.N,+3.3V*%
X88011000Y-94232000D03*
%TO.P,R67,2*%
%TO.N,ETH_TXN*%
X88011000Y-95252000D03*
%TD*%
D48*
%TO.P,J9,1,Pin_1*%
%TO.N,+3.3V*%
X115735000Y-120640000D03*
%TO.P,J9,2,Pin_2*%
%TO.N,SWD*%
X115735000Y-119370000D03*
%TO.P,J9,3,Pin_3*%
%TO.N,NRST*%
X114465000Y-120640000D03*
%TO.P,J9,4,Pin_4*%
%TO.N,SWCLK*%
X114465000Y-119370000D03*
%TO.P,J9,5,Pin_5*%
%TO.N,GND*%
X113195000Y-120640000D03*
%TO.P,J9,6,Pin_6*%
%TO.N,unconnected-(J9-Pin_6-Pad6)*%
X113195000Y-119370000D03*
%TD*%
D30*
%TO.P,R26,1*%
%TO.N,RS485_02_A*%
X98500000Y-104547500D03*
%TO.P,R26,2*%
%TO.N,Net-(D10-A2)*%
X98500000Y-107472500D03*
%TD*%
D29*
%TO.P,D25,1,A1*%
%TO.N,GND*%
X86287500Y-103520000D03*
%TO.P,D25,2,A2*%
%TO.N,Net-(D25-A2)*%
X85317500Y-103520000D03*
%TD*%
D41*
%TO.P,R44,1*%
%TO.N,DIN_06*%
X84074000Y-104900000D03*
%TO.P,R44,2*%
%TO.N,GND*%
X84074000Y-105920000D03*
%TD*%
D43*
%TO.P,C26,1*%
%TO.N,DIN_02*%
X80050000Y-114830000D03*
%TO.P,C26,2*%
%TO.N,GND*%
X80050000Y-113870000D03*
%TD*%
D24*
%TO.P,Q1,1,G*%
%TO.N,Net-(D5-A)*%
X98094750Y-121300000D03*
%TO.P,Q1,2,S*%
%TO.N,VCC*%
X98094750Y-123200000D03*
%TO.P,Q1,3,D*%
%TO.N,Net-(J3-Pin_1)*%
X96219750Y-122250000D03*
%TD*%
D28*
%TO.P,R29,1*%
%TO.N,RS485_01_A*%
X108777000Y-95000000D03*
%TO.P,R29,2*%
%TO.N,Net-(C20-Pad2)*%
X108777000Y-93980000D03*
%TD*%
D23*
%TO.P,C2,1*%
%TO.N,+3.3V*%
X103690000Y-110880000D03*
%TO.P,C2,2*%
%TO.N,GND*%
X102730000Y-110880000D03*
%TD*%
D20*
%TO.P,R24,1*%
%TO.N,RS485_00_A*%
X104455500Y-88138000D03*
%TO.P,R24,2*%
%TO.N,Net-(D9-A2)*%
X107380500Y-88138000D03*
%TD*%
D28*
%TO.P,R46,1*%
%TO.N,GND*%
X94234000Y-115316000D03*
%TO.P,R46,2*%
%TO.N,Dout_00*%
X94234000Y-114296000D03*
%TD*%
D43*
%TO.P,C29,1*%
%TO.N,DIN_05*%
X80010000Y-107930000D03*
%TO.P,C29,2*%
%TO.N,GND*%
X80010000Y-106970000D03*
%TD*%
D32*
%TO.P,R3,1*%
%TO.N,RS485_01_DI*%
X113845000Y-95280000D03*
%TO.P,R3,2*%
%TO.N,RS485_01_A*%
X112825000Y-95280000D03*
%TD*%
D43*
%TO.P,C11,1*%
%TO.N,Net-(IC1-CB)*%
X104394000Y-129512000D03*
%TO.P,C11,2*%
%TO.N,Net-(IC1-SW)*%
X104394000Y-128552000D03*
%TD*%
D24*
%TO.P,Q8,1,G*%
%TO.N,Dout_04*%
X92631500Y-105858000D03*
%TO.P,Q8,2,S*%
%TO.N,GND*%
X92631500Y-107758000D03*
%TO.P,Q8,3,D*%
%TO.N,Net-(D24-A2)*%
X90756500Y-106808000D03*
%TD*%
D20*
%TO.P,R35,1*%
%TO.N,Net-(J2-Pin_7)*%
X75753500Y-107444000D03*
%TO.P,R35,2*%
%TO.N,DIN_05*%
X78678500Y-107444000D03*
%TD*%
D25*
%TO.P,C12,1*%
%TO.N,+3.3V*%
X104830000Y-117900000D03*
%TO.P,C12,2*%
%TO.N,GND*%
X105790000Y-117900000D03*
%TD*%
D28*
%TO.P,R62,1*%
%TO.N,Net-(C34-Pad2)*%
X87884000Y-89408000D03*
%TO.P,R62,2*%
%TO.N,Net-(C35-Pad1)*%
X87884000Y-88388000D03*
%TD*%
D22*
%TO.P,R30,1*%
%TO.N,RS485_01_B*%
X107761000Y-93246000D03*
%TO.P,R30,2*%
%TO.N,RS485_01_A*%
X107761000Y-94206000D03*
%TD*%
%TO.P,C37,1*%
%TO.N,Net-(C37-Pad1)*%
X94234000Y-88420000D03*
%TO.P,C37,2*%
%TO.N,Net-(C37-Pad2)*%
X94234000Y-89380000D03*
%TD*%
%TO.P,C17,1*%
%TO.N,RS485_00_B*%
X102108000Y-85654000D03*
%TO.P,C17,2*%
%TO.N,Net-(C17-Pad2)*%
X102108000Y-86614000D03*
%TD*%
D32*
%TO.P,R11,1*%
%TO.N,Net-(D5-A)*%
X99699250Y-119964000D03*
%TO.P,R11,2*%
%TO.N,GND*%
X98679250Y-119964000D03*
%TD*%
D20*
%TO.P,R36,1*%
%TO.N,Net-(J2-Pin_8)*%
X75815000Y-105158000D03*
%TO.P,R36,2*%
%TO.N,DIN_06*%
X78740000Y-105158000D03*
%TD*%
D22*
%TO.P,C39,1*%
%TO.N,GND*%
X93110000Y-93260000D03*
%TO.P,C39,2*%
%TO.N,+3.3V*%
X93110000Y-94220000D03*
%TD*%
D23*
%TO.P,C23,1*%
%TO.N,NRST*%
X104765000Y-113230000D03*
%TO.P,C23,2*%
%TO.N,GND*%
X103805000Y-113230000D03*
%TD*%
D26*
%TO.P,R31,1*%
%TO.N,RS485_01_B*%
X106429500Y-92710000D03*
%TO.P,R31,2*%
%TO.N,Net-(D11-A2)*%
X103504500Y-92710000D03*
%TD*%
D32*
%TO.P,R17,1*%
%TO.N,RS485_02_RO*%
X96495000Y-100215000D03*
%TO.P,R17,2*%
%TO.N,RS485_02_B*%
X95475000Y-100215000D03*
%TD*%
D49*
%TO.P,U3,1,RO*%
%TO.N,RS485_00_RO*%
X100457000Y-92645000D03*
%TO.P,U3,2,~{RE}*%
%TO.N,RS485_00_RE*%
X99187000Y-92645000D03*
%TO.P,U3,3,DE*%
%TO.N,RS485_00_DE*%
X97917000Y-92645000D03*
%TO.P,U3,4,DI*%
%TO.N,RS485_00_DI*%
X96647000Y-92645000D03*
%TO.P,U3,5,GND*%
%TO.N,GND*%
X96647000Y-87695000D03*
%TO.P,U3,6,A*%
%TO.N,RS485_00_A*%
X97917000Y-87695000D03*
%TO.P,U3,7,B*%
%TO.N,RS485_00_B*%
X99187000Y-87695000D03*
%TO.P,U3,8,VCC*%
%TO.N,+3.3V*%
X100457000Y-87695000D03*
%TD*%
D50*
%TO.P,L3,1,1*%
%TO.N,Net-(IC1-SW)*%
X106172000Y-125961000D03*
%TO.P,L3,2,2*%
%TO.N,+3.3V*%
X106172000Y-119911000D03*
%TD*%
D41*
%TO.P,R71,1*%
%TO.N,GND*%
X103914000Y-75690000D03*
%TO.P,R71,2*%
%TO.N,Net-(J10-CC2)*%
X103914000Y-76710000D03*
%TD*%
D22*
%TO.P,C33,1*%
%TO.N,Net-(L2-RXCT)*%
X93091000Y-88422000D03*
%TO.P,C33,2*%
%TO.N,Net-(C33-Pad2)*%
X93091000Y-89382000D03*
%TD*%
D20*
%TO.P,R34,1*%
%TO.N,Net-(J2-Pin_6)*%
X75753500Y-109730000D03*
%TO.P,R34,2*%
%TO.N,DIN_04*%
X78678500Y-109730000D03*
%TD*%
D43*
%TO.P,C24,1*%
%TO.N,DIN_00*%
X80040000Y-119330000D03*
%TO.P,C24,2*%
%TO.N,GND*%
X80040000Y-118370000D03*
%TD*%
D22*
%TO.P,R21,1*%
%TO.N,RS485_00_B*%
X103124000Y-86642000D03*
%TO.P,R21,2*%
%TO.N,RS485_00_A*%
X103124000Y-87602000D03*
%TD*%
D28*
%TO.P,R55,1*%
%TO.N,+3.3V*%
X76962000Y-89156000D03*
%TO.P,R55,2*%
%TO.N,Net-(D26-A)*%
X76962000Y-88136000D03*
%TD*%
D41*
%TO.P,R58,1*%
%TO.N,Net-(IC2-BOOT0)*%
X113410000Y-114395000D03*
%TO.P,R58,2*%
%TO.N,GND*%
X113410000Y-115415000D03*
%TD*%
%TO.P,R1,1*%
%TO.N,Net-(U1-CANH)*%
X79248000Y-124206000D03*
%TO.P,R1,2*%
%TO.N,Net-(D1-A2)*%
X79248000Y-125226000D03*
%TD*%
D25*
%TO.P,C19,1*%
%TO.N,+3.3V*%
X110810000Y-90030000D03*
%TO.P,C19,2*%
%TO.N,GND*%
X111770000Y-90030000D03*
%TD*%
D22*
%TO.P,C40,1*%
%TO.N,GND*%
X86740000Y-93280000D03*
%TO.P,C40,2*%
%TO.N,+3.3V*%
X86740000Y-94240000D03*
%TD*%
D44*
%TO.P,D16,1,K*%
%TO.N,DIN_05*%
X81242000Y-107698000D03*
%TO.P,D16,2,A*%
%TO.N,GND*%
X82842000Y-107698000D03*
%TD*%
D45*
%TO.P,C32,1*%
%TO.N,Earth*%
X75692000Y-79805000D03*
%TO.P,C32,2*%
%TO.N,GND*%
X75692000Y-82755000D03*
%TD*%
D22*
%TO.P,C34,1*%
%TO.N,Net-(L2-TXCT)*%
X86741000Y-88422000D03*
%TO.P,C34,2*%
%TO.N,Net-(C34-Pad2)*%
X86741000Y-89382000D03*
%TD*%
D24*
%TO.P,Q7,1,G*%
%TO.N,Dout_03*%
X88743000Y-107858000D03*
%TO.P,Q7,2,S*%
%TO.N,GND*%
X88743000Y-109758000D03*
%TO.P,Q7,3,D*%
%TO.N,Net-(D23-A2)*%
X86868000Y-108808000D03*
%TD*%
D51*
%TO.P,D12,1,A1*%
%TO.N,GND*%
X102030000Y-95575000D03*
%TO.P,D12,2,A2*%
%TO.N,Net-(D12-A2)*%
X102030000Y-94605000D03*
%TD*%
D23*
%TO.P,C3,1*%
%TO.N,GND*%
X81252000Y-125222000D03*
%TO.P,C3,2*%
%TO.N,Net-(C3-Pad2)*%
X80292000Y-125222000D03*
%TD*%
D20*
%TO.P,R23,1*%
%TO.N,RS485_00_B*%
X104455500Y-85852000D03*
%TO.P,R23,2*%
%TO.N,Net-(D7-A2)*%
X107380500Y-85852000D03*
%TD*%
D22*
%TO.P,R22,1*%
%TO.N,RS485_02_B*%
X90330000Y-100380000D03*
%TO.P,R22,2*%
%TO.N,RS485_02_A*%
X90330000Y-101340000D03*
%TD*%
D28*
%TO.P,R63,1*%
%TO.N,Net-(C36-Pad2)*%
X89154000Y-89410000D03*
%TO.P,R63,2*%
%TO.N,Net-(C35-Pad1)*%
X89154000Y-88390000D03*
%TD*%
D29*
%TO.P,D21,1,A1*%
%TO.N,GND*%
X86055000Y-111540000D03*
%TO.P,D21,2,A2*%
%TO.N,Net-(D21-A2)*%
X85085000Y-111540000D03*
%TD*%
D33*
%TO.P,R5,1*%
%TO.N,Net-(D1-A2)*%
X79244000Y-126238000D03*
%TO.P,R5,2*%
%TO.N,Net-(C3-Pad2)*%
X80264000Y-126238000D03*
%TD*%
D39*
%TO.P,C7,1*%
%TO.N,+3.3V*%
X111279411Y-115030589D03*
%TO.P,C7,2*%
%TO.N,GND*%
X110600589Y-115709411D03*
%TD*%
D44*
%TO.P,D13,1,K*%
%TO.N,DIN_02*%
X81242000Y-114556000D03*
%TO.P,D13,2,A*%
%TO.N,GND*%
X82842000Y-114556000D03*
%TD*%
D31*
%TO.P,D1,1,A1*%
%TO.N,GND*%
X79017000Y-130048000D03*
%TO.P,D1,2,A2*%
%TO.N,Net-(D1-A2)*%
X79987000Y-130048000D03*
%TD*%
D28*
%TO.P,R12,1*%
%TO.N,Net-(IC1-FB)*%
X102108000Y-122178000D03*
%TO.P,R12,2*%
%TO.N,+3.3V*%
X102108000Y-121158000D03*
%TD*%
D24*
%TO.P,Q9,1,G*%
%TO.N,Dout_05*%
X88646000Y-103858000D03*
%TO.P,Q9,2,S*%
%TO.N,GND*%
X88646000Y-105758000D03*
%TO.P,Q9,3,D*%
%TO.N,Net-(D25-A2)*%
X86771000Y-104808000D03*
%TD*%
D44*
%TO.P,D15,1,K*%
%TO.N,DIN_04*%
X81242000Y-109984000D03*
%TO.P,D15,2,A*%
%TO.N,GND*%
X82842000Y-109984000D03*
%TD*%
D31*
%TO.P,D22,1,A1*%
%TO.N,GND*%
X85105000Y-110360000D03*
%TO.P,D22,2,A2*%
%TO.N,Net-(D22-A2)*%
X86075000Y-110360000D03*
%TD*%
D41*
%TO.P,R38,1*%
%TO.N,DIN_00*%
X84074000Y-118618000D03*
%TO.P,R38,2*%
%TO.N,GND*%
X84074000Y-119638000D03*
%TD*%
D31*
%TO.P,D20,1,A1*%
%TO.N,GND*%
X88045000Y-115150000D03*
%TO.P,D20,2,A2*%
%TO.N,Net-(D20-A2)*%
X89015000Y-115150000D03*
%TD*%
D32*
%TO.P,R\u00EA1,1*%
%TO.N,RS485_02_DI*%
X96470000Y-101490000D03*
%TO.P,R\u00EA1,2*%
%TO.N,RS485_02_A*%
X95450000Y-101490000D03*
%TD*%
D41*
%TO.P,R42,1*%
%TO.N,DIN_04*%
X84074000Y-109474000D03*
%TO.P,R42,2*%
%TO.N,GND*%
X84074000Y-110494000D03*
%TD*%
D28*
%TO.P,R60,1*%
%TO.N,Net-(C33-Pad2)*%
X91948000Y-89410000D03*
%TO.P,R60,2*%
%TO.N,Net-(C35-Pad1)*%
X91948000Y-88390000D03*
%TD*%
D44*
%TO.P,D18,1,K*%
%TO.N,DIN_07*%
X81242000Y-103124000D03*
%TO.P,D18,2,A*%
%TO.N,GND*%
X82842000Y-103124000D03*
%TD*%
D41*
%TO.P,R66,1*%
%TO.N,+3.3V*%
X85471000Y-94232000D03*
%TO.P,R66,2*%
%TO.N,ETH_TXP*%
X85471000Y-95252000D03*
%TD*%
D28*
%TO.P,R51,1*%
%TO.N,GND*%
X94234000Y-107442000D03*
%TO.P,R51,2*%
%TO.N,Dout_04*%
X94234000Y-106422000D03*
%TD*%
D43*
%TO.P,C27,1*%
%TO.N,DIN_03*%
X80040000Y-112500000D03*
%TO.P,C27,2*%
%TO.N,GND*%
X80040000Y-111540000D03*
%TD*%
D28*
%TO.P,R20,1*%
%TO.N,RS485_02_A*%
X91510000Y-102360000D03*
%TO.P,R20,2*%
%TO.N,Net-(C18-Pad2)*%
X91510000Y-101340000D03*
%TD*%
D46*
%TO.P,U4,1,RO*%
%TO.N,RS485_02_RO*%
X98410000Y-98945000D03*
%TO.P,U4,2,~{RE}*%
%TO.N,RS485_02_RE*%
X98410000Y-100215000D03*
%TO.P,U4,3,DE*%
%TO.N,RS485_02_DE*%
X98410000Y-101485000D03*
%TO.P,U4,4,DI*%
%TO.N,RS485_02_DI*%
X98410000Y-102755000D03*
%TO.P,U4,5,GND*%
%TO.N,GND*%
X93460000Y-102755000D03*
%TO.P,U4,6,A*%
%TO.N,RS485_02_A*%
X93460000Y-101485000D03*
%TO.P,U4,7,B*%
%TO.N,RS485_02_B*%
X93460000Y-100215000D03*
%TO.P,U4,8,VCC*%
%TO.N,+3.3V*%
X93460000Y-98945000D03*
%TD*%
D43*
%TO.P,C31,1*%
%TO.N,DIN_07*%
X80010000Y-103350000D03*
%TO.P,C31,2*%
%TO.N,GND*%
X80010000Y-102390000D03*
%TD*%
D22*
%TO.P,C18,1*%
%TO.N,RS485_02_B*%
X91500000Y-99330000D03*
%TO.P,C18,2*%
%TO.N,Net-(C18-Pad2)*%
X91500000Y-100290000D03*
%TD*%
D44*
%TO.P,D17,1,K*%
%TO.N,DIN_06*%
X81242000Y-105410000D03*
%TO.P,D17,2,A*%
%TO.N,GND*%
X82842000Y-105410000D03*
%TD*%
D41*
%TO.P,R41,1*%
%TO.N,DIN_03*%
X84074000Y-111760000D03*
%TO.P,R41,2*%
%TO.N,GND*%
X84074000Y-112780000D03*
%TD*%
D47*
%TO.P,D7,1,A1*%
%TO.N,GND*%
X108966000Y-85367000D03*
%TO.P,D7,2,A2*%
%TO.N,Net-(D7-A2)*%
X108966000Y-86337000D03*
%TD*%
D46*
%TO.P,U5,1,RO*%
%TO.N,RS485_01_RO*%
X115759000Y-91440000D03*
%TO.P,U5,2,~{RE}*%
%TO.N,RS485_01_RE*%
X115759000Y-92710000D03*
%TO.P,U5,3,DE*%
%TO.N,RS485_01_DE*%
X115759000Y-93980000D03*
%TO.P,U5,4,DI*%
%TO.N,RS485_01_DI*%
X115759000Y-95250000D03*
%TO.P,U5,5,GND*%
%TO.N,GND*%
X110809000Y-95250000D03*
%TO.P,U5,6,A*%
%TO.N,RS485_01_A*%
X110809000Y-93980000D03*
%TO.P,U5,7,B*%
%TO.N,RS485_01_B*%
X110809000Y-92710000D03*
%TO.P,U5,8,VCC*%
%TO.N,+3.3V*%
X110809000Y-91440000D03*
%TD*%
D41*
%TO.P,R70,1*%
%TO.N,GND*%
X106914000Y-75690000D03*
%TO.P,R70,2*%
%TO.N,Net-(J10-CC1)*%
X106914000Y-76710000D03*
%TD*%
D33*
%TO.P,R9,1*%
%TO.N,Net-(D1-A2)*%
X80262000Y-127508000D03*
%TO.P,R9,2*%
%TO.N,Net-(D2-A2)*%
X81282000Y-127508000D03*
%TD*%
D21*
%TO.P,D28,1,K*%
%TO.N,VBUS*%
X108458000Y-83092000D03*
%TO.P,D28,2,A*%
%TO.N,Net-(D28-A)*%
X108458000Y-80992000D03*
%TD*%
D41*
%TO.P,R69,1*%
%TO.N,+3.3V*%
X94361000Y-94232000D03*
%TO.P,R69,2*%
%TO.N,ETH_RXN*%
X94361000Y-95252000D03*
%TD*%
D31*
%TO.P,D10,1,A1*%
%TO.N,GND*%
X98185000Y-108920000D03*
%TO.P,D10,2,A2*%
%TO.N,Net-(D10-A2)*%
X99155000Y-108920000D03*
%TD*%
D20*
%TO.P,R7,1*%
%TO.N,Net-(J2-Pin_2)*%
X75753500Y-118874000D03*
%TO.P,R7,2*%
%TO.N,DIN_00*%
X78678500Y-118874000D03*
%TD*%
D44*
%TO.P,D4,1,K*%
%TO.N,DIN_01*%
X81242000Y-116842000D03*
%TO.P,D4,2,A*%
%TO.N,GND*%
X82842000Y-116842000D03*
%TD*%
D29*
%TO.P,D23,1,A1*%
%TO.N,GND*%
X86055000Y-107900000D03*
%TO.P,D23,2,A2*%
%TO.N,Net-(D23-A2)*%
X85085000Y-107900000D03*
%TD*%
D20*
%TO.P,R33,1*%
%TO.N,Net-(J2-Pin_5)*%
X75753500Y-112016000D03*
%TO.P,R33,2*%
%TO.N,DIN_03*%
X78678500Y-112016000D03*
%TD*%
D51*
%TO.P,D9,1,A1*%
%TO.N,GND*%
X108966000Y-88655000D03*
%TO.P,D9,2,A2*%
%TO.N,Net-(D9-A2)*%
X108966000Y-87685000D03*
%TD*%
D28*
%TO.P,R19,1*%
%TO.N,RS485_00_A*%
X102108000Y-88644000D03*
%TO.P,R19,2*%
%TO.N,Net-(C17-Pad2)*%
X102108000Y-87624000D03*
%TD*%
D52*
%TO.N,GND*%
X84070000Y-110970000D03*
X84070000Y-108690000D03*
X84070000Y-115580000D03*
X95620000Y-116010000D03*
X97300000Y-108345500D03*
X80000000Y-83120000D03*
X102310000Y-110855000D03*
X91720000Y-122590000D03*
X74930000Y-95758000D03*
X102360000Y-131310000D03*
X105730000Y-130790000D03*
X90965000Y-122325000D03*
X110000000Y-115720000D03*
X112280000Y-90030000D03*
X91460000Y-111790000D03*
X99000000Y-85850000D03*
X103570000Y-126280000D03*
X84090000Y-120150000D03*
X79020000Y-129470000D03*
X102070000Y-91730000D03*
X80000000Y-82420000D03*
X108960000Y-89190000D03*
X89710000Y-113870000D03*
X82852500Y-128740000D03*
X107495176Y-84187081D03*
X84070000Y-113270000D03*
X86620000Y-111690000D03*
X90691500Y-105933500D03*
X110236000Y-102108000D03*
X103150000Y-96648500D03*
X74390000Y-82460000D03*
X113090000Y-128890000D03*
X74390000Y-83130000D03*
X97896000Y-119964000D03*
X82960000Y-129520000D03*
X113160000Y-107680000D03*
X113410000Y-115905000D03*
X84090000Y-104110000D03*
X87750000Y-109760000D03*
X82850000Y-120010000D03*
X102760000Y-108255000D03*
X108960000Y-84874500D03*
X76252500Y-100890000D03*
X108210000Y-111505000D03*
X91370000Y-115770000D03*
X88060000Y-115770000D03*
X85381240Y-106198660D03*
X95148400Y-97540000D03*
X86630000Y-107890000D03*
X85100000Y-109820000D03*
X80010000Y-101860000D03*
X83960000Y-131210000D03*
X106760000Y-82255000D03*
X113090000Y-129300000D03*
X116467500Y-129380000D03*
X106660000Y-117690000D03*
X86730000Y-92780000D03*
X86860000Y-103582500D03*
X84070000Y-117850000D03*
X113195000Y-121405000D03*
X106934000Y-75184000D03*
X103886000Y-75184000D03*
X115860000Y-105380000D03*
X91430000Y-107760000D03*
X96110000Y-87690000D03*
X107670000Y-123790000D03*
X103260000Y-113230000D03*
X84500000Y-105530000D03*
X94680000Y-102770000D03*
X101870000Y-131310000D03*
X101580114Y-123701856D03*
X106220000Y-130790000D03*
X111658400Y-98221800D03*
X78860000Y-128270000D03*
X108190000Y-101060000D03*
X89910000Y-92760000D03*
X107010000Y-123780000D03*
X81250000Y-124670000D03*
X112060000Y-95240000D03*
X92670000Y-92830000D03*
X107370000Y-117700000D03*
%TO.N,+3.3V*%
X102910000Y-109355000D03*
X92490000Y-124080000D03*
X89910000Y-94880000D03*
X86750000Y-95840000D03*
X93100000Y-95440000D03*
X114460000Y-115880000D03*
X94730000Y-83810000D03*
X105664000Y-82042000D03*
X76962000Y-89662000D03*
X115735000Y-121405000D03*
X93120000Y-94880000D03*
X107410000Y-101870000D03*
X92570502Y-97500000D03*
X102590000Y-116940000D03*
X110653196Y-114981031D03*
X110780000Y-89500000D03*
X115927500Y-127950000D03*
X89900000Y-116000000D03*
X86730000Y-94880000D03*
X103260000Y-117660000D03*
X103260000Y-116950000D03*
X102590000Y-117640000D03*
X111635000Y-115390000D03*
X85370000Y-83820000D03*
X100361648Y-85291500D03*
X103235000Y-111380000D03*
%TO.N,Net-(D1-A2)*%
X79978000Y-131318000D03*
%TO.N,Net-(D2-A2)*%
X81978000Y-131318000D03*
%TO.N,NRST*%
X105285000Y-113755000D03*
X114460000Y-121405000D03*
%TO.N,Net-(L2-RXCT)*%
X93091000Y-87376000D03*
%TO.N,Net-(L2-TXCT)*%
X86741000Y-87376000D03*
%TO.N,Net-(C36-Pad1)*%
X85585000Y-87005000D03*
%TO.N,Net-(C37-Pad1)*%
X94535000Y-87080000D03*
%TO.N,StatLED00*%
X102235000Y-103708200D03*
%TO.N,Net-(D19-A)*%
X78232000Y-87630000D03*
%TO.N,StatLED01*%
X102685000Y-103301800D03*
%TO.N,Net-(D26-A)*%
X76962000Y-87630000D03*
%TO.N,StatLED02*%
X103147438Y-102819200D03*
%TO.N,Net-(D27-A)*%
X75692000Y-87630000D03*
%TO.N,Net-(IC1-FB)*%
X101160000Y-129310000D03*
X102110000Y-122680000D03*
%TO.N,ETH_RXP*%
X109804200Y-104546400D03*
X91210000Y-95250000D03*
%TO.N,ETH_RXN*%
X111725739Y-104020739D03*
X94930000Y-95250000D03*
%TO.N,ETH_TXP*%
X110760000Y-105355000D03*
X85470000Y-95840000D03*
%TO.N,ETH_TXN*%
X88010000Y-95840000D03*
X112266424Y-104611424D03*
%TO.N,CAN0_RX*%
X100810000Y-120130000D03*
X112710000Y-116255000D03*
%TO.N,CAN0_TX*%
X100710000Y-119355000D03*
X111985000Y-116255000D03*
%TO.N,SWD*%
X115760000Y-118480000D03*
X112635000Y-107255000D03*
%TO.N,Ant*%
X114858800Y-107137200D03*
%TO.N,VCC*%
X109110000Y-128290000D03*
X100670000Y-125300000D03*
X100670000Y-124550000D03*
X108650000Y-128290000D03*
%TO.N,Net-(J2-Pin_2)*%
X74422000Y-116872000D03*
%TO.N,Net-(J2-Pin_3)*%
X74422000Y-114872000D03*
%TO.N,Net-(J2-Pin_4)*%
X74422000Y-112872000D03*
%TO.N,Net-(J2-Pin_5)*%
X74422000Y-110872000D03*
%TO.N,Net-(J2-Pin_6)*%
X74422000Y-108872000D03*
%TO.N,Net-(J2-Pin_7)*%
X74422000Y-106872000D03*
%TO.N,Net-(J2-Pin_8)*%
X74422000Y-104902000D03*
%TO.N,Net-(J2-Pin_9)*%
X74422000Y-102870000D03*
%TO.N,Net-(D7-A2)*%
X108210000Y-85860000D03*
%TO.N,Net-(D9-A2)*%
X108230000Y-88150000D03*
%TO.N,Net-(D8-A2)*%
X94710000Y-108280000D03*
%TO.N,Net-(D10-A2)*%
X99610000Y-108345500D03*
%TO.N,Net-(D11-A2)*%
X101530000Y-93210000D03*
%TO.N,Net-(D12-A2)*%
X101470000Y-94600000D03*
%TO.N,Net-(D20-A2)*%
X91920000Y-114800000D03*
%TO.N,Net-(D21-A2)*%
X85578000Y-112808000D03*
%TO.N,Net-(D22-A2)*%
X91950000Y-110808000D03*
%TO.N,Net-(D23-A2)*%
X85090000Y-108808000D03*
%TO.N,Net-(D24-A2)*%
X92010000Y-106800000D03*
%TO.N,Net-(D25-A2)*%
X85090000Y-104808000D03*
%TO.N,RS485_00_A*%
X101550000Y-88742500D03*
X97917000Y-86510000D03*
%TO.N,Net-(D28-A)*%
X107950000Y-80264000D03*
X107950000Y-79756000D03*
X108458000Y-79756000D03*
X108458000Y-80264000D03*
%TO.N,Net-(J10-CC1)*%
X106914000Y-77470000D03*
%TO.N,Net-(J10-D+-PadA6)*%
X105410000Y-77470000D03*
%TO.N,Net-(J10-D--PadA7)*%
X105918000Y-80010000D03*
%TO.N,Net-(J10-CC2)*%
X103914000Y-77470000D03*
%TO.N,USB1DN*%
X114410000Y-105030000D03*
X113135000Y-103730000D03*
%TO.N,USB1DP*%
X113860000Y-105855000D03*
X112435000Y-103655000D03*
%TO.N,Net-(J3-Pin_1)*%
X95819999Y-119960000D03*
X96510000Y-119960000D03*
%TD*%
D53*
%TO.N,Net-(D28-A)*%
X107950000Y-79756000D02*
X107950000Y-80264000D01*
X108458000Y-80264000D02*
X108458000Y-79756000D01*
X107950000Y-80264000D02*
X108458000Y-80264000D01*
X107950000Y-79756000D02*
X108458000Y-79756000D01*
D54*
%TO.N,GND*%
X94260000Y-97540000D02*
X95148400Y-97540000D01*
D55*
X79020000Y-130045000D02*
X79017000Y-130048000D01*
X106450000Y-117900000D02*
X106660000Y-117690000D01*
D54*
X97017000Y-108345500D02*
X96402500Y-108960000D01*
D55*
X84070000Y-113270000D02*
X84074000Y-113266000D01*
D54*
X103150000Y-96648500D02*
X102076500Y-95575000D01*
D55*
X80824538Y-115481000D02*
X81659462Y-115481000D01*
D56*
X108210000Y-111496276D02*
X109253025Y-110453251D01*
D54*
X91370000Y-115770000D02*
X93780000Y-115770000D01*
D57*
X112647137Y-108190509D02*
X109253025Y-108190509D01*
D54*
X90691500Y-105933500D02*
X90170000Y-105412000D01*
X96110000Y-87690000D02*
X96642000Y-87690000D01*
D56*
X86065000Y-107890000D02*
X86055000Y-107900000D01*
D55*
X97896000Y-119964000D02*
X98679250Y-119964000D01*
X84070000Y-117850000D02*
X84070000Y-117356000D01*
D54*
X78486000Y-82755000D02*
X79635000Y-82755000D01*
X75317000Y-83130000D02*
X75692000Y-82755000D01*
D55*
X79020000Y-129470000D02*
X79020000Y-130045000D01*
X84070000Y-113270000D02*
X84070000Y-112776000D01*
X80040000Y-116170000D02*
X80080000Y-116170000D01*
X82850000Y-120010000D02*
X82850000Y-119136000D01*
D54*
X97300000Y-108345500D02*
X97610500Y-108345500D01*
X102076500Y-95575000D02*
X102030000Y-95575000D01*
X86730000Y-92780000D02*
X86730000Y-93270000D01*
D55*
X80050000Y-113870000D02*
X80725000Y-113195000D01*
D54*
X106914000Y-75204000D02*
X106934000Y-75184000D01*
D57*
X113410000Y-115415000D02*
X113410000Y-115905000D01*
D54*
X91430000Y-107760000D02*
X93916000Y-107760000D01*
D55*
X82665604Y-107698000D02*
X82842000Y-107698000D01*
X86620000Y-111690000D02*
X86205000Y-111690000D01*
X82636000Y-109984000D02*
X82842000Y-109984000D01*
D56*
X85381240Y-106198660D02*
X85381240Y-106483760D01*
D54*
X112280000Y-90030000D02*
X111770000Y-90030000D01*
D55*
X84070000Y-108204000D02*
X83564000Y-107698000D01*
D54*
X108966000Y-89184000D02*
X108960000Y-89190000D01*
D55*
X83564000Y-107698000D02*
X82842000Y-107698000D01*
D56*
X110590000Y-115720000D02*
X110600589Y-115709411D01*
D54*
X92631500Y-111758000D02*
X93792000Y-111758000D01*
X93792000Y-111728000D02*
X94200000Y-111320000D01*
D55*
X105790000Y-117900000D02*
X106450000Y-117900000D01*
D57*
X113734314Y-107103332D02*
X112647137Y-108190509D01*
D54*
X108960000Y-85361000D02*
X108966000Y-85367000D01*
X103914000Y-75212000D02*
X103886000Y-75184000D01*
D56*
X86630000Y-107890000D02*
X86065000Y-107890000D01*
D57*
X102310000Y-110855000D02*
X102705000Y-110855000D01*
D55*
X80783000Y-115467000D02*
X80810538Y-115467000D01*
D54*
X110819000Y-95240000D02*
X110809000Y-95250000D01*
D55*
X83564000Y-116842000D02*
X84074000Y-117352000D01*
D54*
X84090000Y-103650000D02*
X83564000Y-103124000D01*
X106914000Y-75690000D02*
X106914000Y-75204000D01*
X97300000Y-108345500D02*
X97017000Y-108345500D01*
D56*
X101599856Y-123701856D02*
X102108000Y-124210000D01*
D54*
X90128000Y-105412000D02*
X89782000Y-105758000D01*
D57*
X108189411Y-101060589D02*
X108189411Y-101840589D01*
D55*
X91720000Y-123110000D02*
X91710000Y-123120000D01*
X90481000Y-122809000D02*
X89851000Y-122809000D01*
D54*
X112060000Y-95240000D02*
X110819000Y-95240000D01*
D57*
X108190000Y-101060000D02*
X108189411Y-101060589D01*
D56*
X85381240Y-106483760D02*
X85085000Y-106780000D01*
D55*
X106220000Y-130790000D02*
X106220000Y-129815000D01*
X105730000Y-130790000D02*
X105730000Y-129735000D01*
D54*
X90170000Y-105412000D02*
X90128000Y-105412000D01*
D55*
X81659462Y-115481000D02*
X81673462Y-115467000D01*
D54*
X80030000Y-104650000D02*
X80490000Y-104190000D01*
X84090000Y-104110000D02*
X84090000Y-103650000D01*
D55*
X84090000Y-119654000D02*
X84074000Y-119638000D01*
D57*
X102370589Y-108640589D02*
X102374411Y-108640589D01*
X108189411Y-101060589D02*
X107449411Y-101060589D01*
D55*
X81673462Y-113181000D02*
X82139000Y-113181000D01*
D54*
X81776000Y-104190000D02*
X82842000Y-103124000D01*
X103914000Y-75690000D02*
X103914000Y-75212000D01*
X90146000Y-109474000D02*
X89800000Y-109820000D01*
X92599500Y-111790000D02*
X92631500Y-111758000D01*
D55*
X81337000Y-106773000D02*
X82700000Y-105410000D01*
D56*
X102108000Y-131058000D02*
X102360000Y-131310000D01*
D54*
X107967081Y-84187081D02*
X107970000Y-84190000D01*
D55*
X84070000Y-108690000D02*
X84074000Y-108686000D01*
X82850000Y-119136000D02*
X82842000Y-119128000D01*
X116467500Y-129380000D02*
X115577500Y-129380000D01*
X80010000Y-102390000D02*
X80010000Y-101860000D01*
D54*
X88646000Y-113758000D02*
X89710000Y-113870000D01*
D55*
X84070000Y-108690000D02*
X84070000Y-108204000D01*
D54*
X89710000Y-113870000D02*
X89698000Y-113758000D01*
D55*
X83564000Y-105410000D02*
X82842000Y-105410000D01*
D57*
X84070000Y-115070000D02*
X84074000Y-115066000D01*
D54*
X92553000Y-115758000D02*
X91382000Y-115758000D01*
D56*
X102108000Y-130169500D02*
X102108000Y-131058000D01*
D55*
X82960000Y-129520000D02*
X82960000Y-130065000D01*
D54*
X93780000Y-115770000D02*
X94234000Y-115316000D01*
D55*
X84070000Y-112776000D02*
X83564000Y-112270000D01*
D54*
X89910000Y-93260000D02*
X89920000Y-93270000D01*
X102070000Y-91730000D02*
X102070000Y-92235000D01*
X74390000Y-83130000D02*
X75317000Y-83130000D01*
D55*
X82960000Y-130065000D02*
X82955000Y-130070000D01*
X84070000Y-110970000D02*
X84074000Y-110966000D01*
X81250000Y-125220000D02*
X81252000Y-125222000D01*
D57*
X102374411Y-108640589D02*
X102760000Y-108255000D01*
D55*
X90965000Y-122325000D02*
X90481000Y-122809000D01*
X78860000Y-128320000D02*
X79270000Y-128730000D01*
X80207000Y-106773000D02*
X81337000Y-106773000D01*
X81659462Y-113195000D02*
X81673462Y-113181000D01*
D56*
X108210000Y-111505000D02*
X108210000Y-111496276D01*
D54*
X89782000Y-105758000D02*
X88646000Y-105758000D01*
D56*
X102108000Y-131072000D02*
X101870000Y-131310000D01*
D54*
X108966000Y-88655000D02*
X108966000Y-89184000D01*
D55*
X84070000Y-110970000D02*
X84070000Y-110490000D01*
D56*
X88060000Y-115165000D02*
X88045000Y-115150000D01*
D55*
X80241000Y-109059000D02*
X81304604Y-109059000D01*
D54*
X86730000Y-93270000D02*
X86740000Y-93280000D01*
D56*
X107600163Y-112106113D02*
X108201276Y-111505000D01*
X103570000Y-126280000D02*
X103080000Y-126280000D01*
D55*
X105730000Y-129735000D02*
X105935000Y-129530000D01*
X82139000Y-113181000D02*
X82842000Y-112478000D01*
X84090000Y-120150000D02*
X84090000Y-119654000D01*
D54*
X84074000Y-104094000D02*
X84074000Y-103634000D01*
D55*
X85100000Y-109820000D02*
X85100000Y-110355000D01*
D56*
X115860000Y-105380000D02*
X115499411Y-105740589D01*
X102108000Y-130169500D02*
X102108000Y-131072000D01*
D55*
X78860000Y-128270000D02*
X78860000Y-128320000D01*
X83564000Y-114556000D02*
X84074000Y-115066000D01*
X81250000Y-124670000D02*
X81250000Y-125220000D01*
X84500000Y-105530000D02*
X84110000Y-105920000D01*
D56*
X88741000Y-109760000D02*
X88743000Y-109758000D01*
D55*
X84110000Y-105920000D02*
X84074000Y-105920000D01*
X80725000Y-113195000D02*
X81659462Y-113195000D01*
D54*
X99000000Y-85850000D02*
X99470000Y-85850000D01*
D55*
X80040000Y-118370000D02*
X80207000Y-118203000D01*
X83564000Y-112270000D02*
X82842000Y-112270000D01*
D54*
X108960000Y-84874500D02*
X108960000Y-85361000D01*
X89698000Y-113758000D02*
X90170000Y-113286000D01*
D55*
X84070000Y-117356000D02*
X84074000Y-117352000D01*
D56*
X109253025Y-110453251D02*
X109253025Y-108190509D01*
D55*
X85100000Y-110355000D02*
X85105000Y-110360000D01*
D56*
X87750000Y-109760000D02*
X88741000Y-109760000D01*
D55*
X82842000Y-112478000D02*
X82842000Y-112270000D01*
D54*
X97610500Y-108345500D02*
X98185000Y-108920000D01*
D56*
X108201276Y-111505000D02*
X108210000Y-111505000D01*
X110000000Y-115720000D02*
X109981178Y-115720000D01*
D55*
X91720000Y-122590000D02*
X91720000Y-123110000D01*
D57*
X113195000Y-121405000D02*
X113195000Y-120640000D01*
D54*
X83564000Y-103124000D02*
X82842000Y-103124000D01*
D55*
X81275000Y-111345000D02*
X82636000Y-109984000D01*
X83564000Y-109984000D02*
X82842000Y-109984000D01*
X81673462Y-115467000D02*
X82123000Y-115467000D01*
D54*
X80030000Y-82420000D02*
X80030000Y-83090000D01*
X75692000Y-83058000D02*
X75692000Y-82755000D01*
D55*
X80810538Y-115467000D02*
X80824538Y-115481000D01*
D56*
X86860000Y-103582500D02*
X86174500Y-103582500D01*
D54*
X93475000Y-102770000D02*
X93460000Y-102755000D01*
D55*
X106220000Y-129815000D02*
X105935000Y-129530000D01*
D54*
X94680000Y-102770000D02*
X93475000Y-102770000D01*
D55*
X82842000Y-116842000D02*
X83564000Y-116842000D01*
D57*
X103805000Y-113230000D02*
X103260000Y-113230000D01*
D54*
X94042000Y-111508000D02*
X94234000Y-111508000D01*
D55*
X84070000Y-110490000D02*
X83564000Y-109984000D01*
X82852500Y-128740000D02*
X82260000Y-128740000D01*
D56*
X101580114Y-123701856D02*
X101599856Y-123701856D01*
D55*
X82701604Y-116842000D02*
X82842000Y-116842000D01*
D54*
X84090000Y-104110000D02*
X84074000Y-104094000D01*
D55*
X82842000Y-114748000D02*
X82842000Y-114556000D01*
D54*
X93916000Y-107760000D02*
X94234000Y-107442000D01*
D55*
X81340604Y-118203000D02*
X82701604Y-116842000D01*
X84074000Y-110966000D02*
X84074000Y-110494000D01*
D57*
X102705000Y-110855000D02*
X102730000Y-110880000D01*
D54*
X80030000Y-83090000D02*
X80000000Y-83120000D01*
X84070000Y-115580000D02*
X84070000Y-115070000D01*
D55*
X86205000Y-111690000D02*
X86055000Y-111540000D01*
X106613812Y-82255000D02*
X105664000Y-83204812D01*
D54*
X93100000Y-93260000D02*
X93110000Y-93260000D01*
D55*
X82700000Y-105410000D02*
X82842000Y-105410000D01*
X84074000Y-108686000D02*
X84074000Y-108208000D01*
D54*
X79635000Y-82755000D02*
X80000000Y-83120000D01*
D55*
X80235000Y-111345000D02*
X81275000Y-111345000D01*
X81304604Y-109059000D02*
X82665604Y-107698000D01*
D54*
X93792000Y-111758000D02*
X93792000Y-111728000D01*
X93792000Y-111758000D02*
X94042000Y-111508000D01*
X89910000Y-92760000D02*
X89910000Y-93260000D01*
D55*
X80040000Y-111540000D02*
X80235000Y-111345000D01*
D54*
X74390000Y-82460000D02*
X74390000Y-83130000D01*
X107495176Y-84187081D02*
X107967081Y-84187081D01*
D55*
X82842000Y-114556000D02*
X83564000Y-114556000D01*
X80010000Y-106970000D02*
X80207000Y-106773000D01*
D54*
X96642000Y-87690000D02*
X96647000Y-87695000D01*
D56*
X109981178Y-115720000D02*
X109570589Y-115309411D01*
D54*
X99470000Y-85850000D02*
X99480000Y-85860000D01*
D56*
X110000000Y-115720000D02*
X110590000Y-115720000D01*
D54*
X88805000Y-109820000D02*
X88743000Y-109758000D01*
D56*
X88060000Y-115770000D02*
X88060000Y-115165000D01*
D55*
X84074000Y-105920000D02*
X83564000Y-105410000D01*
D54*
X90170000Y-109474000D02*
X90146000Y-109474000D01*
D55*
X105664000Y-83204812D02*
X105664000Y-83433500D01*
X80080000Y-116170000D02*
X80783000Y-115467000D01*
X80020000Y-109280000D02*
X80241000Y-109059000D01*
X80207000Y-118203000D02*
X81340604Y-118203000D01*
D54*
X89800000Y-109820000D02*
X88805000Y-109820000D01*
X92670000Y-92830000D02*
X93100000Y-93260000D01*
D55*
X84074000Y-113266000D02*
X84074000Y-112780000D01*
D54*
X91382000Y-115758000D02*
X91370000Y-115770000D01*
D55*
X82123000Y-115467000D02*
X82842000Y-114748000D01*
D54*
X91460000Y-111790000D02*
X92599500Y-111790000D01*
X80490000Y-104190000D02*
X81776000Y-104190000D01*
D55*
X106760000Y-82255000D02*
X106613812Y-82255000D01*
D54*
%TO.N,+3.3V*%
X93120000Y-94230000D02*
X93122000Y-94232000D01*
X89910000Y-94260000D02*
X89938000Y-94232000D01*
X100361648Y-87599648D02*
X100457000Y-87695000D01*
D57*
X102910000Y-109355000D02*
X103013822Y-109319411D01*
D56*
X110057359Y-112954641D02*
X111279411Y-114176693D01*
D54*
X76962000Y-89662000D02*
X76962000Y-89156000D01*
X105664000Y-82042000D02*
X105664000Y-81158500D01*
D57*
X106770589Y-102879645D02*
X107883006Y-103992062D01*
D55*
X103260000Y-117660000D02*
X104590000Y-117660000D01*
X91709000Y-124079000D02*
X91710000Y-124080000D01*
D57*
X103690000Y-110880000D02*
X103690000Y-110925000D01*
D54*
X89938000Y-94232000D02*
X93118000Y-94232000D01*
X110780000Y-89890000D02*
X110780000Y-89500000D01*
D55*
X104830000Y-117900000D02*
X104830000Y-118569000D01*
D57*
X104300792Y-110880000D02*
X105337421Y-109843371D01*
X115735000Y-120640000D02*
X115735000Y-121405000D01*
D54*
X94730000Y-83810000D02*
X95238000Y-83810000D01*
D56*
X111635000Y-115390000D02*
X111635000Y-115386178D01*
X110599853Y-114981031D02*
X110249411Y-114630589D01*
D55*
X92490000Y-124080000D02*
X91710000Y-124080000D01*
D54*
X92570502Y-97500000D02*
X93260000Y-97500000D01*
D57*
X108165848Y-103709220D02*
X107510589Y-103053961D01*
D54*
X85471000Y-94232000D02*
X88011000Y-94232000D01*
D55*
X102590000Y-117640000D02*
X103240000Y-117640000D01*
D57*
X106770589Y-101739411D02*
X107279411Y-101739411D01*
D54*
X93120000Y-94230000D02*
X93110000Y-94220000D01*
X95238000Y-83810000D02*
X95248000Y-83820000D01*
D57*
X103085000Y-109319411D02*
X102910000Y-109355000D01*
X103690000Y-110925000D02*
X103235000Y-111380000D01*
D56*
X110653196Y-114981031D02*
X110599853Y-114981031D01*
D55*
X115927500Y-127950000D02*
X115334190Y-127950000D01*
X102108000Y-118122000D02*
X102108000Y-121158000D01*
D57*
X104206050Y-108712000D02*
X103598639Y-109319411D01*
D54*
X93300000Y-97540000D02*
X93300000Y-98785000D01*
D56*
X110653196Y-114981031D02*
X110249411Y-114577246D01*
D57*
X106770589Y-101739411D02*
X106770589Y-102879645D01*
D54*
X75692000Y-89156000D02*
X78232000Y-89156000D01*
D57*
X114460000Y-115415000D02*
X114460000Y-115880000D01*
D54*
X86730000Y-94880000D02*
X86730000Y-94250000D01*
X89910000Y-94240000D02*
X89920000Y-94230000D01*
X110810000Y-90030000D02*
X110810000Y-91439000D01*
X93120000Y-94880000D02*
X93120000Y-94230000D01*
X110810000Y-91439000D02*
X110809000Y-91440000D01*
D57*
X107279411Y-101739411D02*
X107410000Y-101870000D01*
D56*
X110249411Y-113712379D02*
X109774516Y-113237484D01*
D54*
X110780000Y-89500000D02*
X110809000Y-89529000D01*
X100361648Y-85291500D02*
X100361648Y-87599648D01*
D56*
X111279411Y-114176693D02*
X111279411Y-115030589D01*
D57*
X103690000Y-110880000D02*
X104300792Y-110880000D01*
D54*
X93300000Y-98785000D02*
X93460000Y-98945000D01*
D55*
X104590000Y-117660000D02*
X104830000Y-117900000D01*
D54*
X85370000Y-83820000D02*
X84838000Y-83820000D01*
D55*
X89851000Y-124079000D02*
X91709000Y-124079000D01*
D54*
X89882000Y-94232000D02*
X89910000Y-94260000D01*
D55*
X102590000Y-117640000D02*
X102108000Y-118122000D01*
D57*
X107510589Y-102519411D02*
X107510589Y-101970589D01*
X107510589Y-101970589D02*
X107410000Y-101870000D01*
X103598639Y-109319411D02*
X103085000Y-109319411D01*
D55*
X103240000Y-117640000D02*
X103260000Y-117660000D01*
D54*
X93122000Y-94232000D02*
X94361000Y-94232000D01*
X93118000Y-94232000D02*
X93120000Y-94230000D01*
X86730000Y-94250000D02*
X86740000Y-94240000D01*
D56*
X111635000Y-115386178D02*
X111279411Y-115030589D01*
X110249411Y-114577246D02*
X110249411Y-113712379D01*
D57*
X103013822Y-109319411D02*
X103049411Y-109319411D01*
D55*
X102590000Y-117640000D02*
X102590000Y-116940000D01*
D54*
X89910000Y-94880000D02*
X89910000Y-94240000D01*
X110820000Y-89930000D02*
X110780000Y-89890000D01*
X93260000Y-97500000D02*
X93300000Y-97540000D01*
D57*
X107510589Y-103053961D02*
X107510589Y-102519411D01*
D54*
X87378000Y-94232000D02*
X89882000Y-94232000D01*
D55*
X104830000Y-118569000D02*
X106172000Y-119911000D01*
%TO.N,Net-(C3-Pad2)*%
X80292000Y-126210000D02*
X80264000Y-126238000D01*
X80264000Y-126238000D02*
X81276000Y-126238000D01*
X80292000Y-125222000D02*
X80292000Y-126210000D01*
%TO.N,Net-(D1-A2)*%
X79978000Y-130057000D02*
X79987000Y-130048000D01*
X79248000Y-125226000D02*
X79248000Y-126234000D01*
X79244000Y-126490000D02*
X80262000Y-127508000D01*
X80262000Y-127508000D02*
X80262000Y-128698000D01*
X79978000Y-131318000D02*
X79978000Y-130057000D01*
X79248000Y-126234000D02*
X79244000Y-126238000D01*
X80230000Y-128730000D02*
X80230000Y-129805000D01*
X80262000Y-128698000D02*
X80230000Y-128730000D01*
X79244000Y-126238000D02*
X79244000Y-126490000D01*
X80230000Y-129805000D02*
X79987000Y-130048000D01*
%TO.N,Net-(D2-A2)*%
X82296000Y-126238000D02*
X82296000Y-126494000D01*
X81300000Y-129385000D02*
X81985000Y-130070000D01*
X82296000Y-125226000D02*
X82296000Y-126238000D01*
X81978000Y-131318000D02*
X81978000Y-130131000D01*
X82296000Y-126494000D02*
X81282000Y-127508000D01*
X81300000Y-128740000D02*
X81300000Y-129385000D01*
X81300000Y-128740000D02*
X81300000Y-127526000D01*
X81300000Y-127526000D02*
X81282000Y-127508000D01*
X81978000Y-130131000D02*
X82061000Y-130048000D01*
%TO.N,Net-(IC1-CB)*%
X103736500Y-130169500D02*
X104394000Y-129512000D01*
X103058000Y-130169500D02*
X103736500Y-130169500D01*
%TO.N,Net-(IC1-SW)*%
X106172000Y-126774000D02*
X106172000Y-125961000D01*
X103736500Y-127894500D02*
X104394000Y-128552000D01*
X103058000Y-127894500D02*
X103736500Y-127894500D01*
X104394000Y-128552000D02*
X106172000Y-126774000D01*
D54*
%TO.N,RS485_00_B*%
X102108000Y-85654000D02*
X101234000Y-84780000D01*
X99187000Y-87695000D02*
X99187000Y-88337000D01*
X98498000Y-86368000D02*
X99187000Y-87057000D01*
X99270000Y-84780000D02*
X98498000Y-85552000D01*
X99187000Y-87695000D02*
X99187000Y-86767000D01*
X102108000Y-85654000D02*
X102136000Y-85654000D01*
X101234000Y-84780000D02*
X99270000Y-84780000D01*
X99187000Y-88337000D02*
X100480000Y-89630000D01*
X99187000Y-87057000D02*
X99187000Y-87695000D01*
X103124000Y-86642000D02*
X103665500Y-86642000D01*
X103665500Y-86642000D02*
X104455500Y-85852000D01*
X102136000Y-85654000D02*
X103124000Y-86642000D01*
X98498000Y-85552000D02*
X98498000Y-86368000D01*
%TO.N,Net-(C17-Pad2)*%
X102108000Y-86614000D02*
X102108000Y-87624000D01*
%TO.N,RS485_02_B*%
X90200000Y-100510000D02*
X90330000Y-100380000D01*
X90319562Y-100380000D02*
X89693000Y-101006562D01*
X89693000Y-101006562D02*
X89693000Y-102733000D01*
X92395438Y-100215000D02*
X93460000Y-100215000D01*
X90330000Y-100380000D02*
X90319562Y-100380000D01*
X89693000Y-102733000D02*
X91507500Y-104547500D01*
X90330000Y-100380000D02*
X91380000Y-99330000D01*
X91507500Y-104547500D02*
X96080000Y-104547500D01*
X91380000Y-99330000D02*
X91500000Y-99330000D01*
X95475000Y-100215000D02*
X93460000Y-100215000D01*
X91510438Y-99330000D02*
X92395438Y-100215000D01*
X91500000Y-99330000D02*
X91510438Y-99330000D01*
%TO.N,Net-(C18-Pad2)*%
X91500000Y-101330000D02*
X91510000Y-101340000D01*
X91500000Y-100290000D02*
X91500000Y-101330000D01*
%TO.N,RS485_01_B*%
X107761000Y-92957562D02*
X107761000Y-93246000D01*
D57*
X111520000Y-92710000D02*
X110809000Y-92710000D01*
D54*
X107761000Y-93246000D02*
X106965500Y-93246000D01*
X106965500Y-93246000D02*
X106429500Y-92710000D01*
D57*
X112800000Y-91430000D02*
X111520000Y-92710000D01*
D54*
X108766562Y-91952000D02*
X107761000Y-92957562D01*
X108777000Y-91952000D02*
X108892000Y-92067000D01*
X109497000Y-92067000D02*
X110140000Y-92710000D01*
X108777000Y-91952000D02*
X108766562Y-91952000D01*
X110140000Y-92710000D02*
X110809000Y-92710000D01*
X108892000Y-92067000D02*
X109497000Y-92067000D01*
%TO.N,Net-(C20-Pad2)*%
X108777000Y-92912000D02*
X108777000Y-93980000D01*
D57*
%TO.N,NRST*%
X114465000Y-120640000D02*
X114465000Y-121400000D01*
D56*
X106751635Y-111257585D02*
X106737415Y-111257585D01*
X104765000Y-113235000D02*
X105285000Y-113755000D01*
X106737415Y-111257585D02*
X104765000Y-113230000D01*
D57*
X114465000Y-121400000D02*
X114460000Y-121405000D01*
D56*
%TO.N,DIN_00*%
X112614057Y-110409057D02*
X112602943Y-110409057D01*
X108989348Y-116930000D02*
X109649348Y-117590000D01*
X115060000Y-112455000D02*
X114660000Y-112455000D01*
D55*
X81242000Y-118938000D02*
X81977000Y-118203000D01*
D56*
X103135000Y-116030000D02*
X104035000Y-116930000D01*
X114660000Y-112455000D02*
X112614057Y-110409057D01*
D55*
X81977000Y-118203000D02*
X83659000Y-118203000D01*
D56*
X116010000Y-113405000D02*
X115060000Y-112455000D01*
X104035000Y-116930000D02*
X108989348Y-116930000D01*
X84074000Y-118618000D02*
X95397000Y-118618000D01*
X97985000Y-116030000D02*
X103135000Y-116030000D01*
D55*
X79134500Y-119330000D02*
X81100000Y-119330000D01*
D56*
X95397000Y-118618000D02*
X97985000Y-116030000D01*
D55*
X81242000Y-119128000D02*
X81242000Y-118938000D01*
X78678500Y-118874000D02*
X79134500Y-119330000D01*
D56*
X114825000Y-117590000D02*
X116010000Y-116405000D01*
X109649348Y-117590000D02*
X114825000Y-117590000D01*
D55*
X83659000Y-118203000D02*
X84074000Y-118618000D01*
D56*
X116010000Y-116405000D02*
X116010000Y-113405000D01*
%TO.N,DIN_01*%
X96685000Y-117005000D02*
X97893000Y-115797000D01*
X114965722Y-112705000D02*
X114333202Y-112705000D01*
D55*
X84074000Y-116332000D02*
X84142000Y-116332000D01*
X81242000Y-116638000D02*
X81963000Y-115917000D01*
D56*
X103227000Y-115797000D02*
X104011000Y-116581000D01*
D55*
X81963000Y-115917000D02*
X83659000Y-115917000D01*
X83659000Y-115917000D02*
X84074000Y-116332000D01*
X81242000Y-116842000D02*
X81242000Y-116638000D01*
D56*
X84142000Y-116332000D02*
X84815000Y-117005000D01*
X109739232Y-117373000D02*
X114627268Y-117373000D01*
X115774000Y-116226268D02*
X115774000Y-113513279D01*
X104011000Y-116581000D02*
X108947232Y-116581000D01*
X97893000Y-115797000D02*
X103227000Y-115797000D01*
D55*
X78678500Y-116588000D02*
X79230500Y-117140000D01*
D56*
X114627268Y-117373000D02*
X115774000Y-116226268D01*
X108947232Y-116581000D02*
X109739232Y-117373000D01*
X115774000Y-113513279D02*
X114965722Y-112705000D01*
X114333202Y-112705000D02*
X112320101Y-110691899D01*
X84815000Y-117005000D02*
X96685000Y-117005000D01*
D55*
X79230500Y-117140000D02*
X81210000Y-117140000D01*
D57*
%TO.N,DIN_02*%
X115575500Y-113595500D02*
X115575500Y-116117884D01*
X114017516Y-112955000D02*
X114935000Y-112955000D01*
D55*
X81979000Y-113631000D02*
X83659000Y-113631000D01*
X81242000Y-114368000D02*
X81979000Y-113631000D01*
D56*
X103360000Y-115580000D02*
X104144000Y-116364000D01*
X114360000Y-117156000D02*
X114421384Y-117156000D01*
X109037116Y-116364000D02*
X109829116Y-117156000D01*
D55*
X83659000Y-113631000D02*
X84074000Y-114046000D01*
D57*
X114935000Y-112955000D02*
X115575500Y-113595500D01*
D56*
X104144000Y-116364000D02*
X109037116Y-116364000D01*
X114360000Y-117156000D02*
X114537384Y-117156000D01*
X114664500Y-117028884D02*
X115011692Y-116681692D01*
D55*
X81242000Y-114556000D02*
X81242000Y-114368000D01*
D56*
X97803116Y-115580000D02*
X103360000Y-115580000D01*
D57*
X112037258Y-110974742D02*
X114017516Y-112955000D01*
D56*
X109829116Y-117156000D02*
X114360000Y-117156000D01*
X84074000Y-114046000D02*
X86800000Y-116772000D01*
X86800000Y-116772000D02*
X96611116Y-116772000D01*
D55*
X78678500Y-114302000D02*
X79166500Y-114790000D01*
D57*
X115575500Y-116117884D02*
X115011692Y-116681692D01*
D56*
X114537384Y-117156000D02*
X114664500Y-117028884D01*
X96611116Y-116772000D02*
X97803116Y-115580000D01*
D55*
X79166500Y-114790000D02*
X81190000Y-114790000D01*
D56*
%TO.N,DIN_03*%
X84660000Y-114082578D02*
X87107422Y-116530000D01*
X111762585Y-111257585D02*
X111754415Y-111257585D01*
X103485000Y-115355000D02*
X104277000Y-116147000D01*
X104277000Y-116147000D02*
X109127000Y-116147000D01*
X84340000Y-111940000D02*
X84660000Y-112260000D01*
X113710000Y-113205000D02*
X111762585Y-111257585D01*
X109127000Y-116147000D02*
X109919000Y-116939000D01*
D55*
X81242000Y-112270000D02*
X81242000Y-112068000D01*
X83659000Y-111345000D02*
X84074000Y-111760000D01*
X79142500Y-112480000D02*
X81200000Y-112480000D01*
X81242000Y-112068000D02*
X81965000Y-111345000D01*
D56*
X115377000Y-113722000D02*
X114860000Y-113205000D01*
X96510000Y-116530000D02*
X97685000Y-115355000D01*
X109919000Y-116939000D02*
X114447500Y-116939000D01*
X87107422Y-116530000D02*
X96510000Y-116530000D01*
X114860000Y-113205000D02*
X113710000Y-113205000D01*
X115377000Y-116009500D02*
X115377000Y-113722000D01*
D55*
X81965000Y-111345000D02*
X83659000Y-111345000D01*
D56*
X97685000Y-115355000D02*
X103485000Y-115355000D01*
X114447500Y-116939000D02*
X115377000Y-116009500D01*
D55*
X78678500Y-112016000D02*
X79142500Y-112480000D01*
D56*
X84660000Y-112260000D02*
X84660000Y-114082578D01*
%TO.N,DIN_04*%
X84074000Y-109474000D02*
X84738893Y-109474000D01*
X86440000Y-109380000D02*
X87430000Y-110370000D01*
D55*
X79188500Y-110240000D02*
X81180000Y-110240000D01*
D56*
X91560000Y-109190000D02*
X93990000Y-109190000D01*
D55*
X81242000Y-109758000D02*
X81941000Y-109059000D01*
X83659000Y-109059000D02*
X84074000Y-109474000D01*
D56*
X104489848Y-112388000D02*
X106185949Y-110691899D01*
X87430000Y-110370000D02*
X89872223Y-110370000D01*
X84738893Y-109474000D02*
X84832893Y-109380000D01*
X93990000Y-109190000D02*
X95293000Y-110493000D01*
D55*
X81242000Y-109984000D02*
X81242000Y-109758000D01*
D56*
X89872223Y-110370000D02*
X89997723Y-110244500D01*
X84832893Y-109380000D02*
X86440000Y-109380000D01*
X102118000Y-112388000D02*
X104489848Y-112388000D01*
X95293000Y-110493000D02*
X100223000Y-110493000D01*
D55*
X81941000Y-109059000D02*
X83659000Y-109059000D01*
D56*
X90505500Y-110244500D02*
X91560000Y-109190000D01*
D55*
X78678500Y-109730000D02*
X79188500Y-110240000D01*
D56*
X89997723Y-110244500D02*
X90505500Y-110244500D01*
X100223000Y-110493000D02*
X102118000Y-112388000D01*
D57*
%TO.N,DIN_05*%
X84074000Y-107188000D02*
X84132000Y-107188000D01*
X85280000Y-105650000D02*
X87350000Y-105650000D01*
X87570000Y-99966406D02*
X91007906Y-96528500D01*
X84545000Y-106775000D02*
X84545000Y-106385000D01*
X98169646Y-96528500D02*
X103783500Y-102142354D01*
X87910000Y-104530000D02*
X87570000Y-104190000D01*
X84545000Y-106385000D02*
X85280000Y-105650000D01*
D55*
X83659000Y-106773000D02*
X84074000Y-107188000D01*
X78678500Y-107444000D02*
X79194500Y-107960000D01*
D57*
X87570000Y-103620000D02*
X87570000Y-99966406D01*
D55*
X81242000Y-107518000D02*
X81987000Y-106773000D01*
D57*
X84132000Y-107188000D02*
X84545000Y-106775000D01*
X91007906Y-96528500D02*
X98169646Y-96528500D01*
X87910000Y-105090000D02*
X87910000Y-104530000D01*
X103783500Y-104418040D02*
X105620264Y-106254804D01*
D55*
X81242000Y-107698000D02*
X81242000Y-107518000D01*
D57*
X87570000Y-104190000D02*
X87570000Y-103620000D01*
X103783500Y-102142354D02*
X103783500Y-104418040D01*
D55*
X81987000Y-106773000D02*
X83659000Y-106773000D01*
X79194500Y-107960000D02*
X81220000Y-107960000D01*
D57*
X87350000Y-105650000D02*
X87910000Y-105090000D01*
%TO.N,DIN_06*%
X90887784Y-96238500D02*
X98289768Y-96238500D01*
D54*
X81242000Y-105410000D02*
X82169000Y-104483000D01*
D57*
X84720000Y-102406284D02*
X90887784Y-96238500D01*
X104073500Y-102022232D02*
X104073500Y-104142354D01*
X84074000Y-104900000D02*
X84720000Y-104254000D01*
D54*
X81042000Y-105610000D02*
X81242000Y-105410000D01*
D57*
X98289768Y-96238500D02*
X104073500Y-102022232D01*
D54*
X78740000Y-105158000D02*
X79192000Y-105610000D01*
D57*
X104073500Y-104142354D02*
X105903107Y-105971961D01*
D54*
X83655000Y-104483000D02*
X84074000Y-104902000D01*
X80030000Y-105610000D02*
X81042000Y-105610000D01*
X82169000Y-104483000D02*
X83655000Y-104483000D01*
D57*
X84720000Y-104254000D02*
X84720000Y-102406284D01*
D54*
X79192000Y-105610000D02*
X80030000Y-105610000D01*
D56*
%TO.N,DIN_07*%
X98417552Y-95930000D02*
X90760000Y-95930000D01*
D54*
X83570000Y-102110000D02*
X84074000Y-102614000D01*
D56*
X106185949Y-105689119D02*
X104382000Y-103885170D01*
D54*
X78740000Y-102872000D02*
X79218000Y-103350000D01*
D56*
X104382000Y-103885170D02*
X104382000Y-101894448D01*
D54*
X79218000Y-103350000D02*
X80010000Y-103350000D01*
D56*
X104382000Y-101894448D02*
X98417552Y-95930000D01*
D54*
X81242000Y-103124000D02*
X82256000Y-102110000D01*
X82256000Y-102110000D02*
X83570000Y-102110000D01*
X80010000Y-103350000D02*
X81016000Y-103350000D01*
X81016000Y-103350000D02*
X81242000Y-103124000D01*
D56*
X90760000Y-95930000D02*
X84076000Y-102614000D01*
D54*
%TO.N,Net-(L2-RXCT)*%
X93091000Y-87376000D02*
X93091000Y-88422000D01*
%TO.N,Net-(C33-Pad2)*%
X91948000Y-89410000D02*
X93063000Y-89410000D01*
X93063000Y-89410000D02*
X93091000Y-89382000D01*
%TO.N,Net-(L2-TXCT)*%
X86741000Y-87376000D02*
X86741000Y-88422000D01*
%TO.N,Net-(C34-Pad2)*%
X87858000Y-89382000D02*
X87884000Y-89408000D01*
X86741000Y-89382000D02*
X87858000Y-89382000D01*
D55*
%TO.N,Net-(C36-Pad1)*%
X85585000Y-88407000D02*
X85598000Y-88420000D01*
X85585000Y-87005000D02*
X85585000Y-88407000D01*
X89406000Y-79825000D02*
X90426000Y-78805000D01*
D54*
X89408000Y-80597000D02*
X89406000Y-80595000D01*
D55*
X89406000Y-80595000D02*
X89406000Y-79825000D01*
D54*
%TO.N,Net-(C36-Pad2)*%
X85598000Y-89380000D02*
X86207000Y-89989000D01*
X87303000Y-89989000D02*
X87319000Y-90005000D01*
X87319000Y-90005000D02*
X88559000Y-90005000D01*
X86207000Y-89989000D02*
X87303000Y-89989000D01*
X88559000Y-90005000D02*
X89154000Y-89410000D01*
%TO.N,Net-(C37-Pad1)*%
X93472000Y-80609000D02*
X93486000Y-80595000D01*
D56*
X94234000Y-87381000D02*
X94234000Y-88420000D01*
D55*
X93486000Y-80595000D02*
X93486000Y-79825000D01*
X93486000Y-79825000D02*
X92466000Y-78805000D01*
D56*
X94535000Y-87080000D02*
X94234000Y-87381000D01*
D54*
%TO.N,Net-(C37-Pad2)*%
X90678000Y-89410000D02*
X91275000Y-90007000D01*
X93607000Y-90007000D02*
X94234000Y-89380000D01*
X91275000Y-90007000D02*
X93607000Y-90007000D01*
D55*
%TO.N,Net-(D5-A)*%
X100105250Y-121300000D02*
X100205251Y-121200000D01*
X99699250Y-120694000D02*
X100205251Y-121200000D01*
X98094750Y-121300000D02*
X100105250Y-121300000D01*
X99699250Y-119964000D02*
X99699250Y-120694000D01*
%TO.N,Net-(D6-A)*%
X113947500Y-129325000D02*
X114002500Y-129380000D01*
X114314190Y-127950000D02*
X114314190Y-128013310D01*
X113947500Y-128380000D02*
X113947500Y-129325000D01*
X114314190Y-128013310D02*
X113947500Y-128380000D01*
D57*
%TO.N,StatLED00*%
X102235000Y-104566596D02*
X104771736Y-107103332D01*
X102235000Y-103708200D02*
X102235000Y-104566596D01*
D54*
%TO.N,Net-(D19-A)*%
X78232000Y-87630000D02*
X78232000Y-88136000D01*
D57*
%TO.N,StatLED01*%
X102685000Y-103301800D02*
X102685000Y-104450912D01*
X102685000Y-104450912D02*
X105054578Y-106820490D01*
D54*
%TO.N,Net-(D26-A)*%
X76962000Y-87630000D02*
X76962000Y-88136000D01*
D57*
%TO.N,StatLED02*%
X103147438Y-102819200D02*
X103147438Y-104347664D01*
X103147438Y-104347664D02*
X105337421Y-106537647D01*
D54*
%TO.N,Net-(D27-A)*%
X75692000Y-87630000D02*
X75692000Y-88136000D01*
D56*
%TO.N,Net-(IC1-FB)*%
X101160000Y-130167500D02*
X101158000Y-130169500D01*
D55*
X102108000Y-122178000D02*
X102108000Y-122678000D01*
X102110000Y-122680000D02*
X102108000Y-122682000D01*
X102108000Y-122678000D02*
X102110000Y-122680000D01*
D56*
X101160000Y-129310000D02*
X101160000Y-130167500D01*
D55*
X102108000Y-122682000D02*
X102108000Y-123190000D01*
D56*
%TO.N,EthStatLEDR*%
X104709000Y-103646484D02*
X106468792Y-105406276D01*
X84360000Y-86391000D02*
X84360000Y-89680000D01*
X92060000Y-90630000D02*
X97033000Y-95603000D01*
X85310000Y-90630000D02*
X92060000Y-90630000D01*
X98553000Y-95603000D02*
X104709000Y-101759000D01*
X84360000Y-89680000D02*
X85310000Y-90630000D01*
X97033000Y-95603000D02*
X98553000Y-95603000D01*
X104709000Y-101759000D02*
X104709000Y-103646484D01*
X85346000Y-85405000D02*
X84360000Y-86391000D01*
%TO.N,EthStatLEDL*%
X94486000Y-85405000D02*
X95340000Y-86259000D01*
X95340000Y-86259000D02*
X95340000Y-93447552D01*
X95340000Y-93447552D02*
X97168448Y-95276000D01*
X97168448Y-95276000D02*
X98688448Y-95276000D01*
X105036000Y-103407798D02*
X106751635Y-105123433D01*
X98688448Y-95276000D02*
X105036000Y-101623552D01*
X105036000Y-101623552D02*
X105036000Y-103407798D01*
%TO.N,RS485_01_DI*%
X116916200Y-95706200D02*
X116916200Y-101093800D01*
D57*
X113845000Y-95280000D02*
X115729000Y-95280000D01*
X115729000Y-95280000D02*
X115759000Y-95250000D01*
D56*
X112320881Y-105689119D02*
X112320101Y-105689119D01*
X115759000Y-95250000D02*
X116460000Y-95250000D01*
D54*
X115064000Y-95250000D02*
X115759000Y-95250000D01*
D56*
X116460000Y-95250000D02*
X116916200Y-95706200D01*
X116916200Y-101093800D02*
X112320881Y-105689119D01*
%TO.N,RS485_01_RO*%
X115749000Y-91430000D02*
X115759000Y-91440000D01*
X112602943Y-105967057D02*
X117221000Y-101349000D01*
X112602943Y-105971961D02*
X112602943Y-105967057D01*
X117221000Y-101349000D02*
X117221000Y-92201000D01*
X117221000Y-92201000D02*
X116460000Y-91440000D01*
X113820000Y-91430000D02*
X115749000Y-91430000D01*
D54*
%TO.N,RS485_02_DI*%
X96495000Y-101485000D02*
X97765000Y-102755000D01*
D57*
X101610000Y-106020000D02*
X101610000Y-108830000D01*
X98410000Y-102755000D02*
X98410000Y-102820000D01*
D54*
X97765000Y-102755000D02*
X98410001Y-102755000D01*
D57*
X98410000Y-102820000D02*
X101610000Y-106020000D01*
X102760000Y-109980000D02*
X103503736Y-109980000D01*
X101610000Y-108830000D02*
X102760000Y-109980000D01*
X103503736Y-109980000D02*
X104488893Y-108994843D01*
%TO.N,RS485_02_RO*%
X99125000Y-98945000D02*
X100880000Y-100700000D01*
X100880000Y-103777282D02*
X104488893Y-107386175D01*
X100880000Y-100700000D02*
X100880000Y-103777282D01*
X97765000Y-98945000D02*
X98410000Y-98945000D01*
X96495000Y-100215000D02*
X97765000Y-98945000D01*
X98410000Y-98945000D02*
X99125000Y-98945000D01*
D54*
%TO.N,ETH_RXP*%
X91212000Y-95252000D02*
X91821000Y-95252000D01*
X91210000Y-95250000D02*
X91212000Y-95252000D01*
D56*
X109804200Y-104546400D02*
X110634392Y-104546400D01*
X110634392Y-104546400D02*
X110905887Y-104274905D01*
D57*
%TO.N,ETH_RXN*%
X111725739Y-104020739D02*
X111188730Y-104557748D01*
D54*
X94928000Y-95252000D02*
X94361000Y-95252000D01*
X94930000Y-95250000D02*
X94928000Y-95252000D01*
D56*
%TO.N,ETH_TXP*%
X110760000Y-105355000D02*
X110957164Y-105355000D01*
X110957164Y-105355000D02*
X111471573Y-104840591D01*
D54*
X85471000Y-95839000D02*
X85470000Y-95840000D01*
X85471000Y-95252000D02*
X85471000Y-95839000D01*
%TO.N,ETH_TXN*%
X88011000Y-95252000D02*
X88011000Y-95839000D01*
D57*
X112266424Y-104611424D02*
X111754415Y-105123433D01*
D54*
X88011000Y-95839000D02*
X88010000Y-95840000D01*
D56*
%TO.N,RS485_00_DI*%
X96647000Y-93347000D02*
X97550000Y-94250000D01*
X105653000Y-102893428D02*
X107317320Y-104557748D01*
X96660000Y-92632000D02*
X96647000Y-92645000D01*
X105653000Y-100853000D02*
X105653000Y-102893428D01*
X97550000Y-94250000D02*
X99050000Y-94250000D01*
X96647000Y-92645000D02*
X96647000Y-93347000D01*
X99050000Y-94250000D02*
X105653000Y-100853000D01*
X96660000Y-90610000D02*
X96660000Y-92632000D01*
D54*
%TO.N,RS485_00_RO*%
X100457000Y-91950000D02*
X100457000Y-92645000D01*
D56*
X105980000Y-100660000D02*
X105980000Y-102654742D01*
X100457000Y-95137000D02*
X105980000Y-100660000D01*
X100480000Y-90650000D02*
X100480000Y-92622000D01*
X100457000Y-92645000D02*
X100457000Y-95137000D01*
X105980000Y-102654742D02*
X107600163Y-104274905D01*
%TO.N,CAN0_RX*%
X93140000Y-121843089D02*
X95753089Y-119230000D01*
X91841133Y-125349000D02*
X93140000Y-124050133D01*
X89851000Y-125349000D02*
X91841133Y-125349000D01*
X112764000Y-113964226D02*
X110905887Y-112106113D01*
X112764000Y-116201000D02*
X112710000Y-116255000D01*
X112764000Y-113964226D02*
X112764000Y-116201000D01*
X93140000Y-124050133D02*
X93140000Y-121843089D01*
X99910000Y-119230000D02*
X100810000Y-120130000D01*
X96400000Y-119230000D02*
X99910000Y-119230000D01*
X95753089Y-119230000D02*
X96400000Y-119230000D01*
%TO.N,CAN0_TX*%
X112437000Y-114202912D02*
X112437000Y-115803000D01*
D55*
X89851000Y-121539000D02*
X90561000Y-121539000D01*
D56*
X90561000Y-121539000D02*
X92981640Y-121539000D01*
X92981640Y-121539000D02*
X95617641Y-118903000D01*
X95617641Y-118903000D02*
X96190000Y-118903000D01*
X100258000Y-118903000D02*
X96190000Y-118903000D01*
X110623044Y-112388956D02*
X112437000Y-114202912D01*
X112437000Y-115803000D02*
X111985000Y-116255000D01*
X100710000Y-119355000D02*
X100258000Y-118903000D01*
D57*
%TO.N,SWD*%
X112635000Y-107255000D02*
X113016962Y-107255000D01*
X115760000Y-118480000D02*
X115735000Y-118505000D01*
X115735000Y-118505000D02*
X115735000Y-119370000D01*
X113016962Y-107255000D02*
X113451472Y-106820490D01*
D56*
%TO.N,Ant*%
X114858800Y-107137200D02*
X114831818Y-107137200D01*
X114831818Y-107137200D02*
X114300000Y-107669018D01*
%TO.N,Vinta*%
X114017157Y-107386175D02*
X114323332Y-107080000D01*
X114323332Y-106916668D02*
X114820589Y-106419411D01*
X114323332Y-107080000D02*
X114323332Y-106916668D01*
D57*
%TO.N,SWCLK*%
X114465000Y-119370000D02*
X114465000Y-118645442D01*
X114465000Y-118645442D02*
X117330000Y-115780442D01*
X117330000Y-111742000D02*
X114300000Y-108712000D01*
X117330000Y-115780442D02*
X117330000Y-111742000D01*
%TO.N,Net-(IC2-BOOT0)*%
X113410000Y-114395000D02*
X114460000Y-114395000D01*
X111188730Y-111823270D02*
X113410000Y-114044540D01*
X113410000Y-114044540D02*
X113410000Y-114395000D01*
D55*
%TO.N,VCC*%
X100670000Y-124550000D02*
X100670000Y-124450000D01*
X108650000Y-129295000D02*
X108885000Y-129530000D01*
X102120000Y-126280000D02*
X102120000Y-127882500D01*
X100670000Y-125300000D02*
X101650000Y-125300000D01*
X100205250Y-123300000D02*
X100205250Y-123315250D01*
X102120000Y-126280000D02*
X102120000Y-125770000D01*
X98094750Y-123200000D02*
X100105250Y-123200000D01*
X108650000Y-128290000D02*
X108650000Y-129295000D01*
X100670000Y-125300000D02*
X100780000Y-125190000D01*
X100205250Y-123315250D02*
X100670000Y-123780000D01*
X102120000Y-127882500D02*
X102108000Y-127894500D01*
X109110000Y-129305000D02*
X108885000Y-129530000D01*
X109110000Y-128290000D02*
X109110000Y-129305000D01*
X108870000Y-128290000D02*
X109110000Y-128290000D01*
X101430000Y-126280000D02*
X102120000Y-126280000D01*
X108870000Y-129515000D02*
X108885000Y-129530000D01*
X100770000Y-124550000D02*
X100670000Y-124550000D01*
X108870000Y-128290000D02*
X108870000Y-129515000D01*
X100105250Y-123200000D02*
X100205250Y-123300000D01*
X101650000Y-125300000D02*
X102120000Y-125770000D01*
X101158000Y-126552000D02*
X101430000Y-126280000D01*
X108650000Y-128290000D02*
X108870000Y-128290000D01*
X100670000Y-123780000D02*
X100670000Y-124550000D01*
X101158000Y-127894500D02*
X101158000Y-126552000D01*
%TO.N,Net-(J2-Pin_2)*%
X74422000Y-116872000D02*
X74422000Y-118364000D01*
X74932000Y-118874000D02*
X75753500Y-118874000D01*
X74422000Y-118364000D02*
X74932000Y-118874000D01*
%TO.N,Net-(J2-Pin_3)*%
X75243500Y-116078000D02*
X75753500Y-116588000D01*
X74422000Y-115824000D02*
X74676000Y-116078000D01*
X74422000Y-114872000D02*
X74422000Y-115824000D01*
X74676000Y-116078000D02*
X75243500Y-116078000D01*
%TO.N,Net-(J2-Pin_4)*%
X74877305Y-114302000D02*
X75753500Y-114302000D01*
X74422000Y-112872000D02*
X74422000Y-113846695D01*
X74422000Y-113846695D02*
X74877305Y-114302000D01*
%TO.N,Net-(J2-Pin_5)*%
X75751500Y-112014000D02*
X75753500Y-112016000D01*
X74422000Y-110872000D02*
X74422000Y-111506000D01*
X74422000Y-111506000D02*
X74930000Y-112014000D01*
X74930000Y-112014000D02*
X75751500Y-112014000D01*
%TO.N,Net-(J2-Pin_6)*%
X74422000Y-108872000D02*
X74895500Y-108872000D01*
X74895500Y-108872000D02*
X75753500Y-109730000D01*
%TO.N,Net-(J2-Pin_7)*%
X75181500Y-106872000D02*
X75753500Y-107444000D01*
X74422000Y-106872000D02*
X75181500Y-106872000D01*
%TO.N,Net-(J2-Pin_8)*%
X74422000Y-104902000D02*
X75559000Y-104902000D01*
X75559000Y-104902000D02*
X75815000Y-105158000D01*
%TO.N,Net-(J2-Pin_9)*%
X75813000Y-102870000D02*
X75815000Y-102872000D01*
X74422000Y-102870000D02*
X75813000Y-102870000D01*
D54*
%TO.N,Net-(D7-A2)*%
X108210000Y-85860000D02*
X107388500Y-85860000D01*
X108210000Y-85860000D02*
X108210000Y-86090000D01*
X107388500Y-85860000D02*
X107380500Y-85852000D01*
X108457000Y-86337000D02*
X108966000Y-86337000D01*
X108210000Y-86090000D02*
X108457000Y-86337000D01*
%TO.N,Net-(D9-A2)*%
X107392500Y-88150000D02*
X107380500Y-88138000D01*
X108944956Y-87685000D02*
X108966000Y-87685000D01*
X108230000Y-88150000D02*
X107392500Y-88150000D01*
X108230000Y-88150000D02*
X108479956Y-88150000D01*
X108479956Y-88150000D02*
X108944956Y-87685000D01*
%TO.N,Net-(D8-A2)*%
X95081250Y-108608750D02*
X95432500Y-108960000D01*
X94710000Y-108280000D02*
X94752500Y-108280000D01*
X95110000Y-108280000D02*
X95272500Y-108280000D01*
X94710000Y-108280000D02*
X95110000Y-108280000D01*
X95110000Y-108580000D02*
X95081250Y-108608750D01*
X95110000Y-108280000D02*
X95110000Y-108580000D01*
X95272500Y-108280000D02*
X96080000Y-107472500D01*
X94752500Y-108280000D02*
X95081250Y-108608750D01*
%TO.N,Net-(D10-A2)*%
X99610000Y-108345500D02*
X99610000Y-108465000D01*
X98737000Y-107472500D02*
X98500000Y-107472500D01*
X99610000Y-108345500D02*
X98737000Y-107472500D01*
X99610000Y-108465000D02*
X99155000Y-108920000D01*
%TO.N,Net-(D11-A2)*%
X103009500Y-93205000D02*
X103504500Y-92710000D01*
X101535000Y-93205000D02*
X102070000Y-93205000D01*
X101530000Y-93210000D02*
X101535000Y-93205000D01*
X101535000Y-93205000D02*
X103009500Y-93205000D01*
%TO.N,Net-(D12-A2)*%
X101475000Y-94605000D02*
X102030000Y-94605000D01*
X101475000Y-94605000D02*
X103113500Y-94605000D01*
X101470000Y-94600000D02*
X101475000Y-94605000D01*
X103113500Y-94605000D02*
X103504500Y-94996000D01*
D55*
%TO.N,Net-(D20-A2)*%
X91912000Y-114808000D02*
X90678000Y-114808000D01*
X91920000Y-114800000D02*
X91912000Y-114808000D01*
X89357000Y-114808000D02*
X89015000Y-115150000D01*
X90678000Y-114808000D02*
X89357000Y-114808000D01*
%TO.N,Net-(D21-A2)*%
X85085000Y-112315000D02*
X85085000Y-111540000D01*
X85578000Y-112808000D02*
X86771000Y-112808000D01*
X85578000Y-112808000D02*
X85085000Y-112315000D01*
%TO.N,Net-(D22-A2)*%
X91950000Y-110808000D02*
X90756500Y-110808000D01*
X90756500Y-110808000D02*
X86523000Y-110808000D01*
X86523000Y-110808000D02*
X86075000Y-110360000D01*
%TO.N,Net-(D23-A2)*%
X85090000Y-108808000D02*
X85090000Y-108055000D01*
X85090000Y-108808000D02*
X86868000Y-108808000D01*
%TO.N,Net-(D24-A2)*%
X86205000Y-106790000D02*
X90738500Y-106790000D01*
X92010000Y-106800000D02*
X92002000Y-106808000D01*
X92002000Y-106808000D02*
X90756500Y-106808000D01*
X90738500Y-106790000D02*
X90756500Y-106808000D01*
D56*
%TO.N,Net-(D25-A2)*%
X85317500Y-103520000D02*
X85317500Y-104580500D01*
D55*
X85090000Y-104808000D02*
X86771000Y-104808000D01*
D56*
X85317500Y-104580500D02*
X85090000Y-104808000D01*
%TO.N,Dout_00*%
X109235000Y-115930000D02*
X104410000Y-115930000D01*
X110027000Y-116722000D02*
X109235000Y-115930000D01*
X113436146Y-113505000D02*
X114835000Y-113505000D01*
D54*
X92553000Y-113858000D02*
X93796000Y-113858000D01*
X93796000Y-113858000D02*
X94234000Y-114296000D01*
D56*
X111471573Y-111540427D02*
X113436146Y-113505000D01*
X102776000Y-114296000D02*
X94234000Y-114296000D01*
X114343000Y-116722000D02*
X110027000Y-116722000D01*
X104410000Y-115930000D02*
X102776000Y-114296000D01*
X115160000Y-113830000D02*
X115160000Y-115905000D01*
X114835000Y-113505000D02*
X115160000Y-113830000D01*
X115160000Y-115905000D02*
X114343000Y-116722000D01*
%TO.N,Dout_01*%
X110116884Y-116505000D02*
X111110000Y-116505000D01*
D54*
X88646000Y-111858000D02*
X89762000Y-111858000D01*
X89762000Y-111858000D02*
X90170000Y-112266000D01*
D56*
X112060000Y-115555000D02*
X112060000Y-114391596D01*
X90534000Y-112630000D02*
X101485000Y-112630000D01*
X109316884Y-115705000D02*
X110116884Y-116505000D01*
X111110000Y-116505000D02*
X112060000Y-115555000D01*
X112060000Y-114391596D02*
X110340202Y-112671798D01*
X90170000Y-112266000D02*
X90534000Y-112630000D01*
X104560000Y-115705000D02*
X109316884Y-115705000D01*
X101485000Y-112630000D02*
X104560000Y-115705000D01*
%TO.N,Dout_02*%
X104838534Y-112605000D02*
X106468792Y-110974742D01*
X94720000Y-110820000D02*
X100100000Y-110820000D01*
D54*
X92631500Y-109858000D02*
X93758000Y-109858000D01*
D56*
X94200000Y-110300000D02*
X94720000Y-110820000D01*
X100100000Y-110820000D02*
X101885000Y-112605000D01*
D54*
X93758000Y-109858000D02*
X94200000Y-110300000D01*
D56*
X104510000Y-112605000D02*
X104838534Y-112605000D01*
X101885000Y-112605000D02*
X104510000Y-112605000D01*
%TO.N,Dout_03*%
X104185000Y-112130000D02*
X105903107Y-110411893D01*
D54*
X88743000Y-107858000D02*
X89574000Y-107858000D01*
D56*
X102310000Y-112130000D02*
X104185000Y-112130000D01*
X100320000Y-110140000D02*
X102310000Y-112130000D01*
X95432315Y-110140000D02*
X100320000Y-110140000D01*
X105903107Y-110411893D02*
X105903107Y-110409057D01*
D54*
X89574000Y-107858000D02*
X90170000Y-108454000D01*
D56*
X93746315Y-108454000D02*
X95432315Y-110140000D01*
X90170000Y-108454000D02*
X93746315Y-108454000D01*
D54*
%TO.N,Dout_04*%
X93670000Y-105858000D02*
X94234000Y-106422000D01*
D56*
X100910000Y-110105000D02*
X102635000Y-111830000D01*
D54*
X92631500Y-105858000D02*
X93670000Y-105858000D01*
D56*
X102635000Y-111830000D02*
X103916478Y-111830000D01*
X100910000Y-107505000D02*
X100910000Y-110105000D01*
X103916478Y-111830000D02*
X105620264Y-110126214D01*
X94234000Y-106422000D02*
X99827000Y-106422000D01*
X99827000Y-106422000D02*
X100910000Y-107505000D01*
%TO.N,Dout_05*%
X100457884Y-105905000D02*
X101310000Y-106757116D01*
X94336000Y-104956000D02*
X95285000Y-105905000D01*
D54*
X89636000Y-103858000D02*
X90170000Y-104392000D01*
D56*
X102635000Y-110230000D02*
X104385000Y-110230000D01*
X90734000Y-104956000D02*
X94336000Y-104956000D01*
X105054472Y-109560528D02*
X105054578Y-109560528D01*
X95285000Y-105905000D02*
X100457884Y-105905000D01*
X101310000Y-108905000D02*
X102635000Y-110230000D01*
X101310000Y-106757116D02*
X101310000Y-108905000D01*
X104385000Y-110230000D02*
X105054472Y-109560528D01*
D54*
X88646000Y-103858000D02*
X89636000Y-103858000D01*
D56*
X90170000Y-104392000D02*
X90734000Y-104956000D01*
D55*
%TO.N,Net-(U1-CANH)*%
X79248000Y-124206000D02*
X80645000Y-122809000D01*
X80645000Y-122809000D02*
X84901000Y-122809000D01*
%TO.N,Net-(U1-CANL)*%
X82296000Y-124206000D02*
X82423000Y-124079000D01*
X82423000Y-124079000D02*
X84901000Y-124079000D01*
D54*
%TO.N,RS485_00_A*%
X97917000Y-87695000D02*
X97917000Y-88333000D01*
X102009500Y-88742500D02*
X101550000Y-88742500D01*
X101983500Y-88742500D02*
X103124000Y-87602000D01*
X101550000Y-88742500D02*
X101983500Y-88742500D01*
X97917000Y-88333000D02*
X96660000Y-89590000D01*
X97917000Y-86510000D02*
X97930000Y-86497000D01*
X103124000Y-87602000D02*
X103919500Y-87602000D01*
X102108000Y-88644000D02*
X102009500Y-88742500D01*
X97917000Y-86510000D02*
X97917000Y-87695000D01*
X103919500Y-87602000D02*
X104455500Y-88138000D01*
%TO.N,RS485_02_A*%
X95475000Y-101485000D02*
X93460000Y-101485000D01*
X91510000Y-102360000D02*
X92385000Y-101485000D01*
X90330000Y-101340000D02*
X90490000Y-101340000D01*
X90490000Y-101340000D02*
X91510000Y-102360000D01*
X92385000Y-101485000D02*
X93460000Y-101485000D01*
X90330000Y-101340000D02*
X90330000Y-102670000D01*
X90330000Y-102670000D02*
X91210000Y-103550000D01*
X97502500Y-103550000D02*
X98500000Y-104547500D01*
X91210000Y-103550000D02*
X97502500Y-103550000D01*
D57*
%TO.N,RS485_01_A*%
X111525000Y-93980000D02*
X110809000Y-93980000D01*
D54*
X107219500Y-94206000D02*
X106429500Y-94996000D01*
D57*
X112825000Y-95280000D02*
X111525000Y-93980000D01*
D54*
X109100000Y-95000000D02*
X110120000Y-93980000D01*
X108777000Y-95000000D02*
X108555000Y-95000000D01*
X107761000Y-94206000D02*
X107219500Y-94206000D01*
X108555000Y-95000000D02*
X107761000Y-94206000D01*
X108777000Y-95000000D02*
X109100000Y-95000000D01*
X110120000Y-93980000D02*
X110809000Y-93980000D01*
%TO.N,Net-(C35-Pad1)*%
X90170000Y-88388000D02*
X91946000Y-88388000D01*
X91946000Y-88388000D02*
X91948000Y-88390000D01*
X87884000Y-88388000D02*
X89662000Y-88388000D01*
X89662000Y-88388000D02*
X89916000Y-88388000D01*
X89916000Y-88134000D02*
X90170000Y-88388000D01*
X89916000Y-88388000D02*
X90170000Y-88388000D01*
X89916000Y-88134000D02*
X89662000Y-88388000D01*
X89916000Y-86819000D02*
X89916000Y-88134000D01*
X89916000Y-86819000D02*
X89916000Y-88388000D01*
D55*
%TO.N,Net-(RJ1-L+)*%
X96268000Y-84897000D02*
X96776000Y-85405000D01*
X96268000Y-83820000D02*
X96268000Y-84897000D01*
%TO.N,Net-(RJ1-R-)*%
X83818000Y-84643000D02*
X83056000Y-85405000D01*
X83818000Y-83820000D02*
X83818000Y-84643000D01*
D54*
%TO.N,VBUS*%
X108930000Y-83564000D02*
X108930000Y-84190000D01*
X108458000Y-83092000D02*
X108930000Y-83564000D01*
%TO.N,Net-(D28-A)*%
X108458000Y-80992000D02*
X108458000Y-80264000D01*
%TO.N,Net-(J10-CC1)*%
X106914000Y-76710000D02*
X106914000Y-77470000D01*
%TO.N,Net-(J10-D+-PadA6)*%
X105410000Y-77470000D02*
X104714000Y-78166000D01*
X104714000Y-78166000D02*
X104714000Y-81158500D01*
%TO.N,Net-(J10-D--PadA7)*%
X106614000Y-80706000D02*
X106614000Y-81158500D01*
X105918000Y-80010000D02*
X106614000Y-80706000D01*
%TO.N,Net-(J10-CC2)*%
X103914000Y-76710000D02*
X103914000Y-77470000D01*
D56*
%TO.N,USB1DN*%
X104885000Y-95480000D02*
X113135000Y-103730000D01*
X104885000Y-89980000D02*
X104885000Y-95480000D01*
X106614000Y-83796000D02*
X106430000Y-83980000D01*
X106430000Y-83980000D02*
X106430000Y-88435000D01*
D58*
X106614000Y-83433500D02*
X106614000Y-83782396D01*
D56*
X106430000Y-88435000D02*
X104885000Y-89980000D01*
D57*
X114110590Y-105030000D02*
X112885786Y-106254804D01*
D58*
X106614000Y-83433500D02*
X106614000Y-83796000D01*
D57*
X114410000Y-105030000D02*
X114110590Y-105030000D01*
D56*
%TO.N,USB1DP*%
X104714000Y-83909000D02*
X104714000Y-84459000D01*
X113860000Y-105855000D02*
X113177353Y-106537647D01*
X106160000Y-85905000D02*
X106160000Y-88238000D01*
D58*
X104714000Y-83433500D02*
X104714000Y-83782396D01*
X104714000Y-83433500D02*
X104714000Y-83909000D01*
D56*
X104585000Y-89813000D02*
X104585000Y-95805000D01*
X113177353Y-106537647D02*
X113168629Y-106537647D01*
X106160000Y-88238000D02*
X104585000Y-89813000D01*
X104714000Y-84459000D02*
X106160000Y-85905000D01*
X113168629Y-106537647D02*
X113172353Y-106537647D01*
D58*
X104714000Y-83433500D02*
X104714000Y-83824000D01*
D56*
X104585000Y-95805000D02*
X112435000Y-103655000D01*
D55*
%TO.N,Net-(J3-Pin_1)*%
X95819999Y-119960000D02*
X96510000Y-119960000D01*
X96510000Y-121959750D02*
X96219750Y-122250000D01*
X96019998Y-122250000D02*
X96219750Y-122250000D01*
X95819999Y-119960000D02*
X95819999Y-122050001D01*
D59*
X96211750Y-122258000D02*
X96219750Y-122250000D01*
D55*
X95819999Y-122050001D02*
X96019998Y-122250000D01*
X96510000Y-119960000D02*
X96510000Y-121959750D01*
D57*
%TO.N,RS485_00_DE*%
X99163716Y-94800000D02*
X105344500Y-100980784D01*
X105344500Y-100980784D02*
X105344500Y-103154500D01*
X97917000Y-92645000D02*
X97917000Y-91009599D01*
X95980000Y-90760000D02*
X95980000Y-93511614D01*
X95980000Y-93511614D02*
X97268386Y-94800000D01*
X96100000Y-90139999D02*
X95980000Y-90259999D01*
X95980000Y-90259999D02*
X95980000Y-90760000D01*
X97067700Y-90140000D02*
X96100000Y-90139999D01*
X97268386Y-94800000D02*
X98450000Y-94800000D01*
X107030591Y-104840591D02*
X107034477Y-104840591D01*
X98450000Y-94800000D02*
X99163716Y-94800000D01*
X97917000Y-91009599D02*
X97058700Y-90151299D01*
X105344500Y-103154500D02*
X107030591Y-104840591D01*
%TO.N,RS485_00_RE*%
X108060000Y-102754888D02*
X108060000Y-103055000D01*
X99187000Y-92645000D02*
X99187000Y-90943000D01*
X108890000Y-101150000D02*
X108890000Y-101924888D01*
X104310000Y-91350000D02*
X104310000Y-96570000D01*
X108060000Y-103055000D02*
X108431377Y-103426377D01*
X99960000Y-90170000D02*
X103130000Y-90170000D01*
X108890000Y-101924888D02*
X108060000Y-102754888D01*
X104310000Y-96570000D02*
X108890000Y-101150000D01*
X108431377Y-103426377D02*
X108448691Y-103426377D01*
X99880000Y-90240000D02*
X99950000Y-90170000D01*
X103130000Y-90170000D02*
X104310000Y-91350000D01*
X99880000Y-90250000D02*
X99880000Y-90240000D01*
X99187000Y-90943000D02*
X99880000Y-90250000D01*
%TO.N,RS485_02_DE*%
X98410000Y-101485000D02*
X99095000Y-101485000D01*
X99095000Y-101485000D02*
X100226359Y-102616359D01*
X105110000Y-108570000D02*
X105110000Y-108939422D01*
X100226359Y-102616359D02*
X100226359Y-104226237D01*
X105110000Y-108939422D02*
X104771736Y-109277686D01*
X104180122Y-108180000D02*
X104720000Y-108180000D01*
X100226359Y-104226237D02*
X104180122Y-108180000D01*
X104720000Y-108180000D02*
X105110000Y-108570000D01*
%TO.N,RS485_02_RE*%
X100550000Y-101690000D02*
X100550000Y-104000000D01*
X104206050Y-107656050D02*
X104206050Y-107669018D01*
X100550000Y-104000000D02*
X104206050Y-107656050D01*
X99075000Y-100215000D02*
X100550000Y-101690000D01*
X98410000Y-100215000D02*
X99075000Y-100215000D01*
%TO.N,RS485_01_RE*%
X113310000Y-91033000D02*
X113713000Y-90630000D01*
X114460000Y-108205000D02*
X113810000Y-108205000D01*
X113585000Y-108555000D02*
X114017157Y-108987157D01*
X113585000Y-108430000D02*
X113585000Y-108555000D01*
X117703600Y-91373600D02*
X117703600Y-104961400D01*
X113310000Y-92005000D02*
X113310000Y-91033000D01*
X117703600Y-104961400D02*
X114460000Y-108205000D01*
X114015000Y-92710000D02*
X113310000Y-92005000D01*
X113810000Y-108205000D02*
X113585000Y-108430000D01*
X115759000Y-92710000D02*
X114015000Y-92710000D01*
X116960000Y-90630000D02*
X117703600Y-91373600D01*
X113713000Y-90630000D02*
X116960000Y-90630000D01*
X114017157Y-108987157D02*
X114017157Y-108994843D01*
%TO.N,RS485_01_DE*%
X113360000Y-94853162D02*
X114233162Y-93980000D01*
X113360000Y-96730000D02*
X113360000Y-94853162D01*
X114233162Y-93980000D02*
X115759000Y-93980000D01*
X115585000Y-98955000D02*
X113360000Y-96730000D01*
X112037258Y-105406276D02*
X115585000Y-101858534D01*
X115585000Y-101858534D02*
X115585000Y-98955000D01*
%TD*%
%TA.AperFunction,Conductor*%
%TO.N,Earth*%
G36*
X99128061Y-72080597D02*
G01*
X99304941Y-72098018D01*
X99328769Y-72102757D01*
X99493001Y-72152576D01*
X99515453Y-72161877D01*
X99666798Y-72242772D01*
X99687010Y-72256277D01*
X99819666Y-72365145D01*
X99836854Y-72382333D01*
X99945722Y-72514989D01*
X99959227Y-72535201D01*
X100040121Y-72686543D01*
X100049424Y-72709001D01*
X100099240Y-72873224D01*
X100103982Y-72897065D01*
X100121403Y-73073938D01*
X100122000Y-73086092D01*
X100122000Y-81706526D01*
X100121002Y-81722230D01*
X100106132Y-81838701D01*
X100098241Y-81869099D01*
X100057543Y-81970716D01*
X100042269Y-81998158D01*
X99977346Y-82086292D01*
X99955667Y-82109015D01*
X99870684Y-82178011D01*
X99843991Y-82194560D01*
X99744396Y-82239994D01*
X99714401Y-82249305D01*
X99598765Y-82269634D01*
X99583127Y-82271370D01*
X99286385Y-82285341D01*
X99084140Y-82294863D01*
X99082753Y-82294920D01*
X99061429Y-82295672D01*
X99058521Y-82295740D01*
X99038509Y-82295976D01*
X99037235Y-82295991D01*
X99035777Y-82296000D01*
X93218000Y-82296000D01*
X92964005Y-82549994D01*
X92963994Y-82550004D01*
X92799805Y-82714193D01*
X92799799Y-82714201D01*
X92710000Y-82804000D01*
X92710000Y-82930995D01*
X92710000Y-84315787D01*
X92707617Y-84339980D01*
X92695476Y-84401012D01*
X92676962Y-84445708D01*
X92649309Y-84487095D01*
X92615095Y-84521309D01*
X92573708Y-84548962D01*
X92529012Y-84567476D01*
X92480989Y-84577029D01*
X92467978Y-84579617D01*
X92443788Y-84582000D01*
X92202000Y-84582000D01*
X91399254Y-84582000D01*
X91332215Y-84562315D01*
X91286460Y-84509511D01*
X91276516Y-84440353D01*
X91281548Y-84418996D01*
X91305505Y-84346697D01*
X91305506Y-84346690D01*
X91315999Y-84243986D01*
X91316000Y-84243973D01*
X91316000Y-84119000D01*
X88516001Y-84119000D01*
X88516001Y-84243986D01*
X88526493Y-84346695D01*
X88550452Y-84418995D01*
X88552854Y-84488824D01*
X88517122Y-84548866D01*
X88454602Y-84580059D01*
X88432746Y-84582000D01*
X87884000Y-84582000D01*
X87512756Y-84582000D01*
X87493359Y-84580473D01*
X87450506Y-84573686D01*
X87404662Y-84566425D01*
X87367765Y-84554436D01*
X87296551Y-84518150D01*
X87265167Y-84495348D01*
X87208651Y-84438832D01*
X87185850Y-84407450D01*
X87149561Y-84336230D01*
X87137576Y-84299345D01*
X87123525Y-84210629D01*
X87122000Y-84191244D01*
X87122000Y-83619000D01*
X88516000Y-83619000D01*
X89666000Y-83619000D01*
X89666000Y-82794000D01*
X90166000Y-82794000D01*
X90166000Y-83619000D01*
X91315999Y-83619000D01*
X91315999Y-83494028D01*
X91315998Y-83494013D01*
X91305505Y-83391302D01*
X91250358Y-83224880D01*
X91250356Y-83224875D01*
X91158315Y-83075654D01*
X91034345Y-82951684D01*
X90885124Y-82859643D01*
X90885119Y-82859641D01*
X90718697Y-82804494D01*
X90718690Y-82804493D01*
X90615986Y-82794000D01*
X90166000Y-82794000D01*
X89666000Y-82794000D01*
X89216028Y-82794000D01*
X89216012Y-82794001D01*
X89113302Y-82804494D01*
X88946880Y-82859641D01*
X88946875Y-82859643D01*
X88797654Y-82951684D01*
X88673684Y-83075654D01*
X88581643Y-83224875D01*
X88581641Y-83224880D01*
X88526494Y-83391302D01*
X88526493Y-83391309D01*
X88516000Y-83494013D01*
X88516000Y-83619000D01*
X87122000Y-83619000D01*
X87122000Y-83163213D01*
X87122000Y-83163210D01*
X87122000Y-82804000D01*
X86868004Y-82550004D01*
X86868000Y-82549999D01*
X86867994Y-82549994D01*
X86614000Y-82296000D01*
X86254790Y-82296000D01*
X86254787Y-82296000D01*
X81700307Y-82296000D01*
X81688153Y-82295403D01*
X81511278Y-82277982D01*
X81487437Y-82273240D01*
X81323214Y-82223424D01*
X81300756Y-82214121D01*
X81149414Y-82133227D01*
X81129202Y-82119722D01*
X80991813Y-82006969D01*
X80982797Y-81998797D01*
X80556898Y-81572897D01*
X80556892Y-81572892D01*
X80264000Y-81280000D01*
X79849786Y-81280000D01*
X79849783Y-81280000D01*
X74666093Y-81280000D01*
X74653939Y-81279403D01*
X74477065Y-81261982D01*
X74453224Y-81257240D01*
X74289001Y-81207424D01*
X74266543Y-81198121D01*
X74115201Y-81117227D01*
X74094989Y-81103722D01*
X73962333Y-80994854D01*
X73945145Y-80977666D01*
X73864991Y-80879998D01*
X73836276Y-80845008D01*
X73822772Y-80824798D01*
X73822117Y-80823573D01*
X73741877Y-80673453D01*
X73732575Y-80650998D01*
X73682757Y-80486769D01*
X73678018Y-80462941D01*
X73660597Y-80286061D01*
X73660000Y-80273907D01*
X73660000Y-80055000D01*
X74292001Y-80055000D01*
X74292001Y-80179986D01*
X74302494Y-80282697D01*
X74357641Y-80449119D01*
X74357643Y-80449124D01*
X74449684Y-80598345D01*
X74573654Y-80722315D01*
X74722875Y-80814356D01*
X74722880Y-80814358D01*
X74889302Y-80869505D01*
X74889309Y-80869506D01*
X74992019Y-80879999D01*
X75441999Y-80879999D01*
X75442000Y-80879998D01*
X75442000Y-80055000D01*
X75942000Y-80055000D01*
X75942000Y-80879999D01*
X76391972Y-80879999D01*
X76391986Y-80879998D01*
X76494697Y-80869505D01*
X76661119Y-80814358D01*
X76661124Y-80814356D01*
X76810345Y-80722315D01*
X76934315Y-80598345D01*
X76983461Y-80518668D01*
X77035409Y-80471944D01*
X77104372Y-80460721D01*
X77168454Y-80488565D01*
X77194539Y-80518668D01*
X77243684Y-80598345D01*
X77367654Y-80722315D01*
X77516875Y-80814356D01*
X77516880Y-80814358D01*
X77683302Y-80869505D01*
X77683309Y-80869506D01*
X77786019Y-80879999D01*
X78235999Y-80879999D01*
X78736000Y-80879999D01*
X79185972Y-80879999D01*
X79185986Y-80879998D01*
X79288697Y-80869505D01*
X79455119Y-80814358D01*
X79455124Y-80814356D01*
X79604345Y-80722315D01*
X79728315Y-80598345D01*
X79820356Y-80449124D01*
X79820359Y-80449117D01*
X79864658Y-80315431D01*
X79904430Y-80257986D01*
X79968946Y-80231162D01*
X80037722Y-80243477D01*
X80088922Y-80291019D01*
X80103255Y-80326841D01*
X80109059Y-80352271D01*
X80204883Y-80596426D01*
X80204882Y-80596426D01*
X80336027Y-80823573D01*
X80383874Y-80883571D01*
X80959466Y-80307979D01*
X81048078Y-80440597D01*
X81180403Y-80572922D01*
X81313018Y-80661532D01*
X80736830Y-81237720D01*
X80908546Y-81354793D01*
X80908550Y-81354795D01*
X81144854Y-81468594D01*
X81144858Y-81468595D01*
X81395494Y-81545907D01*
X81395500Y-81545909D01*
X81654848Y-81584999D01*
X81654857Y-81585000D01*
X81917143Y-81585000D01*
X81917151Y-81584999D01*
X82176499Y-81545909D01*
X82176505Y-81545907D01*
X82427143Y-81468595D01*
X82663445Y-81354798D01*
X82663447Y-81354797D01*
X82835168Y-81237720D01*
X82258980Y-80661533D01*
X82391597Y-80572922D01*
X82523922Y-80440597D01*
X82612533Y-80307980D01*
X83188125Y-80883572D01*
X83235971Y-80823573D01*
X83367116Y-80596426D01*
X83462941Y-80352270D01*
X83521306Y-80096550D01*
X83521307Y-80096545D01*
X83540907Y-79835004D01*
X83540907Y-79834995D01*
X83521307Y-79573454D01*
X83521306Y-79573449D01*
X83462941Y-79317729D01*
X83367116Y-79073573D01*
X83367117Y-79073573D01*
X83235972Y-78846426D01*
X83202936Y-78805001D01*
X85080685Y-78805001D01*
X85099907Y-79024714D01*
X85099909Y-79024724D01*
X85156990Y-79237755D01*
X85156995Y-79237769D01*
X85250203Y-79437654D01*
X85250207Y-79437662D01*
X85376712Y-79618330D01*
X85532669Y-79774287D01*
X85713337Y-79900792D01*
X85713339Y-79900793D01*
X85713342Y-79900795D01*
X85772902Y-79928568D01*
X85913230Y-79994004D01*
X85913232Y-79994004D01*
X85913237Y-79994007D01*
X86081607Y-80039122D01*
X86141267Y-80075486D01*
X86171796Y-80138333D01*
X86169288Y-80190989D01*
X86119909Y-80375274D01*
X86119907Y-80375285D01*
X86100685Y-80594998D01*
X86100685Y-80595001D01*
X86119907Y-80814714D01*
X86119909Y-80814724D01*
X86176990Y-81027755D01*
X86176995Y-81027769D01*
X86270203Y-81227654D01*
X86270207Y-81227662D01*
X86396712Y-81408330D01*
X86552669Y-81564287D01*
X86733337Y-81690792D01*
X86733339Y-81690793D01*
X86733342Y-81690795D01*
X86800755Y-81722230D01*
X86933230Y-81784004D01*
X86933232Y-81784004D01*
X86933237Y-81784007D01*
X86933242Y-81784008D01*
X86933244Y-81784009D01*
X86967006Y-81793055D01*
X87146280Y-81841092D01*
X87303222Y-81854822D01*
X87365998Y-81860315D01*
X87366000Y-81860315D01*
X87366002Y-81860315D01*
X87420930Y-81855509D01*
X87585720Y-81841092D01*
X87798763Y-81784007D01*
X87998658Y-81690795D01*
X88179329Y-81564288D01*
X88197710Y-81545907D01*
X88298319Y-81445299D01*
X88359642Y-81411814D01*
X88429334Y-81416798D01*
X88473681Y-81445299D01*
X88592669Y-81564287D01*
X88773337Y-81690792D01*
X88773339Y-81690793D01*
X88773342Y-81690795D01*
X88840755Y-81722230D01*
X88973230Y-81784004D01*
X88973232Y-81784004D01*
X88973237Y-81784007D01*
X88973242Y-81784008D01*
X88973244Y-81784009D01*
X89007006Y-81793055D01*
X89186280Y-81841092D01*
X89343222Y-81854822D01*
X89405998Y-81860315D01*
X89406000Y-81860315D01*
X89406002Y-81860315D01*
X89460930Y-81855509D01*
X89625720Y-81841092D01*
X89838763Y-81784007D01*
X90038658Y-81690795D01*
X90219329Y-81564288D01*
X90237710Y-81545907D01*
X90338319Y-81445299D01*
X90399642Y-81411814D01*
X90469334Y-81416798D01*
X90513681Y-81445299D01*
X90632669Y-81564287D01*
X90813337Y-81690792D01*
X90813339Y-81690793D01*
X90813342Y-81690795D01*
X90880755Y-81722230D01*
X91013230Y-81784004D01*
X91013232Y-81784004D01*
X91013237Y-81784007D01*
X91013242Y-81784008D01*
X91013244Y-81784009D01*
X91047006Y-81793055D01*
X91226280Y-81841092D01*
X91383222Y-81854822D01*
X91445998Y-81860315D01*
X91446000Y-81860315D01*
X91446002Y-81860315D01*
X91500930Y-81855509D01*
X91665720Y-81841092D01*
X91878763Y-81784007D01*
X92078658Y-81690795D01*
X92259329Y-81564288D01*
X92277710Y-81545907D01*
X92378319Y-81445299D01*
X92439642Y-81411814D01*
X92509334Y-81416798D01*
X92553681Y-81445299D01*
X92672669Y-81564287D01*
X92853337Y-81690792D01*
X92853339Y-81690793D01*
X92853342Y-81690795D01*
X92920755Y-81722230D01*
X93053230Y-81784004D01*
X93053232Y-81784004D01*
X93053237Y-81784007D01*
X93053242Y-81784008D01*
X93053244Y-81784009D01*
X93087006Y-81793055D01*
X93266280Y-81841092D01*
X93423222Y-81854822D01*
X93485998Y-81860315D01*
X93486000Y-81860315D01*
X93486002Y-81860315D01*
X93540930Y-81855509D01*
X93705720Y-81841092D01*
X93918763Y-81784007D01*
X94118658Y-81690795D01*
X94299329Y-81564288D01*
X94455288Y-81408329D01*
X94581795Y-81227658D01*
X94675007Y-81027763D01*
X94732092Y-80814720D01*
X94751315Y-80595000D01*
X94749383Y-80572922D01*
X94739567Y-80460721D01*
X94732092Y-80375280D01*
X94675007Y-80162237D01*
X94581795Y-79962343D01*
X94455288Y-79781671D01*
X94455286Y-79781668D01*
X94299331Y-79625713D01*
X94118658Y-79499205D01*
X94118652Y-79499202D01*
X94000079Y-79443911D01*
X93964802Y-79419210D01*
X93881637Y-79336045D01*
X93881606Y-79336016D01*
X93732752Y-79187162D01*
X93699267Y-79125839D01*
X93700658Y-79067387D01*
X93712092Y-79024720D01*
X93731315Y-78805000D01*
X93730496Y-78795643D01*
X93724753Y-78730000D01*
X93712092Y-78585280D01*
X93662692Y-78400917D01*
X93655009Y-78372244D01*
X93655008Y-78372243D01*
X93655007Y-78372237D01*
X93561795Y-78172343D01*
X93435288Y-77991671D01*
X93435286Y-77991668D01*
X93279330Y-77835712D01*
X93098662Y-77709207D01*
X93098654Y-77709203D01*
X92898769Y-77615995D01*
X92898755Y-77615990D01*
X92685724Y-77558909D01*
X92685722Y-77558908D01*
X92685720Y-77558908D01*
X92685718Y-77558907D01*
X92685714Y-77558907D01*
X92466002Y-77539685D01*
X92465998Y-77539685D01*
X92246285Y-77558907D01*
X92246275Y-77558909D01*
X92033244Y-77615990D01*
X92033235Y-77615994D01*
X91833344Y-77709204D01*
X91833342Y-77709205D01*
X91652668Y-77835713D01*
X91533681Y-77954701D01*
X91472358Y-77988186D01*
X91402666Y-77983202D01*
X91358319Y-77954701D01*
X91239330Y-77835712D01*
X91058662Y-77709207D01*
X91058654Y-77709203D01*
X90858769Y-77615995D01*
X90858755Y-77615990D01*
X90645724Y-77558909D01*
X90645722Y-77558908D01*
X90645720Y-77558908D01*
X90645718Y-77558907D01*
X90645714Y-77558907D01*
X90426002Y-77539685D01*
X90425998Y-77539685D01*
X90206285Y-77558907D01*
X90206275Y-77558909D01*
X89993244Y-77615990D01*
X89993235Y-77615994D01*
X89793344Y-77709204D01*
X89793342Y-77709205D01*
X89612668Y-77835713D01*
X89493681Y-77954701D01*
X89432358Y-77988186D01*
X89362666Y-77983202D01*
X89318319Y-77954701D01*
X89199330Y-77835712D01*
X89018662Y-77709207D01*
X89018654Y-77709203D01*
X88818769Y-77615995D01*
X88818755Y-77615990D01*
X88605724Y-77558909D01*
X88605722Y-77558908D01*
X88605720Y-77558908D01*
X88605718Y-77558907D01*
X88605714Y-77558907D01*
X88386002Y-77539685D01*
X88385998Y-77539685D01*
X88166285Y-77558907D01*
X88166275Y-77558909D01*
X87953244Y-77615990D01*
X87953235Y-77615994D01*
X87753344Y-77709204D01*
X87753342Y-77709205D01*
X87572668Y-77835713D01*
X87453681Y-77954701D01*
X87392358Y-77988186D01*
X87322666Y-77983202D01*
X87278319Y-77954701D01*
X87159330Y-77835712D01*
X86978662Y-77709207D01*
X86978654Y-77709203D01*
X86778769Y-77615995D01*
X86778755Y-77615990D01*
X86565724Y-77558909D01*
X86565722Y-77558908D01*
X86565720Y-77558908D01*
X86565718Y-77558907D01*
X86565714Y-77558907D01*
X86346002Y-77539685D01*
X86345998Y-77539685D01*
X86126285Y-77558907D01*
X86126275Y-77558909D01*
X85913244Y-77615990D01*
X85913235Y-77615994D01*
X85713344Y-77709204D01*
X85713342Y-77709205D01*
X85532668Y-77835713D01*
X85376713Y-77991668D01*
X85250205Y-78172342D01*
X85250204Y-78172344D01*
X85156994Y-78372235D01*
X85156990Y-78372244D01*
X85099909Y-78585275D01*
X85099907Y-78585285D01*
X85080685Y-78804998D01*
X85080685Y-78805001D01*
X83202936Y-78805001D01*
X83188124Y-78786427D01*
X82612532Y-79362018D01*
X82523922Y-79229403D01*
X82391597Y-79097078D01*
X82258980Y-79008466D01*
X82848489Y-78418957D01*
X82851998Y-78400917D01*
X82900300Y-78350432D01*
X82968228Y-78334075D01*
X82994214Y-78338150D01*
X82996961Y-78338887D01*
X82998157Y-78339214D01*
X83127445Y-78375440D01*
X83131909Y-78376053D01*
X83141558Y-78378001D01*
X83141576Y-78377912D01*
X83145557Y-78378704D01*
X83170307Y-78381962D01*
X83279094Y-78396284D01*
X83279301Y-78396312D01*
X83418902Y-78415500D01*
X83713098Y-78415500D01*
X83852735Y-78396306D01*
X83852845Y-78396292D01*
X83962290Y-78381883D01*
X83986428Y-78378706D01*
X83986430Y-78378705D01*
X83986442Y-78378704D01*
X83986453Y-78378700D01*
X83990419Y-78377912D01*
X83990437Y-78378003D01*
X84000088Y-78376053D01*
X84004555Y-78375440D01*
X84133836Y-78339216D01*
X84135085Y-78338873D01*
X84258739Y-78305742D01*
X84263222Y-78303885D01*
X84277230Y-78299040D01*
X84280745Y-78298054D01*
X84287841Y-78296067D01*
X84405129Y-78245120D01*
X84406801Y-78244411D01*
X84519183Y-78197863D01*
X84529028Y-78192178D01*
X84541611Y-78185838D01*
X84557682Y-78178859D01*
X84661290Y-78115852D01*
X84663629Y-78114465D01*
X84763317Y-78056912D01*
X84777480Y-78046043D01*
X84788538Y-78038471D01*
X84788540Y-78038470D01*
X84809049Y-78025999D01*
X84898095Y-77953553D01*
X84900789Y-77951424D01*
X84986965Y-77885300D01*
X85004189Y-77868074D01*
X85013585Y-77859595D01*
X85037260Y-77840335D01*
X85111184Y-77761180D01*
X85114067Y-77758196D01*
X85186300Y-77685965D01*
X85205074Y-77661497D01*
X85212816Y-77652360D01*
X85212817Y-77652359D01*
X85238065Y-77625326D01*
X85296783Y-77542138D01*
X85299681Y-77538203D01*
X85357912Y-77462317D01*
X85376580Y-77429981D01*
X85382656Y-77420486D01*
X85407722Y-77384976D01*
X85451592Y-77300308D01*
X85454256Y-77295441D01*
X85498863Y-77218183D01*
X85506517Y-77199701D01*
X85515629Y-77177706D01*
X85520089Y-77168118D01*
X85543072Y-77123764D01*
X85572828Y-77040034D01*
X85575102Y-77034123D01*
X85606742Y-76957739D01*
X85619759Y-76909154D01*
X85622682Y-76899757D01*
X85641592Y-76846554D01*
X85658354Y-76765885D01*
X85659978Y-76759057D01*
X85679704Y-76685442D01*
X85687115Y-76629147D01*
X85688646Y-76620117D01*
X85701448Y-76558511D01*
X85706627Y-76482800D01*
X85707398Y-76475084D01*
X85716499Y-76405958D01*
X85716500Y-76405951D01*
X85716500Y-76342698D01*
X85716789Y-76334236D01*
X85721525Y-76265000D01*
X85721525Y-76264999D01*
X94110475Y-76264999D01*
X94115211Y-76334236D01*
X94115500Y-76342698D01*
X94115500Y-76405953D01*
X94124600Y-76475080D01*
X94125372Y-76482800D01*
X94130551Y-76558508D01*
X94143353Y-76620117D01*
X94144885Y-76629156D01*
X94152295Y-76685435D01*
X94152297Y-76685445D01*
X94172021Y-76759057D01*
X94173646Y-76765895D01*
X94182073Y-76806443D01*
X94190408Y-76846555D01*
X94209306Y-76899727D01*
X94212240Y-76909158D01*
X94225255Y-76957730D01*
X94225263Y-76957754D01*
X94256896Y-77034123D01*
X94259175Y-77040050D01*
X94288926Y-77123760D01*
X94288928Y-77123767D01*
X94311909Y-77168118D01*
X94316371Y-77177709D01*
X94333137Y-77218184D01*
X94333138Y-77218185D01*
X94377725Y-77295412D01*
X94380415Y-77300326D01*
X94424278Y-77384976D01*
X94449349Y-77420494D01*
X94455424Y-77429991D01*
X94474088Y-77462317D01*
X94474093Y-77462323D01*
X94474094Y-77462325D01*
X94532317Y-77538203D01*
X94535246Y-77542182D01*
X94593929Y-77625319D01*
X94593932Y-77625322D01*
X94593935Y-77625326D01*
X94619182Y-77652359D01*
X94626932Y-77661507D01*
X94645698Y-77685963D01*
X94645701Y-77685966D01*
X94717873Y-77758138D01*
X94720815Y-77761182D01*
X94794732Y-77840327D01*
X94794735Y-77840330D01*
X94794740Y-77840335D01*
X94818395Y-77859580D01*
X94818397Y-77859581D01*
X94827826Y-77868091D01*
X94845027Y-77885293D01*
X94845031Y-77885296D01*
X94845035Y-77885300D01*
X94885005Y-77915970D01*
X94931185Y-77951406D01*
X94933952Y-77953593D01*
X95022945Y-78025994D01*
X95022949Y-78025998D01*
X95028802Y-78029557D01*
X95043461Y-78038471D01*
X95054525Y-78046048D01*
X95068677Y-78056908D01*
X95068680Y-78056909D01*
X95068683Y-78056912D01*
X95168352Y-78114455D01*
X95170701Y-78115847D01*
X95274318Y-78178859D01*
X95290372Y-78185832D01*
X95290377Y-78185834D01*
X95302973Y-78192179D01*
X95312817Y-78197863D01*
X95425194Y-78244410D01*
X95426907Y-78245137D01*
X95544159Y-78296067D01*
X95554767Y-78299039D01*
X95568764Y-78303879D01*
X95573261Y-78305742D01*
X95696917Y-78338874D01*
X95698159Y-78339215D01*
X95827445Y-78375440D01*
X95831909Y-78376053D01*
X95841558Y-78378001D01*
X95841576Y-78377912D01*
X95845557Y-78378704D01*
X95870307Y-78381962D01*
X95979094Y-78396284D01*
X95979301Y-78396312D01*
X96118902Y-78415500D01*
X96413098Y-78415500D01*
X96552735Y-78396306D01*
X96552845Y-78396292D01*
X96662290Y-78381883D01*
X96686428Y-78378706D01*
X96686430Y-78378705D01*
X96686442Y-78378704D01*
X96686453Y-78378700D01*
X96690419Y-78377912D01*
X96690437Y-78378003D01*
X96700088Y-78376053D01*
X96704555Y-78375440D01*
X96833836Y-78339215D01*
X96835054Y-78338882D01*
X96837772Y-78338154D01*
X96907619Y-78339806D01*
X96965488Y-78378960D01*
X96981958Y-78417405D01*
X97573019Y-79008466D01*
X97440403Y-79097078D01*
X97308078Y-79229403D01*
X97219467Y-79362019D01*
X96643875Y-78786427D01*
X96643874Y-78786427D01*
X96596028Y-78846425D01*
X96464883Y-79073573D01*
X96369058Y-79317729D01*
X96310693Y-79573449D01*
X96310692Y-79573454D01*
X96291093Y-79834995D01*
X96291093Y-79835004D01*
X96310692Y-80096545D01*
X96310693Y-80096550D01*
X96369058Y-80352270D01*
X96464883Y-80596426D01*
X96464882Y-80596426D01*
X96596027Y-80823573D01*
X96643874Y-80883571D01*
X97219466Y-80307979D01*
X97308078Y-80440597D01*
X97440403Y-80572922D01*
X97573018Y-80661532D01*
X96996830Y-81237720D01*
X97168546Y-81354793D01*
X97168550Y-81354795D01*
X97404854Y-81468594D01*
X97404858Y-81468595D01*
X97655494Y-81545907D01*
X97655500Y-81545909D01*
X97914848Y-81584999D01*
X97914857Y-81585000D01*
X98177143Y-81585000D01*
X98177151Y-81584999D01*
X98436499Y-81545909D01*
X98436505Y-81545907D01*
X98687143Y-81468595D01*
X98923445Y-81354798D01*
X98923447Y-81354797D01*
X99095168Y-81237720D01*
X98518980Y-80661533D01*
X98651597Y-80572922D01*
X98783922Y-80440597D01*
X98872533Y-80307980D01*
X99448125Y-80883572D01*
X99495971Y-80823573D01*
X99627116Y-80596426D01*
X99722941Y-80352270D01*
X99781306Y-80096550D01*
X99781307Y-80096545D01*
X99800907Y-79835004D01*
X99800907Y-79834995D01*
X99781307Y-79573454D01*
X99781306Y-79573449D01*
X99722941Y-79317729D01*
X99627116Y-79073573D01*
X99627117Y-79073573D01*
X99495972Y-78846426D01*
X99448124Y-78786427D01*
X98872532Y-79362018D01*
X98783922Y-79229403D01*
X98651597Y-79097078D01*
X98518980Y-79008466D01*
X99095168Y-78432278D01*
X98923454Y-78315206D01*
X98923445Y-78315201D01*
X98687142Y-78201404D01*
X98687144Y-78201404D01*
X98436505Y-78124092D01*
X98436499Y-78124090D01*
X98177151Y-78085000D01*
X97914846Y-78085000D01*
X97782723Y-78104914D01*
X97713499Y-78095441D01*
X97660385Y-78050045D01*
X97640246Y-77983141D01*
X97659475Y-77915970D01*
X97684479Y-77888622D01*
X97683913Y-77887976D01*
X97686953Y-77885308D01*
X97686965Y-77885300D01*
X97704189Y-77868074D01*
X97713585Y-77859595D01*
X97737260Y-77840335D01*
X97811184Y-77761180D01*
X97814067Y-77758196D01*
X97886300Y-77685965D01*
X97905074Y-77661497D01*
X97912816Y-77652360D01*
X97912817Y-77652359D01*
X97938065Y-77625326D01*
X97996783Y-77542138D01*
X97999681Y-77538203D01*
X98057912Y-77462317D01*
X98076580Y-77429981D01*
X98082656Y-77420486D01*
X98107722Y-77384976D01*
X98151592Y-77300308D01*
X98154256Y-77295441D01*
X98198863Y-77218183D01*
X98206517Y-77199701D01*
X98215629Y-77177706D01*
X98220089Y-77168118D01*
X98243072Y-77123764D01*
X98272828Y-77040034D01*
X98275102Y-77034123D01*
X98306742Y-76957739D01*
X98319759Y-76909154D01*
X98322682Y-76899757D01*
X98341592Y-76846554D01*
X98358354Y-76765885D01*
X98359978Y-76759057D01*
X98379704Y-76685442D01*
X98387115Y-76629147D01*
X98388646Y-76620117D01*
X98401448Y-76558511D01*
X98406627Y-76482800D01*
X98407398Y-76475084D01*
X98416499Y-76405958D01*
X98416500Y-76405951D01*
X98416500Y-76342698D01*
X98416789Y-76334236D01*
X98421525Y-76265000D01*
X98416788Y-76195762D01*
X98416500Y-76187301D01*
X98416500Y-76124055D01*
X98416499Y-76124046D01*
X98407396Y-76054903D01*
X98406626Y-76047192D01*
X98401448Y-75971489D01*
X98388647Y-75909888D01*
X98387114Y-75900844D01*
X98379704Y-75844561D01*
X98379704Y-75844558D01*
X98359978Y-75770940D01*
X98358348Y-75764084D01*
X98358346Y-75764076D01*
X98341592Y-75683446D01*
X98322686Y-75630252D01*
X98319760Y-75620848D01*
X98306742Y-75572261D01*
X98275088Y-75495842D01*
X98272833Y-75489977D01*
X98243072Y-75406236D01*
X98220078Y-75361861D01*
X98215634Y-75352306D01*
X98198863Y-75311817D01*
X98154270Y-75234581D01*
X98151581Y-75229669D01*
X98107722Y-75145024D01*
X98082653Y-75109510D01*
X98076574Y-75100006D01*
X98057920Y-75067696D01*
X98057914Y-75067687D01*
X98057912Y-75067683D01*
X98054573Y-75063332D01*
X97999705Y-74991827D01*
X97996775Y-74987848D01*
X97938066Y-74904676D01*
X97938065Y-74904674D01*
X97923000Y-74888544D01*
X97912814Y-74877636D01*
X97905066Y-74868491D01*
X97903805Y-74866848D01*
X97886300Y-74844035D01*
X97814094Y-74771829D01*
X97811183Y-74768817D01*
X97811156Y-74768788D01*
X97737260Y-74689665D01*
X97737251Y-74689658D01*
X97713601Y-74670417D01*
X97704172Y-74661907D01*
X97686973Y-74644707D01*
X97686968Y-74644703D01*
X97686965Y-74644700D01*
X97600762Y-74578553D01*
X97598130Y-74576473D01*
X97509049Y-74504001D01*
X97488537Y-74491527D01*
X97477481Y-74483956D01*
X97463318Y-74473089D01*
X97463319Y-74473089D01*
X97463317Y-74473088D01*
X97363656Y-74415549D01*
X97361270Y-74414135D01*
X97361250Y-74414123D01*
X97330906Y-74395670D01*
X97257682Y-74351140D01*
X97241611Y-74344159D01*
X97229028Y-74337820D01*
X97219185Y-74332138D01*
X97219171Y-74332131D01*
X97106910Y-74285632D01*
X97104961Y-74284805D01*
X96987846Y-74233935D01*
X96987844Y-74233934D01*
X96987841Y-74233933D01*
X96985830Y-74233369D01*
X96977219Y-74230956D01*
X96963244Y-74226123D01*
X96958751Y-74224262D01*
X96958730Y-74224255D01*
X96835120Y-74191133D01*
X96833761Y-74190761D01*
X96704565Y-74154562D01*
X96704550Y-74154559D01*
X96700068Y-74153943D01*
X96690440Y-74151999D01*
X96690423Y-74152088D01*
X96686443Y-74151296D01*
X96553112Y-74133742D01*
X96552414Y-74133648D01*
X96413100Y-74114500D01*
X96413098Y-74114500D01*
X96118902Y-74114500D01*
X96118900Y-74114500D01*
X95979584Y-74133648D01*
X95978886Y-74133742D01*
X95902256Y-74143831D01*
X95845558Y-74151296D01*
X95845557Y-74151296D01*
X95845551Y-74151297D01*
X95841575Y-74152088D01*
X95841557Y-74152001D01*
X95831943Y-74153941D01*
X95827444Y-74154559D01*
X95827441Y-74154560D01*
X95698237Y-74190761D01*
X95696878Y-74191134D01*
X95573254Y-74224259D01*
X95568758Y-74226122D01*
X95554774Y-74230958D01*
X95544167Y-74233930D01*
X95544162Y-74233932D01*
X95544159Y-74233933D01*
X95427010Y-74284816D01*
X95425110Y-74285623D01*
X95312822Y-74332134D01*
X95312804Y-74332143D01*
X95302975Y-74337818D01*
X95290386Y-74344161D01*
X95274314Y-74351142D01*
X95170746Y-74414123D01*
X95168319Y-74415562D01*
X95068685Y-74473086D01*
X95068681Y-74473089D01*
X95054517Y-74483957D01*
X95043470Y-74491522D01*
X95022953Y-74504000D01*
X95022951Y-74504001D01*
X94933941Y-74576414D01*
X94931177Y-74578598D01*
X94845030Y-74644703D01*
X94827825Y-74661908D01*
X94818406Y-74670409D01*
X94794747Y-74689658D01*
X94794738Y-74689666D01*
X94720842Y-74768788D01*
X94717903Y-74771829D01*
X94645703Y-74844030D01*
X94645693Y-74844043D01*
X94626928Y-74868496D01*
X94619183Y-74877638D01*
X94593935Y-74904674D01*
X94593930Y-74904680D01*
X94535228Y-74987841D01*
X94532300Y-74991818D01*
X94474089Y-75067680D01*
X94474084Y-75067687D01*
X94455422Y-75100010D01*
X94449343Y-75109511D01*
X94424281Y-75145016D01*
X94424278Y-75145021D01*
X94380434Y-75229636D01*
X94377725Y-75234585D01*
X94333142Y-75311807D01*
X94333135Y-75311821D01*
X94316374Y-75352282D01*
X94311915Y-75361867D01*
X94288929Y-75406231D01*
X94288926Y-75406239D01*
X94259179Y-75489939D01*
X94256901Y-75495864D01*
X94225257Y-75572262D01*
X94212242Y-75620833D01*
X94209309Y-75630261D01*
X94190408Y-75683444D01*
X94190403Y-75683460D01*
X94173652Y-75764076D01*
X94172021Y-75770940D01*
X94152296Y-75844558D01*
X94144885Y-75900843D01*
X94143353Y-75909880D01*
X94130552Y-75971487D01*
X94130551Y-75971494D01*
X94125372Y-76047198D01*
X94124600Y-76054917D01*
X94115500Y-76124046D01*
X94115500Y-76187301D01*
X94115211Y-76195763D01*
X94110475Y-76264999D01*
X85721525Y-76264999D01*
X85716788Y-76195762D01*
X85716500Y-76187301D01*
X85716500Y-76124055D01*
X85716499Y-76124046D01*
X85707396Y-76054903D01*
X85706626Y-76047192D01*
X85701448Y-75971489D01*
X85688647Y-75909888D01*
X85687114Y-75900844D01*
X85679704Y-75844561D01*
X85679704Y-75844558D01*
X85659978Y-75770940D01*
X85658348Y-75764084D01*
X85658346Y-75764076D01*
X85641592Y-75683446D01*
X85622686Y-75630252D01*
X85619760Y-75620848D01*
X85606742Y-75572261D01*
X85575088Y-75495842D01*
X85572833Y-75489977D01*
X85543072Y-75406236D01*
X85520078Y-75361861D01*
X85515634Y-75352306D01*
X85498863Y-75311817D01*
X85454270Y-75234581D01*
X85451581Y-75229669D01*
X85407722Y-75145024D01*
X85382653Y-75109510D01*
X85376574Y-75100006D01*
X85357920Y-75067696D01*
X85357914Y-75067687D01*
X85357912Y-75067683D01*
X85354573Y-75063332D01*
X85299705Y-74991827D01*
X85296775Y-74987848D01*
X85238066Y-74904676D01*
X85238065Y-74904674D01*
X85223000Y-74888544D01*
X85212814Y-74877636D01*
X85205066Y-74868491D01*
X85203805Y-74866848D01*
X85186300Y-74844035D01*
X85114094Y-74771829D01*
X85111183Y-74768817D01*
X85111156Y-74768788D01*
X85037260Y-74689665D01*
X85037251Y-74689658D01*
X85013601Y-74670417D01*
X85004172Y-74661907D01*
X84986973Y-74644707D01*
X84986968Y-74644703D01*
X84986965Y-74644700D01*
X84900762Y-74578553D01*
X84898130Y-74576473D01*
X84809049Y-74504001D01*
X84788537Y-74491527D01*
X84777481Y-74483956D01*
X84763318Y-74473089D01*
X84763319Y-74473089D01*
X84763317Y-74473088D01*
X84663656Y-74415549D01*
X84661270Y-74414135D01*
X84661250Y-74414123D01*
X84630906Y-74395670D01*
X84557682Y-74351140D01*
X84541611Y-74344159D01*
X84529028Y-74337820D01*
X84519185Y-74332138D01*
X84519171Y-74332131D01*
X84406910Y-74285632D01*
X84404961Y-74284805D01*
X84287846Y-74233935D01*
X84287844Y-74233934D01*
X84287841Y-74233933D01*
X84285830Y-74233369D01*
X84277219Y-74230956D01*
X84263244Y-74226123D01*
X84258751Y-74224262D01*
X84258730Y-74224255D01*
X84135120Y-74191133D01*
X84133761Y-74190761D01*
X84004565Y-74154562D01*
X84004550Y-74154559D01*
X84000068Y-74153943D01*
X83990440Y-74151999D01*
X83990423Y-74152088D01*
X83986443Y-74151296D01*
X83853112Y-74133742D01*
X83852414Y-74133648D01*
X83713100Y-74114500D01*
X83713098Y-74114500D01*
X83418902Y-74114500D01*
X83418900Y-74114500D01*
X83279584Y-74133648D01*
X83278886Y-74133742D01*
X83202256Y-74143831D01*
X83145558Y-74151296D01*
X83145557Y-74151296D01*
X83145551Y-74151297D01*
X83141575Y-74152088D01*
X83141557Y-74152001D01*
X83131943Y-74153941D01*
X83127444Y-74154559D01*
X83127441Y-74154560D01*
X82998237Y-74190761D01*
X82996878Y-74191134D01*
X82873254Y-74224259D01*
X82868758Y-74226122D01*
X82854774Y-74230958D01*
X82844167Y-74233930D01*
X82844162Y-74233932D01*
X82844159Y-74233933D01*
X82727010Y-74284816D01*
X82725110Y-74285623D01*
X82612822Y-74332134D01*
X82612804Y-74332143D01*
X82602975Y-74337818D01*
X82590386Y-74344161D01*
X82574314Y-74351142D01*
X82470746Y-74414123D01*
X82468319Y-74415562D01*
X82368685Y-74473086D01*
X82368681Y-74473089D01*
X82354517Y-74483957D01*
X82343470Y-74491522D01*
X82322953Y-74504000D01*
X82322951Y-74504001D01*
X82233941Y-74576414D01*
X82231177Y-74578598D01*
X82145030Y-74644703D01*
X82127825Y-74661908D01*
X82118406Y-74670409D01*
X82094747Y-74689658D01*
X82094738Y-74689666D01*
X82020842Y-74768788D01*
X82017903Y-74771829D01*
X81945703Y-74844030D01*
X81945693Y-74844043D01*
X81926928Y-74868496D01*
X81919183Y-74877638D01*
X81893935Y-74904674D01*
X81893930Y-74904680D01*
X81835228Y-74987841D01*
X81832300Y-74991818D01*
X81774089Y-75067680D01*
X81774084Y-75067687D01*
X81755422Y-75100010D01*
X81749343Y-75109511D01*
X81724281Y-75145016D01*
X81724278Y-75145021D01*
X81680434Y-75229636D01*
X81677725Y-75234585D01*
X81633142Y-75311807D01*
X81633135Y-75311821D01*
X81616374Y-75352282D01*
X81611915Y-75361867D01*
X81588929Y-75406231D01*
X81588926Y-75406239D01*
X81559179Y-75489939D01*
X81556901Y-75495864D01*
X81525257Y-75572262D01*
X81512242Y-75620833D01*
X81509309Y-75630261D01*
X81490408Y-75683444D01*
X81490403Y-75683460D01*
X81473652Y-75764076D01*
X81472021Y-75770940D01*
X81452296Y-75844558D01*
X81444885Y-75900843D01*
X81443353Y-75909880D01*
X81430552Y-75971487D01*
X81430551Y-75971494D01*
X81425372Y-76047198D01*
X81424600Y-76054917D01*
X81415500Y-76124046D01*
X81415500Y-76187301D01*
X81415211Y-76195763D01*
X81410475Y-76264999D01*
X81415211Y-76334236D01*
X81415500Y-76342698D01*
X81415500Y-76405953D01*
X81424600Y-76475080D01*
X81425372Y-76482800D01*
X81430551Y-76558508D01*
X81443353Y-76620117D01*
X81444885Y-76629156D01*
X81452295Y-76685435D01*
X81452297Y-76685445D01*
X81472021Y-76759057D01*
X81473646Y-76765895D01*
X81482073Y-76806443D01*
X81490408Y-76846555D01*
X81509306Y-76899727D01*
X81512240Y-76909158D01*
X81525255Y-76957730D01*
X81525263Y-76957754D01*
X81556896Y-77034123D01*
X81559175Y-77040050D01*
X81588926Y-77123760D01*
X81588928Y-77123767D01*
X81611909Y-77168118D01*
X81616371Y-77177709D01*
X81633137Y-77218184D01*
X81633138Y-77218185D01*
X81677725Y-77295412D01*
X81680415Y-77300326D01*
X81724278Y-77384976D01*
X81749349Y-77420494D01*
X81755424Y-77429991D01*
X81774088Y-77462317D01*
X81774093Y-77462323D01*
X81774094Y-77462325D01*
X81832317Y-77538203D01*
X81835246Y-77542182D01*
X81893929Y-77625319D01*
X81893932Y-77625322D01*
X81893935Y-77625326D01*
X81919182Y-77652359D01*
X81926932Y-77661507D01*
X81945698Y-77685963D01*
X81945701Y-77685966D01*
X82017873Y-77758138D01*
X82020815Y-77761182D01*
X82094732Y-77840327D01*
X82094735Y-77840330D01*
X82094740Y-77840335D01*
X82118395Y-77859580D01*
X82118397Y-77859581D01*
X82127826Y-77868091D01*
X82145027Y-77885293D01*
X82148078Y-77887968D01*
X82147902Y-77888168D01*
X82147907Y-77888173D01*
X82147836Y-77888243D01*
X82147044Y-77889146D01*
X82184431Y-77940313D01*
X82188609Y-78010057D01*
X82154417Y-78070989D01*
X82092710Y-78103762D01*
X82049276Y-78104914D01*
X81917153Y-78085000D01*
X81654848Y-78085000D01*
X81395500Y-78124090D01*
X81395494Y-78124092D01*
X81144858Y-78201404D01*
X81144854Y-78201405D01*
X80908547Y-78315205D01*
X80908539Y-78315210D01*
X80736830Y-78432277D01*
X81313019Y-79008466D01*
X81180403Y-79097078D01*
X81048078Y-79229403D01*
X80959467Y-79362019D01*
X80383875Y-78786427D01*
X80383874Y-78786427D01*
X80336028Y-78846425D01*
X80204883Y-79073573D01*
X80107363Y-79322051D01*
X80106316Y-79321640D01*
X80070615Y-79375552D01*
X80006668Y-79403703D01*
X79937652Y-79392813D01*
X79885480Y-79346338D01*
X79872999Y-79319739D01*
X79820358Y-79160880D01*
X79820356Y-79160875D01*
X79728315Y-79011654D01*
X79604345Y-78887684D01*
X79455124Y-78795643D01*
X79455119Y-78795641D01*
X79288697Y-78740494D01*
X79288690Y-78740493D01*
X79185986Y-78730000D01*
X78736000Y-78730000D01*
X78736000Y-80879999D01*
X78235999Y-80879999D01*
X78236000Y-80879998D01*
X78236000Y-80055000D01*
X75942000Y-80055000D01*
X75442000Y-80055000D01*
X74292001Y-80055000D01*
X73660000Y-80055000D01*
X73660000Y-79555000D01*
X74292000Y-79555000D01*
X75442000Y-79555000D01*
X75442000Y-78730000D01*
X74992028Y-78730000D01*
X74992012Y-78730001D01*
X74889302Y-78740494D01*
X74722880Y-78795641D01*
X74722875Y-78795643D01*
X74573654Y-78887684D01*
X74449684Y-79011654D01*
X74357643Y-79160875D01*
X74357641Y-79160880D01*
X74302494Y-79327302D01*
X74302493Y-79327309D01*
X74292000Y-79430013D01*
X74292000Y-79555000D01*
X73660000Y-79555000D01*
X73660000Y-76712422D01*
X73679685Y-76645383D01*
X73732489Y-76599628D01*
X73801647Y-76589684D01*
X73865203Y-76618709D01*
X73899193Y-76666525D01*
X73962597Y-76825659D01*
X73962606Y-76825677D01*
X74130218Y-77141827D01*
X74331024Y-77437994D01*
X74331035Y-77438008D01*
X74458441Y-77588002D01*
X74458442Y-77588002D01*
X75667747Y-76378697D01*
X75741588Y-76480330D01*
X75919670Y-76658412D01*
X76021300Y-76732251D01*
X74809257Y-77944294D01*
X74822495Y-77956836D01*
X75107367Y-78173388D01*
X75107370Y-78173390D01*
X75413990Y-78357876D01*
X75738739Y-78508121D01*
X75867287Y-78551435D01*
X75924531Y-78591495D01*
X75951031Y-78656145D01*
X75942000Y-78705161D01*
X75942000Y-79555000D01*
X78236000Y-79555000D01*
X78236000Y-78730000D01*
X78222274Y-78716275D01*
X78201976Y-78710315D01*
X78156221Y-78657511D01*
X78146277Y-78588353D01*
X78175302Y-78524797D01*
X78216949Y-78493461D01*
X78510009Y-78357876D01*
X78816629Y-78173390D01*
X78816632Y-78173388D01*
X79101509Y-77956831D01*
X79114742Y-77944295D01*
X79114742Y-77944294D01*
X77902699Y-76732251D01*
X78004330Y-76658412D01*
X78182412Y-76480330D01*
X78256251Y-76378698D01*
X79465556Y-77588002D01*
X79592972Y-77437998D01*
X79592975Y-77437994D01*
X79793781Y-77141827D01*
X79961393Y-76825677D01*
X79961402Y-76825659D01*
X80093850Y-76493239D01*
X80093852Y-76493232D01*
X80189578Y-76148457D01*
X80189584Y-76148431D01*
X80247472Y-75795331D01*
X80247473Y-75795314D01*
X80266847Y-75438002D01*
X80266847Y-75437997D01*
X80247473Y-75080685D01*
X80247472Y-75080668D01*
X80189584Y-74727568D01*
X80189578Y-74727542D01*
X80093852Y-74382767D01*
X80093850Y-74382760D01*
X79961402Y-74050340D01*
X79961393Y-74050322D01*
X79793781Y-73734172D01*
X79592975Y-73438005D01*
X79592964Y-73437991D01*
X79465556Y-73287996D01*
X78256251Y-74497301D01*
X78182412Y-74395670D01*
X78004330Y-74217588D01*
X77902698Y-74143748D01*
X79114742Y-72931704D01*
X79101504Y-72919163D01*
X78816632Y-72702611D01*
X78816629Y-72702609D01*
X78510009Y-72518123D01*
X78185260Y-72367877D01*
X78185255Y-72367876D01*
X78047643Y-72321509D01*
X77990398Y-72281449D01*
X77963898Y-72216800D01*
X77976558Y-72148086D01*
X78024357Y-72097125D01*
X78087236Y-72080000D01*
X99115907Y-72080000D01*
X99128061Y-72080597D01*
G37*
%TD.AperFunction*%
%TD*%
M02*
