%TF.GenerationSoftware,KiCad,Pcbnew,8.0.0*%
%TF.CreationDate,2024-03-22T12:56:57+01:00*%
%TF.ProjectId,WCH-ETH-LOW,5743482d-4554-4482-9d4c-4f572e6b6963,rev?*%
%TF.SameCoordinates,Original*%
%TF.FileFunction,Other,Comment*%
%FSLAX46Y46*%
G04 Gerber Fmt 4.6, Leading zero omitted, Abs format (unit mm)*
G04 Created by KiCad (PCBNEW 8.0.0) date 2024-03-22 12:56:57*
%MOMM*%
%LPD*%
G01*
G04 APERTURE LIST*
%ADD10C,0.070000*%
%ADD11C,0.150000*%
%ADD12C,1.500000*%
G04 APERTURE END LIST*
D10*
X115703095Y-120186407D02*
X115703095Y-119786407D01*
X115474524Y-120186407D02*
X115645953Y-119957836D01*
X115474524Y-119786407D02*
X115703095Y-120014979D01*
X115303095Y-119976883D02*
X115169762Y-119976883D01*
X115112619Y-120186407D02*
X115303095Y-120186407D01*
X115303095Y-120186407D02*
X115303095Y-119786407D01*
X115303095Y-119786407D02*
X115112619Y-119786407D01*
X114941190Y-119976883D02*
X114807857Y-119976883D01*
X114750714Y-120186407D02*
X114941190Y-120186407D01*
X114941190Y-120186407D02*
X114941190Y-119786407D01*
X114941190Y-119786407D02*
X114750714Y-119786407D01*
X114579285Y-120186407D02*
X114579285Y-119786407D01*
X114579285Y-119786407D02*
X114426904Y-119786407D01*
X114426904Y-119786407D02*
X114388809Y-119805455D01*
X114388809Y-119805455D02*
X114369762Y-119824502D01*
X114369762Y-119824502D02*
X114350714Y-119862598D01*
X114350714Y-119862598D02*
X114350714Y-119919740D01*
X114350714Y-119919740D02*
X114369762Y-119957836D01*
X114369762Y-119957836D02*
X114388809Y-119976883D01*
X114388809Y-119976883D02*
X114426904Y-119995931D01*
X114426904Y-119995931D02*
X114579285Y-119995931D01*
X114103095Y-119786407D02*
X114026904Y-119786407D01*
X114026904Y-119786407D02*
X113988809Y-119805455D01*
X113988809Y-119805455D02*
X113950714Y-119843550D01*
X113950714Y-119843550D02*
X113931666Y-119919740D01*
X113931666Y-119919740D02*
X113931666Y-120053074D01*
X113931666Y-120053074D02*
X113950714Y-120129264D01*
X113950714Y-120129264D02*
X113988809Y-120167360D01*
X113988809Y-120167360D02*
X114026904Y-120186407D01*
X114026904Y-120186407D02*
X114103095Y-120186407D01*
X114103095Y-120186407D02*
X114141190Y-120167360D01*
X114141190Y-120167360D02*
X114179285Y-120129264D01*
X114179285Y-120129264D02*
X114198333Y-120053074D01*
X114198333Y-120053074D02*
X114198333Y-119919740D01*
X114198333Y-119919740D02*
X114179285Y-119843550D01*
X114179285Y-119843550D02*
X114141190Y-119805455D01*
X114141190Y-119805455D02*
X114103095Y-119786407D01*
X113760237Y-119786407D02*
X113760237Y-120110217D01*
X113760237Y-120110217D02*
X113741190Y-120148312D01*
X113741190Y-120148312D02*
X113722142Y-120167360D01*
X113722142Y-120167360D02*
X113684047Y-120186407D01*
X113684047Y-120186407D02*
X113607856Y-120186407D01*
X113607856Y-120186407D02*
X113569761Y-120167360D01*
X113569761Y-120167360D02*
X113550714Y-120148312D01*
X113550714Y-120148312D02*
X113531666Y-120110217D01*
X113531666Y-120110217D02*
X113531666Y-119786407D01*
X113398332Y-119786407D02*
X113169761Y-119786407D01*
X113284047Y-120186407D02*
X113284047Y-119786407D01*
D11*
%TO.C,H3*%
X99360000Y-128080000D02*
G75*
G02*
X92960000Y-128080000I-3200000J0D01*
G01*
X92960000Y-128080000D02*
G75*
G02*
X99360000Y-128080000I3200000J0D01*
G01*
%TO.C,H2*%
X118262000Y-75692000D02*
G75*
G02*
X111862000Y-75692000I-3200000J0D01*
G01*
X111862000Y-75692000D02*
G75*
G02*
X118262000Y-75692000I3200000J0D01*
G01*
%TO.C,H1*%
X79762000Y-75438000D02*
G75*
G02*
X74162000Y-75438000I-2800000J0D01*
G01*
X74162000Y-75438000D02*
G75*
G02*
X79762000Y-75438000I2800000J0D01*
G01*
D12*
%TO.C,RJ1*%
X84316000Y-76265000D02*
G75*
G02*
X82816000Y-76265000I-750000J0D01*
G01*
X82816000Y-76265000D02*
G75*
G02*
X84316000Y-76265000I750000J0D01*
G01*
X97016000Y-76265000D02*
G75*
G02*
X95516000Y-76265000I-750000J0D01*
G01*
X95516000Y-76265000D02*
G75*
G02*
X97016000Y-76265000I750000J0D01*
G01*
%TD*%
M02*
