M48
; DRILL file {KiCad 8.0.0} date 2024-03-22T12:56:57+0100
; FORMAT={-:-/ absolute / inch / decimal}
; #@! TF.CreationDate,2024-03-22T12:56:57+01:00
; #@! TF.GenerationSoftware,Kicad,Pcbnew,8.0.0
; #@! TF.FileFunction,Plated,1,4,PTH
FMAT,2
INCH
; #@! TA.AperFunction,Plated,PTH,ViaDrill
T1C0.0079
; #@! TA.AperFunction,Plated,PTH,ComponentDrill
T2C0.0118
; #@! TA.AperFunction,Plated,PTH,ComponentDrill
T3C0.0236
; #@! TA.AperFunction,Plated,PTH,ComponentDrill
T4C0.0300
; #@! TA.AperFunction,Plated,PTH,ComponentDrill
T5C0.0360
; #@! TA.AperFunction,Plated,PTH,ComponentDrill
T6C0.0748
; #@! TA.AperFunction,Plated,PTH,ComponentDrill
T7C0.1260
; #@! TA.AperFunction,Plated,PTH,ComponentDrill
T8C0.1299
%
G90
G05
T1
X2.9287Y-3.2465
X2.9287Y-3.2728
X2.93Y-4.05
X2.93Y-4.13
X2.93Y-4.2076
X2.93Y-4.2863
X2.93Y-4.365
X2.93Y-4.4438
X2.93Y-4.5225
X2.93Y-4.6013
X2.95Y-3.77
X2.98Y-3.45
X3.0021Y-3.972
X3.03Y-3.45
X3.03Y-3.53
X3.08Y-3.45
X3.1047Y-5.05
X3.111Y-5.0972
X3.1487Y-5.17
X3.1496Y-3.2449
X3.1496Y-3.2724
X3.15Y-4.0102
X3.1988Y-4.9083
X3.2275Y-5.17
X3.2618Y-4.7248
X3.2619Y-5.0685
X3.2661Y-5.0992
X3.3055Y-5.1657
X3.3098Y-4.2791
X3.3098Y-4.3689
X3.3098Y-4.4594
X3.3098Y-4.5504
X3.3098Y-4.6398
X3.3106Y-4.0988
X3.3106Y-4.7303
X3.3268Y-4.1547
X3.35Y-4.1263
X3.35Y-4.2838
X3.3504Y-4.3236
X3.361Y-3.3
X3.3615Y-4.181
X3.365Y-3.7732
X3.3692Y-4.4413
X3.3695Y-3.4254
X3.4102Y-4.3972
X3.4106Y-4.2476
X3.4146Y-3.6528
X3.4146Y-3.7354
X3.415Y-3.44
X3.4154Y-3.7732
X3.4197Y-4.0781
X3.4547Y-4.3213
X3.465Y-3.7732
X3.4669Y-4.5579
X3.5319Y-4.4831
X3.5394Y-4.5669
X3.5398Y-3.652
X3.5398Y-3.7354
X3.5705Y-4.1706
X3.5813Y-4.8159
X3.5909Y-3.75
X3.5972Y-4.5579
X3.5996Y-4.2425
X3.6008Y-4.4012
X3.611Y-4.8264
X3.6189Y-4.5197
X3.6201Y-4.3625
X3.6224Y-4.2047
X3.6413Y-4.885
X3.6445Y-3.8386
X3.6484Y-3.6547
X3.665Y-3.44
X3.6654Y-3.7575
X3.6661Y-3.7354
X3.7219Y-3.4283
X3.7276Y-4.0461
X3.7287Y-4.263
X3.7295Y-3.2996
X3.7374Y-3.75
X3.746Y-3.8402
X3.7646Y-4.5673
X3.7724Y-4.7228
X3.7839Y-3.4524
X3.7996Y-4.7228
X3.8307Y-4.2656
X3.8542Y-4.723
X3.855Y-3.4059
X3.8976Y-3.3799
X3.9217Y-4.2656
X3.9512Y-3.3579
X3.9634Y-4.9035
X3.9634Y-4.9331
X3.965Y-4.699
X3.9689Y-4.7295
X3.9827Y-5.0909
X3.9949Y-3.7244
X3.9972Y-3.6697
X3.998Y-3.4938
X3.9992Y-4.8702
X4.0106Y-5.1697
X4.0185Y-3.6114
X4.0201Y-4.8299
X4.025Y-4.083
X4.028Y-4.3644
X4.0299Y-5.1697
X4.039Y-4.6039
X4.039Y-4.6315
X4.0427Y-4.067
X4.0457Y-4.262
X4.0516Y-4.3053
X4.0609Y-4.048
X4.061Y-3.8051
X4.0644Y-4.385
X4.0654Y-4.4579
X4.0654Y-4.6043
X4.0654Y-4.6323
X4.0776Y-4.9717
X4.09Y-2.96
X4.0911Y-3.05
X4.1451Y-4.4785
X4.15Y-3.05
X4.16Y-3.23
X4.1626Y-5.1492
X4.17Y-3.15
X4.1819Y-5.1492
X4.1992Y-4.6335
X4.2031Y-3.2384
X4.2092Y-3.05
X4.21Y-2.96
X4.213Y-4.8732
X4.2272Y-4.6339
X4.2287Y-4.0106
X4.2321Y-3.3145
X4.239Y-4.8736
X4.25Y-3.14
X4.25Y-3.16
X4.2594Y-3.9787
X4.2602Y-3.3803
X4.2602Y-4.39
X4.261Y-3.4705
X4.27Y-3.14
X4.27Y-3.16
X4.2776Y-5.0508
X4.2898Y-3.3415
X4.2898Y-3.5114
X4.2957Y-5.0508
X4.323Y-4.116
X4.3307Y-4.5559
X4.34Y-4.02
X4.3564Y-4.5268
X4.3606Y-4.1478
X4.3614Y-3.5236
X4.3951Y-4.5429
X4.396Y-3.867
X4.3987Y-4.0953
X4.4089Y-4.577
X4.4118Y-3.7496
X4.4199Y-4.1186
X4.4205Y-3.5445
X4.4266Y-4.0809
X4.4344Y-4.2226
X4.4374Y-4.577
X4.4524Y-5.0744
X4.4524Y-5.0906
X4.4541Y-4.0839
X4.4551Y-4.2394
X4.4565Y-4.7797
X4.465Y-4.5632
X4.4827Y-4.1675
X4.5043Y-4.135
X4.5063Y-4.5622
X4.5063Y-4.7797
X4.522Y-4.218
X4.5565Y-4.7797
X4.5575Y-4.6646
X4.5614Y-4.1488
X4.5641Y-5.0374
X4.5853Y-5.0937
T2
X4.4384Y-4.0051
T4
X4.37Y-3.16
X4.37Y-3.26
X4.37Y-3.36
X4.37Y-3.46
X4.37Y-4.8616
X4.37Y-4.9616
X4.37Y-5.0616
T5
X3.2699Y-3.3624
X3.3601Y-3.3624
X3.3994Y-3.1026
X3.4396Y-3.173
X3.4798Y-3.1026
X3.5199Y-3.173
X3.5601Y-3.1026
X3.6002Y-3.173
X3.6404Y-3.1026
X3.6806Y-3.173
X3.7199Y-3.3624
X3.8101Y-3.3624
T6
X3.2199Y-3.1431
X3.8601Y-3.1431
T7
X3.03Y-2.97
T8
X3.29Y-3.0026
X3.79Y-3.0026
T3
G00X3.9899Y-2.9084
M15
G01X3.9899Y-2.8848
M16
G05
G00X3.9899Y-3.0828
M15
G01X3.9899Y-3.0395
M16
G05
G00X4.3301Y-2.9084
M15
G01X4.3301Y-2.8848
M16
G05
G00X4.3301Y-3.0828
M15
G01X4.3301Y-3.0395
M16
G05
M30
