%TF.GenerationSoftware,KiCad,Pcbnew,8.0.0*%
%TF.CreationDate,2024-03-22T12:56:57+01:00*%
%TF.ProjectId,WCH-ETH-LOW,5743482d-4554-4482-9d4c-4f572e6b6963,rev?*%
%TF.SameCoordinates,Original*%
%TF.FileFunction,Paste,Top*%
%TF.FilePolarity,Positive*%
%FSLAX46Y46*%
G04 Gerber Fmt 4.6, Leading zero omitted, Abs format (unit mm)*
G04 Created by KiCad (PCBNEW 8.0.0) date 2024-03-22 12:56:57*
%MOMM*%
%LPD*%
G01*
G04 APERTURE LIST*
G04 Aperture macros list*
%AMRoundRect*
0 Rectangle with rounded corners*
0 $1 Rounding radius*
0 $2 $3 $4 $5 $6 $7 $8 $9 X,Y pos of 4 corners*
0 Add a 4 corners polygon primitive as box body*
4,1,4,$2,$3,$4,$5,$6,$7,$8,$9,$2,$3,0*
0 Add four circle primitives for the rounded corners*
1,1,$1+$1,$2,$3*
1,1,$1+$1,$4,$5*
1,1,$1+$1,$6,$7*
1,1,$1+$1,$8,$9*
0 Add four rect primitives between the rounded corners*
20,1,$1+$1,$2,$3,$4,$5,0*
20,1,$1+$1,$4,$5,$6,$7,0*
20,1,$1+$1,$6,$7,$8,$9,0*
20,1,$1+$1,$8,$9,$2,$3,0*%
G04 Aperture macros list end*
%ADD10RoundRect,0.250000X2.500000X-0.250000X2.500000X0.250000X-2.500000X0.250000X-2.500000X-0.250000X0*%
%ADD11RoundRect,0.250000X1.250000X-0.550000X1.250000X0.550000X-1.250000X0.550000X-1.250000X-0.550000X0*%
%ADD12RoundRect,0.250000X-2.500000X0.250000X-2.500000X-0.250000X2.500000X-0.250000X2.500000X0.250000X0*%
%ADD13RoundRect,0.250000X-1.250000X0.550000X-1.250000X-0.550000X1.250000X-0.550000X1.250000X0.550000X0*%
%ADD14RoundRect,0.218750X0.218750X0.256250X-0.218750X0.256250X-0.218750X-0.256250X0.218750X-0.256250X0*%
%ADD15RoundRect,0.147500X-0.172500X0.147500X-0.172500X-0.147500X0.172500X-0.147500X0.172500X0.147500X0*%
%ADD16R,0.600000X1.450000*%
%ADD17R,0.300000X1.450000*%
%ADD18R,0.750000X2.000000*%
%ADD19RoundRect,0.250000X-0.650000X0.325000X-0.650000X-0.325000X0.650000X-0.325000X0.650000X0.325000X0*%
%ADD20RoundRect,0.250000X-1.250000X-0.550000X1.250000X-0.550000X1.250000X0.550000X-1.250000X0.550000X0*%
%ADD21RoundRect,0.140000X0.170000X-0.140000X0.170000X0.140000X-0.170000X0.140000X-0.170000X-0.140000X0*%
%ADD22RoundRect,0.140000X0.140000X0.170000X-0.140000X0.170000X-0.140000X-0.170000X0.140000X-0.170000X0*%
%ADD23C,2.500000*%
%ADD24C,1.520000*%
%ADD25RoundRect,0.250000X0.325000X0.650000X-0.325000X0.650000X-0.325000X-0.650000X0.325000X-0.650000X0*%
%ADD26R,1.000000X1.700000*%
%ADD27RoundRect,0.250000X-0.250000X-2.500000X0.250000X-2.500000X0.250000X2.500000X-0.250000X2.500000X0*%
%ADD28RoundRect,0.250000X-0.550000X-1.250000X0.550000X-1.250000X0.550000X1.250000X-0.550000X1.250000X0*%
G04 APERTURE END LIST*
D10*
%TO.C,J2*%
X79502000Y-118872000D03*
X79502000Y-116872000D03*
X79502000Y-114872000D03*
X79502000Y-112872000D03*
X79502000Y-110872000D03*
X79502000Y-108872000D03*
X79502000Y-106872000D03*
X79502000Y-104872000D03*
X79502000Y-102872000D03*
X79502000Y-100872000D03*
D11*
X77252000Y-121272000D03*
X77252000Y-98472000D03*
%TD*%
D12*
%TO.C,J6*%
X103394000Y-95774000D03*
X103394000Y-97774000D03*
D13*
X105644000Y-93374000D03*
X105644000Y-100174000D03*
%TD*%
D14*
%TO.C,D26*%
X78003500Y-83820000D03*
X76428500Y-83820000D03*
%TD*%
D15*
%TO.C,L4*%
X111660000Y-100595000D03*
X111660000Y-101565000D03*
%TD*%
D16*
%TO.C,J10*%
X108914000Y-78669000D03*
X108114000Y-78669000D03*
D17*
X106914000Y-78669000D03*
X105914000Y-78669000D03*
X105414000Y-78669000D03*
X104414000Y-78669000D03*
D16*
X103214000Y-78669000D03*
X102414000Y-78669000D03*
X102414000Y-78669000D03*
X103214000Y-78669000D03*
D17*
X103914000Y-78669000D03*
X104914000Y-78669000D03*
X106414000Y-78669000D03*
X107414000Y-78669000D03*
D16*
X108114000Y-78669000D03*
X108914000Y-78669000D03*
%TD*%
D18*
%TO.C,L2*%
X85471000Y-97164000D03*
X86741000Y-97164000D03*
X88011000Y-97164000D03*
X89281000Y-97164000D03*
X90551000Y-97164000D03*
X91821000Y-97164000D03*
X93091000Y-97164000D03*
X94361000Y-97164000D03*
X94361000Y-88764000D03*
X93091000Y-88764000D03*
X91821000Y-88764000D03*
X90551000Y-88764000D03*
X89281000Y-88764000D03*
X88011000Y-88764000D03*
X86741000Y-88764000D03*
X85471000Y-88764000D03*
%TD*%
D14*
%TO.C,D19*%
X78003500Y-85852000D03*
X76428500Y-85852000D03*
%TD*%
D10*
%TO.C,J7*%
X88392000Y-118808000D03*
X88392000Y-116808000D03*
X88392000Y-114808000D03*
X88392000Y-112808000D03*
X88392000Y-110808000D03*
X88392000Y-108808000D03*
X88392000Y-106808000D03*
X88392000Y-104808000D03*
D11*
X86142000Y-121208000D03*
X86142000Y-102408000D03*
%TD*%
D19*
%TO.C,C43*%
X114250000Y-126065000D03*
X114250000Y-129015000D03*
%TD*%
D20*
%TO.C,C10*%
X102956000Y-124968000D03*
X107356000Y-124968000D03*
%TD*%
D10*
%TO.C,J3*%
X97282000Y-118872000D03*
X97282000Y-116872000D03*
D11*
X95032000Y-121272000D03*
X95032000Y-114472000D03*
%TD*%
D21*
%TO.C,C42*%
X111660000Y-99660000D03*
X111660000Y-98700000D03*
%TD*%
D14*
%TO.C,D27*%
X78003500Y-81788000D03*
X76428500Y-81788000D03*
%TD*%
D22*
%TO.C,C45*%
X111640000Y-102580000D03*
X110680000Y-102580000D03*
%TD*%
D23*
%TO.C,RJ1*%
X98046000Y-79835000D03*
X81786000Y-79835000D03*
D24*
X83056000Y-85405000D03*
X85346000Y-85405000D03*
X94486000Y-85405000D03*
X96776000Y-85405000D03*
X93486000Y-80595000D03*
X92466000Y-78805000D03*
X91446000Y-80595000D03*
X90426000Y-78805000D03*
X89406000Y-80595000D03*
X88386000Y-78805000D03*
X87366000Y-80595000D03*
X86346000Y-78805000D03*
%TD*%
D20*
%TO.C,C13*%
X102930000Y-118970000D03*
X107330000Y-118970000D03*
%TD*%
D12*
%TO.C,J4*%
X103394000Y-85868000D03*
X103394000Y-87868000D03*
D13*
X105644000Y-83468000D03*
X105644000Y-90268000D03*
%TD*%
D10*
%TO.C,J5*%
X97282000Y-109220000D03*
X97282000Y-107220000D03*
D11*
X95032000Y-111620000D03*
X95032000Y-104820000D03*
%TD*%
D25*
%TO.C,C44*%
X108875000Y-129530000D03*
X105925000Y-129530000D03*
%TD*%
D26*
%TO.C,SW1*%
X75802000Y-95754000D03*
X75802000Y-89154000D03*
X79502000Y-95754000D03*
X79502000Y-89154000D03*
%TD*%
D27*
%TO.C,J1*%
X77978000Y-128016000D03*
X79978000Y-128016000D03*
X81978000Y-128016000D03*
X83978000Y-128016000D03*
D28*
X75578000Y-125766000D03*
X86378000Y-125766000D03*
%TD*%
M02*
