%TF.GenerationSoftware,KiCad,Pcbnew,8.0.0*%
%TF.CreationDate,2024-03-22T12:56:57+01:00*%
%TF.ProjectId,WCH-ETH-LOW,5743482d-4554-4482-9d4c-4f572e6b6963,rev?*%
%TF.SameCoordinates,Original*%
%TF.FileFunction,Copper,L2,Inr*%
%TF.FilePolarity,Positive*%
%FSLAX46Y46*%
G04 Gerber Fmt 4.6, Leading zero omitted, Abs format (unit mm)*
G04 Created by KiCad (PCBNEW 8.0.0) date 2024-03-22 12:56:57*
%MOMM*%
%LPD*%
G01*
G04 APERTURE LIST*
%TA.AperFunction,ComponentPad*%
%ADD10O,1.000000X2.100000*%
%TD*%
%TA.AperFunction,ComponentPad*%
%ADD11O,1.000000X1.600000*%
%TD*%
%TA.AperFunction,ComponentPad*%
%ADD12C,3.600000*%
%TD*%
%TA.AperFunction,ComponentPad*%
%ADD13R,0.500000X0.900000*%
%TD*%
%TA.AperFunction,ComponentPad*%
%ADD14C,2.500000*%
%TD*%
%TA.AperFunction,ComponentPad*%
%ADD15C,1.520000*%
%TD*%
%TA.AperFunction,ComponentPad*%
%ADD16C,3.300000*%
%TD*%
%TA.AperFunction,ComponentPad*%
%ADD17C,1.524000*%
%TD*%
%TA.AperFunction,ViaPad*%
%ADD18C,0.450000*%
%TD*%
G04 APERTURE END LIST*
D10*
%TO.N,GND*%
%TO.C,J10*%
X109984000Y-77754000D03*
D11*
X109984000Y-73574000D03*
D10*
X101344000Y-77754000D03*
D11*
X101344000Y-73574000D03*
%TD*%
D12*
%TO.N,Earth*%
%TO.C,H1*%
X76962000Y-75438000D03*
%TD*%
D13*
%TO.N,GND*%
%TO.C,AE1*%
X112735000Y-101730000D03*
%TD*%
D14*
%TO.N,Earth*%
%TO.C,RJ1*%
X98046000Y-79835000D03*
X81786000Y-79835000D03*
D15*
%TO.N,Net-(RJ1-R-)*%
X83056000Y-85405000D03*
%TO.N,EthStatLEDR*%
X85346000Y-85405000D03*
%TO.N,EthStatLEDL*%
X94486000Y-85405000D03*
%TO.N,Net-(RJ1-L+)*%
X96776000Y-85405000D03*
%TO.N,Net-(C37-Pad1)*%
X93486000Y-80595000D03*
X92466000Y-78805000D03*
%TO.N,Net-(L2-RX-)*%
X91446000Y-80595000D03*
%TO.N,Net-(C36-Pad1)*%
X90426000Y-78805000D03*
X89406000Y-80595000D03*
%TO.N,Net-(L2-RX+)*%
X88386000Y-78805000D03*
%TO.N,Net-(L2-TX-)*%
X87366000Y-80595000D03*
%TO.N,Net-(L2-TX+)*%
X86346000Y-78805000D03*
D16*
%TO.N,*%
X96266000Y-76265000D03*
X83566000Y-76265000D03*
%TD*%
D17*
%TO.N,Net-(L2-RXCT)*%
%TO.C,U6*%
X110998000Y-80264000D03*
%TO.N,Net-(L2-TXCT)*%
X110998000Y-82804000D03*
%TO.N,Net-(C36-Pad1)*%
X110998000Y-85344000D03*
%TO.N,Net-(C37-Pad1)*%
X110998000Y-87884000D03*
%TO.N,GND*%
X110998000Y-123484000D03*
%TO.N,VCC*%
X110998000Y-126024000D03*
%TO.N,unconnected-(U6-Adj-Pad7)*%
X110998000Y-128564000D03*
%TD*%
D18*
%TO.N,GND*%
X84070000Y-110970000D03*
X84070000Y-108690000D03*
X84070000Y-115580000D03*
X95620000Y-116010000D03*
X97300000Y-108345500D03*
X80000000Y-83120000D03*
X102310000Y-110855000D03*
X91720000Y-122590000D03*
X74930000Y-95758000D03*
X102360000Y-131310000D03*
X105730000Y-130790000D03*
X90965000Y-122325000D03*
X110000000Y-115720000D03*
X112280000Y-90030000D03*
X91460000Y-111790000D03*
X99000000Y-85850000D03*
X103570000Y-126280000D03*
X84090000Y-120150000D03*
X79020000Y-129470000D03*
X102070000Y-91730000D03*
X80000000Y-82420000D03*
X108960000Y-89190000D03*
X89710000Y-113870000D03*
X82852500Y-128740000D03*
X107495176Y-84187081D03*
X84070000Y-113270000D03*
X86620000Y-111690000D03*
X90691500Y-105933500D03*
X110236000Y-102108000D03*
X103150000Y-96648500D03*
X74390000Y-82460000D03*
X113090000Y-128890000D03*
X74390000Y-83130000D03*
X97896000Y-119964000D03*
X82960000Y-129520000D03*
X113160000Y-107680000D03*
X113410000Y-115905000D03*
X84090000Y-104110000D03*
X87750000Y-109760000D03*
X82850000Y-120010000D03*
X102760000Y-108255000D03*
X108960000Y-84874500D03*
X76252500Y-100890000D03*
X108210000Y-111505000D03*
X91370000Y-115770000D03*
X88060000Y-115770000D03*
X85381240Y-106198660D03*
X95148400Y-97540000D03*
X86630000Y-107890000D03*
X85100000Y-109820000D03*
X80010000Y-101860000D03*
X83960000Y-131210000D03*
X106760000Y-82255000D03*
X113090000Y-129300000D03*
X116467500Y-129380000D03*
X106660000Y-117690000D03*
X86730000Y-92780000D03*
X86860000Y-103582500D03*
X84070000Y-117850000D03*
X113195000Y-121405000D03*
X106934000Y-75184000D03*
X103886000Y-75184000D03*
X115860000Y-105380000D03*
X91430000Y-107760000D03*
X96110000Y-87690000D03*
X107670000Y-123790000D03*
X103260000Y-113230000D03*
X84500000Y-105530000D03*
X94680000Y-102770000D03*
X101870000Y-131310000D03*
X101580114Y-123701856D03*
X106220000Y-130790000D03*
X111658400Y-98221800D03*
X78860000Y-128270000D03*
X108190000Y-101060000D03*
X89910000Y-92760000D03*
X107010000Y-123780000D03*
X81250000Y-124670000D03*
X112060000Y-95240000D03*
X92670000Y-92830000D03*
X107370000Y-117700000D03*
%TO.N,+3.3V*%
X102910000Y-109355000D03*
X92490000Y-124080000D03*
X89910000Y-94880000D03*
X86750000Y-95840000D03*
X93100000Y-95440000D03*
X114460000Y-115880000D03*
X94730000Y-83810000D03*
X105664000Y-82042000D03*
X76962000Y-89662000D03*
X115735000Y-121405000D03*
X93120000Y-94880000D03*
X107410000Y-101870000D03*
X92570502Y-97500000D03*
X102590000Y-116940000D03*
X110653196Y-114981031D03*
X110780000Y-89500000D03*
X115927500Y-127950000D03*
X89900000Y-116000000D03*
X86730000Y-94880000D03*
X103260000Y-117660000D03*
X103260000Y-116950000D03*
X102590000Y-117640000D03*
X111635000Y-115390000D03*
X85370000Y-83820000D03*
X100361648Y-85291500D03*
X103235000Y-111380000D03*
%TO.N,Net-(D1-A2)*%
X79978000Y-131318000D03*
%TO.N,Net-(D2-A2)*%
X81978000Y-131318000D03*
%TO.N,NRST*%
X105285000Y-113755000D03*
X114460000Y-121405000D03*
%TO.N,Net-(L2-RXCT)*%
X93091000Y-87376000D03*
%TO.N,Net-(L2-TXCT)*%
X86741000Y-87376000D03*
%TO.N,Net-(C36-Pad1)*%
X85585000Y-87005000D03*
%TO.N,Net-(C37-Pad1)*%
X94535000Y-87080000D03*
%TO.N,StatLED00*%
X102235000Y-103708200D03*
%TO.N,Net-(D19-A)*%
X78232000Y-87630000D03*
%TO.N,StatLED01*%
X102685000Y-103301800D03*
%TO.N,Net-(D26-A)*%
X76962000Y-87630000D03*
%TO.N,StatLED02*%
X103147438Y-102819200D03*
%TO.N,Net-(D27-A)*%
X75692000Y-87630000D03*
%TO.N,Net-(IC1-FB)*%
X101160000Y-129310000D03*
X102110000Y-122680000D03*
%TO.N,ETH_RXP*%
X109804200Y-104546400D03*
X91210000Y-95250000D03*
%TO.N,ETH_RXN*%
X111725739Y-104020739D03*
X94930000Y-95250000D03*
%TO.N,ETH_TXP*%
X110760000Y-105355000D03*
X85470000Y-95840000D03*
%TO.N,ETH_TXN*%
X88010000Y-95840000D03*
X112266424Y-104611424D03*
%TO.N,CAN0_RX*%
X100810000Y-120130000D03*
X112710000Y-116255000D03*
%TO.N,CAN0_TX*%
X100710000Y-119355000D03*
X111985000Y-116255000D03*
%TO.N,SWD*%
X115760000Y-118480000D03*
X112635000Y-107255000D03*
%TO.N,Ant*%
X114858800Y-107137200D03*
%TO.N,VCC*%
X109110000Y-128290000D03*
X100670000Y-125300000D03*
X100670000Y-124550000D03*
X108650000Y-128290000D03*
%TO.N,Net-(J2-Pin_2)*%
X74422000Y-116872000D03*
%TO.N,Net-(J2-Pin_3)*%
X74422000Y-114872000D03*
%TO.N,Net-(J2-Pin_4)*%
X74422000Y-112872000D03*
%TO.N,Net-(J2-Pin_5)*%
X74422000Y-110872000D03*
%TO.N,Net-(J2-Pin_6)*%
X74422000Y-108872000D03*
%TO.N,Net-(J2-Pin_7)*%
X74422000Y-106872000D03*
%TO.N,Net-(J2-Pin_8)*%
X74422000Y-104902000D03*
%TO.N,Net-(J2-Pin_9)*%
X74422000Y-102870000D03*
%TO.N,Net-(D7-A2)*%
X108210000Y-85860000D03*
%TO.N,Net-(D9-A2)*%
X108230000Y-88150000D03*
%TO.N,Net-(D8-A2)*%
X94710000Y-108280000D03*
%TO.N,Net-(D10-A2)*%
X99610000Y-108345500D03*
%TO.N,Net-(D11-A2)*%
X101530000Y-93210000D03*
%TO.N,Net-(D12-A2)*%
X101470000Y-94600000D03*
%TO.N,Net-(D20-A2)*%
X91920000Y-114800000D03*
%TO.N,Net-(D21-A2)*%
X85578000Y-112808000D03*
%TO.N,Net-(D22-A2)*%
X91950000Y-110808000D03*
%TO.N,Net-(D23-A2)*%
X85090000Y-108808000D03*
%TO.N,Net-(D24-A2)*%
X92010000Y-106800000D03*
%TO.N,Net-(D25-A2)*%
X85090000Y-104808000D03*
%TO.N,RS485_00_A*%
X101550000Y-88742500D03*
X97917000Y-86510000D03*
%TO.N,Net-(D28-A)*%
X107950000Y-80264000D03*
X107950000Y-79756000D03*
X108458000Y-79756000D03*
X108458000Y-80264000D03*
%TO.N,Net-(J10-CC1)*%
X106914000Y-77470000D03*
%TO.N,Net-(J10-D+-PadA6)*%
X105410000Y-77470000D03*
%TO.N,Net-(J10-D--PadA7)*%
X105918000Y-80010000D03*
%TO.N,Net-(J10-CC2)*%
X103914000Y-77470000D03*
%TO.N,USB1DN*%
X114410000Y-105030000D03*
X113135000Y-103730000D03*
%TO.N,USB1DP*%
X113860000Y-105855000D03*
X112435000Y-103655000D03*
%TO.N,Net-(J3-Pin_1)*%
X95819999Y-119960000D03*
X96510000Y-119960000D03*
%TD*%
%TA.AperFunction,Conductor*%
%TO.N,GND*%
G36*
X109697093Y-72099685D02*
G01*
X109742848Y-72152489D01*
X109752792Y-72221647D01*
X109723767Y-72285203D01*
X109677506Y-72318561D01*
X109510328Y-72387807D01*
X109510315Y-72387814D01*
X109346537Y-72497248D01*
X109346533Y-72497251D01*
X109207251Y-72636533D01*
X109207248Y-72636537D01*
X109097814Y-72800315D01*
X109097807Y-72800328D01*
X109022430Y-72982306D01*
X109022427Y-72982318D01*
X108984000Y-73175504D01*
X108984000Y-73324000D01*
X109684000Y-73324000D01*
X109684000Y-73824000D01*
X108984000Y-73824000D01*
X108984000Y-73972495D01*
X109022427Y-74165681D01*
X109022430Y-74165693D01*
X109097807Y-74347671D01*
X109097814Y-74347684D01*
X109207248Y-74511462D01*
X109207251Y-74511466D01*
X109346533Y-74650748D01*
X109346537Y-74650751D01*
X109510315Y-74760185D01*
X109510328Y-74760192D01*
X109692308Y-74835569D01*
X109734000Y-74843862D01*
X109734000Y-74040988D01*
X109743940Y-74058205D01*
X109799795Y-74114060D01*
X109868204Y-74153556D01*
X109944504Y-74174000D01*
X110023496Y-74174000D01*
X110099796Y-74153556D01*
X110168205Y-74114060D01*
X110224060Y-74058205D01*
X110234000Y-74040988D01*
X110234000Y-74843862D01*
X110275690Y-74835569D01*
X110275692Y-74835569D01*
X110457671Y-74760192D01*
X110457684Y-74760185D01*
X110621462Y-74650751D01*
X110621466Y-74650748D01*
X110760748Y-74511466D01*
X110760751Y-74511462D01*
X110870185Y-74347684D01*
X110870192Y-74347671D01*
X110945569Y-74165693D01*
X110945572Y-74165681D01*
X110983999Y-73972495D01*
X110984000Y-73972492D01*
X110984000Y-73824000D01*
X110284000Y-73824000D01*
X110284000Y-73324000D01*
X110984000Y-73324000D01*
X110984000Y-73175508D01*
X110983999Y-73175504D01*
X110945572Y-72982318D01*
X110945569Y-72982306D01*
X110870192Y-72800328D01*
X110870185Y-72800315D01*
X110760751Y-72636537D01*
X110760748Y-72636533D01*
X110621466Y-72497251D01*
X110621462Y-72497248D01*
X110457684Y-72387814D01*
X110457671Y-72387807D01*
X110290494Y-72318561D01*
X110236090Y-72274720D01*
X110214025Y-72208426D01*
X110231304Y-72140727D01*
X110282441Y-72093116D01*
X110337946Y-72080000D01*
X115153372Y-72080000D01*
X115153761Y-72080001D01*
X115154165Y-72080002D01*
X115159647Y-72080019D01*
X115160245Y-72080023D01*
X115166540Y-72080086D01*
X115296085Y-72081780D01*
X115298755Y-72081844D01*
X115340428Y-72083345D01*
X115346078Y-72083679D01*
X115387512Y-72087076D01*
X115390231Y-72087330D01*
X115648949Y-72114523D01*
X115654187Y-72115074D01*
X115657408Y-72115456D01*
X115676124Y-72117919D01*
X115704470Y-72121651D01*
X115710857Y-72122662D01*
X115757576Y-72131321D01*
X115760735Y-72131950D01*
X116013641Y-72185707D01*
X116016786Y-72186418D01*
X116062995Y-72197512D01*
X116069233Y-72199184D01*
X116091210Y-72205694D01*
X116114780Y-72212676D01*
X116117879Y-72213638D01*
X116363759Y-72293530D01*
X116366831Y-72294573D01*
X116373451Y-72296917D01*
X116411607Y-72310428D01*
X116417613Y-72312732D01*
X116461620Y-72330961D01*
X116464434Y-72332170D01*
X116691141Y-72433105D01*
X116700710Y-72437366D01*
X116703659Y-72438726D01*
X116746501Y-72459161D01*
X116752271Y-72462100D01*
X116794055Y-72484787D01*
X116796839Y-72486347D01*
X116890242Y-72540273D01*
X117020756Y-72615625D01*
X117023525Y-72617272D01*
X117064052Y-72642107D01*
X117069442Y-72645607D01*
X117108653Y-72672556D01*
X117111260Y-72674400D01*
X117320415Y-72826360D01*
X117323016Y-72828302D01*
X117360690Y-72857210D01*
X117365736Y-72861296D01*
X117401848Y-72892139D01*
X117404288Y-72894279D01*
X117596453Y-73067304D01*
X117598743Y-73069421D01*
X117633247Y-73102163D01*
X117637832Y-73106748D01*
X117670575Y-73141253D01*
X117672698Y-73143550D01*
X117767182Y-73248486D01*
X117845720Y-73335711D01*
X117847860Y-73338151D01*
X117878703Y-73374263D01*
X117882789Y-73379309D01*
X117911697Y-73416983D01*
X117913639Y-73419584D01*
X118065599Y-73628739D01*
X118067453Y-73631361D01*
X118094386Y-73670548D01*
X118097898Y-73675957D01*
X118120993Y-73713645D01*
X118122715Y-73716454D01*
X118124374Y-73719243D01*
X118253646Y-73943149D01*
X118255226Y-73945970D01*
X118269627Y-73972492D01*
X118277892Y-73987715D01*
X118280838Y-73993498D01*
X118301273Y-74036340D01*
X118302633Y-74039289D01*
X118407806Y-74275512D01*
X118409053Y-74278415D01*
X118427258Y-74322366D01*
X118429573Y-74328398D01*
X118445426Y-74373168D01*
X118446469Y-74376240D01*
X118526361Y-74622120D01*
X118527323Y-74625219D01*
X118540811Y-74670752D01*
X118542492Y-74677025D01*
X118553580Y-74723212D01*
X118554296Y-74726377D01*
X118608048Y-74979260D01*
X118608681Y-74982442D01*
X118617333Y-75029121D01*
X118618349Y-75035537D01*
X118624543Y-75082591D01*
X118624925Y-75085812D01*
X118652663Y-75349710D01*
X118652927Y-75352540D01*
X118656319Y-75393916D01*
X118656654Y-75399583D01*
X118658152Y-75441156D01*
X118658221Y-75443999D01*
X118659909Y-75573070D01*
X118659914Y-75573471D01*
X118659975Y-75579665D01*
X118659980Y-75580469D01*
X118659999Y-75586124D01*
X118660000Y-75586541D01*
X118660000Y-128573459D01*
X118659999Y-128573876D01*
X118659980Y-128579530D01*
X118659975Y-128580339D01*
X118659914Y-128586506D01*
X118659909Y-128586901D01*
X118658221Y-128715999D01*
X118658152Y-128718843D01*
X118656654Y-128760416D01*
X118656319Y-128766083D01*
X118652927Y-128807459D01*
X118652663Y-128810289D01*
X118624925Y-129074187D01*
X118624543Y-129077408D01*
X118618349Y-129124462D01*
X118617333Y-129130878D01*
X118608681Y-129177557D01*
X118608048Y-129180739D01*
X118554296Y-129433622D01*
X118553580Y-129436787D01*
X118542492Y-129482974D01*
X118540811Y-129489247D01*
X118527323Y-129534780D01*
X118526361Y-129537879D01*
X118446469Y-129783759D01*
X118445426Y-129786831D01*
X118429573Y-129831601D01*
X118427253Y-129837645D01*
X118409065Y-129881556D01*
X118407806Y-129884487D01*
X118302633Y-130120710D01*
X118301273Y-130123659D01*
X118280838Y-130166501D01*
X118277892Y-130172284D01*
X118255233Y-130214017D01*
X118253646Y-130216850D01*
X118124374Y-130440756D01*
X118122715Y-130443545D01*
X118097908Y-130484027D01*
X118094371Y-130489474D01*
X118067472Y-130528611D01*
X118065599Y-130531260D01*
X117913639Y-130740415D01*
X117911697Y-130743016D01*
X117882789Y-130780690D01*
X117878703Y-130785736D01*
X117847860Y-130821848D01*
X117845720Y-130824288D01*
X117672722Y-131016423D01*
X117670540Y-131018783D01*
X117656111Y-131033989D01*
X117637836Y-131053247D01*
X117633247Y-131057836D01*
X117613989Y-131076111D01*
X117598783Y-131090540D01*
X117596423Y-131092722D01*
X117404288Y-131265720D01*
X117401848Y-131267860D01*
X117365736Y-131298703D01*
X117360690Y-131302789D01*
X117323016Y-131331697D01*
X117320415Y-131333639D01*
X117111260Y-131485599D01*
X117108611Y-131487472D01*
X117069474Y-131514371D01*
X117064027Y-131517908D01*
X117023545Y-131542715D01*
X117020756Y-131544374D01*
X116796850Y-131673646D01*
X116794017Y-131675233D01*
X116752284Y-131697892D01*
X116746501Y-131700838D01*
X116703659Y-131721273D01*
X116700710Y-131722633D01*
X116464487Y-131827806D01*
X116461556Y-131829065D01*
X116417645Y-131847253D01*
X116411601Y-131849573D01*
X116366831Y-131865426D01*
X116363759Y-131866469D01*
X116117879Y-131946361D01*
X116114780Y-131947323D01*
X116069247Y-131960811D01*
X116062974Y-131962492D01*
X116016787Y-131973580D01*
X116013622Y-131974296D01*
X115760739Y-132028048D01*
X115757557Y-132028681D01*
X115710878Y-132037333D01*
X115704462Y-132038349D01*
X115657408Y-132044543D01*
X115654187Y-132044925D01*
X115390289Y-132072663D01*
X115387459Y-132072927D01*
X115346083Y-132076319D01*
X115340416Y-132076654D01*
X115300281Y-132078100D01*
X115298840Y-132078152D01*
X115295999Y-132078221D01*
X115166901Y-132079909D01*
X115166506Y-132079914D01*
X115160339Y-132079975D01*
X115159523Y-132079980D01*
X115154155Y-132079997D01*
X115153734Y-132079999D01*
X115153372Y-132080000D01*
X77166628Y-132080000D01*
X77166265Y-132079999D01*
X77165842Y-132079997D01*
X77160476Y-132079980D01*
X77159660Y-132079975D01*
X77153493Y-132079914D01*
X77153098Y-132079909D01*
X77024000Y-132078221D01*
X77021161Y-132078152D01*
X77017674Y-132078026D01*
X76979583Y-132076654D01*
X76973916Y-132076319D01*
X76932540Y-132072927D01*
X76929710Y-132072663D01*
X76665812Y-132044925D01*
X76662591Y-132044543D01*
X76615537Y-132038349D01*
X76609121Y-132037333D01*
X76562442Y-132028681D01*
X76559260Y-132028048D01*
X76306377Y-131974296D01*
X76303212Y-131973580D01*
X76257025Y-131962492D01*
X76250752Y-131960811D01*
X76205219Y-131947323D01*
X76202120Y-131946361D01*
X75956240Y-131866469D01*
X75953168Y-131865426D01*
X75908398Y-131849573D01*
X75902366Y-131847258D01*
X75858415Y-131829053D01*
X75855528Y-131827813D01*
X75778459Y-131793500D01*
X75619289Y-131722633D01*
X75616340Y-131721273D01*
X75573498Y-131700838D01*
X75567715Y-131697892D01*
X75525982Y-131675233D01*
X75523149Y-131673646D01*
X75299243Y-131544374D01*
X75296454Y-131542715D01*
X75293645Y-131540993D01*
X75255957Y-131517898D01*
X75250548Y-131514386D01*
X75211361Y-131487453D01*
X75208739Y-131485599D01*
X74999584Y-131333639D01*
X74996983Y-131331697D01*
X74979133Y-131318000D01*
X79497610Y-131318000D01*
X79517068Y-131453337D01*
X79517070Y-131453345D01*
X79573867Y-131577714D01*
X79573872Y-131577721D01*
X79663409Y-131681053D01*
X79663413Y-131681057D01*
X79689610Y-131697892D01*
X79778439Y-131754978D01*
X79844036Y-131774239D01*
X79909632Y-131793500D01*
X79909633Y-131793500D01*
X80046367Y-131793500D01*
X80177561Y-131754978D01*
X80292589Y-131681055D01*
X80382130Y-131577718D01*
X80438931Y-131453342D01*
X80458390Y-131318000D01*
X81497610Y-131318000D01*
X81517068Y-131453337D01*
X81517070Y-131453345D01*
X81573867Y-131577714D01*
X81573872Y-131577721D01*
X81663409Y-131681053D01*
X81663413Y-131681057D01*
X81689610Y-131697892D01*
X81778439Y-131754978D01*
X81844036Y-131774239D01*
X81909632Y-131793500D01*
X81909633Y-131793500D01*
X82046367Y-131793500D01*
X82177561Y-131754978D01*
X82292589Y-131681055D01*
X82382130Y-131577718D01*
X82438931Y-131453342D01*
X82458390Y-131318000D01*
X82438931Y-131182658D01*
X82426677Y-131155827D01*
X82382132Y-131058285D01*
X82382127Y-131058278D01*
X82292590Y-130954946D01*
X82292586Y-130954942D01*
X82177559Y-130881021D01*
X82046368Y-130842500D01*
X82046367Y-130842500D01*
X81909633Y-130842500D01*
X81909632Y-130842500D01*
X81778440Y-130881021D01*
X81663413Y-130954942D01*
X81663409Y-130954946D01*
X81573872Y-131058278D01*
X81573867Y-131058285D01*
X81517070Y-131182654D01*
X81517068Y-131182662D01*
X81497610Y-131318000D01*
X80458390Y-131318000D01*
X80438931Y-131182658D01*
X80426677Y-131155827D01*
X80382132Y-131058285D01*
X80382127Y-131058278D01*
X80292590Y-130954946D01*
X80292586Y-130954942D01*
X80177559Y-130881021D01*
X80046368Y-130842500D01*
X80046367Y-130842500D01*
X79909633Y-130842500D01*
X79909632Y-130842500D01*
X79778440Y-130881021D01*
X79663413Y-130954942D01*
X79663409Y-130954946D01*
X79573872Y-131058278D01*
X79573867Y-131058285D01*
X79517070Y-131182654D01*
X79517068Y-131182662D01*
X79497610Y-131318000D01*
X74979133Y-131318000D01*
X74959309Y-131302789D01*
X74954263Y-131298703D01*
X74918151Y-131267860D01*
X74915711Y-131265720D01*
X74823456Y-131182654D01*
X74723550Y-131092698D01*
X74721253Y-131090575D01*
X74686748Y-131057832D01*
X74682163Y-131053247D01*
X74649421Y-131018743D01*
X74647304Y-131016453D01*
X74474279Y-130824288D01*
X74472139Y-130821848D01*
X74441296Y-130785736D01*
X74437210Y-130780690D01*
X74408302Y-130743016D01*
X74406360Y-130740415D01*
X74254400Y-130531260D01*
X74252556Y-130528653D01*
X74225607Y-130489442D01*
X74222107Y-130484052D01*
X74197272Y-130443525D01*
X74195625Y-130440756D01*
X74066353Y-130216850D01*
X74064787Y-130214055D01*
X74042100Y-130172271D01*
X74039161Y-130166501D01*
X74018726Y-130123659D01*
X74017366Y-130120710D01*
X74013105Y-130111141D01*
X73912170Y-129884434D01*
X73910961Y-129881620D01*
X73892732Y-129837613D01*
X73890426Y-129831601D01*
X73874573Y-129786831D01*
X73873530Y-129783759D01*
X73793638Y-129537879D01*
X73792676Y-129534780D01*
X73779188Y-129489247D01*
X73777512Y-129482995D01*
X73766418Y-129436786D01*
X73765703Y-129433622D01*
X73758326Y-129398918D01*
X73711950Y-129180735D01*
X73711318Y-129177557D01*
X73702662Y-129130857D01*
X73701650Y-129124462D01*
X73695456Y-129077408D01*
X73695074Y-129074187D01*
X73681700Y-128946946D01*
X73667330Y-128810231D01*
X73667076Y-128807512D01*
X73663679Y-128766078D01*
X73663345Y-128760416D01*
X73661844Y-128718755D01*
X73661780Y-128716085D01*
X73660086Y-128586540D01*
X73660023Y-128580244D01*
X73660019Y-128579508D01*
X73660001Y-128573854D01*
X73660000Y-128573459D01*
X73660000Y-128194741D01*
X94409500Y-128194741D01*
X94434446Y-128384215D01*
X94439452Y-128422238D01*
X94440284Y-128425342D01*
X94498842Y-128643887D01*
X94586650Y-128855876D01*
X94586657Y-128855890D01*
X94701392Y-129054617D01*
X94841081Y-129236661D01*
X94841089Y-129236670D01*
X95003330Y-129398911D01*
X95003338Y-129398918D01*
X95003339Y-129398919D01*
X95048565Y-129433622D01*
X95185382Y-129538607D01*
X95185385Y-129538608D01*
X95185388Y-129538611D01*
X95384112Y-129653344D01*
X95384117Y-129653346D01*
X95384123Y-129653349D01*
X95431698Y-129673055D01*
X95596113Y-129741158D01*
X95817762Y-129800548D01*
X96045266Y-129830500D01*
X96045273Y-129830500D01*
X96274727Y-129830500D01*
X96274734Y-129830500D01*
X96502238Y-129800548D01*
X96723887Y-129741158D01*
X96935888Y-129653344D01*
X97134612Y-129538611D01*
X97316661Y-129398919D01*
X97316665Y-129398914D01*
X97316670Y-129398911D01*
X97405581Y-129310000D01*
X100679610Y-129310000D01*
X100699068Y-129445337D01*
X100699070Y-129445345D01*
X100755867Y-129569714D01*
X100755872Y-129569721D01*
X100845409Y-129673053D01*
X100845413Y-129673057D01*
X100905979Y-129711979D01*
X100960439Y-129746978D01*
X101026036Y-129766239D01*
X101091632Y-129785500D01*
X101091633Y-129785500D01*
X101228367Y-129785500D01*
X101359561Y-129746978D01*
X101474589Y-129673055D01*
X101564130Y-129569718D01*
X101620931Y-129445342D01*
X101640390Y-129310000D01*
X101620931Y-129174658D01*
X101598007Y-129124462D01*
X101564132Y-129050285D01*
X101564127Y-129050278D01*
X101474590Y-128946946D01*
X101474586Y-128946942D01*
X101359559Y-128873021D01*
X101228368Y-128834500D01*
X101228367Y-128834500D01*
X101091633Y-128834500D01*
X101091632Y-128834500D01*
X100960440Y-128873021D01*
X100845413Y-128946942D01*
X100845409Y-128946946D01*
X100755872Y-129050278D01*
X100755867Y-129050285D01*
X100699070Y-129174654D01*
X100699068Y-129174662D01*
X100679610Y-129310000D01*
X97405581Y-129310000D01*
X97478911Y-129236670D01*
X97478914Y-129236665D01*
X97478919Y-129236661D01*
X97618611Y-129054612D01*
X97733344Y-128855888D01*
X97821158Y-128643887D01*
X97880548Y-128422238D01*
X97897958Y-128290000D01*
X108169610Y-128290000D01*
X108189068Y-128425337D01*
X108189070Y-128425345D01*
X108245867Y-128549714D01*
X108245872Y-128549721D01*
X108335409Y-128653053D01*
X108335413Y-128653057D01*
X108395979Y-128691979D01*
X108450439Y-128726978D01*
X108454935Y-128728298D01*
X108581632Y-128765500D01*
X108581633Y-128765500D01*
X108718367Y-128765500D01*
X108845065Y-128728298D01*
X108914935Y-128728298D01*
X109041632Y-128765500D01*
X109041633Y-128765500D01*
X109178367Y-128765500D01*
X109309561Y-128726978D01*
X109424589Y-128653055D01*
X109501755Y-128564000D01*
X109980601Y-128564000D01*
X110000149Y-128762481D01*
X110000149Y-128762483D01*
X110000150Y-128762485D01*
X110056106Y-128946946D01*
X110058048Y-128953348D01*
X110152060Y-129129231D01*
X110152063Y-129129235D01*
X110152064Y-129129237D01*
X110153411Y-129130878D01*
X110278589Y-129283410D01*
X110385875Y-129371456D01*
X110432763Y-129409936D01*
X110432766Y-129409937D01*
X110432768Y-129409939D01*
X110608651Y-129503951D01*
X110608654Y-129503951D01*
X110608658Y-129503954D01*
X110799515Y-129561850D01*
X110998000Y-129581399D01*
X111196485Y-129561850D01*
X111387342Y-129503954D01*
X111426554Y-129482995D01*
X111475289Y-129456945D01*
X111563237Y-129409936D01*
X111717410Y-129283410D01*
X111843936Y-129129237D01*
X111937954Y-128953342D01*
X111995850Y-128762485D01*
X112015399Y-128564000D01*
X111995850Y-128365515D01*
X111937954Y-128174658D01*
X111937951Y-128174654D01*
X111937951Y-128174651D01*
X111843939Y-127998768D01*
X111843937Y-127998766D01*
X111843936Y-127998763D01*
X111803917Y-127950000D01*
X115447110Y-127950000D01*
X115466568Y-128085337D01*
X115466570Y-128085345D01*
X115523367Y-128209714D01*
X115523372Y-128209721D01*
X115612909Y-128313053D01*
X115612913Y-128313057D01*
X115673479Y-128351979D01*
X115727939Y-128386978D01*
X115793536Y-128406239D01*
X115859132Y-128425500D01*
X115859133Y-128425500D01*
X115995867Y-128425500D01*
X116127061Y-128386978D01*
X116242089Y-128313055D01*
X116331630Y-128209718D01*
X116388431Y-128085342D01*
X116407890Y-127950000D01*
X116388431Y-127814658D01*
X116376177Y-127787827D01*
X116331632Y-127690285D01*
X116331627Y-127690278D01*
X116242090Y-127586946D01*
X116242086Y-127586942D01*
X116151236Y-127528558D01*
X116127061Y-127513022D01*
X116127060Y-127513021D01*
X116127059Y-127513021D01*
X115995868Y-127474500D01*
X115995867Y-127474500D01*
X115859133Y-127474500D01*
X115859132Y-127474500D01*
X115727940Y-127513021D01*
X115612913Y-127586942D01*
X115612909Y-127586946D01*
X115523372Y-127690278D01*
X115523367Y-127690285D01*
X115466570Y-127814654D01*
X115466568Y-127814662D01*
X115447110Y-127950000D01*
X111803917Y-127950000D01*
X111784994Y-127926942D01*
X111717410Y-127844589D01*
X111563238Y-127718065D01*
X111563231Y-127718060D01*
X111387348Y-127624048D01*
X111387342Y-127624046D01*
X111196485Y-127566150D01*
X111196483Y-127566149D01*
X111196481Y-127566149D01*
X110998000Y-127546601D01*
X110799518Y-127566149D01*
X110608651Y-127624048D01*
X110432768Y-127718060D01*
X110432761Y-127718065D01*
X110278589Y-127844589D01*
X110152065Y-127998761D01*
X110152060Y-127998768D01*
X110058048Y-128174651D01*
X110000149Y-128365518D01*
X109980601Y-128564000D01*
X109501755Y-128564000D01*
X109514130Y-128549718D01*
X109570931Y-128425342D01*
X109590390Y-128290000D01*
X109570931Y-128154658D01*
X109539277Y-128085345D01*
X109514132Y-128030285D01*
X109514127Y-128030278D01*
X109424590Y-127926946D01*
X109424586Y-127926942D01*
X109309559Y-127853021D01*
X109178368Y-127814500D01*
X109178367Y-127814500D01*
X109041633Y-127814500D01*
X109041630Y-127814500D01*
X108914934Y-127851701D01*
X108845066Y-127851701D01*
X108718369Y-127814500D01*
X108718367Y-127814500D01*
X108581633Y-127814500D01*
X108581632Y-127814500D01*
X108450440Y-127853021D01*
X108335413Y-127926942D01*
X108335409Y-127926946D01*
X108245872Y-128030278D01*
X108245867Y-128030285D01*
X108189070Y-128154654D01*
X108189068Y-128154662D01*
X108169610Y-128290000D01*
X97897958Y-128290000D01*
X97910500Y-128194734D01*
X97910500Y-127965266D01*
X97880548Y-127737762D01*
X97821158Y-127516113D01*
X97733344Y-127304112D01*
X97618611Y-127105388D01*
X97618608Y-127105385D01*
X97618607Y-127105382D01*
X97478918Y-126923338D01*
X97478911Y-126923330D01*
X97316670Y-126761089D01*
X97316661Y-126761081D01*
X97134617Y-126621392D01*
X97078912Y-126589231D01*
X96935888Y-126506656D01*
X96935876Y-126506650D01*
X96723887Y-126418842D01*
X96703360Y-126413342D01*
X96502238Y-126359452D01*
X96464215Y-126354446D01*
X96274741Y-126329500D01*
X96274734Y-126329500D01*
X96045266Y-126329500D01*
X96045258Y-126329500D01*
X95828715Y-126358009D01*
X95817762Y-126359452D01*
X95724076Y-126384554D01*
X95596112Y-126418842D01*
X95384123Y-126506650D01*
X95384109Y-126506657D01*
X95185382Y-126621392D01*
X95003338Y-126761081D01*
X94841081Y-126923338D01*
X94701392Y-127105382D01*
X94586657Y-127304109D01*
X94586650Y-127304123D01*
X94498842Y-127516112D01*
X94439453Y-127737759D01*
X94439451Y-127737770D01*
X94409500Y-127965258D01*
X94409500Y-128194741D01*
X73660000Y-128194741D01*
X73660000Y-126024000D01*
X109980601Y-126024000D01*
X110000149Y-126222481D01*
X110058048Y-126413348D01*
X110152060Y-126589231D01*
X110152065Y-126589238D01*
X110278589Y-126743410D01*
X110385875Y-126831456D01*
X110432763Y-126869936D01*
X110432766Y-126869937D01*
X110432768Y-126869939D01*
X110608651Y-126963951D01*
X110608654Y-126963951D01*
X110608658Y-126963954D01*
X110799515Y-127021850D01*
X110998000Y-127041399D01*
X111196485Y-127021850D01*
X111387342Y-126963954D01*
X111563237Y-126869936D01*
X111717410Y-126743410D01*
X111843936Y-126589237D01*
X111937954Y-126413342D01*
X111995850Y-126222485D01*
X112015399Y-126024000D01*
X111995850Y-125825515D01*
X111937954Y-125634658D01*
X111937951Y-125634654D01*
X111937951Y-125634651D01*
X111843939Y-125458768D01*
X111843937Y-125458766D01*
X111843936Y-125458763D01*
X111805456Y-125411875D01*
X111717410Y-125304589D01*
X111563238Y-125178065D01*
X111563231Y-125178060D01*
X111387348Y-125084048D01*
X111387342Y-125084046D01*
X111196485Y-125026150D01*
X111196483Y-125026149D01*
X111196481Y-125026149D01*
X110998000Y-125006601D01*
X110799518Y-125026149D01*
X110608651Y-125084048D01*
X110432768Y-125178060D01*
X110432761Y-125178065D01*
X110278589Y-125304589D01*
X110152065Y-125458761D01*
X110152060Y-125458768D01*
X110058048Y-125634651D01*
X110000149Y-125825518D01*
X109980601Y-126024000D01*
X73660000Y-126024000D01*
X73660000Y-125300000D01*
X100189610Y-125300000D01*
X100209068Y-125435337D01*
X100209070Y-125435345D01*
X100265867Y-125559714D01*
X100265872Y-125559721D01*
X100355409Y-125663053D01*
X100355413Y-125663057D01*
X100415979Y-125701979D01*
X100470439Y-125736978D01*
X100536036Y-125756239D01*
X100601632Y-125775500D01*
X100601633Y-125775500D01*
X100738367Y-125775500D01*
X100869561Y-125736978D01*
X100984589Y-125663055D01*
X101074130Y-125559718D01*
X101130931Y-125435342D01*
X101150390Y-125300000D01*
X101130931Y-125164658D01*
X101118677Y-125137827D01*
X101074132Y-125040285D01*
X101074130Y-125040283D01*
X101074130Y-125040282D01*
X101044599Y-125006201D01*
X101015575Y-124942647D01*
X101025518Y-124873489D01*
X101044597Y-124843800D01*
X101074130Y-124809718D01*
X101130931Y-124685342D01*
X101150390Y-124550000D01*
X101130931Y-124414658D01*
X101096705Y-124339714D01*
X101074132Y-124290285D01*
X101074127Y-124290278D01*
X100984590Y-124186946D01*
X100984586Y-124186942D01*
X100876400Y-124117417D01*
X100869561Y-124113022D01*
X100869560Y-124113021D01*
X100869559Y-124113021D01*
X100738368Y-124074500D01*
X100738367Y-124074500D01*
X100601633Y-124074500D01*
X100601632Y-124074500D01*
X100470440Y-124113021D01*
X100355413Y-124186942D01*
X100355409Y-124186946D01*
X100265872Y-124290278D01*
X100265867Y-124290285D01*
X100209070Y-124414654D01*
X100209068Y-124414662D01*
X100189610Y-124550000D01*
X100209068Y-124685337D01*
X100209070Y-124685345D01*
X100265867Y-124809714D01*
X100265869Y-124809716D01*
X100265870Y-124809718D01*
X100291001Y-124838722D01*
X100295400Y-124843798D01*
X100324424Y-124907354D01*
X100314480Y-124976513D01*
X100295400Y-125006202D01*
X100265870Y-125040282D01*
X100265867Y-125040285D01*
X100209070Y-125164654D01*
X100209068Y-125164662D01*
X100189610Y-125300000D01*
X73660000Y-125300000D01*
X73660000Y-124080000D01*
X92009610Y-124080000D01*
X92029068Y-124215337D01*
X92029070Y-124215345D01*
X92085867Y-124339714D01*
X92085872Y-124339721D01*
X92175409Y-124443053D01*
X92175413Y-124443057D01*
X92235979Y-124481979D01*
X92290439Y-124516978D01*
X92354337Y-124535740D01*
X92421632Y-124555500D01*
X92421633Y-124555500D01*
X92558367Y-124555500D01*
X92689561Y-124516978D01*
X92804589Y-124443055D01*
X92894130Y-124339718D01*
X92950931Y-124215342D01*
X92970390Y-124080000D01*
X92950931Y-123944658D01*
X92938423Y-123917270D01*
X92894132Y-123820285D01*
X92894127Y-123820278D01*
X92804590Y-123716946D01*
X92804586Y-123716942D01*
X92689559Y-123643021D01*
X92558368Y-123604500D01*
X92558367Y-123604500D01*
X92421633Y-123604500D01*
X92421632Y-123604500D01*
X92290440Y-123643021D01*
X92175413Y-123716942D01*
X92175409Y-123716946D01*
X92085872Y-123820278D01*
X92085867Y-123820285D01*
X92029070Y-123944654D01*
X92029068Y-123944662D01*
X92009610Y-124080000D01*
X73660000Y-124080000D01*
X73660000Y-123484000D01*
X109731179Y-123484000D01*
X109750424Y-123703976D01*
X109750426Y-123703986D01*
X109807575Y-123917270D01*
X109807580Y-123917284D01*
X109900898Y-124117405D01*
X109900901Y-124117411D01*
X109946258Y-124182187D01*
X109946259Y-124182188D01*
X110617000Y-123511447D01*
X110617000Y-123534160D01*
X110642964Y-123631061D01*
X110693124Y-123717940D01*
X110764060Y-123788876D01*
X110850939Y-123839036D01*
X110947840Y-123865000D01*
X110970553Y-123865000D01*
X110299810Y-124535740D01*
X110364590Y-124581099D01*
X110364592Y-124581100D01*
X110564715Y-124674419D01*
X110564729Y-124674424D01*
X110778013Y-124731573D01*
X110778023Y-124731575D01*
X110997999Y-124750821D01*
X110998001Y-124750821D01*
X111217976Y-124731575D01*
X111217986Y-124731573D01*
X111431270Y-124674424D01*
X111431284Y-124674419D01*
X111631407Y-124581100D01*
X111631417Y-124581094D01*
X111696188Y-124535741D01*
X111025448Y-123865000D01*
X111048160Y-123865000D01*
X111145061Y-123839036D01*
X111231940Y-123788876D01*
X111302876Y-123717940D01*
X111353036Y-123631061D01*
X111379000Y-123534160D01*
X111379000Y-123511447D01*
X112049741Y-124182188D01*
X112095094Y-124117417D01*
X112095100Y-124117407D01*
X112188419Y-123917284D01*
X112188424Y-123917270D01*
X112245573Y-123703986D01*
X112245575Y-123703976D01*
X112264821Y-123484000D01*
X112264821Y-123483999D01*
X112245575Y-123264023D01*
X112245573Y-123264013D01*
X112188424Y-123050729D01*
X112188420Y-123050720D01*
X112095096Y-122850586D01*
X112049741Y-122785811D01*
X112049740Y-122785810D01*
X111379000Y-123456551D01*
X111379000Y-123433840D01*
X111353036Y-123336939D01*
X111302876Y-123250060D01*
X111231940Y-123179124D01*
X111145061Y-123128964D01*
X111048160Y-123103000D01*
X111025448Y-123103000D01*
X111696188Y-122432259D01*
X111696187Y-122432258D01*
X111631411Y-122386901D01*
X111631405Y-122386898D01*
X111431284Y-122293580D01*
X111431270Y-122293575D01*
X111217986Y-122236426D01*
X111217976Y-122236424D01*
X110998001Y-122217179D01*
X110997999Y-122217179D01*
X110778023Y-122236424D01*
X110778013Y-122236426D01*
X110564729Y-122293575D01*
X110564720Y-122293579D01*
X110364590Y-122386901D01*
X110299811Y-122432258D01*
X110970553Y-123103000D01*
X110947840Y-123103000D01*
X110850939Y-123128964D01*
X110764060Y-123179124D01*
X110693124Y-123250060D01*
X110642964Y-123336939D01*
X110617000Y-123433840D01*
X110617000Y-123456553D01*
X109946258Y-122785811D01*
X109900901Y-122850590D01*
X109807579Y-123050720D01*
X109807575Y-123050729D01*
X109750426Y-123264013D01*
X109750424Y-123264023D01*
X109731179Y-123483999D01*
X109731179Y-123484000D01*
X73660000Y-123484000D01*
X73660000Y-122680000D01*
X101629610Y-122680000D01*
X101649068Y-122815337D01*
X101649070Y-122815345D01*
X101705867Y-122939714D01*
X101705872Y-122939721D01*
X101795409Y-123043053D01*
X101795413Y-123043057D01*
X101855979Y-123081979D01*
X101910439Y-123116978D01*
X101976036Y-123136239D01*
X102041632Y-123155500D01*
X102041633Y-123155500D01*
X102178367Y-123155500D01*
X102309561Y-123116978D01*
X102424589Y-123043055D01*
X102514130Y-122939718D01*
X102570931Y-122815342D01*
X102590390Y-122680000D01*
X102570931Y-122544658D01*
X102519600Y-122432259D01*
X102514132Y-122420285D01*
X102514127Y-122420278D01*
X102424590Y-122316946D01*
X102424586Y-122316942D01*
X102309559Y-122243021D01*
X102178368Y-122204500D01*
X102178367Y-122204500D01*
X102041633Y-122204500D01*
X102041632Y-122204500D01*
X101910440Y-122243021D01*
X101795413Y-122316942D01*
X101795409Y-122316946D01*
X101705872Y-122420278D01*
X101705867Y-122420285D01*
X101649070Y-122544654D01*
X101649068Y-122544662D01*
X101629610Y-122680000D01*
X73660000Y-122680000D01*
X73660000Y-121084610D01*
X111279200Y-121084610D01*
X111304015Y-121209365D01*
X111304018Y-121209375D01*
X111352697Y-121326898D01*
X111352702Y-121326907D01*
X111423373Y-121432673D01*
X111423376Y-121432677D01*
X111513322Y-121522623D01*
X111513326Y-121522626D01*
X111619092Y-121593297D01*
X111619098Y-121593300D01*
X111619099Y-121593301D01*
X111736627Y-121641983D01*
X111850907Y-121664714D01*
X111861389Y-121666799D01*
X111861393Y-121666800D01*
X111861394Y-121666800D01*
X111988607Y-121666800D01*
X111988608Y-121666799D01*
X112113373Y-121641983D01*
X112230901Y-121593301D01*
X112336674Y-121522626D01*
X112426626Y-121432674D01*
X112445117Y-121405000D01*
X113979610Y-121405000D01*
X113999068Y-121540337D01*
X113999070Y-121540345D01*
X114055867Y-121664714D01*
X114055872Y-121664721D01*
X114145409Y-121768053D01*
X114145413Y-121768057D01*
X114205979Y-121806979D01*
X114260439Y-121841978D01*
X114326036Y-121861239D01*
X114391632Y-121880500D01*
X114391633Y-121880500D01*
X114528367Y-121880500D01*
X114659561Y-121841978D01*
X114774589Y-121768055D01*
X114864130Y-121664718D01*
X114920931Y-121540342D01*
X114940390Y-121405000D01*
X115254610Y-121405000D01*
X115274068Y-121540337D01*
X115274070Y-121540345D01*
X115330867Y-121664714D01*
X115330872Y-121664721D01*
X115420409Y-121768053D01*
X115420413Y-121768057D01*
X115480979Y-121806979D01*
X115535439Y-121841978D01*
X115601036Y-121861239D01*
X115666632Y-121880500D01*
X115666633Y-121880500D01*
X115803367Y-121880500D01*
X115934561Y-121841978D01*
X116049589Y-121768055D01*
X116139130Y-121664718D01*
X116195931Y-121540342D01*
X116215390Y-121405000D01*
X116195931Y-121269658D01*
X116183677Y-121242827D01*
X116139132Y-121145285D01*
X116139127Y-121145278D01*
X116049590Y-121041946D01*
X116049586Y-121041942D01*
X115934559Y-120968021D01*
X115803368Y-120929500D01*
X115803367Y-120929500D01*
X115666633Y-120929500D01*
X115666632Y-120929500D01*
X115535440Y-120968021D01*
X115420413Y-121041942D01*
X115420409Y-121041946D01*
X115330872Y-121145278D01*
X115330867Y-121145285D01*
X115274070Y-121269654D01*
X115274068Y-121269662D01*
X115254610Y-121405000D01*
X114940390Y-121405000D01*
X114920931Y-121269658D01*
X114908677Y-121242827D01*
X114864132Y-121145285D01*
X114864127Y-121145278D01*
X114774590Y-121041946D01*
X114774586Y-121041942D01*
X114659559Y-120968021D01*
X114528368Y-120929500D01*
X114528367Y-120929500D01*
X114391633Y-120929500D01*
X114391632Y-120929500D01*
X114260440Y-120968021D01*
X114145413Y-121041942D01*
X114145409Y-121041946D01*
X114055872Y-121145278D01*
X114055867Y-121145285D01*
X113999070Y-121269654D01*
X113999068Y-121269662D01*
X113979610Y-121405000D01*
X112445117Y-121405000D01*
X112497301Y-121326901D01*
X112545983Y-121209373D01*
X112570800Y-121084606D01*
X112570800Y-120957394D01*
X112545983Y-120832627D01*
X112497301Y-120715099D01*
X112497300Y-120715098D01*
X112497297Y-120715092D01*
X112426626Y-120609326D01*
X112426623Y-120609322D01*
X112336677Y-120519376D01*
X112336673Y-120519373D01*
X112230907Y-120448702D01*
X112230898Y-120448697D01*
X112113375Y-120400018D01*
X112113376Y-120400018D01*
X112113373Y-120400017D01*
X112113369Y-120400016D01*
X112113365Y-120400015D01*
X111988610Y-120375200D01*
X111988606Y-120375200D01*
X111861394Y-120375200D01*
X111861389Y-120375200D01*
X111736634Y-120400015D01*
X111736624Y-120400018D01*
X111619101Y-120448697D01*
X111619092Y-120448702D01*
X111513326Y-120519373D01*
X111513322Y-120519376D01*
X111423376Y-120609322D01*
X111423373Y-120609326D01*
X111352702Y-120715092D01*
X111352697Y-120715101D01*
X111304018Y-120832624D01*
X111304015Y-120832634D01*
X111279200Y-120957389D01*
X111279200Y-121084610D01*
X73660000Y-121084610D01*
X73660000Y-119960000D01*
X95339609Y-119960000D01*
X95359067Y-120095337D01*
X95359069Y-120095345D01*
X95415866Y-120219714D01*
X95415871Y-120219721D01*
X95505408Y-120323053D01*
X95505412Y-120323057D01*
X95542036Y-120346593D01*
X95620438Y-120396978D01*
X95686035Y-120416239D01*
X95751631Y-120435500D01*
X95751632Y-120435500D01*
X95888366Y-120435500D01*
X96019560Y-120396978D01*
X96097963Y-120346592D01*
X96165000Y-120326909D01*
X96232037Y-120346593D01*
X96310439Y-120396978D01*
X96376036Y-120416239D01*
X96441632Y-120435500D01*
X96441633Y-120435500D01*
X96578367Y-120435500D01*
X96709561Y-120396978D01*
X96824589Y-120323055D01*
X96914130Y-120219718D01*
X96970931Y-120095342D01*
X96990390Y-119960000D01*
X96970931Y-119824658D01*
X96922247Y-119718055D01*
X96914132Y-119700285D01*
X96914127Y-119700278D01*
X96824590Y-119596946D01*
X96824586Y-119596942D01*
X96709559Y-119523021D01*
X96578368Y-119484500D01*
X96578367Y-119484500D01*
X96441633Y-119484500D01*
X96441632Y-119484500D01*
X96310443Y-119523020D01*
X96310440Y-119523021D01*
X96310439Y-119523022D01*
X96253829Y-119559402D01*
X96232037Y-119573407D01*
X96164997Y-119593090D01*
X96097961Y-119573406D01*
X96019558Y-119523021D01*
X95888367Y-119484500D01*
X95888366Y-119484500D01*
X95751632Y-119484500D01*
X95751631Y-119484500D01*
X95620439Y-119523021D01*
X95505412Y-119596942D01*
X95505408Y-119596946D01*
X95415871Y-119700278D01*
X95415866Y-119700285D01*
X95359069Y-119824654D01*
X95359067Y-119824662D01*
X95339609Y-119960000D01*
X73660000Y-119960000D01*
X73660000Y-119355000D01*
X100229610Y-119355000D01*
X100249068Y-119490337D01*
X100249070Y-119490345D01*
X100305867Y-119614714D01*
X100305870Y-119614718D01*
X100395411Y-119718055D01*
X100395412Y-119718056D01*
X100396799Y-119719656D01*
X100425824Y-119783212D01*
X100415880Y-119852371D01*
X100407406Y-119867891D01*
X100405872Y-119870278D01*
X100349069Y-119994657D01*
X100349068Y-119994662D01*
X100329610Y-120130000D01*
X100349068Y-120265337D01*
X100349070Y-120265345D01*
X100405867Y-120389714D01*
X100405872Y-120389721D01*
X100495409Y-120493053D01*
X100495413Y-120493057D01*
X100555979Y-120531979D01*
X100610439Y-120566978D01*
X100676036Y-120586239D01*
X100741632Y-120605500D01*
X100741633Y-120605500D01*
X100878367Y-120605500D01*
X101009561Y-120566978D01*
X101124589Y-120493055D01*
X101214130Y-120389718D01*
X101270931Y-120265342D01*
X101290390Y-120130000D01*
X101281564Y-120068610D01*
X116359200Y-120068610D01*
X116384015Y-120193365D01*
X116384018Y-120193375D01*
X116432697Y-120310898D01*
X116432702Y-120310907D01*
X116503373Y-120416673D01*
X116503376Y-120416677D01*
X116593322Y-120506623D01*
X116593326Y-120506626D01*
X116699092Y-120577297D01*
X116699098Y-120577300D01*
X116699099Y-120577301D01*
X116816627Y-120625983D01*
X116941389Y-120650799D01*
X116941393Y-120650800D01*
X116941394Y-120650800D01*
X117068607Y-120650800D01*
X117068608Y-120650799D01*
X117193373Y-120625983D01*
X117310901Y-120577301D01*
X117416674Y-120506626D01*
X117506626Y-120416674D01*
X117577301Y-120310901D01*
X117625983Y-120193373D01*
X117650800Y-120068606D01*
X117650800Y-119941394D01*
X117625983Y-119816627D01*
X117581062Y-119708179D01*
X117577302Y-119699101D01*
X117577297Y-119699092D01*
X117506626Y-119593326D01*
X117506623Y-119593322D01*
X117416677Y-119503376D01*
X117416673Y-119503373D01*
X117310907Y-119432702D01*
X117310898Y-119432697D01*
X117193375Y-119384018D01*
X117193376Y-119384018D01*
X117193373Y-119384017D01*
X117193369Y-119384016D01*
X117193365Y-119384015D01*
X117068610Y-119359200D01*
X117068606Y-119359200D01*
X116941394Y-119359200D01*
X116941389Y-119359200D01*
X116816634Y-119384015D01*
X116816624Y-119384018D01*
X116699101Y-119432697D01*
X116699092Y-119432702D01*
X116593326Y-119503373D01*
X116593322Y-119503376D01*
X116503376Y-119593322D01*
X116503373Y-119593326D01*
X116432702Y-119699092D01*
X116432697Y-119699101D01*
X116384018Y-119816624D01*
X116384015Y-119816634D01*
X116359200Y-119941389D01*
X116359200Y-120068610D01*
X101281564Y-120068610D01*
X101270931Y-119994658D01*
X101246604Y-119941389D01*
X101214132Y-119870285D01*
X101214129Y-119870281D01*
X101124589Y-119766945D01*
X101124587Y-119766943D01*
X101123200Y-119765343D01*
X101094175Y-119701787D01*
X101104119Y-119632628D01*
X101112604Y-119617091D01*
X101114124Y-119614724D01*
X101114130Y-119614718D01*
X101170931Y-119490342D01*
X101190390Y-119355000D01*
X101170931Y-119219658D01*
X101151616Y-119177365D01*
X101114132Y-119095285D01*
X101114127Y-119095278D01*
X101077155Y-119052610D01*
X111279200Y-119052610D01*
X111304015Y-119177365D01*
X111304018Y-119177375D01*
X111352697Y-119294898D01*
X111352702Y-119294907D01*
X111423373Y-119400673D01*
X111423376Y-119400677D01*
X111513322Y-119490623D01*
X111513326Y-119490626D01*
X111619092Y-119561297D01*
X111619098Y-119561300D01*
X111619099Y-119561301D01*
X111736627Y-119609983D01*
X111861389Y-119634799D01*
X111861393Y-119634800D01*
X111861394Y-119634800D01*
X111988607Y-119634800D01*
X111988608Y-119634799D01*
X112113373Y-119609983D01*
X112230901Y-119561301D01*
X112336674Y-119490626D01*
X112426626Y-119400674D01*
X112497301Y-119294901D01*
X112545983Y-119177373D01*
X112570800Y-119052606D01*
X112570800Y-118925394D01*
X112545983Y-118800627D01*
X112497301Y-118683099D01*
X112497300Y-118683098D01*
X112497297Y-118683092D01*
X112426626Y-118577326D01*
X112426623Y-118577322D01*
X112336677Y-118487376D01*
X112336673Y-118487373D01*
X112325639Y-118480000D01*
X115279610Y-118480000D01*
X115299068Y-118615337D01*
X115299070Y-118615345D01*
X115355867Y-118739714D01*
X115355872Y-118739721D01*
X115445409Y-118843053D01*
X115445413Y-118843057D01*
X115502121Y-118879500D01*
X115560439Y-118916978D01*
X115626036Y-118936239D01*
X115691632Y-118955500D01*
X115691633Y-118955500D01*
X115828367Y-118955500D01*
X115959561Y-118916978D01*
X116074589Y-118843055D01*
X116164130Y-118739718D01*
X116220931Y-118615342D01*
X116240390Y-118480000D01*
X116220931Y-118344658D01*
X116208677Y-118317827D01*
X116164132Y-118220285D01*
X116164127Y-118220278D01*
X116074590Y-118116946D01*
X116074586Y-118116942D01*
X115959559Y-118043021D01*
X115828368Y-118004500D01*
X115828367Y-118004500D01*
X115691633Y-118004500D01*
X115691632Y-118004500D01*
X115560440Y-118043021D01*
X115445413Y-118116942D01*
X115445409Y-118116946D01*
X115355872Y-118220278D01*
X115355867Y-118220285D01*
X115299070Y-118344654D01*
X115299068Y-118344662D01*
X115279610Y-118480000D01*
X112325639Y-118480000D01*
X112230907Y-118416702D01*
X112230898Y-118416697D01*
X112113375Y-118368018D01*
X112113376Y-118368018D01*
X112113373Y-118368017D01*
X112113369Y-118368016D01*
X112113365Y-118368015D01*
X111988610Y-118343200D01*
X111988606Y-118343200D01*
X111861394Y-118343200D01*
X111861389Y-118343200D01*
X111736634Y-118368015D01*
X111736624Y-118368018D01*
X111619101Y-118416697D01*
X111619092Y-118416702D01*
X111513326Y-118487373D01*
X111513322Y-118487376D01*
X111423376Y-118577322D01*
X111423373Y-118577326D01*
X111352702Y-118683092D01*
X111352697Y-118683101D01*
X111304018Y-118800624D01*
X111304015Y-118800634D01*
X111279200Y-118925389D01*
X111279200Y-119052610D01*
X101077155Y-119052610D01*
X101024590Y-118991946D01*
X101024586Y-118991942D01*
X100921032Y-118925394D01*
X100909561Y-118918022D01*
X100909560Y-118918021D01*
X100909559Y-118918021D01*
X100778368Y-118879500D01*
X100778367Y-118879500D01*
X100641633Y-118879500D01*
X100641632Y-118879500D01*
X100510440Y-118918021D01*
X100395413Y-118991942D01*
X100395409Y-118991946D01*
X100305872Y-119095278D01*
X100305867Y-119095285D01*
X100249070Y-119219654D01*
X100249068Y-119219662D01*
X100229610Y-119355000D01*
X73660000Y-119355000D01*
X73660000Y-117640000D01*
X102109610Y-117640000D01*
X102129068Y-117775337D01*
X102129070Y-117775345D01*
X102185867Y-117899714D01*
X102185872Y-117899721D01*
X102275409Y-118003053D01*
X102275413Y-118003057D01*
X102306535Y-118023057D01*
X102390439Y-118076978D01*
X102456036Y-118096239D01*
X102521632Y-118115500D01*
X102521633Y-118115500D01*
X102658367Y-118115500D01*
X102789561Y-118076978D01*
X102842402Y-118043019D01*
X102909440Y-118023336D01*
X102976477Y-118043020D01*
X103006944Y-118062599D01*
X103060439Y-118096978D01*
X103123519Y-118115500D01*
X103191632Y-118135500D01*
X103191633Y-118135500D01*
X103328367Y-118135500D01*
X103459561Y-118096978D01*
X103574589Y-118023055D01*
X103664130Y-117919718D01*
X103720931Y-117795342D01*
X103740390Y-117660000D01*
X103720931Y-117524658D01*
X103708677Y-117497827D01*
X103664132Y-117400285D01*
X103664127Y-117400277D01*
X103651931Y-117386203D01*
X103622905Y-117322648D01*
X103632848Y-117253489D01*
X103651931Y-117223797D01*
X103664127Y-117209722D01*
X103664128Y-117209720D01*
X103664130Y-117209718D01*
X103668697Y-117199719D01*
X103699750Y-117131721D01*
X103720931Y-117085342D01*
X103740390Y-116950000D01*
X103720931Y-116814658D01*
X103708677Y-116787827D01*
X103664132Y-116690285D01*
X103664127Y-116690278D01*
X103574590Y-116586946D01*
X103574586Y-116586942D01*
X103483736Y-116528558D01*
X103459561Y-116513022D01*
X103459560Y-116513021D01*
X103459559Y-116513021D01*
X103328368Y-116474500D01*
X103328367Y-116474500D01*
X103191633Y-116474500D01*
X103191632Y-116474500D01*
X103060441Y-116513020D01*
X102999817Y-116551980D01*
X102932777Y-116571663D01*
X102865742Y-116551979D01*
X102807754Y-116514714D01*
X102789561Y-116503022D01*
X102789560Y-116503021D01*
X102789559Y-116503021D01*
X102658368Y-116464500D01*
X102658367Y-116464500D01*
X102521633Y-116464500D01*
X102521632Y-116464500D01*
X102390440Y-116503021D01*
X102275413Y-116576942D01*
X102275409Y-116576946D01*
X102185872Y-116680278D01*
X102185867Y-116680285D01*
X102129070Y-116804654D01*
X102129068Y-116804662D01*
X102109610Y-116940000D01*
X102129068Y-117075337D01*
X102129070Y-117075345D01*
X102185867Y-117199712D01*
X102185871Y-117199719D01*
X102193740Y-117208801D01*
X102222763Y-117272358D01*
X102212816Y-117341516D01*
X102193740Y-117371199D01*
X102185871Y-117380280D01*
X102185867Y-117380287D01*
X102129070Y-117504654D01*
X102129068Y-117504662D01*
X102109610Y-117640000D01*
X73660000Y-117640000D01*
X73660000Y-116872000D01*
X73941610Y-116872000D01*
X73961068Y-117007337D01*
X73961070Y-117007345D01*
X74017867Y-117131714D01*
X74017872Y-117131721D01*
X74107409Y-117235053D01*
X74107413Y-117235057D01*
X74136095Y-117253489D01*
X74222439Y-117308978D01*
X74268995Y-117322648D01*
X74353632Y-117347500D01*
X74353633Y-117347500D01*
X74490367Y-117347500D01*
X74621561Y-117308978D01*
X74736589Y-117235055D01*
X74826130Y-117131718D01*
X74882931Y-117007342D01*
X74902390Y-116872000D01*
X74882931Y-116736658D01*
X74857183Y-116680278D01*
X74826132Y-116612285D01*
X74826127Y-116612278D01*
X74736590Y-116508946D01*
X74736586Y-116508942D01*
X74645736Y-116450558D01*
X74621561Y-116435022D01*
X74621560Y-116435021D01*
X74621559Y-116435021D01*
X74490368Y-116396500D01*
X74490367Y-116396500D01*
X74353633Y-116396500D01*
X74353632Y-116396500D01*
X74222440Y-116435021D01*
X74107413Y-116508942D01*
X74107409Y-116508946D01*
X74017872Y-116612278D01*
X74017867Y-116612285D01*
X73961070Y-116736654D01*
X73961068Y-116736662D01*
X73941610Y-116872000D01*
X73660000Y-116872000D01*
X73660000Y-116000000D01*
X89419610Y-116000000D01*
X89439068Y-116135337D01*
X89439070Y-116135345D01*
X89495867Y-116259714D01*
X89495872Y-116259721D01*
X89585409Y-116363053D01*
X89585413Y-116363057D01*
X89637453Y-116396500D01*
X89700439Y-116436978D01*
X89766036Y-116456239D01*
X89831632Y-116475500D01*
X89831633Y-116475500D01*
X89968367Y-116475500D01*
X90099561Y-116436978D01*
X90214589Y-116363055D01*
X90304130Y-116259718D01*
X90360931Y-116135342D01*
X90380390Y-116000000D01*
X90360931Y-115864658D01*
X90339633Y-115818022D01*
X90304132Y-115740285D01*
X90304127Y-115740278D01*
X90214590Y-115636946D01*
X90214586Y-115636942D01*
X90099559Y-115563021D01*
X89968368Y-115524500D01*
X89968367Y-115524500D01*
X89831633Y-115524500D01*
X89831632Y-115524500D01*
X89700440Y-115563021D01*
X89585413Y-115636942D01*
X89585409Y-115636946D01*
X89495872Y-115740278D01*
X89495867Y-115740285D01*
X89439070Y-115864654D01*
X89439068Y-115864662D01*
X89419610Y-116000000D01*
X73660000Y-116000000D01*
X73660000Y-114872000D01*
X73941610Y-114872000D01*
X73961068Y-115007337D01*
X73961070Y-115007345D01*
X74017867Y-115131714D01*
X74017872Y-115131721D01*
X74107409Y-115235053D01*
X74107413Y-115235057D01*
X74167979Y-115273979D01*
X74222439Y-115308978D01*
X74288036Y-115328239D01*
X74353632Y-115347500D01*
X74353633Y-115347500D01*
X74490367Y-115347500D01*
X74621561Y-115308978D01*
X74736589Y-115235055D01*
X74826130Y-115131718D01*
X74826785Y-115130285D01*
X74859010Y-115059721D01*
X74882931Y-115007342D01*
X74902390Y-114872000D01*
X74892038Y-114800000D01*
X91439610Y-114800000D01*
X91459068Y-114935337D01*
X91459070Y-114935345D01*
X91515867Y-115059714D01*
X91515872Y-115059721D01*
X91605409Y-115163053D01*
X91605413Y-115163057D01*
X91665979Y-115201979D01*
X91720439Y-115236978D01*
X91780638Y-115254654D01*
X91851632Y-115275500D01*
X91851633Y-115275500D01*
X91988367Y-115275500D01*
X92119561Y-115236978D01*
X92234589Y-115163055D01*
X92324130Y-115059718D01*
X92360065Y-114981031D01*
X110172806Y-114981031D01*
X110192264Y-115116368D01*
X110192266Y-115116376D01*
X110249063Y-115240745D01*
X110249068Y-115240752D01*
X110338605Y-115344084D01*
X110338609Y-115344088D01*
X110399175Y-115383010D01*
X110453635Y-115418009D01*
X110491217Y-115429044D01*
X110584828Y-115456531D01*
X110584829Y-115456531D01*
X110721563Y-115456531D01*
X110852757Y-115418009D01*
X110967785Y-115344086D01*
X110967786Y-115344083D01*
X110970446Y-115342375D01*
X111037486Y-115322691D01*
X111104525Y-115342376D01*
X111150280Y-115395180D01*
X111160223Y-115429044D01*
X111174068Y-115525337D01*
X111174070Y-115525345D01*
X111230867Y-115649714D01*
X111230872Y-115649721D01*
X111320409Y-115753053D01*
X111320413Y-115753057D01*
X111394681Y-115800785D01*
X111435439Y-115826978D01*
X111494141Y-115844214D01*
X111552918Y-115881987D01*
X111581944Y-115945542D01*
X111572001Y-116014701D01*
X111572001Y-116014702D01*
X111524068Y-116119660D01*
X111524068Y-116119662D01*
X111504610Y-116255000D01*
X111524068Y-116390337D01*
X111524070Y-116390345D01*
X111580867Y-116514714D01*
X111580872Y-116514721D01*
X111670409Y-116618053D01*
X111670413Y-116618057D01*
X111730979Y-116656979D01*
X111785439Y-116691978D01*
X111851036Y-116711239D01*
X111916632Y-116730500D01*
X111916633Y-116730500D01*
X112053367Y-116730500D01*
X112184561Y-116691978D01*
X112280462Y-116630346D01*
X112347501Y-116610663D01*
X112414537Y-116630346D01*
X112510439Y-116691978D01*
X112510441Y-116691978D01*
X112510442Y-116691979D01*
X112641632Y-116730500D01*
X112641633Y-116730500D01*
X112778367Y-116730500D01*
X112909561Y-116691978D01*
X113024589Y-116618055D01*
X113114130Y-116514718D01*
X113114906Y-116513020D01*
X113150526Y-116435022D01*
X113170931Y-116390342D01*
X113190390Y-116255000D01*
X113170931Y-116119658D01*
X113123293Y-116015345D01*
X113114132Y-115995285D01*
X113114127Y-115995278D01*
X113024590Y-115891946D01*
X113024586Y-115891942D01*
X113006003Y-115880000D01*
X113979610Y-115880000D01*
X113999068Y-116015337D01*
X113999070Y-116015345D01*
X114055867Y-116139714D01*
X114055872Y-116139721D01*
X114145409Y-116243053D01*
X114145413Y-116243057D01*
X114171333Y-116259714D01*
X114260439Y-116316978D01*
X114326036Y-116336239D01*
X114391632Y-116355500D01*
X114391633Y-116355500D01*
X114528367Y-116355500D01*
X114659561Y-116316978D01*
X114774589Y-116243055D01*
X114864130Y-116139718D01*
X114866129Y-116135342D01*
X114876383Y-116112887D01*
X114920931Y-116015342D01*
X114940390Y-115880000D01*
X114920931Y-115744658D01*
X114900287Y-115699455D01*
X114864132Y-115620285D01*
X114864127Y-115620278D01*
X114774590Y-115516946D01*
X114774586Y-115516942D01*
X114659559Y-115443021D01*
X114528368Y-115404500D01*
X114528367Y-115404500D01*
X114391633Y-115404500D01*
X114391632Y-115404500D01*
X114260440Y-115443021D01*
X114145413Y-115516942D01*
X114145409Y-115516946D01*
X114055872Y-115620278D01*
X114055867Y-115620285D01*
X113999070Y-115744654D01*
X113999068Y-115744662D01*
X113979610Y-115880000D01*
X113006003Y-115880000D01*
X112909559Y-115818021D01*
X112778368Y-115779500D01*
X112778367Y-115779500D01*
X112641633Y-115779500D01*
X112641632Y-115779500D01*
X112510440Y-115818021D01*
X112414538Y-115879652D01*
X112347498Y-115899336D01*
X112280462Y-115879652D01*
X112184559Y-115818021D01*
X112184557Y-115818020D01*
X112125859Y-115800785D01*
X112067080Y-115763011D01*
X112038055Y-115699455D01*
X112047997Y-115630301D01*
X112095931Y-115525342D01*
X112115390Y-115390000D01*
X112095931Y-115254658D01*
X112054097Y-115163055D01*
X112039132Y-115130285D01*
X112039127Y-115130278D01*
X111949590Y-115026946D01*
X111949586Y-115026942D01*
X111834559Y-114953021D01*
X111703368Y-114914500D01*
X111703367Y-114914500D01*
X111566633Y-114914500D01*
X111566632Y-114914500D01*
X111435440Y-114953021D01*
X111317748Y-115028655D01*
X111250708Y-115048339D01*
X111183669Y-115028653D01*
X111137915Y-114975849D01*
X111127972Y-114941985D01*
X111124020Y-114914500D01*
X111114127Y-114845689D01*
X111101873Y-114818858D01*
X111057328Y-114721316D01*
X111057323Y-114721309D01*
X110967786Y-114617977D01*
X110967782Y-114617973D01*
X110852755Y-114544052D01*
X110721564Y-114505531D01*
X110721563Y-114505531D01*
X110584829Y-114505531D01*
X110584828Y-114505531D01*
X110453636Y-114544052D01*
X110338609Y-114617973D01*
X110338605Y-114617977D01*
X110249068Y-114721309D01*
X110249063Y-114721316D01*
X110192266Y-114845685D01*
X110192264Y-114845693D01*
X110172806Y-114981031D01*
X92360065Y-114981031D01*
X92380931Y-114935342D01*
X92400390Y-114800000D01*
X92380931Y-114664658D01*
X92357010Y-114612278D01*
X92324132Y-114540285D01*
X92324127Y-114540278D01*
X92234590Y-114436946D01*
X92234586Y-114436942D01*
X92119559Y-114363021D01*
X91988368Y-114324500D01*
X91988367Y-114324500D01*
X91851633Y-114324500D01*
X91851632Y-114324500D01*
X91720440Y-114363021D01*
X91605413Y-114436942D01*
X91605409Y-114436946D01*
X91515872Y-114540278D01*
X91515867Y-114540285D01*
X91459070Y-114664654D01*
X91459068Y-114664662D01*
X91439610Y-114800000D01*
X74892038Y-114800000D01*
X74882931Y-114736658D01*
X74870677Y-114709827D01*
X74826132Y-114612285D01*
X74826127Y-114612278D01*
X74736590Y-114508946D01*
X74736586Y-114508942D01*
X74645736Y-114450558D01*
X74621561Y-114435022D01*
X74621560Y-114435021D01*
X74621559Y-114435021D01*
X74490368Y-114396500D01*
X74490367Y-114396500D01*
X74353633Y-114396500D01*
X74353632Y-114396500D01*
X74222440Y-114435021D01*
X74107413Y-114508942D01*
X74107409Y-114508946D01*
X74017872Y-114612278D01*
X74017867Y-114612285D01*
X73961070Y-114736654D01*
X73961068Y-114736662D01*
X73941610Y-114872000D01*
X73660000Y-114872000D01*
X73660000Y-113755000D01*
X104804610Y-113755000D01*
X104824068Y-113890337D01*
X104824070Y-113890345D01*
X104880867Y-114014714D01*
X104880872Y-114014721D01*
X104970409Y-114118053D01*
X104970413Y-114118057D01*
X105030979Y-114156979D01*
X105085439Y-114191978D01*
X105151036Y-114211239D01*
X105216632Y-114230500D01*
X105216633Y-114230500D01*
X105353367Y-114230500D01*
X105484561Y-114191978D01*
X105599589Y-114118055D01*
X105689130Y-114014718D01*
X105745931Y-113890342D01*
X105765390Y-113755000D01*
X105745931Y-113619658D01*
X105733677Y-113592827D01*
X105689132Y-113495285D01*
X105689127Y-113495278D01*
X105599590Y-113391946D01*
X105599586Y-113391942D01*
X105484559Y-113318021D01*
X105353368Y-113279500D01*
X105353367Y-113279500D01*
X105216633Y-113279500D01*
X105216632Y-113279500D01*
X105085440Y-113318021D01*
X104970413Y-113391942D01*
X104970409Y-113391946D01*
X104880872Y-113495278D01*
X104880867Y-113495285D01*
X104824070Y-113619654D01*
X104824068Y-113619662D01*
X104804610Y-113755000D01*
X73660000Y-113755000D01*
X73660000Y-112872000D01*
X73941610Y-112872000D01*
X73961068Y-113007337D01*
X73961070Y-113007345D01*
X74017867Y-113131714D01*
X74017872Y-113131721D01*
X74107409Y-113235053D01*
X74107413Y-113235057D01*
X74167979Y-113273979D01*
X74222439Y-113308978D01*
X74288036Y-113328239D01*
X74353632Y-113347500D01*
X74353633Y-113347500D01*
X74490367Y-113347500D01*
X74621561Y-113308978D01*
X74736589Y-113235055D01*
X74826130Y-113131718D01*
X74882931Y-113007342D01*
X74902390Y-112872000D01*
X74893188Y-112808000D01*
X85097610Y-112808000D01*
X85117068Y-112943337D01*
X85117070Y-112943345D01*
X85173867Y-113067714D01*
X85173872Y-113067721D01*
X85263409Y-113171053D01*
X85263413Y-113171057D01*
X85323979Y-113209979D01*
X85378439Y-113244978D01*
X85444036Y-113264239D01*
X85509632Y-113283500D01*
X85509633Y-113283500D01*
X85646367Y-113283500D01*
X85777561Y-113244978D01*
X85892589Y-113171055D01*
X85982130Y-113067718D01*
X86038931Y-112943342D01*
X86058390Y-112808000D01*
X86038931Y-112672658D01*
X86026677Y-112645827D01*
X85982132Y-112548285D01*
X85982127Y-112548278D01*
X85892590Y-112444946D01*
X85892586Y-112444942D01*
X85777559Y-112371021D01*
X85646368Y-112332500D01*
X85646367Y-112332500D01*
X85509633Y-112332500D01*
X85509632Y-112332500D01*
X85378440Y-112371021D01*
X85263413Y-112444942D01*
X85263409Y-112444946D01*
X85173872Y-112548278D01*
X85173867Y-112548285D01*
X85117070Y-112672654D01*
X85117068Y-112672662D01*
X85097610Y-112808000D01*
X74893188Y-112808000D01*
X74882931Y-112736658D01*
X74853701Y-112672654D01*
X74826132Y-112612285D01*
X74826127Y-112612278D01*
X74736590Y-112508946D01*
X74736586Y-112508942D01*
X74621559Y-112435021D01*
X74490368Y-112396500D01*
X74490367Y-112396500D01*
X74353633Y-112396500D01*
X74353632Y-112396500D01*
X74222440Y-112435021D01*
X74107413Y-112508942D01*
X74107409Y-112508946D01*
X74017872Y-112612278D01*
X74017867Y-112612285D01*
X73961070Y-112736654D01*
X73961068Y-112736662D01*
X73941610Y-112872000D01*
X73660000Y-112872000D01*
X73660000Y-111380000D01*
X102754610Y-111380000D01*
X102774068Y-111515337D01*
X102774070Y-111515345D01*
X102830867Y-111639714D01*
X102830872Y-111639721D01*
X102920409Y-111743053D01*
X102920413Y-111743057D01*
X102980979Y-111781979D01*
X103035439Y-111816978D01*
X103101036Y-111836239D01*
X103166632Y-111855500D01*
X103166633Y-111855500D01*
X103303367Y-111855500D01*
X103434561Y-111816978D01*
X103549589Y-111743055D01*
X103639130Y-111639718D01*
X103695931Y-111515342D01*
X103715390Y-111380000D01*
X103695931Y-111244658D01*
X103683677Y-111217827D01*
X103639132Y-111120285D01*
X103639127Y-111120278D01*
X103549590Y-111016946D01*
X103549586Y-111016942D01*
X103458736Y-110958558D01*
X103434561Y-110943022D01*
X103434560Y-110943021D01*
X103434559Y-110943021D01*
X103303368Y-110904500D01*
X103303367Y-110904500D01*
X103166633Y-110904500D01*
X103166632Y-110904500D01*
X103035440Y-110943021D01*
X102920413Y-111016942D01*
X102920409Y-111016946D01*
X102830872Y-111120278D01*
X102830867Y-111120285D01*
X102774070Y-111244654D01*
X102774068Y-111244662D01*
X102754610Y-111380000D01*
X73660000Y-111380000D01*
X73660000Y-110872000D01*
X73941610Y-110872000D01*
X73961068Y-111007337D01*
X73961070Y-111007345D01*
X74017867Y-111131714D01*
X74017872Y-111131721D01*
X74107409Y-111235053D01*
X74107413Y-111235057D01*
X74167979Y-111273979D01*
X74222439Y-111308978D01*
X74288036Y-111328239D01*
X74353632Y-111347500D01*
X74353633Y-111347500D01*
X74490367Y-111347500D01*
X74621561Y-111308978D01*
X74736589Y-111235055D01*
X74826130Y-111131718D01*
X74882931Y-111007342D01*
X74902390Y-110872000D01*
X74893188Y-110808000D01*
X91469610Y-110808000D01*
X91489068Y-110943337D01*
X91489070Y-110943345D01*
X91545867Y-111067714D01*
X91545872Y-111067721D01*
X91635409Y-111171053D01*
X91635413Y-111171057D01*
X91695979Y-111209979D01*
X91750439Y-111244978D01*
X91816036Y-111264239D01*
X91881632Y-111283500D01*
X91881633Y-111283500D01*
X92018367Y-111283500D01*
X92149561Y-111244978D01*
X92264589Y-111171055D01*
X92354130Y-111067718D01*
X92410931Y-110943342D01*
X92430390Y-110808000D01*
X92410931Y-110672658D01*
X92398677Y-110645827D01*
X92354132Y-110548285D01*
X92354127Y-110548278D01*
X92264590Y-110444946D01*
X92264586Y-110444942D01*
X92149559Y-110371021D01*
X92018368Y-110332500D01*
X92018367Y-110332500D01*
X91881633Y-110332500D01*
X91881632Y-110332500D01*
X91750440Y-110371021D01*
X91635413Y-110444942D01*
X91635409Y-110444946D01*
X91545872Y-110548278D01*
X91545867Y-110548285D01*
X91489070Y-110672654D01*
X91489068Y-110672662D01*
X91469610Y-110808000D01*
X74893188Y-110808000D01*
X74882931Y-110736658D01*
X74853701Y-110672654D01*
X74826132Y-110612285D01*
X74826127Y-110612278D01*
X74736590Y-110508946D01*
X74736586Y-110508942D01*
X74621559Y-110435021D01*
X74490368Y-110396500D01*
X74490367Y-110396500D01*
X74353633Y-110396500D01*
X74353632Y-110396500D01*
X74222440Y-110435021D01*
X74107413Y-110508942D01*
X74107409Y-110508946D01*
X74017872Y-110612278D01*
X74017867Y-110612285D01*
X73961070Y-110736654D01*
X73961068Y-110736662D01*
X73941610Y-110872000D01*
X73660000Y-110872000D01*
X73660000Y-109355000D01*
X102429610Y-109355000D01*
X102449068Y-109490337D01*
X102449070Y-109490345D01*
X102505867Y-109614714D01*
X102505872Y-109614721D01*
X102595409Y-109718053D01*
X102595413Y-109718057D01*
X102655979Y-109756979D01*
X102710439Y-109791978D01*
X102776036Y-109811239D01*
X102841632Y-109830500D01*
X102841633Y-109830500D01*
X102978367Y-109830500D01*
X103109561Y-109791978D01*
X103224589Y-109718055D01*
X103314130Y-109614718D01*
X103370931Y-109490342D01*
X103390390Y-109355000D01*
X103370931Y-109219658D01*
X103348734Y-109171053D01*
X103314132Y-109095285D01*
X103314127Y-109095278D01*
X103224590Y-108991946D01*
X103224586Y-108991942D01*
X103109559Y-108918021D01*
X102978368Y-108879500D01*
X102978367Y-108879500D01*
X102841633Y-108879500D01*
X102841632Y-108879500D01*
X102710440Y-108918021D01*
X102595413Y-108991942D01*
X102595409Y-108991946D01*
X102505872Y-109095278D01*
X102505867Y-109095285D01*
X102449070Y-109219654D01*
X102449068Y-109219662D01*
X102429610Y-109355000D01*
X73660000Y-109355000D01*
X73660000Y-108872000D01*
X73941610Y-108872000D01*
X73961068Y-109007337D01*
X73961070Y-109007345D01*
X74017867Y-109131714D01*
X74017872Y-109131721D01*
X74107409Y-109235053D01*
X74107413Y-109235057D01*
X74167979Y-109273979D01*
X74222439Y-109308978D01*
X74288036Y-109328239D01*
X74353632Y-109347500D01*
X74353633Y-109347500D01*
X74490367Y-109347500D01*
X74621561Y-109308978D01*
X74736589Y-109235055D01*
X74826130Y-109131718D01*
X74882931Y-109007342D01*
X74902390Y-108872000D01*
X74893188Y-108808000D01*
X84609610Y-108808000D01*
X84629068Y-108943337D01*
X84629070Y-108943345D01*
X84685867Y-109067714D01*
X84685872Y-109067721D01*
X84775409Y-109171053D01*
X84775413Y-109171057D01*
X84835979Y-109209979D01*
X84890439Y-109244978D01*
X84956036Y-109264239D01*
X85021632Y-109283500D01*
X85021633Y-109283500D01*
X85158367Y-109283500D01*
X85289561Y-109244978D01*
X85404589Y-109171055D01*
X85494130Y-109067718D01*
X85550931Y-108943342D01*
X85570390Y-108808000D01*
X85550931Y-108672658D01*
X85537411Y-108643053D01*
X85494132Y-108548285D01*
X85494127Y-108548278D01*
X85404590Y-108444946D01*
X85404586Y-108444942D01*
X85289559Y-108371021D01*
X85158368Y-108332500D01*
X85158367Y-108332500D01*
X85021633Y-108332500D01*
X85021632Y-108332500D01*
X84890440Y-108371021D01*
X84775413Y-108444942D01*
X84775409Y-108444946D01*
X84685872Y-108548278D01*
X84685867Y-108548285D01*
X84629070Y-108672654D01*
X84629068Y-108672662D01*
X84609610Y-108808000D01*
X74893188Y-108808000D01*
X74882931Y-108736658D01*
X74840183Y-108643053D01*
X74826132Y-108612285D01*
X74826127Y-108612278D01*
X74736590Y-108508946D01*
X74736586Y-108508942D01*
X74621559Y-108435021D01*
X74490368Y-108396500D01*
X74490367Y-108396500D01*
X74353633Y-108396500D01*
X74353632Y-108396500D01*
X74222440Y-108435021D01*
X74107413Y-108508942D01*
X74107409Y-108508946D01*
X74017872Y-108612278D01*
X74017867Y-108612285D01*
X73961070Y-108736654D01*
X73961068Y-108736662D01*
X73941610Y-108872000D01*
X73660000Y-108872000D01*
X73660000Y-108280000D01*
X94229610Y-108280000D01*
X94249068Y-108415337D01*
X94249070Y-108415345D01*
X94305867Y-108539714D01*
X94305872Y-108539721D01*
X94395409Y-108643053D01*
X94395413Y-108643057D01*
X94441475Y-108672658D01*
X94510439Y-108716978D01*
X94576036Y-108736239D01*
X94641632Y-108755500D01*
X94641633Y-108755500D01*
X94778367Y-108755500D01*
X94909561Y-108716978D01*
X95024589Y-108643055D01*
X95114130Y-108539718D01*
X95170931Y-108415342D01*
X95180973Y-108345500D01*
X99129610Y-108345500D01*
X99149068Y-108480837D01*
X99149070Y-108480845D01*
X99205867Y-108605214D01*
X99205872Y-108605221D01*
X99295409Y-108708553D01*
X99295413Y-108708557D01*
X99339147Y-108736662D01*
X99410439Y-108782478D01*
X99476036Y-108801739D01*
X99541632Y-108821000D01*
X99541633Y-108821000D01*
X99678367Y-108821000D01*
X99809561Y-108782478D01*
X99924589Y-108708555D01*
X100014130Y-108605218D01*
X100070931Y-108480842D01*
X100090390Y-108345500D01*
X100070931Y-108210158D01*
X100041016Y-108144654D01*
X100014132Y-108085785D01*
X100014127Y-108085778D01*
X99924590Y-107982446D01*
X99924586Y-107982442D01*
X99822669Y-107916946D01*
X99809561Y-107908522D01*
X99809560Y-107908521D01*
X99809559Y-107908521D01*
X99678368Y-107870000D01*
X99678367Y-107870000D01*
X99541633Y-107870000D01*
X99541632Y-107870000D01*
X99410440Y-107908521D01*
X99295413Y-107982442D01*
X99295409Y-107982446D01*
X99205872Y-108085778D01*
X99205867Y-108085785D01*
X99149070Y-108210154D01*
X99149068Y-108210162D01*
X99129610Y-108345500D01*
X95180973Y-108345500D01*
X95190390Y-108280000D01*
X95170931Y-108144658D01*
X95158677Y-108117827D01*
X95114132Y-108020285D01*
X95114127Y-108020278D01*
X95024590Y-107916946D01*
X95024586Y-107916942D01*
X94909559Y-107843021D01*
X94778368Y-107804500D01*
X94778367Y-107804500D01*
X94641633Y-107804500D01*
X94641632Y-107804500D01*
X94510440Y-107843021D01*
X94395413Y-107916942D01*
X94395409Y-107916946D01*
X94305872Y-108020278D01*
X94305867Y-108020285D01*
X94249070Y-108144654D01*
X94249068Y-108144662D01*
X94229610Y-108280000D01*
X73660000Y-108280000D01*
X73660000Y-106872000D01*
X73941610Y-106872000D01*
X73961068Y-107007337D01*
X73961070Y-107007345D01*
X74017867Y-107131714D01*
X74017872Y-107131721D01*
X74107409Y-107235053D01*
X74107413Y-107235057D01*
X74138446Y-107255000D01*
X74222439Y-107308978D01*
X74288036Y-107328239D01*
X74353632Y-107347500D01*
X74353633Y-107347500D01*
X74490367Y-107347500D01*
X74621561Y-107308978D01*
X74736589Y-107235055D01*
X74826130Y-107131718D01*
X74831640Y-107119654D01*
X74859010Y-107059721D01*
X74882931Y-107007342D01*
X74902390Y-106872000D01*
X74892038Y-106800000D01*
X91529610Y-106800000D01*
X91549068Y-106935337D01*
X91549070Y-106935345D01*
X91605867Y-107059714D01*
X91605872Y-107059721D01*
X91695409Y-107163053D01*
X91695413Y-107163057D01*
X91755979Y-107201979D01*
X91810439Y-107236978D01*
X91871816Y-107255000D01*
X91941632Y-107275500D01*
X91941633Y-107275500D01*
X92078367Y-107275500D01*
X92148184Y-107255000D01*
X112154610Y-107255000D01*
X112174068Y-107390337D01*
X112174070Y-107390345D01*
X112230867Y-107514714D01*
X112230872Y-107514721D01*
X112320409Y-107618053D01*
X112320413Y-107618057D01*
X112380979Y-107656979D01*
X112435439Y-107691978D01*
X112501036Y-107711239D01*
X112566632Y-107730500D01*
X112566633Y-107730500D01*
X112703367Y-107730500D01*
X112834561Y-107691978D01*
X112949589Y-107618055D01*
X113039130Y-107514718D01*
X113095931Y-107390342D01*
X113115390Y-107255000D01*
X113098453Y-107137200D01*
X114378410Y-107137200D01*
X114397868Y-107272537D01*
X114397870Y-107272545D01*
X114454667Y-107396914D01*
X114454672Y-107396921D01*
X114544209Y-107500253D01*
X114544213Y-107500257D01*
X114604779Y-107539179D01*
X114659239Y-107574178D01*
X114724836Y-107593439D01*
X114790432Y-107612700D01*
X114790433Y-107612700D01*
X114927167Y-107612700D01*
X115058361Y-107574178D01*
X115173389Y-107500255D01*
X115262930Y-107396918D01*
X115265936Y-107390337D01*
X115275183Y-107370087D01*
X115319731Y-107272542D01*
X115339190Y-107137200D01*
X115319731Y-107001858D01*
X115307477Y-106975027D01*
X115262932Y-106877485D01*
X115262927Y-106877478D01*
X115173390Y-106774146D01*
X115173386Y-106774142D01*
X115058359Y-106700221D01*
X114927168Y-106661700D01*
X114927167Y-106661700D01*
X114790433Y-106661700D01*
X114790432Y-106661700D01*
X114659240Y-106700221D01*
X114544213Y-106774142D01*
X114544209Y-106774146D01*
X114454672Y-106877478D01*
X114454667Y-106877485D01*
X114397870Y-107001854D01*
X114397868Y-107001862D01*
X114378410Y-107137200D01*
X113098453Y-107137200D01*
X113095931Y-107119658D01*
X113068557Y-107059718D01*
X113039132Y-106995285D01*
X113039127Y-106995278D01*
X112949590Y-106891946D01*
X112949586Y-106891942D01*
X112834559Y-106818021D01*
X112703368Y-106779500D01*
X112703367Y-106779500D01*
X112566633Y-106779500D01*
X112566632Y-106779500D01*
X112435440Y-106818021D01*
X112320413Y-106891942D01*
X112320409Y-106891946D01*
X112230872Y-106995278D01*
X112230867Y-106995285D01*
X112174070Y-107119654D01*
X112174068Y-107119662D01*
X112154610Y-107255000D01*
X92148184Y-107255000D01*
X92209561Y-107236978D01*
X92324589Y-107163055D01*
X92414130Y-107059718D01*
X92470931Y-106935342D01*
X92490390Y-106800000D01*
X92470931Y-106664658D01*
X92447010Y-106612278D01*
X92414132Y-106540285D01*
X92414127Y-106540278D01*
X92324590Y-106436946D01*
X92324586Y-106436942D01*
X92209559Y-106363021D01*
X92078368Y-106324500D01*
X92078367Y-106324500D01*
X91941633Y-106324500D01*
X91941632Y-106324500D01*
X91810440Y-106363021D01*
X91695413Y-106436942D01*
X91695409Y-106436946D01*
X91605872Y-106540278D01*
X91605867Y-106540285D01*
X91549070Y-106664654D01*
X91549068Y-106664662D01*
X91529610Y-106800000D01*
X74892038Y-106800000D01*
X74882931Y-106736658D01*
X74866291Y-106700221D01*
X74826132Y-106612285D01*
X74826127Y-106612278D01*
X74736590Y-106508946D01*
X74736586Y-106508942D01*
X74645736Y-106450558D01*
X74621561Y-106435022D01*
X74621560Y-106435021D01*
X74621559Y-106435021D01*
X74490368Y-106396500D01*
X74490367Y-106396500D01*
X74353633Y-106396500D01*
X74353632Y-106396500D01*
X74222440Y-106435021D01*
X74107413Y-106508942D01*
X74107409Y-106508946D01*
X74017872Y-106612278D01*
X74017867Y-106612285D01*
X73961070Y-106736654D01*
X73961068Y-106736662D01*
X73941610Y-106872000D01*
X73660000Y-106872000D01*
X73660000Y-105855000D01*
X113379610Y-105855000D01*
X113399068Y-105990337D01*
X113399070Y-105990345D01*
X113455867Y-106114714D01*
X113455872Y-106114721D01*
X113545409Y-106218053D01*
X113545413Y-106218057D01*
X113605979Y-106256979D01*
X113660439Y-106291978D01*
X113726036Y-106311239D01*
X113791632Y-106330500D01*
X113791633Y-106330500D01*
X113928367Y-106330500D01*
X114059561Y-106291978D01*
X114174589Y-106218055D01*
X114264130Y-106114718D01*
X114320931Y-105990342D01*
X114340390Y-105855000D01*
X114320931Y-105719658D01*
X114303281Y-105681010D01*
X114293338Y-105611852D01*
X114322364Y-105548296D01*
X114381142Y-105510523D01*
X114416076Y-105505500D01*
X114478367Y-105505500D01*
X114609561Y-105466978D01*
X114724589Y-105393055D01*
X114814130Y-105289718D01*
X114870931Y-105165342D01*
X114890390Y-105030000D01*
X114870931Y-104894658D01*
X114858677Y-104867827D01*
X114814132Y-104770285D01*
X114814127Y-104770278D01*
X114724590Y-104666946D01*
X114724586Y-104666942D01*
X114609559Y-104593021D01*
X114478368Y-104554500D01*
X114478367Y-104554500D01*
X114341633Y-104554500D01*
X114341632Y-104554500D01*
X114210440Y-104593021D01*
X114095413Y-104666942D01*
X114095409Y-104666946D01*
X114005872Y-104770278D01*
X114005867Y-104770285D01*
X113949070Y-104894654D01*
X113949068Y-104894662D01*
X113929610Y-105030000D01*
X113949068Y-105165337D01*
X113949069Y-105165342D01*
X113966719Y-105203990D01*
X113976662Y-105273148D01*
X113947636Y-105336704D01*
X113888858Y-105374477D01*
X113853924Y-105379500D01*
X113791632Y-105379500D01*
X113660440Y-105418021D01*
X113545413Y-105491942D01*
X113545409Y-105491946D01*
X113455872Y-105595278D01*
X113455867Y-105595285D01*
X113399070Y-105719654D01*
X113399068Y-105719662D01*
X113379610Y-105855000D01*
X73660000Y-105855000D01*
X73660000Y-104902000D01*
X73941610Y-104902000D01*
X73961068Y-105037337D01*
X73961070Y-105037345D01*
X74017867Y-105161714D01*
X74017872Y-105161721D01*
X74107409Y-105265053D01*
X74107413Y-105265057D01*
X74167979Y-105303979D01*
X74222439Y-105338978D01*
X74277005Y-105355000D01*
X74353632Y-105377500D01*
X74353633Y-105377500D01*
X74490367Y-105377500D01*
X74566995Y-105355000D01*
X110279610Y-105355000D01*
X110299068Y-105490337D01*
X110299070Y-105490345D01*
X110355867Y-105614714D01*
X110355872Y-105614721D01*
X110445409Y-105718053D01*
X110445413Y-105718057D01*
X110505979Y-105756979D01*
X110560439Y-105791978D01*
X110626036Y-105811239D01*
X110691632Y-105830500D01*
X110691633Y-105830500D01*
X110828367Y-105830500D01*
X110959561Y-105791978D01*
X111074589Y-105718055D01*
X111164130Y-105614718D01*
X111220931Y-105490342D01*
X111240390Y-105355000D01*
X111220931Y-105219658D01*
X111194469Y-105161714D01*
X111164132Y-105095285D01*
X111164127Y-105095278D01*
X111074590Y-104991946D01*
X111074586Y-104991942D01*
X110959559Y-104918021D01*
X110828368Y-104879500D01*
X110828367Y-104879500D01*
X110691633Y-104879500D01*
X110691632Y-104879500D01*
X110560440Y-104918021D01*
X110445413Y-104991942D01*
X110445409Y-104991946D01*
X110355872Y-105095278D01*
X110355867Y-105095285D01*
X110299070Y-105219654D01*
X110299068Y-105219662D01*
X110279610Y-105355000D01*
X74566995Y-105355000D01*
X74621561Y-105338978D01*
X74736589Y-105265055D01*
X74826130Y-105161718D01*
X74882931Y-105037342D01*
X74902390Y-104902000D01*
X74888875Y-104808000D01*
X84609610Y-104808000D01*
X84629068Y-104943337D01*
X84629070Y-104943345D01*
X84685867Y-105067714D01*
X84685872Y-105067721D01*
X84775409Y-105171053D01*
X84775413Y-105171057D01*
X84835979Y-105209979D01*
X84890439Y-105244978D01*
X84956036Y-105264239D01*
X85021632Y-105283500D01*
X85021633Y-105283500D01*
X85158367Y-105283500D01*
X85289561Y-105244978D01*
X85404589Y-105171055D01*
X85494130Y-105067718D01*
X85550931Y-104943342D01*
X85570390Y-104808000D01*
X85550931Y-104672658D01*
X85522966Y-104611424D01*
X85494132Y-104548285D01*
X85494127Y-104548278D01*
X85492500Y-104546400D01*
X109323810Y-104546400D01*
X109343268Y-104681737D01*
X109343270Y-104681745D01*
X109400067Y-104806114D01*
X109400072Y-104806121D01*
X109489609Y-104909453D01*
X109489613Y-104909457D01*
X109550179Y-104948379D01*
X109604639Y-104983378D01*
X109670236Y-105002639D01*
X109735832Y-105021900D01*
X109735833Y-105021900D01*
X109872567Y-105021900D01*
X110003761Y-104983378D01*
X110118789Y-104909455D01*
X110208330Y-104806118D01*
X110265131Y-104681742D01*
X110284590Y-104546400D01*
X110265131Y-104411058D01*
X110238026Y-104351706D01*
X110208332Y-104286685D01*
X110208327Y-104286678D01*
X110118790Y-104183346D01*
X110118786Y-104183342D01*
X110003759Y-104109421D01*
X109872568Y-104070900D01*
X109872567Y-104070900D01*
X109735833Y-104070900D01*
X109735832Y-104070900D01*
X109604640Y-104109421D01*
X109489613Y-104183342D01*
X109489609Y-104183346D01*
X109400072Y-104286678D01*
X109400067Y-104286685D01*
X109343270Y-104411054D01*
X109343268Y-104411062D01*
X109323810Y-104546400D01*
X85492500Y-104546400D01*
X85404590Y-104444946D01*
X85404586Y-104444942D01*
X85289559Y-104371021D01*
X85158368Y-104332500D01*
X85158367Y-104332500D01*
X85021633Y-104332500D01*
X85021632Y-104332500D01*
X84890440Y-104371021D01*
X84775413Y-104444942D01*
X84775409Y-104444946D01*
X84685872Y-104548278D01*
X84685867Y-104548285D01*
X84629070Y-104672654D01*
X84629068Y-104672662D01*
X84609610Y-104808000D01*
X74888875Y-104808000D01*
X74882931Y-104766658D01*
X74870677Y-104739827D01*
X74826132Y-104642285D01*
X74826127Y-104642278D01*
X74736590Y-104538946D01*
X74736586Y-104538942D01*
X74621559Y-104465021D01*
X74490368Y-104426500D01*
X74490367Y-104426500D01*
X74353633Y-104426500D01*
X74353632Y-104426500D01*
X74222440Y-104465021D01*
X74107413Y-104538942D01*
X74107409Y-104538946D01*
X74017872Y-104642278D01*
X74017867Y-104642285D01*
X73961070Y-104766654D01*
X73961068Y-104766662D01*
X73941610Y-104902000D01*
X73660000Y-104902000D01*
X73660000Y-103708200D01*
X101754610Y-103708200D01*
X101774068Y-103843537D01*
X101774070Y-103843545D01*
X101830867Y-103967914D01*
X101830872Y-103967921D01*
X101920409Y-104071253D01*
X101920413Y-104071257D01*
X101954336Y-104093057D01*
X102035439Y-104145178D01*
X102101036Y-104164439D01*
X102166632Y-104183700D01*
X102166633Y-104183700D01*
X102303367Y-104183700D01*
X102434561Y-104145178D01*
X102549589Y-104071255D01*
X102593361Y-104020739D01*
X111245349Y-104020739D01*
X111264807Y-104156076D01*
X111264809Y-104156084D01*
X111321606Y-104280453D01*
X111321611Y-104280460D01*
X111411148Y-104383792D01*
X111411152Y-104383796D01*
X111453568Y-104411054D01*
X111526178Y-104457717D01*
X111551057Y-104465022D01*
X111657371Y-104496239D01*
X111662034Y-104496239D01*
X111729073Y-104515924D01*
X111774828Y-104568728D01*
X111782284Y-104603003D01*
X111784772Y-104602646D01*
X111805492Y-104746761D01*
X111805494Y-104746769D01*
X111862291Y-104871138D01*
X111862296Y-104871145D01*
X111951833Y-104974477D01*
X111951837Y-104974481D01*
X112012403Y-105013403D01*
X112066863Y-105048402D01*
X112132460Y-105067663D01*
X112198056Y-105086924D01*
X112198057Y-105086924D01*
X112334791Y-105086924D01*
X112465985Y-105048402D01*
X112581013Y-104974479D01*
X112670554Y-104871142D01*
X112727355Y-104746766D01*
X112746814Y-104611424D01*
X112727355Y-104476082D01*
X112697661Y-104411062D01*
X112670556Y-104351709D01*
X112670551Y-104351701D01*
X112606836Y-104278170D01*
X112577811Y-104214614D01*
X112587755Y-104145456D01*
X112633510Y-104092652D01*
X112634556Y-104091979D01*
X112634561Y-104091978D01*
X112662949Y-104073733D01*
X112729986Y-104054051D01*
X112797025Y-104073736D01*
X112813243Y-104087788D01*
X112813711Y-104087249D01*
X112820413Y-104093057D01*
X112878677Y-104130500D01*
X112935439Y-104166978D01*
X112960873Y-104174446D01*
X113066632Y-104205500D01*
X113066633Y-104205500D01*
X113203367Y-104205500D01*
X113334561Y-104166978D01*
X113449589Y-104093055D01*
X113539130Y-103989718D01*
X113595931Y-103865342D01*
X113615390Y-103730000D01*
X113595931Y-103594658D01*
X113572739Y-103543875D01*
X113539132Y-103470285D01*
X113539127Y-103470278D01*
X113449590Y-103366946D01*
X113449586Y-103366942D01*
X113348220Y-103301800D01*
X113334561Y-103293022D01*
X113334560Y-103293021D01*
X113334559Y-103293021D01*
X113203368Y-103254500D01*
X113203367Y-103254500D01*
X113066633Y-103254500D01*
X113066632Y-103254500D01*
X112935440Y-103293021D01*
X112935438Y-103293022D01*
X112907050Y-103311265D01*
X112840010Y-103330948D01*
X112772972Y-103311261D01*
X112756756Y-103297211D01*
X112756289Y-103297751D01*
X112749586Y-103291942D01*
X112634559Y-103218021D01*
X112503368Y-103179500D01*
X112503367Y-103179500D01*
X112366633Y-103179500D01*
X112366632Y-103179500D01*
X112235440Y-103218021D01*
X112120413Y-103291942D01*
X112120409Y-103291946D01*
X112030872Y-103395278D01*
X112030869Y-103395283D01*
X111987124Y-103491071D01*
X111941369Y-103543875D01*
X111874329Y-103563559D01*
X111839397Y-103558537D01*
X111794106Y-103545239D01*
X111657372Y-103545239D01*
X111657371Y-103545239D01*
X111526179Y-103583760D01*
X111411152Y-103657681D01*
X111411148Y-103657685D01*
X111321611Y-103761017D01*
X111321606Y-103761024D01*
X111264809Y-103885393D01*
X111264807Y-103885401D01*
X111245349Y-104020739D01*
X102593361Y-104020739D01*
X102639130Y-103967918D01*
X102695931Y-103843542D01*
X102695932Y-103843534D01*
X102698446Y-103838030D01*
X102744201Y-103785226D01*
X102776305Y-103770564D01*
X102884561Y-103738778D01*
X102999589Y-103664855D01*
X103089130Y-103561518D01*
X103090492Y-103558537D01*
X103130798Y-103470278D01*
X103145931Y-103437142D01*
X103152892Y-103388721D01*
X103181916Y-103325167D01*
X103240689Y-103287393D01*
X103346996Y-103256179D01*
X103346997Y-103256179D01*
X103382980Y-103233055D01*
X103462027Y-103182255D01*
X103551568Y-103078918D01*
X103608369Y-102954542D01*
X103627828Y-102819200D01*
X103608369Y-102683858D01*
X103574766Y-102610278D01*
X103551570Y-102559485D01*
X103551565Y-102559478D01*
X103462028Y-102456146D01*
X103462024Y-102456142D01*
X103346997Y-102382221D01*
X103215806Y-102343700D01*
X103215805Y-102343700D01*
X103079071Y-102343700D01*
X103079070Y-102343700D01*
X102947878Y-102382221D01*
X102832851Y-102456142D01*
X102832847Y-102456146D01*
X102743310Y-102559478D01*
X102743305Y-102559485D01*
X102686508Y-102683854D01*
X102686506Y-102683862D01*
X102679545Y-102732278D01*
X102650520Y-102795834D01*
X102591742Y-102833608D01*
X102485440Y-102864820D01*
X102370413Y-102938742D01*
X102370409Y-102938746D01*
X102280872Y-103042078D01*
X102280869Y-103042083D01*
X102221552Y-103171970D01*
X102175797Y-103224773D01*
X102143693Y-103239435D01*
X102035440Y-103271220D01*
X101920413Y-103345142D01*
X101920409Y-103345146D01*
X101830872Y-103448478D01*
X101830867Y-103448485D01*
X101774070Y-103572854D01*
X101774068Y-103572862D01*
X101754610Y-103708200D01*
X73660000Y-103708200D01*
X73660000Y-102870000D01*
X73941610Y-102870000D01*
X73961068Y-103005337D01*
X73961070Y-103005345D01*
X74017867Y-103129714D01*
X74017872Y-103129721D01*
X74107409Y-103233053D01*
X74107413Y-103233057D01*
X74143393Y-103256179D01*
X74222439Y-103306978D01*
X74284385Y-103325167D01*
X74353632Y-103345500D01*
X74353633Y-103345500D01*
X74490367Y-103345500D01*
X74621561Y-103306978D01*
X74736589Y-103233055D01*
X74826130Y-103129718D01*
X74882931Y-103005342D01*
X74902390Y-102870000D01*
X74882931Y-102734658D01*
X74859731Y-102683858D01*
X74826132Y-102610285D01*
X74826127Y-102610278D01*
X74736590Y-102506946D01*
X74736586Y-102506942D01*
X74621559Y-102433021D01*
X74490368Y-102394500D01*
X74490367Y-102394500D01*
X74353633Y-102394500D01*
X74353632Y-102394500D01*
X74222440Y-102433021D01*
X74107413Y-102506942D01*
X74107409Y-102506946D01*
X74017872Y-102610278D01*
X74017867Y-102610285D01*
X73961070Y-102734654D01*
X73961068Y-102734662D01*
X73941610Y-102870000D01*
X73660000Y-102870000D01*
X73660000Y-101870000D01*
X106929610Y-101870000D01*
X106949068Y-102005337D01*
X106949070Y-102005345D01*
X107005867Y-102129714D01*
X107005872Y-102129721D01*
X107095409Y-102233053D01*
X107095413Y-102233057D01*
X107155979Y-102271979D01*
X107210439Y-102306978D01*
X107276036Y-102326239D01*
X107341632Y-102345500D01*
X107341633Y-102345500D01*
X107478367Y-102345500D01*
X107609561Y-102306978D01*
X107724589Y-102233055D01*
X107814130Y-102129718D01*
X107870931Y-102005342D01*
X107890390Y-101870000D01*
X107870931Y-101734658D01*
X107858677Y-101707827D01*
X107814132Y-101610285D01*
X107814127Y-101610278D01*
X107724590Y-101506946D01*
X107724586Y-101506942D01*
X107609559Y-101433021D01*
X107478368Y-101394500D01*
X107478367Y-101394500D01*
X107341633Y-101394500D01*
X107341632Y-101394500D01*
X107210440Y-101433021D01*
X107095413Y-101506942D01*
X107095409Y-101506946D01*
X107005872Y-101610278D01*
X107005867Y-101610285D01*
X106949070Y-101734654D01*
X106949068Y-101734662D01*
X106929610Y-101870000D01*
X73660000Y-101870000D01*
X73660000Y-97500000D01*
X92090112Y-97500000D01*
X92109570Y-97635337D01*
X92109572Y-97635345D01*
X92166369Y-97759714D01*
X92166374Y-97759721D01*
X92255911Y-97863053D01*
X92255915Y-97863057D01*
X92316481Y-97901979D01*
X92370941Y-97936978D01*
X92436538Y-97956239D01*
X92502134Y-97975500D01*
X92502135Y-97975500D01*
X92638869Y-97975500D01*
X92770063Y-97936978D01*
X92885091Y-97863055D01*
X92974632Y-97759718D01*
X93031433Y-97635342D01*
X93050892Y-97500000D01*
X93031433Y-97364658D01*
X93019179Y-97337827D01*
X92974634Y-97240285D01*
X92974629Y-97240278D01*
X92885092Y-97136946D01*
X92885088Y-97136942D01*
X92770061Y-97063021D01*
X92638870Y-97024500D01*
X92638869Y-97024500D01*
X92502135Y-97024500D01*
X92502134Y-97024500D01*
X92370942Y-97063021D01*
X92255915Y-97136942D01*
X92255911Y-97136946D01*
X92166374Y-97240278D01*
X92166369Y-97240285D01*
X92109572Y-97364654D01*
X92109570Y-97364662D01*
X92090112Y-97500000D01*
X73660000Y-97500000D01*
X73660000Y-95840000D01*
X84989610Y-95840000D01*
X85009068Y-95975337D01*
X85009070Y-95975345D01*
X85065867Y-96099714D01*
X85065872Y-96099721D01*
X85155409Y-96203053D01*
X85155413Y-96203057D01*
X85215979Y-96241979D01*
X85270439Y-96276978D01*
X85336036Y-96296239D01*
X85401632Y-96315500D01*
X85401633Y-96315500D01*
X85538367Y-96315500D01*
X85669561Y-96276978D01*
X85784589Y-96203055D01*
X85874130Y-96099718D01*
X85930931Y-95975342D01*
X85950390Y-95840000D01*
X85930931Y-95704658D01*
X85889097Y-95613055D01*
X85874132Y-95580285D01*
X85874127Y-95580278D01*
X85784590Y-95476946D01*
X85784586Y-95476942D01*
X85669559Y-95403021D01*
X85538368Y-95364500D01*
X85538367Y-95364500D01*
X85401633Y-95364500D01*
X85401632Y-95364500D01*
X85270440Y-95403021D01*
X85155413Y-95476942D01*
X85155409Y-95476946D01*
X85065872Y-95580278D01*
X85065867Y-95580285D01*
X85009070Y-95704654D01*
X85009068Y-95704662D01*
X84989610Y-95840000D01*
X73660000Y-95840000D01*
X73660000Y-94880000D01*
X86249610Y-94880000D01*
X86269068Y-95015337D01*
X86269070Y-95015345D01*
X86325867Y-95139714D01*
X86325872Y-95139721D01*
X86415409Y-95243053D01*
X86415411Y-95243055D01*
X86425059Y-95249255D01*
X86445062Y-95262110D01*
X86490817Y-95314914D01*
X86500761Y-95384072D01*
X86471737Y-95447628D01*
X86445066Y-95470739D01*
X86435414Y-95476941D01*
X86435409Y-95476946D01*
X86345872Y-95580278D01*
X86345867Y-95580285D01*
X86289070Y-95704654D01*
X86289068Y-95704662D01*
X86269610Y-95840000D01*
X86289068Y-95975337D01*
X86289070Y-95975345D01*
X86345867Y-96099714D01*
X86345872Y-96099721D01*
X86435409Y-96203053D01*
X86435413Y-96203057D01*
X86495979Y-96241979D01*
X86550439Y-96276978D01*
X86616036Y-96296239D01*
X86681632Y-96315500D01*
X86681633Y-96315500D01*
X86818367Y-96315500D01*
X86949561Y-96276978D01*
X87064589Y-96203055D01*
X87154130Y-96099718D01*
X87210931Y-95975342D01*
X87230390Y-95840000D01*
X87529610Y-95840000D01*
X87549068Y-95975337D01*
X87549070Y-95975345D01*
X87605867Y-96099714D01*
X87605872Y-96099721D01*
X87695409Y-96203053D01*
X87695413Y-96203057D01*
X87755979Y-96241979D01*
X87810439Y-96276978D01*
X87876036Y-96296239D01*
X87941632Y-96315500D01*
X87941633Y-96315500D01*
X88078367Y-96315500D01*
X88209561Y-96276978D01*
X88324589Y-96203055D01*
X88414130Y-96099718D01*
X88470931Y-95975342D01*
X88490390Y-95840000D01*
X88470931Y-95704658D01*
X88429097Y-95613055D01*
X88414132Y-95580285D01*
X88414127Y-95580278D01*
X88324590Y-95476946D01*
X88324586Y-95476942D01*
X88209559Y-95403021D01*
X88078368Y-95364500D01*
X88078367Y-95364500D01*
X87941633Y-95364500D01*
X87941632Y-95364500D01*
X87810440Y-95403021D01*
X87695413Y-95476942D01*
X87695409Y-95476946D01*
X87605872Y-95580278D01*
X87605867Y-95580285D01*
X87549070Y-95704654D01*
X87549068Y-95704662D01*
X87529610Y-95840000D01*
X87230390Y-95840000D01*
X87210931Y-95704658D01*
X87169097Y-95613055D01*
X87154132Y-95580285D01*
X87154127Y-95580278D01*
X87064590Y-95476946D01*
X87064588Y-95476944D01*
X87034937Y-95457889D01*
X86989182Y-95405085D01*
X86979238Y-95335926D01*
X87008263Y-95272370D01*
X87034935Y-95249258D01*
X87044589Y-95243055D01*
X87134130Y-95139718D01*
X87190931Y-95015342D01*
X87210390Y-94880000D01*
X89429610Y-94880000D01*
X89449068Y-95015337D01*
X89449070Y-95015345D01*
X89505867Y-95139714D01*
X89505872Y-95139721D01*
X89595409Y-95243053D01*
X89595413Y-95243057D01*
X89655979Y-95281979D01*
X89710439Y-95316978D01*
X89774970Y-95335926D01*
X89841632Y-95355500D01*
X89841633Y-95355500D01*
X89978367Y-95355500D01*
X90109561Y-95316978D01*
X90213782Y-95250000D01*
X90729610Y-95250000D01*
X90749068Y-95385337D01*
X90749070Y-95385345D01*
X90805867Y-95509714D01*
X90805872Y-95509721D01*
X90895409Y-95613053D01*
X90895413Y-95613057D01*
X90955979Y-95651979D01*
X91010439Y-95686978D01*
X91053838Y-95699721D01*
X91141632Y-95725500D01*
X91141633Y-95725500D01*
X91278367Y-95725500D01*
X91409561Y-95686978D01*
X91524589Y-95613055D01*
X91614130Y-95509718D01*
X91645969Y-95440000D01*
X92619610Y-95440000D01*
X92639068Y-95575337D01*
X92639070Y-95575345D01*
X92695867Y-95699714D01*
X92695872Y-95699721D01*
X92785409Y-95803053D01*
X92785413Y-95803057D01*
X92842899Y-95840000D01*
X92900439Y-95876978D01*
X92966036Y-95896239D01*
X93031632Y-95915500D01*
X93031633Y-95915500D01*
X93168367Y-95915500D01*
X93299561Y-95876978D01*
X93414589Y-95803055D01*
X93504130Y-95699718D01*
X93560931Y-95575342D01*
X93580390Y-95440000D01*
X93560931Y-95304658D01*
X93535969Y-95250000D01*
X94449610Y-95250000D01*
X94469068Y-95385337D01*
X94469070Y-95385345D01*
X94525867Y-95509714D01*
X94525872Y-95509721D01*
X94615409Y-95613053D01*
X94615413Y-95613057D01*
X94675979Y-95651979D01*
X94730439Y-95686978D01*
X94773838Y-95699721D01*
X94861632Y-95725500D01*
X94861633Y-95725500D01*
X94998367Y-95725500D01*
X95129561Y-95686978D01*
X95244589Y-95613055D01*
X95334130Y-95509718D01*
X95390931Y-95385342D01*
X95410390Y-95250000D01*
X95390931Y-95114658D01*
X95373048Y-95075500D01*
X95334132Y-94990285D01*
X95334127Y-94990278D01*
X95244590Y-94886946D01*
X95244586Y-94886942D01*
X95129559Y-94813021D01*
X94998368Y-94774500D01*
X94998367Y-94774500D01*
X94861633Y-94774500D01*
X94861632Y-94774500D01*
X94730440Y-94813021D01*
X94615413Y-94886942D01*
X94615409Y-94886946D01*
X94525872Y-94990278D01*
X94525867Y-94990285D01*
X94469070Y-95114654D01*
X94469068Y-95114662D01*
X94449610Y-95250000D01*
X93535969Y-95250000D01*
X93528391Y-95233407D01*
X93518448Y-95164250D01*
X93528392Y-95130385D01*
X93580931Y-95015342D01*
X93600390Y-94880000D01*
X93580931Y-94744658D01*
X93568677Y-94717827D01*
X93524132Y-94620285D01*
X93524127Y-94620278D01*
X93506556Y-94600000D01*
X100989610Y-94600000D01*
X101009068Y-94735337D01*
X101009070Y-94735345D01*
X101065867Y-94859714D01*
X101065872Y-94859721D01*
X101155409Y-94963053D01*
X101155413Y-94963057D01*
X101197782Y-94990285D01*
X101270439Y-95036978D01*
X101336036Y-95056239D01*
X101401632Y-95075500D01*
X101401633Y-95075500D01*
X101538367Y-95075500D01*
X101669561Y-95036978D01*
X101784589Y-94963055D01*
X101874130Y-94859718D01*
X101930931Y-94735342D01*
X101950390Y-94600000D01*
X101930931Y-94464658D01*
X101903458Y-94404500D01*
X101874132Y-94340285D01*
X101874127Y-94340278D01*
X101784590Y-94236946D01*
X101784586Y-94236942D01*
X101669559Y-94163021D01*
X101538368Y-94124500D01*
X101538367Y-94124500D01*
X101401633Y-94124500D01*
X101401632Y-94124500D01*
X101270440Y-94163021D01*
X101155413Y-94236942D01*
X101155409Y-94236946D01*
X101065872Y-94340278D01*
X101065867Y-94340285D01*
X101009070Y-94464654D01*
X101009068Y-94464662D01*
X100989610Y-94600000D01*
X93506556Y-94600000D01*
X93434590Y-94516946D01*
X93434586Y-94516942D01*
X93319559Y-94443021D01*
X93188368Y-94404500D01*
X93188367Y-94404500D01*
X93051633Y-94404500D01*
X93051632Y-94404500D01*
X92920440Y-94443021D01*
X92805413Y-94516942D01*
X92805409Y-94516946D01*
X92715872Y-94620278D01*
X92715867Y-94620285D01*
X92659070Y-94744654D01*
X92659068Y-94744662D01*
X92639610Y-94880000D01*
X92659068Y-95015337D01*
X92659069Y-95015342D01*
X92691608Y-95086593D01*
X92701551Y-95155751D01*
X92691608Y-95189614D01*
X92639068Y-95304660D01*
X92639068Y-95304662D01*
X92619610Y-95440000D01*
X91645969Y-95440000D01*
X91670931Y-95385342D01*
X91690390Y-95250000D01*
X91670931Y-95114658D01*
X91653048Y-95075500D01*
X91614132Y-94990285D01*
X91614127Y-94990278D01*
X91524590Y-94886946D01*
X91524586Y-94886942D01*
X91409559Y-94813021D01*
X91278368Y-94774500D01*
X91278367Y-94774500D01*
X91141633Y-94774500D01*
X91141632Y-94774500D01*
X91010440Y-94813021D01*
X90895413Y-94886942D01*
X90895409Y-94886946D01*
X90805872Y-94990278D01*
X90805867Y-94990285D01*
X90749070Y-95114654D01*
X90749068Y-95114662D01*
X90729610Y-95250000D01*
X90213782Y-95250000D01*
X90224589Y-95243055D01*
X90314130Y-95139718D01*
X90370931Y-95015342D01*
X90390390Y-94880000D01*
X90370931Y-94744658D01*
X90358677Y-94717827D01*
X90314132Y-94620285D01*
X90314127Y-94620278D01*
X90224590Y-94516946D01*
X90224586Y-94516942D01*
X90109559Y-94443021D01*
X89978368Y-94404500D01*
X89978367Y-94404500D01*
X89841633Y-94404500D01*
X89841632Y-94404500D01*
X89710440Y-94443021D01*
X89595413Y-94516942D01*
X89595409Y-94516946D01*
X89505872Y-94620278D01*
X89505867Y-94620285D01*
X89449070Y-94744654D01*
X89449068Y-94744662D01*
X89429610Y-94880000D01*
X87210390Y-94880000D01*
X87190931Y-94744658D01*
X87178677Y-94717827D01*
X87134132Y-94620285D01*
X87134127Y-94620278D01*
X87044590Y-94516946D01*
X87044586Y-94516942D01*
X86929559Y-94443021D01*
X86798368Y-94404500D01*
X86798367Y-94404500D01*
X86661633Y-94404500D01*
X86661632Y-94404500D01*
X86530440Y-94443021D01*
X86415413Y-94516942D01*
X86415409Y-94516946D01*
X86325872Y-94620278D01*
X86325867Y-94620285D01*
X86269070Y-94744654D01*
X86269068Y-94744662D01*
X86249610Y-94880000D01*
X73660000Y-94880000D01*
X73660000Y-93210000D01*
X101049610Y-93210000D01*
X101069068Y-93345337D01*
X101069070Y-93345345D01*
X101125867Y-93469714D01*
X101125872Y-93469721D01*
X101215409Y-93573053D01*
X101215413Y-93573057D01*
X101275979Y-93611979D01*
X101330439Y-93646978D01*
X101396036Y-93666239D01*
X101461632Y-93685500D01*
X101461633Y-93685500D01*
X101598367Y-93685500D01*
X101729561Y-93646978D01*
X101844589Y-93573055D01*
X101934130Y-93469718D01*
X101990931Y-93345342D01*
X102010390Y-93210000D01*
X101990931Y-93074658D01*
X101978677Y-93047827D01*
X101934132Y-92950285D01*
X101934127Y-92950278D01*
X101844590Y-92846946D01*
X101844586Y-92846942D01*
X101729559Y-92773021D01*
X101598368Y-92734500D01*
X101598367Y-92734500D01*
X101461633Y-92734500D01*
X101461632Y-92734500D01*
X101330440Y-92773021D01*
X101215413Y-92846942D01*
X101215409Y-92846946D01*
X101125872Y-92950278D01*
X101125867Y-92950285D01*
X101069070Y-93074654D01*
X101069068Y-93074662D01*
X101049610Y-93210000D01*
X73660000Y-93210000D01*
X73660000Y-89662000D01*
X76481610Y-89662000D01*
X76501068Y-89797337D01*
X76501070Y-89797345D01*
X76557867Y-89921714D01*
X76557872Y-89921721D01*
X76647409Y-90025053D01*
X76647413Y-90025057D01*
X76707979Y-90063979D01*
X76762439Y-90098978D01*
X76828036Y-90118239D01*
X76893632Y-90137500D01*
X76893633Y-90137500D01*
X77030367Y-90137500D01*
X77161561Y-90098978D01*
X77276589Y-90025055D01*
X77366130Y-89921718D01*
X77422931Y-89797342D01*
X77442390Y-89662000D01*
X77422931Y-89526658D01*
X77410677Y-89499827D01*
X77366132Y-89402285D01*
X77366127Y-89402278D01*
X77276590Y-89298946D01*
X77276586Y-89298942D01*
X77161559Y-89225021D01*
X77030368Y-89186500D01*
X77030367Y-89186500D01*
X76893633Y-89186500D01*
X76893632Y-89186500D01*
X76762440Y-89225021D01*
X76647413Y-89298942D01*
X76647409Y-89298946D01*
X76557872Y-89402278D01*
X76557867Y-89402285D01*
X76501070Y-89526654D01*
X76501068Y-89526662D01*
X76481610Y-89662000D01*
X73660000Y-89662000D01*
X73660000Y-88742500D01*
X101069610Y-88742500D01*
X101089068Y-88877837D01*
X101089070Y-88877845D01*
X101145867Y-89002214D01*
X101145872Y-89002221D01*
X101235409Y-89105553D01*
X101235413Y-89105557D01*
X101253562Y-89117220D01*
X101350439Y-89179478D01*
X101374354Y-89186500D01*
X101481632Y-89218000D01*
X101481633Y-89218000D01*
X101618367Y-89218000D01*
X101749561Y-89179478D01*
X101864589Y-89105555D01*
X101954130Y-89002218D01*
X102010931Y-88877842D01*
X102030390Y-88742500D01*
X102010931Y-88607158D01*
X101998677Y-88580327D01*
X101954132Y-88482785D01*
X101954127Y-88482778D01*
X101864590Y-88379446D01*
X101864586Y-88379442D01*
X101749559Y-88305521D01*
X101618368Y-88267000D01*
X101618367Y-88267000D01*
X101481633Y-88267000D01*
X101481632Y-88267000D01*
X101350440Y-88305521D01*
X101235413Y-88379442D01*
X101235409Y-88379446D01*
X101145872Y-88482778D01*
X101145867Y-88482785D01*
X101089070Y-88607154D01*
X101089068Y-88607162D01*
X101069610Y-88742500D01*
X73660000Y-88742500D01*
X73660000Y-88150000D01*
X107749610Y-88150000D01*
X107769068Y-88285337D01*
X107769070Y-88285345D01*
X107825867Y-88409714D01*
X107825872Y-88409721D01*
X107915409Y-88513053D01*
X107915413Y-88513057D01*
X107975979Y-88551979D01*
X108030439Y-88586978D01*
X108086401Y-88603410D01*
X108161632Y-88625500D01*
X108161633Y-88625500D01*
X108298367Y-88625500D01*
X108429561Y-88586978D01*
X108544589Y-88513055D01*
X108634130Y-88409718D01*
X108690931Y-88285342D01*
X108710390Y-88150000D01*
X108690931Y-88014658D01*
X108678677Y-87987827D01*
X108634132Y-87890285D01*
X108634127Y-87890278D01*
X108628687Y-87884000D01*
X109980601Y-87884000D01*
X110000149Y-88082481D01*
X110058048Y-88273348D01*
X110152060Y-88449231D01*
X110152065Y-88449238D01*
X110278589Y-88603410D01*
X110385875Y-88691456D01*
X110432763Y-88729936D01*
X110432766Y-88729937D01*
X110432768Y-88729939D01*
X110608648Y-88823949D01*
X110608650Y-88823950D01*
X110608658Y-88823954D01*
X110608665Y-88823956D01*
X110609944Y-88824486D01*
X110610519Y-88824949D01*
X110614030Y-88826826D01*
X110613674Y-88827491D01*
X110664352Y-88868321D01*
X110686424Y-88934613D01*
X110669151Y-89002314D01*
X110618019Y-89049930D01*
X110597443Y-89058028D01*
X110580440Y-89063021D01*
X110465413Y-89136942D01*
X110465409Y-89136946D01*
X110375872Y-89240278D01*
X110375867Y-89240285D01*
X110319070Y-89364654D01*
X110319068Y-89364662D01*
X110299610Y-89500000D01*
X110319068Y-89635337D01*
X110319070Y-89635345D01*
X110375867Y-89759714D01*
X110375872Y-89759721D01*
X110465409Y-89863053D01*
X110465413Y-89863057D01*
X110525979Y-89901979D01*
X110580439Y-89936978D01*
X110646036Y-89956239D01*
X110711632Y-89975500D01*
X110711633Y-89975500D01*
X110848367Y-89975500D01*
X110979561Y-89936978D01*
X111094589Y-89863055D01*
X111184130Y-89759718D01*
X111240931Y-89635342D01*
X111260390Y-89500000D01*
X111240931Y-89364658D01*
X111210921Y-89298945D01*
X111184132Y-89240285D01*
X111184127Y-89240278D01*
X111094590Y-89136946D01*
X111094586Y-89136943D01*
X111063897Y-89117220D01*
X111018142Y-89064416D01*
X111008199Y-88995258D01*
X111037224Y-88931702D01*
X111096003Y-88893928D01*
X111118777Y-88889503D01*
X111196485Y-88881850D01*
X111387342Y-88823954D01*
X111387352Y-88823949D01*
X111563231Y-88729939D01*
X111563229Y-88729939D01*
X111563237Y-88729936D01*
X111717410Y-88603410D01*
X111843936Y-88449237D01*
X111890945Y-88361289D01*
X111937951Y-88273348D01*
X111937951Y-88273347D01*
X111937954Y-88273342D01*
X111995850Y-88082485D01*
X112015399Y-87884000D01*
X111995850Y-87685515D01*
X111937954Y-87494658D01*
X111937951Y-87494654D01*
X111937951Y-87494651D01*
X111843939Y-87318768D01*
X111843937Y-87318766D01*
X111843936Y-87318763D01*
X111799579Y-87264714D01*
X111717410Y-87164589D01*
X111563238Y-87038065D01*
X111563231Y-87038060D01*
X111387348Y-86944048D01*
X111387342Y-86944046D01*
X111196485Y-86886150D01*
X111196483Y-86886149D01*
X111196481Y-86886149D01*
X110998000Y-86866601D01*
X110799518Y-86886149D01*
X110608651Y-86944048D01*
X110432768Y-87038060D01*
X110432761Y-87038065D01*
X110278589Y-87164589D01*
X110152065Y-87318761D01*
X110152060Y-87318768D01*
X110058048Y-87494651D01*
X110000149Y-87685518D01*
X109980601Y-87884000D01*
X108628687Y-87884000D01*
X108544590Y-87786946D01*
X108544586Y-87786942D01*
X108429559Y-87713021D01*
X108298368Y-87674500D01*
X108298367Y-87674500D01*
X108161633Y-87674500D01*
X108161632Y-87674500D01*
X108030440Y-87713021D01*
X107915413Y-87786942D01*
X107915409Y-87786946D01*
X107825872Y-87890278D01*
X107825867Y-87890285D01*
X107769070Y-88014654D01*
X107769068Y-88014662D01*
X107749610Y-88150000D01*
X73660000Y-88150000D01*
X73660000Y-87630000D01*
X75211610Y-87630000D01*
X75231068Y-87765337D01*
X75231070Y-87765345D01*
X75287867Y-87889714D01*
X75287872Y-87889721D01*
X75377409Y-87993053D01*
X75377413Y-87993057D01*
X75437979Y-88031979D01*
X75492439Y-88066978D01*
X75545251Y-88082485D01*
X75623632Y-88105500D01*
X75623633Y-88105500D01*
X75760367Y-88105500D01*
X75891561Y-88066978D01*
X76006589Y-87993055D01*
X76096130Y-87889718D01*
X76152931Y-87765342D01*
X76172390Y-87630000D01*
X76481610Y-87630000D01*
X76501068Y-87765337D01*
X76501070Y-87765345D01*
X76557867Y-87889714D01*
X76557872Y-87889721D01*
X76647409Y-87993053D01*
X76647413Y-87993057D01*
X76707979Y-88031979D01*
X76762439Y-88066978D01*
X76815251Y-88082485D01*
X76893632Y-88105500D01*
X76893633Y-88105500D01*
X77030367Y-88105500D01*
X77161561Y-88066978D01*
X77276589Y-87993055D01*
X77366130Y-87889718D01*
X77422931Y-87765342D01*
X77442390Y-87630000D01*
X77751610Y-87630000D01*
X77771068Y-87765337D01*
X77771070Y-87765345D01*
X77827867Y-87889714D01*
X77827872Y-87889721D01*
X77917409Y-87993053D01*
X77917413Y-87993057D01*
X77977979Y-88031979D01*
X78032439Y-88066978D01*
X78085251Y-88082485D01*
X78163632Y-88105500D01*
X78163633Y-88105500D01*
X78300367Y-88105500D01*
X78431561Y-88066978D01*
X78546589Y-87993055D01*
X78636130Y-87889718D01*
X78692931Y-87765342D01*
X78712390Y-87630000D01*
X78692931Y-87494658D01*
X78680677Y-87467827D01*
X78636132Y-87370285D01*
X78636127Y-87370278D01*
X78546590Y-87266946D01*
X78546586Y-87266942D01*
X78431559Y-87193021D01*
X78300368Y-87154500D01*
X78300367Y-87154500D01*
X78163633Y-87154500D01*
X78163632Y-87154500D01*
X78032440Y-87193021D01*
X77917413Y-87266942D01*
X77917409Y-87266946D01*
X77827872Y-87370278D01*
X77827867Y-87370285D01*
X77771070Y-87494654D01*
X77771068Y-87494662D01*
X77751610Y-87630000D01*
X77442390Y-87630000D01*
X77422931Y-87494658D01*
X77410677Y-87467827D01*
X77366132Y-87370285D01*
X77366127Y-87370278D01*
X77276590Y-87266946D01*
X77276586Y-87266942D01*
X77161559Y-87193021D01*
X77030368Y-87154500D01*
X77030367Y-87154500D01*
X76893633Y-87154500D01*
X76893632Y-87154500D01*
X76762440Y-87193021D01*
X76647413Y-87266942D01*
X76647409Y-87266946D01*
X76557872Y-87370278D01*
X76557867Y-87370285D01*
X76501070Y-87494654D01*
X76501068Y-87494662D01*
X76481610Y-87630000D01*
X76172390Y-87630000D01*
X76152931Y-87494658D01*
X76140677Y-87467827D01*
X76096132Y-87370285D01*
X76096127Y-87370278D01*
X76006590Y-87266946D01*
X76006586Y-87266942D01*
X75891559Y-87193021D01*
X75760368Y-87154500D01*
X75760367Y-87154500D01*
X75623633Y-87154500D01*
X75623632Y-87154500D01*
X75492440Y-87193021D01*
X75377413Y-87266942D01*
X75377409Y-87266946D01*
X75287872Y-87370278D01*
X75287867Y-87370285D01*
X75231070Y-87494654D01*
X75231068Y-87494662D01*
X75211610Y-87630000D01*
X73660000Y-87630000D01*
X73660000Y-85405000D01*
X82040611Y-85405000D01*
X82060121Y-85603095D01*
X82117903Y-85793574D01*
X82211731Y-85969114D01*
X82211735Y-85969121D01*
X82338011Y-86122988D01*
X82491878Y-86249264D01*
X82491885Y-86249268D01*
X82582931Y-86297933D01*
X82667427Y-86343097D01*
X82857907Y-86400879D01*
X83056000Y-86420389D01*
X83254093Y-86400879D01*
X83444573Y-86343097D01*
X83620120Y-86249265D01*
X83773988Y-86122988D01*
X83900265Y-85969120D01*
X83994097Y-85793573D01*
X84051879Y-85603093D01*
X84071389Y-85405000D01*
X84330611Y-85405000D01*
X84350121Y-85603095D01*
X84407903Y-85793574D01*
X84501731Y-85969114D01*
X84501735Y-85969121D01*
X84628011Y-86122988D01*
X84781878Y-86249264D01*
X84781885Y-86249268D01*
X84872931Y-86297933D01*
X84957427Y-86343097D01*
X85147907Y-86400879D01*
X85224548Y-86408427D01*
X85289336Y-86434587D01*
X85329695Y-86491621D01*
X85332812Y-86561422D01*
X85297698Y-86621827D01*
X85279436Y-86636144D01*
X85270415Y-86641941D01*
X85270409Y-86641946D01*
X85180872Y-86745278D01*
X85180867Y-86745285D01*
X85124070Y-86869654D01*
X85124068Y-86869662D01*
X85104610Y-87005000D01*
X85124068Y-87140337D01*
X85124070Y-87140345D01*
X85180867Y-87264714D01*
X85180872Y-87264721D01*
X85270409Y-87368053D01*
X85270413Y-87368057D01*
X85330979Y-87406979D01*
X85385439Y-87441978D01*
X85451036Y-87461239D01*
X85516632Y-87480500D01*
X85516633Y-87480500D01*
X85653367Y-87480500D01*
X85784561Y-87441978D01*
X85887226Y-87376000D01*
X86260610Y-87376000D01*
X86280068Y-87511337D01*
X86280070Y-87511345D01*
X86336867Y-87635714D01*
X86336872Y-87635721D01*
X86426409Y-87739053D01*
X86426413Y-87739057D01*
X86486979Y-87777979D01*
X86541439Y-87812978D01*
X86607036Y-87832239D01*
X86672632Y-87851500D01*
X86672633Y-87851500D01*
X86809367Y-87851500D01*
X86940561Y-87812978D01*
X87055589Y-87739055D01*
X87145130Y-87635718D01*
X87201931Y-87511342D01*
X87221390Y-87376000D01*
X92610610Y-87376000D01*
X92630068Y-87511337D01*
X92630070Y-87511345D01*
X92686867Y-87635714D01*
X92686872Y-87635721D01*
X92776409Y-87739053D01*
X92776413Y-87739057D01*
X92836979Y-87777979D01*
X92891439Y-87812978D01*
X92957036Y-87832239D01*
X93022632Y-87851500D01*
X93022633Y-87851500D01*
X93159367Y-87851500D01*
X93290561Y-87812978D01*
X93405589Y-87739055D01*
X93495130Y-87635718D01*
X93551931Y-87511342D01*
X93571390Y-87376000D01*
X93551931Y-87240658D01*
X93517192Y-87164590D01*
X93495132Y-87116285D01*
X93495127Y-87116278D01*
X93405590Y-87012946D01*
X93405586Y-87012942D01*
X93299331Y-86944658D01*
X93290561Y-86939022D01*
X93290560Y-86939021D01*
X93290559Y-86939021D01*
X93159368Y-86900500D01*
X93159367Y-86900500D01*
X93022633Y-86900500D01*
X93022632Y-86900500D01*
X92891440Y-86939021D01*
X92776413Y-87012942D01*
X92776409Y-87012946D01*
X92686872Y-87116278D01*
X92686867Y-87116285D01*
X92630070Y-87240654D01*
X92630068Y-87240662D01*
X92610610Y-87376000D01*
X87221390Y-87376000D01*
X87201931Y-87240658D01*
X87167192Y-87164590D01*
X87145132Y-87116285D01*
X87145127Y-87116278D01*
X87055590Y-87012946D01*
X87055586Y-87012942D01*
X86949331Y-86944658D01*
X86940561Y-86939022D01*
X86940560Y-86939021D01*
X86940559Y-86939021D01*
X86809368Y-86900500D01*
X86809367Y-86900500D01*
X86672633Y-86900500D01*
X86672632Y-86900500D01*
X86541440Y-86939021D01*
X86426413Y-87012942D01*
X86426409Y-87012946D01*
X86336872Y-87116278D01*
X86336867Y-87116285D01*
X86280070Y-87240654D01*
X86280068Y-87240662D01*
X86260610Y-87376000D01*
X85887226Y-87376000D01*
X85899589Y-87368055D01*
X85989130Y-87264718D01*
X86045931Y-87140342D01*
X86065390Y-87005000D01*
X86045931Y-86869658D01*
X86000288Y-86769714D01*
X85989132Y-86745285D01*
X85989127Y-86745278D01*
X85899590Y-86641946D01*
X85899586Y-86641942D01*
X85784560Y-86568021D01*
X85771593Y-86564214D01*
X85712816Y-86526438D01*
X85683792Y-86462882D01*
X85693736Y-86393724D01*
X85739492Y-86340920D01*
X85748077Y-86335879D01*
X85820855Y-86296978D01*
X85910120Y-86249265D01*
X86063988Y-86122988D01*
X86190265Y-85969120D01*
X86284097Y-85793573D01*
X86341879Y-85603093D01*
X86361389Y-85405000D01*
X93470611Y-85405000D01*
X93490121Y-85603095D01*
X93547903Y-85793574D01*
X93641731Y-85969114D01*
X93641735Y-85969121D01*
X93768011Y-86122988D01*
X93921878Y-86249264D01*
X93921885Y-86249268D01*
X94012931Y-86297933D01*
X94097427Y-86343097D01*
X94157757Y-86361398D01*
X94287905Y-86400879D01*
X94294754Y-86401553D01*
X94305832Y-86402644D01*
X94370619Y-86428802D01*
X94410980Y-86485835D01*
X94414099Y-86555635D01*
X94378986Y-86616041D01*
X94342473Y-86637062D01*
X94343511Y-86639335D01*
X94335440Y-86643020D01*
X94220413Y-86716942D01*
X94220409Y-86716946D01*
X94130872Y-86820278D01*
X94130867Y-86820285D01*
X94074070Y-86944654D01*
X94074068Y-86944662D01*
X94054610Y-87080000D01*
X94074068Y-87215337D01*
X94074070Y-87215345D01*
X94130867Y-87339714D01*
X94130872Y-87339721D01*
X94220409Y-87443053D01*
X94220413Y-87443057D01*
X94278677Y-87480500D01*
X94335439Y-87516978D01*
X94401036Y-87536239D01*
X94466632Y-87555500D01*
X94466633Y-87555500D01*
X94603367Y-87555500D01*
X94734561Y-87516978D01*
X94849589Y-87443055D01*
X94939130Y-87339718D01*
X94995931Y-87215342D01*
X95015390Y-87080000D01*
X94995931Y-86944658D01*
X94963230Y-86873053D01*
X94939132Y-86820285D01*
X94939127Y-86820278D01*
X94849590Y-86716946D01*
X94849586Y-86716942D01*
X94734560Y-86643021D01*
X94701906Y-86633433D01*
X94643129Y-86595657D01*
X94614105Y-86532101D01*
X94624049Y-86462943D01*
X94669805Y-86410139D01*
X94700839Y-86395799D01*
X94874573Y-86343097D01*
X95050120Y-86249265D01*
X95203988Y-86122988D01*
X95330265Y-85969120D01*
X95424097Y-85793573D01*
X95481879Y-85603093D01*
X95501389Y-85405000D01*
X95760611Y-85405000D01*
X95780121Y-85603095D01*
X95837903Y-85793574D01*
X95931731Y-85969114D01*
X95931735Y-85969121D01*
X96058011Y-86122988D01*
X96211878Y-86249264D01*
X96211885Y-86249268D01*
X96302931Y-86297933D01*
X96387427Y-86343097D01*
X96577907Y-86400879D01*
X96776000Y-86420389D01*
X96974093Y-86400879D01*
X97164573Y-86343097D01*
X97269196Y-86287174D01*
X97337597Y-86272933D01*
X97402841Y-86297933D01*
X97444212Y-86354237D01*
X97450386Y-86414179D01*
X97436610Y-86509999D01*
X97456068Y-86645337D01*
X97456070Y-86645345D01*
X97512867Y-86769714D01*
X97512872Y-86769721D01*
X97602409Y-86873053D01*
X97602413Y-86873057D01*
X97622787Y-86886150D01*
X97717439Y-86946978D01*
X97783036Y-86966239D01*
X97848632Y-86985500D01*
X97848633Y-86985500D01*
X97985367Y-86985500D01*
X98116561Y-86946978D01*
X98231589Y-86873055D01*
X98321130Y-86769718D01*
X98377931Y-86645342D01*
X98397390Y-86510000D01*
X98377931Y-86374658D01*
X98365677Y-86347827D01*
X98321132Y-86250285D01*
X98321127Y-86250278D01*
X98231590Y-86146946D01*
X98231586Y-86146942D01*
X98116559Y-86073021D01*
X97985368Y-86034500D01*
X97985367Y-86034500D01*
X97848633Y-86034500D01*
X97848630Y-86034500D01*
X97819948Y-86042922D01*
X97750079Y-86042922D01*
X97691301Y-86005147D01*
X97662276Y-85941592D01*
X97672220Y-85872433D01*
X97675656Y-85865492D01*
X97678591Y-85860000D01*
X107729610Y-85860000D01*
X107749068Y-85995337D01*
X107749070Y-85995345D01*
X107805867Y-86119714D01*
X107805872Y-86119721D01*
X107895409Y-86223053D01*
X107895413Y-86223057D01*
X107937782Y-86250285D01*
X108010439Y-86296978D01*
X108076036Y-86316239D01*
X108141632Y-86335500D01*
X108141633Y-86335500D01*
X108278367Y-86335500D01*
X108409561Y-86296978D01*
X108524589Y-86223055D01*
X108614130Y-86119718D01*
X108670931Y-85995342D01*
X108690390Y-85860000D01*
X108670931Y-85724658D01*
X108615414Y-85603093D01*
X108614132Y-85600285D01*
X108614127Y-85600278D01*
X108524590Y-85496946D01*
X108524586Y-85496942D01*
X108433736Y-85438558D01*
X108409561Y-85423022D01*
X108409560Y-85423021D01*
X108409559Y-85423021D01*
X108278368Y-85384500D01*
X108278367Y-85384500D01*
X108141633Y-85384500D01*
X108141632Y-85384500D01*
X108010440Y-85423021D01*
X107895413Y-85496942D01*
X107895409Y-85496946D01*
X107805872Y-85600278D01*
X107805867Y-85600285D01*
X107749070Y-85724654D01*
X107749068Y-85724662D01*
X107729610Y-85860000D01*
X97678591Y-85860000D01*
X97714096Y-85793574D01*
X97714097Y-85793573D01*
X97771879Y-85603093D01*
X97791389Y-85405000D01*
X97780210Y-85291500D01*
X99881258Y-85291500D01*
X99900716Y-85426837D01*
X99900718Y-85426845D01*
X99957515Y-85551214D01*
X99957520Y-85551221D01*
X100047057Y-85654553D01*
X100047061Y-85654557D01*
X100107627Y-85693479D01*
X100162087Y-85728478D01*
X100178673Y-85733348D01*
X100293280Y-85767000D01*
X100293281Y-85767000D01*
X100430015Y-85767000D01*
X100561209Y-85728478D01*
X100676237Y-85654555D01*
X100765778Y-85551218D01*
X100822579Y-85426842D01*
X100834490Y-85344000D01*
X109980601Y-85344000D01*
X110000149Y-85542481D01*
X110000149Y-85542483D01*
X110000150Y-85542485D01*
X110018535Y-85603093D01*
X110058048Y-85733348D01*
X110152060Y-85909231D01*
X110152065Y-85909238D01*
X110278589Y-86063410D01*
X110347205Y-86119721D01*
X110432763Y-86189936D01*
X110432766Y-86189937D01*
X110432768Y-86189939D01*
X110608651Y-86283951D01*
X110608654Y-86283951D01*
X110608658Y-86283954D01*
X110799515Y-86341850D01*
X110998000Y-86361399D01*
X111196485Y-86341850D01*
X111387342Y-86283954D01*
X111452241Y-86249265D01*
X111501276Y-86223055D01*
X111563237Y-86189936D01*
X111717410Y-86063410D01*
X111843936Y-85909237D01*
X111905760Y-85793573D01*
X111937951Y-85733348D01*
X111937951Y-85733347D01*
X111937954Y-85733342D01*
X111995850Y-85542485D01*
X112015399Y-85344000D01*
X111995850Y-85145515D01*
X111937954Y-84954658D01*
X111937951Y-84954654D01*
X111937951Y-84954651D01*
X111843939Y-84778768D01*
X111843937Y-84778766D01*
X111843936Y-84778763D01*
X111783051Y-84704574D01*
X111717410Y-84624589D01*
X111563238Y-84498065D01*
X111563231Y-84498060D01*
X111387348Y-84404048D01*
X111387342Y-84404046D01*
X111196485Y-84346150D01*
X111196483Y-84346149D01*
X111196481Y-84346149D01*
X110998000Y-84326601D01*
X110799518Y-84346149D01*
X110608651Y-84404048D01*
X110432768Y-84498060D01*
X110432761Y-84498065D01*
X110278589Y-84624589D01*
X110152065Y-84778761D01*
X110152060Y-84778768D01*
X110058048Y-84954651D01*
X110000149Y-85145518D01*
X109980601Y-85344000D01*
X100834490Y-85344000D01*
X100842038Y-85291500D01*
X100822579Y-85156158D01*
X100790112Y-85085065D01*
X100765780Y-85031785D01*
X100765775Y-85031778D01*
X100676238Y-84928446D01*
X100676234Y-84928442D01*
X100561207Y-84854521D01*
X100430016Y-84816000D01*
X100430015Y-84816000D01*
X100293281Y-84816000D01*
X100293280Y-84816000D01*
X100162088Y-84854521D01*
X100047061Y-84928442D01*
X100047057Y-84928446D01*
X99957520Y-85031778D01*
X99957515Y-85031785D01*
X99900718Y-85156154D01*
X99900716Y-85156162D01*
X99881258Y-85291500D01*
X97780210Y-85291500D01*
X97771879Y-85206907D01*
X97714097Y-85016427D01*
X97681077Y-84954651D01*
X97620268Y-84840885D01*
X97620264Y-84840878D01*
X97493988Y-84687011D01*
X97340121Y-84560735D01*
X97340114Y-84560731D01*
X97164574Y-84466903D01*
X96974095Y-84409121D01*
X96776000Y-84389611D01*
X96577904Y-84409121D01*
X96387425Y-84466903D01*
X96211885Y-84560731D01*
X96211878Y-84560735D01*
X96058011Y-84687011D01*
X95931735Y-84840878D01*
X95931731Y-84840885D01*
X95837903Y-85016425D01*
X95780121Y-85206904D01*
X95760611Y-85405000D01*
X95501389Y-85405000D01*
X95481879Y-85206907D01*
X95424097Y-85016427D01*
X95391077Y-84954651D01*
X95330268Y-84840885D01*
X95330264Y-84840878D01*
X95203988Y-84687011D01*
X95050121Y-84560735D01*
X95050114Y-84560731D01*
X94895887Y-84478295D01*
X94846043Y-84429333D01*
X94830582Y-84361195D01*
X94854414Y-84295516D01*
X94909971Y-84253147D01*
X94919403Y-84249960D01*
X94929561Y-84246978D01*
X95044589Y-84173055D01*
X95134130Y-84069718D01*
X95190931Y-83945342D01*
X95210390Y-83810000D01*
X95190931Y-83674658D01*
X95178677Y-83647827D01*
X95134132Y-83550285D01*
X95134127Y-83550278D01*
X95044590Y-83446946D01*
X95044586Y-83446942D01*
X94953736Y-83388558D01*
X94929561Y-83373022D01*
X94929560Y-83373021D01*
X94929559Y-83373021D01*
X94798368Y-83334500D01*
X94798367Y-83334500D01*
X94661633Y-83334500D01*
X94661632Y-83334500D01*
X94530440Y-83373021D01*
X94415413Y-83446942D01*
X94415409Y-83446946D01*
X94325872Y-83550278D01*
X94325867Y-83550285D01*
X94269070Y-83674654D01*
X94269068Y-83674662D01*
X94249610Y-83810000D01*
X94269068Y-83945337D01*
X94269070Y-83945345D01*
X94325867Y-84069714D01*
X94325872Y-84069721D01*
X94415409Y-84173053D01*
X94415411Y-84173055D01*
X94417025Y-84174092D01*
X94418281Y-84175542D01*
X94422116Y-84178865D01*
X94421638Y-84179416D01*
X94462779Y-84226897D01*
X94472722Y-84296055D01*
X94443696Y-84359611D01*
X94384918Y-84397385D01*
X94362138Y-84401810D01*
X94287904Y-84409121D01*
X94097425Y-84466903D01*
X93921885Y-84560731D01*
X93921878Y-84560735D01*
X93768011Y-84687011D01*
X93641735Y-84840878D01*
X93641731Y-84840885D01*
X93547903Y-85016425D01*
X93490121Y-85206904D01*
X93470611Y-85405000D01*
X86361389Y-85405000D01*
X86341879Y-85206907D01*
X86284097Y-85016427D01*
X86251077Y-84954651D01*
X86190268Y-84840885D01*
X86190264Y-84840878D01*
X86063988Y-84687011D01*
X85910121Y-84560735D01*
X85910114Y-84560731D01*
X85734574Y-84466903D01*
X85657358Y-84443479D01*
X85598919Y-84405181D01*
X85570463Y-84341369D01*
X85581024Y-84272302D01*
X85626313Y-84220505D01*
X85684589Y-84183055D01*
X85774130Y-84079718D01*
X85830931Y-83955342D01*
X85850390Y-83820000D01*
X85830931Y-83684658D01*
X85815073Y-83649934D01*
X85774132Y-83560285D01*
X85774127Y-83560278D01*
X85684590Y-83456946D01*
X85684586Y-83456942D01*
X85569559Y-83383021D01*
X85438368Y-83344500D01*
X85438367Y-83344500D01*
X85301633Y-83344500D01*
X85301632Y-83344500D01*
X85170440Y-83383021D01*
X85055413Y-83456942D01*
X85055409Y-83456946D01*
X84965872Y-83560278D01*
X84965867Y-83560285D01*
X84909070Y-83684654D01*
X84909068Y-83684662D01*
X84889610Y-83820000D01*
X84909068Y-83955337D01*
X84909070Y-83955345D01*
X84965867Y-84079714D01*
X84965872Y-84079721D01*
X85055409Y-84183053D01*
X85055413Y-84183057D01*
X85098291Y-84210612D01*
X85144047Y-84263415D01*
X85153991Y-84332574D01*
X85124967Y-84396130D01*
X85067249Y-84433588D01*
X84957425Y-84466903D01*
X84781885Y-84560731D01*
X84781878Y-84560735D01*
X84628011Y-84687011D01*
X84501735Y-84840878D01*
X84501731Y-84840885D01*
X84407903Y-85016425D01*
X84350121Y-85206904D01*
X84330611Y-85405000D01*
X84071389Y-85405000D01*
X84051879Y-85206907D01*
X83994097Y-85016427D01*
X83961077Y-84954651D01*
X83900268Y-84840885D01*
X83900264Y-84840878D01*
X83773988Y-84687011D01*
X83620121Y-84560735D01*
X83620114Y-84560731D01*
X83444574Y-84466903D01*
X83254095Y-84409121D01*
X83056000Y-84389611D01*
X82857904Y-84409121D01*
X82667425Y-84466903D01*
X82491885Y-84560731D01*
X82491878Y-84560735D01*
X82338011Y-84687011D01*
X82211735Y-84840878D01*
X82211731Y-84840885D01*
X82117903Y-85016425D01*
X82060121Y-85206904D01*
X82040611Y-85405000D01*
X73660000Y-85405000D01*
X73660000Y-81651917D01*
X73679685Y-81584878D01*
X73732489Y-81539123D01*
X73801647Y-81529179D01*
X73847747Y-81545558D01*
X73876910Y-81563038D01*
X73876914Y-81563040D01*
X73876915Y-81563041D01*
X74028229Y-81643920D01*
X74028233Y-81643922D01*
X74028252Y-81643932D01*
X74073086Y-81665138D01*
X74095544Y-81674441D01*
X74142263Y-81691158D01*
X74306486Y-81740974D01*
X74354611Y-81753028D01*
X74378452Y-81757770D01*
X74427516Y-81765048D01*
X74604390Y-81782469D01*
X74629139Y-81784294D01*
X74641293Y-81784891D01*
X74666093Y-81785500D01*
X80003254Y-81785500D01*
X80070293Y-81805185D01*
X80090935Y-81821819D01*
X80625355Y-82356239D01*
X80643315Y-82373340D01*
X80648564Y-82378097D01*
X80652346Y-82381526D01*
X80671121Y-82397721D01*
X80797532Y-82501465D01*
X80808515Y-82510478D01*
X80848365Y-82540032D01*
X80868577Y-82553537D01*
X80868582Y-82553540D01*
X80868588Y-82553544D01*
X80911120Y-82579036D01*
X80911128Y-82579041D01*
X81062442Y-82659920D01*
X81062446Y-82659922D01*
X81062465Y-82659932D01*
X81107299Y-82681138D01*
X81129757Y-82690441D01*
X81176476Y-82707158D01*
X81340699Y-82756974D01*
X81388824Y-82769028D01*
X81412665Y-82773770D01*
X81461729Y-82781048D01*
X81638604Y-82798469D01*
X81663353Y-82800294D01*
X81675507Y-82800891D01*
X81700307Y-82801500D01*
X86353254Y-82801500D01*
X86420293Y-82821185D01*
X86440935Y-82837819D01*
X86580181Y-82977065D01*
X86613666Y-83038388D01*
X86616500Y-83064746D01*
X86616500Y-84191256D01*
X86618056Y-84230877D01*
X86619581Y-84250274D01*
X86624247Y-84289708D01*
X86638298Y-84378417D01*
X86638299Y-84378421D01*
X86656818Y-84455557D01*
X86668803Y-84492442D01*
X86686221Y-84534493D01*
X86699153Y-84565712D01*
X86699163Y-84565735D01*
X86735438Y-84636926D01*
X86735450Y-84636948D01*
X86776891Y-84704574D01*
X86776903Y-84704592D01*
X86799695Y-84735961D01*
X86851207Y-84796272D01*
X86851223Y-84796289D01*
X86907709Y-84852775D01*
X86907725Y-84852790D01*
X86968040Y-84904305D01*
X86999424Y-84927107D01*
X87067056Y-84968552D01*
X87138270Y-85004838D01*
X87211552Y-85035193D01*
X87211555Y-85035194D01*
X87211560Y-85035196D01*
X87231242Y-85041590D01*
X87248449Y-85047182D01*
X87325586Y-85065702D01*
X87414283Y-85079750D01*
X87453687Y-85084414D01*
X87473084Y-85085941D01*
X87473098Y-85085941D01*
X87473104Y-85085942D01*
X87512746Y-85087500D01*
X87512756Y-85087500D01*
X92443775Y-85087500D01*
X92443788Y-85087500D01*
X92493346Y-85085065D01*
X92493362Y-85085063D01*
X92493367Y-85085063D01*
X92495054Y-85084896D01*
X92517536Y-85082682D01*
X92566601Y-85075403D01*
X92627635Y-85063262D01*
X92722461Y-85034496D01*
X92767157Y-85015982D01*
X92854542Y-84969274D01*
X92895929Y-84941621D01*
X92972537Y-84878751D01*
X93006751Y-84844537D01*
X93069621Y-84767929D01*
X93097274Y-84726542D01*
X93143982Y-84639157D01*
X93162496Y-84594461D01*
X93191261Y-84499638D01*
X93203402Y-84438606D01*
X93210682Y-84389532D01*
X93213065Y-84365339D01*
X93215500Y-84315787D01*
X93215500Y-83064746D01*
X93235185Y-82997707D01*
X93251819Y-82977065D01*
X93391065Y-82837819D01*
X93452388Y-82804334D01*
X93455494Y-82804000D01*
X109980601Y-82804000D01*
X110000149Y-83002481D01*
X110058048Y-83193348D01*
X110152060Y-83369231D01*
X110152063Y-83369235D01*
X110152064Y-83369237D01*
X110155170Y-83373022D01*
X110278589Y-83523410D01*
X110323522Y-83560285D01*
X110432763Y-83649936D01*
X110432766Y-83649937D01*
X110432768Y-83649939D01*
X110608651Y-83743951D01*
X110608654Y-83743951D01*
X110608658Y-83743954D01*
X110799515Y-83801850D01*
X110998000Y-83821399D01*
X111196485Y-83801850D01*
X111387342Y-83743954D01*
X111563237Y-83649936D01*
X111717410Y-83523410D01*
X111843936Y-83369237D01*
X111937954Y-83193342D01*
X111995850Y-83002485D01*
X112015399Y-82804000D01*
X111995850Y-82605515D01*
X111937954Y-82414658D01*
X111937951Y-82414654D01*
X111937951Y-82414651D01*
X111843939Y-82238768D01*
X111843937Y-82238766D01*
X111843936Y-82238763D01*
X111778196Y-82158658D01*
X111717410Y-82084589D01*
X111572573Y-81965726D01*
X111563237Y-81958064D01*
X111563235Y-81958063D01*
X111563231Y-81958060D01*
X111387348Y-81864048D01*
X111387342Y-81864046D01*
X111196485Y-81806150D01*
X111196483Y-81806149D01*
X111196481Y-81806149D01*
X110998000Y-81786601D01*
X110799518Y-81806149D01*
X110608651Y-81864048D01*
X110432768Y-81958060D01*
X110432761Y-81958065D01*
X110278589Y-82084589D01*
X110152065Y-82238761D01*
X110152060Y-82238768D01*
X110058048Y-82414651D01*
X110000149Y-82605518D01*
X109980601Y-82804000D01*
X93455494Y-82804000D01*
X93478746Y-82801500D01*
X99035905Y-82801500D01*
X99038722Y-82801491D01*
X99038873Y-82801490D01*
X99038897Y-82801490D01*
X99039742Y-82801484D01*
X99040527Y-82801480D01*
X99043236Y-82801456D01*
X99052891Y-82801341D01*
X99064481Y-82801205D01*
X99070338Y-82801102D01*
X99073246Y-82801034D01*
X99079245Y-82800858D01*
X99100569Y-82800106D01*
X99103509Y-82799994D01*
X99104896Y-82799937D01*
X99105746Y-82799899D01*
X99107790Y-82799810D01*
X99173109Y-82796734D01*
X99606900Y-82776311D01*
X99638901Y-82773784D01*
X99654539Y-82772048D01*
X99686290Y-82767499D01*
X99801926Y-82747170D01*
X99864263Y-82732080D01*
X99894258Y-82722769D01*
X99894267Y-82722765D01*
X99894272Y-82722764D01*
X99910656Y-82716512D01*
X99954199Y-82699899D01*
X100053794Y-82654465D01*
X100110351Y-82624191D01*
X100137044Y-82607642D01*
X100189302Y-82570456D01*
X100274285Y-82501460D01*
X100321413Y-82457957D01*
X100343092Y-82435234D01*
X100384341Y-82386101D01*
X100449264Y-82297967D01*
X100483961Y-82244000D01*
X100499235Y-82216558D01*
X100526806Y-82158658D01*
X100567504Y-82057041D01*
X100572446Y-82042000D01*
X105183610Y-82042000D01*
X105203068Y-82177337D01*
X105203070Y-82177345D01*
X105259867Y-82301714D01*
X105259872Y-82301721D01*
X105349409Y-82405053D01*
X105349413Y-82405057D01*
X105396363Y-82435229D01*
X105464439Y-82478978D01*
X105530036Y-82498239D01*
X105595632Y-82517500D01*
X105595633Y-82517500D01*
X105732367Y-82517500D01*
X105863561Y-82478978D01*
X105978589Y-82405055D01*
X106068130Y-82301718D01*
X106069845Y-82297964D01*
X106094490Y-82243997D01*
X106124931Y-82177342D01*
X106144390Y-82042000D01*
X106124931Y-81906658D01*
X106086186Y-81821819D01*
X106068132Y-81782285D01*
X106068127Y-81782278D01*
X105978590Y-81678946D01*
X105978586Y-81678942D01*
X105863559Y-81605021D01*
X105732368Y-81566500D01*
X105732367Y-81566500D01*
X105595633Y-81566500D01*
X105595632Y-81566500D01*
X105464440Y-81605021D01*
X105349413Y-81678942D01*
X105349409Y-81678946D01*
X105259872Y-81782278D01*
X105259867Y-81782285D01*
X105203070Y-81906654D01*
X105203068Y-81906662D01*
X105183610Y-82042000D01*
X100572446Y-82042000D01*
X100587524Y-81996112D01*
X100595415Y-81965714D01*
X100607562Y-81902719D01*
X100622432Y-81786248D01*
X100625484Y-81754290D01*
X100626482Y-81738586D01*
X100627500Y-81706526D01*
X100627500Y-80010000D01*
X105437610Y-80010000D01*
X105457068Y-80145337D01*
X105457070Y-80145345D01*
X105513867Y-80269714D01*
X105513872Y-80269721D01*
X105603409Y-80373053D01*
X105603413Y-80373057D01*
X105663979Y-80411979D01*
X105718439Y-80446978D01*
X105771251Y-80462485D01*
X105849632Y-80485500D01*
X105849633Y-80485500D01*
X105986367Y-80485500D01*
X106117561Y-80446978D01*
X106232589Y-80373055D01*
X106322130Y-80269718D01*
X106324741Y-80264000D01*
X107469610Y-80264000D01*
X107489068Y-80399337D01*
X107489070Y-80399345D01*
X107545867Y-80523714D01*
X107545872Y-80523721D01*
X107635409Y-80627053D01*
X107635413Y-80627057D01*
X107676315Y-80653342D01*
X107750439Y-80700978D01*
X107816036Y-80720239D01*
X107881632Y-80739500D01*
X107881633Y-80739500D01*
X108018367Y-80739500D01*
X108149561Y-80700978D01*
X108149565Y-80700974D01*
X108152482Y-80699644D01*
X108155665Y-80699186D01*
X108158070Y-80698480D01*
X108158171Y-80698825D01*
X108221640Y-80689696D01*
X108255518Y-80699644D01*
X108258436Y-80700976D01*
X108258439Y-80700978D01*
X108324036Y-80720239D01*
X108389632Y-80739500D01*
X108389633Y-80739500D01*
X108526367Y-80739500D01*
X108657561Y-80700978D01*
X108772589Y-80627055D01*
X108862130Y-80523718D01*
X108918931Y-80399342D01*
X108938390Y-80264000D01*
X108918931Y-80128658D01*
X108888264Y-80061508D01*
X108878321Y-79992355D01*
X108888262Y-79958496D01*
X108918931Y-79891342D01*
X108938390Y-79756000D01*
X108918931Y-79620658D01*
X108884192Y-79544590D01*
X108862132Y-79496285D01*
X108862127Y-79496278D01*
X108772590Y-79392946D01*
X108772586Y-79392942D01*
X108675113Y-79330302D01*
X108657561Y-79319022D01*
X108657560Y-79319021D01*
X108657559Y-79319021D01*
X108526368Y-79280500D01*
X108526367Y-79280500D01*
X108389633Y-79280500D01*
X108389632Y-79280500D01*
X108258435Y-79319022D01*
X108255509Y-79320359D01*
X108252324Y-79320816D01*
X108249930Y-79321520D01*
X108249828Y-79321175D01*
X108186351Y-79330302D01*
X108152491Y-79320359D01*
X108149564Y-79319022D01*
X108018368Y-79280500D01*
X108018367Y-79280500D01*
X107881633Y-79280500D01*
X107881632Y-79280500D01*
X107750440Y-79319021D01*
X107635413Y-79392942D01*
X107635409Y-79392946D01*
X107545872Y-79496278D01*
X107545867Y-79496285D01*
X107489070Y-79620654D01*
X107489068Y-79620662D01*
X107469610Y-79756000D01*
X107489068Y-79891341D01*
X107489070Y-79891348D01*
X107519733Y-79958489D01*
X107529677Y-80027647D01*
X107519733Y-80061511D01*
X107489070Y-80128651D01*
X107489068Y-80128658D01*
X107469610Y-80264000D01*
X106324741Y-80264000D01*
X106378931Y-80145342D01*
X106398390Y-80010000D01*
X106378931Y-79874658D01*
X106345237Y-79800879D01*
X106322132Y-79750285D01*
X106322127Y-79750278D01*
X106232590Y-79646946D01*
X106232586Y-79646942D01*
X106117559Y-79573021D01*
X105986368Y-79534500D01*
X105986367Y-79534500D01*
X105849633Y-79534500D01*
X105849632Y-79534500D01*
X105718440Y-79573021D01*
X105603413Y-79646942D01*
X105603409Y-79646946D01*
X105513872Y-79750278D01*
X105513867Y-79750285D01*
X105457070Y-79874654D01*
X105457068Y-79874662D01*
X105437610Y-80010000D01*
X100627500Y-80010000D01*
X100627500Y-79259928D01*
X100647185Y-79192889D01*
X100699989Y-79147134D01*
X100769147Y-79137190D01*
X100820392Y-79156827D01*
X100870313Y-79190184D01*
X100870328Y-79190192D01*
X101052308Y-79265569D01*
X101094000Y-79273862D01*
X101094000Y-78470988D01*
X101103940Y-78488205D01*
X101159795Y-78544060D01*
X101228204Y-78583556D01*
X101304504Y-78604000D01*
X101383496Y-78604000D01*
X101459796Y-78583556D01*
X101528205Y-78544060D01*
X101584060Y-78488205D01*
X101594000Y-78470988D01*
X101594000Y-79273862D01*
X101635690Y-79265569D01*
X101635692Y-79265569D01*
X101817671Y-79190192D01*
X101817684Y-79190185D01*
X101981462Y-79080751D01*
X101981466Y-79080748D01*
X102120748Y-78941466D01*
X102120751Y-78941462D01*
X102230185Y-78777684D01*
X102230192Y-78777671D01*
X102305569Y-78595693D01*
X102305572Y-78595681D01*
X102343999Y-78402495D01*
X102344000Y-78402492D01*
X102344000Y-78004000D01*
X101644000Y-78004000D01*
X101644000Y-77504000D01*
X102330179Y-77504000D01*
X102397218Y-77523685D01*
X102417860Y-77540319D01*
X102482036Y-77604495D01*
X102590464Y-77667095D01*
X102711399Y-77699500D01*
X102711401Y-77699500D01*
X102836599Y-77699500D01*
X102836601Y-77699500D01*
X102957536Y-77667095D01*
X103065964Y-77604495D01*
X103154495Y-77515964D01*
X103204113Y-77430020D01*
X103254678Y-77381805D01*
X103323285Y-77368581D01*
X103388150Y-77394548D01*
X103428679Y-77451462D01*
X103434238Y-77474373D01*
X103453068Y-77605337D01*
X103453070Y-77605345D01*
X103509867Y-77729714D01*
X103509872Y-77729721D01*
X103599409Y-77833053D01*
X103599413Y-77833057D01*
X103659979Y-77871979D01*
X103714439Y-77906978D01*
X103780036Y-77926239D01*
X103845632Y-77945500D01*
X103845633Y-77945500D01*
X103982367Y-77945500D01*
X104113561Y-77906978D01*
X104228589Y-77833055D01*
X104318130Y-77729718D01*
X104374931Y-77605342D01*
X104394390Y-77470000D01*
X104929610Y-77470000D01*
X104949068Y-77605337D01*
X104949070Y-77605345D01*
X105005867Y-77729714D01*
X105005872Y-77729721D01*
X105095409Y-77833053D01*
X105095413Y-77833057D01*
X105155979Y-77871979D01*
X105210439Y-77906978D01*
X105276036Y-77926239D01*
X105341632Y-77945500D01*
X105341633Y-77945500D01*
X105478367Y-77945500D01*
X105609561Y-77906978D01*
X105724589Y-77833055D01*
X105814130Y-77729718D01*
X105870931Y-77605342D01*
X105890390Y-77470000D01*
X106433610Y-77470000D01*
X106453068Y-77605337D01*
X106453070Y-77605345D01*
X106509867Y-77729714D01*
X106509872Y-77729721D01*
X106599409Y-77833053D01*
X106599413Y-77833057D01*
X106659979Y-77871979D01*
X106714439Y-77906978D01*
X106780036Y-77926239D01*
X106845632Y-77945500D01*
X106845633Y-77945500D01*
X106982367Y-77945500D01*
X107113561Y-77906978D01*
X107228589Y-77833055D01*
X107318130Y-77729718D01*
X107374931Y-77605342D01*
X107394390Y-77470000D01*
X107374931Y-77334658D01*
X107352984Y-77286601D01*
X108078500Y-77286601D01*
X108110905Y-77407536D01*
X108173505Y-77515964D01*
X108262036Y-77604495D01*
X108370464Y-77667095D01*
X108491399Y-77699500D01*
X108491401Y-77699500D01*
X108616599Y-77699500D01*
X108616601Y-77699500D01*
X108737536Y-77667095D01*
X108845964Y-77604495D01*
X108910140Y-77540319D01*
X108971463Y-77506834D01*
X108997821Y-77504000D01*
X109684000Y-77504000D01*
X109684000Y-78004000D01*
X108984000Y-78004000D01*
X108984000Y-78402495D01*
X109022427Y-78595681D01*
X109022430Y-78595693D01*
X109097807Y-78777671D01*
X109097814Y-78777684D01*
X109207248Y-78941462D01*
X109207251Y-78941466D01*
X109346533Y-79080748D01*
X109346537Y-79080751D01*
X109510315Y-79190185D01*
X109510328Y-79190192D01*
X109692308Y-79265569D01*
X109734000Y-79273862D01*
X109734000Y-78470988D01*
X109743940Y-78488205D01*
X109799795Y-78544060D01*
X109868204Y-78583556D01*
X109944504Y-78604000D01*
X110023496Y-78604000D01*
X110099796Y-78583556D01*
X110168205Y-78544060D01*
X110224060Y-78488205D01*
X110234000Y-78470988D01*
X110234000Y-79273862D01*
X110242745Y-79272123D01*
X110312337Y-79278350D01*
X110367514Y-79321213D01*
X110390759Y-79387102D01*
X110374692Y-79455099D01*
X110345603Y-79489593D01*
X110278587Y-79544591D01*
X110152065Y-79698761D01*
X110152060Y-79698768D01*
X110058048Y-79874651D01*
X110000149Y-80065518D01*
X109980601Y-80264000D01*
X110000149Y-80462481D01*
X110058048Y-80653348D01*
X110152060Y-80829231D01*
X110152065Y-80829238D01*
X110278589Y-80983410D01*
X110375678Y-81063088D01*
X110432763Y-81109936D01*
X110432766Y-81109937D01*
X110432768Y-81109939D01*
X110608651Y-81203951D01*
X110608654Y-81203951D01*
X110608658Y-81203954D01*
X110799515Y-81261850D01*
X110998000Y-81281399D01*
X111196485Y-81261850D01*
X111387342Y-81203954D01*
X111563237Y-81109936D01*
X111717410Y-80983410D01*
X111843936Y-80829237D01*
X111918522Y-80689696D01*
X111937951Y-80653348D01*
X111937951Y-80653347D01*
X111937954Y-80653342D01*
X111995850Y-80462485D01*
X112015399Y-80264000D01*
X111995850Y-80065515D01*
X111937954Y-79874658D01*
X111937951Y-79874654D01*
X111937951Y-79874651D01*
X111843939Y-79698768D01*
X111843937Y-79698766D01*
X111843936Y-79698763D01*
X111801408Y-79646942D01*
X111717410Y-79544589D01*
X111563238Y-79418065D01*
X111563231Y-79418060D01*
X111387348Y-79324048D01*
X111387342Y-79324046D01*
X111196485Y-79266150D01*
X111196483Y-79266149D01*
X111196481Y-79266149D01*
X110998000Y-79246601D01*
X110799514Y-79266149D01*
X110751524Y-79280707D01*
X110681657Y-79281330D01*
X110622544Y-79244081D01*
X110592954Y-79180786D01*
X110602281Y-79111542D01*
X110627849Y-79074364D01*
X110760752Y-78941461D01*
X110870185Y-78777684D01*
X110870192Y-78777671D01*
X110945569Y-78595693D01*
X110945572Y-78595681D01*
X110983999Y-78402495D01*
X110984000Y-78402492D01*
X110984000Y-78004000D01*
X110284000Y-78004000D01*
X110284000Y-77504000D01*
X110984000Y-77504000D01*
X110984000Y-77105508D01*
X110983999Y-77105504D01*
X110945572Y-76912318D01*
X110945569Y-76912306D01*
X110870192Y-76730328D01*
X110870185Y-76730315D01*
X110760751Y-76566537D01*
X110760748Y-76566533D01*
X110621466Y-76427251D01*
X110621462Y-76427248D01*
X110457684Y-76317814D01*
X110457671Y-76317807D01*
X110275691Y-76242429D01*
X110275683Y-76242427D01*
X110234000Y-76234135D01*
X110234000Y-77037011D01*
X110224060Y-77019795D01*
X110168205Y-76963940D01*
X110099796Y-76924444D01*
X110023496Y-76904000D01*
X109944504Y-76904000D01*
X109868204Y-76924444D01*
X109799795Y-76963940D01*
X109743940Y-77019795D01*
X109734000Y-77037011D01*
X109734000Y-76234136D01*
X109733999Y-76234135D01*
X109692316Y-76242427D01*
X109692308Y-76242429D01*
X109510328Y-76317807D01*
X109510315Y-76317814D01*
X109346537Y-76427248D01*
X109346533Y-76427251D01*
X109207251Y-76566533D01*
X109207248Y-76566537D01*
X109097814Y-76730315D01*
X109097809Y-76730324D01*
X109061914Y-76816985D01*
X109018073Y-76871388D01*
X108951779Y-76893453D01*
X108884080Y-76876174D01*
X108859672Y-76857213D01*
X108845965Y-76843506D01*
X108845964Y-76843505D01*
X108737536Y-76780905D01*
X108737537Y-76780905D01*
X108697224Y-76770103D01*
X108616601Y-76748500D01*
X108491399Y-76748500D01*
X108410775Y-76770103D01*
X108370463Y-76780905D01*
X108262037Y-76843504D01*
X108262034Y-76843506D01*
X108173506Y-76932034D01*
X108173504Y-76932037D01*
X108110905Y-77040463D01*
X108110905Y-77040464D01*
X108078500Y-77161399D01*
X108078500Y-77286601D01*
X107352984Y-77286601D01*
X107352983Y-77286599D01*
X107318132Y-77210285D01*
X107318127Y-77210278D01*
X107228590Y-77106946D01*
X107228586Y-77106942D01*
X107125141Y-77040464D01*
X107113561Y-77033022D01*
X107113560Y-77033021D01*
X107113559Y-77033021D01*
X106982368Y-76994500D01*
X106982367Y-76994500D01*
X106845633Y-76994500D01*
X106845632Y-76994500D01*
X106714440Y-77033021D01*
X106599413Y-77106942D01*
X106599409Y-77106946D01*
X106509872Y-77210278D01*
X106509867Y-77210285D01*
X106453070Y-77334654D01*
X106453068Y-77334662D01*
X106433610Y-77470000D01*
X105890390Y-77470000D01*
X105870931Y-77334658D01*
X105848983Y-77286599D01*
X105814132Y-77210285D01*
X105814127Y-77210278D01*
X105724590Y-77106946D01*
X105724586Y-77106942D01*
X105621141Y-77040464D01*
X105609561Y-77033022D01*
X105609560Y-77033021D01*
X105609559Y-77033021D01*
X105478368Y-76994500D01*
X105478367Y-76994500D01*
X105341633Y-76994500D01*
X105341632Y-76994500D01*
X105210440Y-77033021D01*
X105095413Y-77106942D01*
X105095409Y-77106946D01*
X105005872Y-77210278D01*
X105005867Y-77210285D01*
X104949070Y-77334654D01*
X104949068Y-77334662D01*
X104929610Y-77470000D01*
X104394390Y-77470000D01*
X104374931Y-77334658D01*
X104352983Y-77286599D01*
X104318132Y-77210285D01*
X104318127Y-77210278D01*
X104228590Y-77106946D01*
X104228586Y-77106942D01*
X104125141Y-77040464D01*
X104113561Y-77033022D01*
X104113560Y-77033021D01*
X104113559Y-77033021D01*
X103982368Y-76994500D01*
X103982367Y-76994500D01*
X103845633Y-76994500D01*
X103845632Y-76994500D01*
X103714440Y-77033021D01*
X103599413Y-77106942D01*
X103599409Y-77106946D01*
X103509872Y-77210278D01*
X103509869Y-77210283D01*
X103486294Y-77261906D01*
X103440539Y-77314709D01*
X103373500Y-77334394D01*
X103306460Y-77314709D01*
X103260706Y-77261905D01*
X103249500Y-77210394D01*
X103249500Y-77161400D01*
X103234909Y-77106946D01*
X103217095Y-77040464D01*
X103154495Y-76932036D01*
X103065964Y-76843505D01*
X102957536Y-76780905D01*
X102957537Y-76780905D01*
X102917224Y-76770103D01*
X102836601Y-76748500D01*
X102711399Y-76748500D01*
X102630775Y-76770103D01*
X102590463Y-76780905D01*
X102482037Y-76843504D01*
X102482033Y-76843507D01*
X102468325Y-76857215D01*
X102407001Y-76890699D01*
X102337309Y-76885713D01*
X102281377Y-76843840D01*
X102266084Y-76816983D01*
X102230189Y-76730322D01*
X102230185Y-76730315D01*
X102120751Y-76566537D01*
X102120748Y-76566533D01*
X101981466Y-76427251D01*
X101981462Y-76427248D01*
X101817684Y-76317814D01*
X101817671Y-76317807D01*
X101635691Y-76242429D01*
X101635683Y-76242427D01*
X101594000Y-76234135D01*
X101594000Y-77037011D01*
X101584060Y-77019795D01*
X101528205Y-76963940D01*
X101459796Y-76924444D01*
X101383496Y-76904000D01*
X101304504Y-76904000D01*
X101228204Y-76924444D01*
X101159795Y-76963940D01*
X101103940Y-77019795D01*
X101094000Y-77037011D01*
X101094000Y-76234136D01*
X101093999Y-76234135D01*
X101052316Y-76242427D01*
X101052308Y-76242429D01*
X100870328Y-76317807D01*
X100870315Y-76317814D01*
X100820391Y-76351173D01*
X100753713Y-76372051D01*
X100686333Y-76353566D01*
X100639643Y-76301587D01*
X100627500Y-76248071D01*
X100627500Y-75806741D01*
X113311500Y-75806741D01*
X113336446Y-75996215D01*
X113341452Y-76034238D01*
X113341453Y-76034240D01*
X113400842Y-76255887D01*
X113488650Y-76467876D01*
X113488657Y-76467890D01*
X113603392Y-76666617D01*
X113743081Y-76848661D01*
X113743089Y-76848670D01*
X113905330Y-77010911D01*
X113905338Y-77010918D01*
X113905339Y-77010919D01*
X113934143Y-77033021D01*
X114087382Y-77150607D01*
X114087385Y-77150608D01*
X114087388Y-77150611D01*
X114286112Y-77265344D01*
X114286117Y-77265346D01*
X114286123Y-77265349D01*
X114377480Y-77303190D01*
X114498113Y-77353158D01*
X114719762Y-77412548D01*
X114947266Y-77442500D01*
X114947273Y-77442500D01*
X115176727Y-77442500D01*
X115176734Y-77442500D01*
X115404238Y-77412548D01*
X115625887Y-77353158D01*
X115837888Y-77265344D01*
X116036612Y-77150611D01*
X116218661Y-77010919D01*
X116218665Y-77010914D01*
X116218670Y-77010911D01*
X116380911Y-76848670D01*
X116380914Y-76848665D01*
X116380919Y-76848661D01*
X116520611Y-76666612D01*
X116635344Y-76467888D01*
X116723158Y-76255887D01*
X116782548Y-76034238D01*
X116812500Y-75806734D01*
X116812500Y-75577266D01*
X116782548Y-75349762D01*
X116723158Y-75128113D01*
X116657485Y-74969564D01*
X116635349Y-74916123D01*
X116635346Y-74916117D01*
X116635344Y-74916112D01*
X116520611Y-74717388D01*
X116520608Y-74717385D01*
X116520607Y-74717382D01*
X116399072Y-74558996D01*
X116380919Y-74535339D01*
X116380918Y-74535338D01*
X116380911Y-74535330D01*
X116218670Y-74373089D01*
X116218661Y-74373081D01*
X116036617Y-74233392D01*
X115997195Y-74210632D01*
X115877192Y-74141348D01*
X115837890Y-74118657D01*
X115837876Y-74118650D01*
X115625887Y-74030842D01*
X115404238Y-73971452D01*
X115366215Y-73966446D01*
X115176741Y-73941500D01*
X115176734Y-73941500D01*
X114947266Y-73941500D01*
X114947258Y-73941500D01*
X114730715Y-73970009D01*
X114719762Y-73971452D01*
X114637484Y-73993498D01*
X114498112Y-74030842D01*
X114286123Y-74118650D01*
X114286109Y-74118657D01*
X114087382Y-74233392D01*
X113905338Y-74373081D01*
X113743081Y-74535338D01*
X113603392Y-74717382D01*
X113488657Y-74916109D01*
X113488650Y-74916123D01*
X113400842Y-75128112D01*
X113341453Y-75349759D01*
X113341451Y-75349770D01*
X113311500Y-75577258D01*
X113311500Y-75806741D01*
X100627500Y-75806741D01*
X100627500Y-74829928D01*
X100647185Y-74762889D01*
X100699989Y-74717134D01*
X100769147Y-74707190D01*
X100820392Y-74726827D01*
X100870313Y-74760184D01*
X100870328Y-74760192D01*
X101052308Y-74835569D01*
X101094000Y-74843862D01*
X101094000Y-74040988D01*
X101103940Y-74058205D01*
X101159795Y-74114060D01*
X101228204Y-74153556D01*
X101304504Y-74174000D01*
X101383496Y-74174000D01*
X101459796Y-74153556D01*
X101528205Y-74114060D01*
X101584060Y-74058205D01*
X101594000Y-74040988D01*
X101594000Y-74843862D01*
X101635690Y-74835569D01*
X101635692Y-74835569D01*
X101817671Y-74760192D01*
X101817684Y-74760185D01*
X101981462Y-74650751D01*
X101981466Y-74650748D01*
X102120748Y-74511466D01*
X102120751Y-74511462D01*
X102230185Y-74347684D01*
X102230192Y-74347671D01*
X102305569Y-74165693D01*
X102305572Y-74165681D01*
X102343999Y-73972495D01*
X102344000Y-73972492D01*
X102344000Y-73824000D01*
X101644000Y-73824000D01*
X101644000Y-73324000D01*
X102344000Y-73324000D01*
X102344000Y-73175508D01*
X102343999Y-73175504D01*
X102305572Y-72982318D01*
X102305569Y-72982306D01*
X102230192Y-72800328D01*
X102230185Y-72800315D01*
X102120751Y-72636537D01*
X102120748Y-72636533D01*
X101981466Y-72497251D01*
X101981462Y-72497248D01*
X101817684Y-72387814D01*
X101817671Y-72387807D01*
X101650494Y-72318561D01*
X101596090Y-72274720D01*
X101574025Y-72208426D01*
X101591304Y-72140727D01*
X101642441Y-72093116D01*
X101697946Y-72080000D01*
X109630054Y-72080000D01*
X109697093Y-72099685D01*
G37*
%TD.AperFunction*%
%TD*%
%TA.AperFunction,Conductor*%
%TO.N,Earth*%
G36*
X99128061Y-72080597D02*
G01*
X99304941Y-72098018D01*
X99328769Y-72102757D01*
X99493001Y-72152576D01*
X99515453Y-72161877D01*
X99582113Y-72197507D01*
X99666798Y-72242772D01*
X99687010Y-72256277D01*
X99819666Y-72365145D01*
X99836854Y-72382333D01*
X99945722Y-72514989D01*
X99959227Y-72535201D01*
X100040121Y-72686543D01*
X100049424Y-72709001D01*
X100099240Y-72873224D01*
X100103982Y-72897065D01*
X100121403Y-73073938D01*
X100122000Y-73086092D01*
X100122000Y-81706526D01*
X100121002Y-81722230D01*
X100106132Y-81838701D01*
X100098241Y-81869099D01*
X100057543Y-81970716D01*
X100042269Y-81998158D01*
X99977346Y-82086292D01*
X99955667Y-82109015D01*
X99870684Y-82178011D01*
X99843991Y-82194560D01*
X99744396Y-82239994D01*
X99714401Y-82249305D01*
X99598765Y-82269634D01*
X99583127Y-82271370D01*
X99286385Y-82285341D01*
X99084140Y-82294863D01*
X99082753Y-82294920D01*
X99061429Y-82295672D01*
X99058521Y-82295740D01*
X99038509Y-82295976D01*
X99037235Y-82295991D01*
X99035777Y-82296000D01*
X93218000Y-82296000D01*
X92964005Y-82549994D01*
X92963994Y-82550004D01*
X92799805Y-82714193D01*
X92799799Y-82714201D01*
X92710000Y-82804000D01*
X92710000Y-82930995D01*
X92710000Y-84315787D01*
X92707617Y-84339980D01*
X92695476Y-84401012D01*
X92676962Y-84445708D01*
X92649309Y-84487095D01*
X92615095Y-84521309D01*
X92573708Y-84548962D01*
X92529012Y-84567476D01*
X92480989Y-84577029D01*
X92467978Y-84579617D01*
X92443788Y-84582000D01*
X92202000Y-84582000D01*
X87884000Y-84582000D01*
X87512756Y-84582000D01*
X87493359Y-84580473D01*
X87450506Y-84573686D01*
X87404662Y-84566425D01*
X87367765Y-84554436D01*
X87296551Y-84518150D01*
X87265167Y-84495348D01*
X87208651Y-84438832D01*
X87185850Y-84407450D01*
X87149561Y-84336230D01*
X87137576Y-84299345D01*
X87123525Y-84210629D01*
X87122000Y-84191244D01*
X87122000Y-83163213D01*
X87122000Y-83163210D01*
X87122000Y-82804000D01*
X86868004Y-82550004D01*
X86868000Y-82549999D01*
X86867994Y-82549994D01*
X86614000Y-82296000D01*
X86254790Y-82296000D01*
X86254787Y-82296000D01*
X81700307Y-82296000D01*
X81688153Y-82295403D01*
X81511278Y-82277982D01*
X81487437Y-82273240D01*
X81323214Y-82223424D01*
X81300756Y-82214121D01*
X81149414Y-82133227D01*
X81129202Y-82119722D01*
X80991813Y-82006969D01*
X80982797Y-81998797D01*
X80556898Y-81572897D01*
X80556892Y-81572892D01*
X80264000Y-81280000D01*
X79849786Y-81280000D01*
X79849783Y-81280000D01*
X74666093Y-81280000D01*
X74653939Y-81279403D01*
X74477065Y-81261982D01*
X74453224Y-81257240D01*
X74289001Y-81207424D01*
X74266543Y-81198121D01*
X74115201Y-81117227D01*
X74094989Y-81103722D01*
X73962333Y-80994854D01*
X73945145Y-80977666D01*
X73836277Y-80845010D01*
X73822772Y-80824798D01*
X73822117Y-80823573D01*
X73741877Y-80673453D01*
X73732575Y-80650998D01*
X73715588Y-80594998D01*
X73682757Y-80486769D01*
X73678018Y-80462941D01*
X73660597Y-80286061D01*
X73660000Y-80273907D01*
X73660000Y-79835004D01*
X80031093Y-79835004D01*
X80050692Y-80096545D01*
X80050693Y-80096550D01*
X80109058Y-80352270D01*
X80204883Y-80596426D01*
X80204882Y-80596426D01*
X80336027Y-80823573D01*
X80383874Y-80883571D01*
X80959466Y-80307979D01*
X81048078Y-80440597D01*
X81180403Y-80572922D01*
X81313018Y-80661532D01*
X80736830Y-81237720D01*
X80908546Y-81354793D01*
X80908550Y-81354795D01*
X81144854Y-81468594D01*
X81144858Y-81468595D01*
X81395494Y-81545907D01*
X81395500Y-81545909D01*
X81654848Y-81584999D01*
X81654857Y-81585000D01*
X81917143Y-81585000D01*
X81917151Y-81584999D01*
X82176499Y-81545909D01*
X82176505Y-81545907D01*
X82427143Y-81468595D01*
X82663445Y-81354798D01*
X82663447Y-81354797D01*
X82835168Y-81237720D01*
X82258980Y-80661533D01*
X82391597Y-80572922D01*
X82523922Y-80440597D01*
X82612533Y-80307980D01*
X83188125Y-80883572D01*
X83235971Y-80823573D01*
X83367116Y-80596426D01*
X83462941Y-80352270D01*
X83521306Y-80096550D01*
X83521307Y-80096545D01*
X83540907Y-79835004D01*
X83540907Y-79834995D01*
X83521307Y-79573454D01*
X83521306Y-79573449D01*
X83462941Y-79317729D01*
X83367116Y-79073573D01*
X83367117Y-79073573D01*
X83235972Y-78846426D01*
X83202936Y-78805001D01*
X85080685Y-78805001D01*
X85099907Y-79024714D01*
X85099909Y-79024724D01*
X85156990Y-79237755D01*
X85156995Y-79237769D01*
X85250203Y-79437654D01*
X85250207Y-79437662D01*
X85376712Y-79618330D01*
X85532669Y-79774287D01*
X85713337Y-79900792D01*
X85713339Y-79900793D01*
X85713342Y-79900795D01*
X85772902Y-79928568D01*
X85913230Y-79994004D01*
X85913232Y-79994004D01*
X85913237Y-79994007D01*
X86081607Y-80039122D01*
X86141267Y-80075486D01*
X86171796Y-80138333D01*
X86169288Y-80190989D01*
X86119909Y-80375274D01*
X86119907Y-80375285D01*
X86100685Y-80594998D01*
X86100685Y-80595001D01*
X86119907Y-80814714D01*
X86119909Y-80814724D01*
X86176990Y-81027755D01*
X86176995Y-81027769D01*
X86270203Y-81227654D01*
X86270207Y-81227662D01*
X86396712Y-81408330D01*
X86552669Y-81564287D01*
X86733337Y-81690792D01*
X86733339Y-81690793D01*
X86733342Y-81690795D01*
X86800755Y-81722230D01*
X86933230Y-81784004D01*
X86933232Y-81784004D01*
X86933237Y-81784007D01*
X87146280Y-81841092D01*
X87303222Y-81854822D01*
X87365998Y-81860315D01*
X87366000Y-81860315D01*
X87366002Y-81860315D01*
X87420930Y-81855509D01*
X87585720Y-81841092D01*
X87798763Y-81784007D01*
X87998658Y-81690795D01*
X88179329Y-81564288D01*
X88197710Y-81545907D01*
X88298319Y-81445299D01*
X88359642Y-81411814D01*
X88429334Y-81416798D01*
X88473681Y-81445299D01*
X88592669Y-81564287D01*
X88773337Y-81690792D01*
X88773339Y-81690793D01*
X88773342Y-81690795D01*
X88840755Y-81722230D01*
X88973230Y-81784004D01*
X88973232Y-81784004D01*
X88973237Y-81784007D01*
X89186280Y-81841092D01*
X89343222Y-81854822D01*
X89405998Y-81860315D01*
X89406000Y-81860315D01*
X89406002Y-81860315D01*
X89460930Y-81855509D01*
X89625720Y-81841092D01*
X89838763Y-81784007D01*
X90038658Y-81690795D01*
X90219329Y-81564288D01*
X90237710Y-81545907D01*
X90338319Y-81445299D01*
X90399642Y-81411814D01*
X90469334Y-81416798D01*
X90513681Y-81445299D01*
X90632669Y-81564287D01*
X90813337Y-81690792D01*
X90813339Y-81690793D01*
X90813342Y-81690795D01*
X90880755Y-81722230D01*
X91013230Y-81784004D01*
X91013232Y-81784004D01*
X91013237Y-81784007D01*
X91226280Y-81841092D01*
X91383222Y-81854822D01*
X91445998Y-81860315D01*
X91446000Y-81860315D01*
X91446002Y-81860315D01*
X91500930Y-81855509D01*
X91665720Y-81841092D01*
X91878763Y-81784007D01*
X92078658Y-81690795D01*
X92259329Y-81564288D01*
X92277710Y-81545907D01*
X92378319Y-81445299D01*
X92439642Y-81411814D01*
X92509334Y-81416798D01*
X92553681Y-81445299D01*
X92672669Y-81564287D01*
X92853337Y-81690792D01*
X92853339Y-81690793D01*
X92853342Y-81690795D01*
X92920755Y-81722230D01*
X93053230Y-81784004D01*
X93053232Y-81784004D01*
X93053237Y-81784007D01*
X93266280Y-81841092D01*
X93423222Y-81854822D01*
X93485998Y-81860315D01*
X93486000Y-81860315D01*
X93486002Y-81860315D01*
X93540930Y-81855509D01*
X93705720Y-81841092D01*
X93918763Y-81784007D01*
X94118658Y-81690795D01*
X94299329Y-81564288D01*
X94455288Y-81408329D01*
X94581795Y-81227658D01*
X94675007Y-81027763D01*
X94732092Y-80814720D01*
X94751315Y-80595000D01*
X94749383Y-80572922D01*
X94732092Y-80375285D01*
X94732092Y-80375280D01*
X94675007Y-80162237D01*
X94581795Y-79962343D01*
X94455288Y-79781671D01*
X94455286Y-79781668D01*
X94299330Y-79625712D01*
X94118662Y-79499207D01*
X94118654Y-79499203D01*
X93918769Y-79405995D01*
X93918755Y-79405990D01*
X93750392Y-79360878D01*
X93690731Y-79324513D01*
X93660202Y-79261666D01*
X93662709Y-79209016D01*
X93712092Y-79024720D01*
X93731315Y-78805000D01*
X93712092Y-78585280D01*
X93662692Y-78400917D01*
X93655009Y-78372244D01*
X93655008Y-78372243D01*
X93655007Y-78372237D01*
X93561795Y-78172343D01*
X93435288Y-77991671D01*
X93435286Y-77991668D01*
X93279330Y-77835712D01*
X93098662Y-77709207D01*
X93098654Y-77709203D01*
X92898769Y-77615995D01*
X92898755Y-77615990D01*
X92685724Y-77558909D01*
X92685722Y-77558908D01*
X92685720Y-77558908D01*
X92685718Y-77558907D01*
X92685714Y-77558907D01*
X92466002Y-77539685D01*
X92465998Y-77539685D01*
X92246285Y-77558907D01*
X92246275Y-77558909D01*
X92033244Y-77615990D01*
X92033235Y-77615994D01*
X91833344Y-77709204D01*
X91833342Y-77709205D01*
X91652668Y-77835713D01*
X91533681Y-77954701D01*
X91472358Y-77988186D01*
X91402666Y-77983202D01*
X91358319Y-77954701D01*
X91239330Y-77835712D01*
X91058662Y-77709207D01*
X91058654Y-77709203D01*
X90858769Y-77615995D01*
X90858755Y-77615990D01*
X90645724Y-77558909D01*
X90645722Y-77558908D01*
X90645720Y-77558908D01*
X90645718Y-77558907D01*
X90645714Y-77558907D01*
X90426002Y-77539685D01*
X90425998Y-77539685D01*
X90206285Y-77558907D01*
X90206275Y-77558909D01*
X89993244Y-77615990D01*
X89993235Y-77615994D01*
X89793344Y-77709204D01*
X89793342Y-77709205D01*
X89612668Y-77835713D01*
X89493681Y-77954701D01*
X89432358Y-77988186D01*
X89362666Y-77983202D01*
X89318319Y-77954701D01*
X89199330Y-77835712D01*
X89018662Y-77709207D01*
X89018654Y-77709203D01*
X88818769Y-77615995D01*
X88818755Y-77615990D01*
X88605724Y-77558909D01*
X88605722Y-77558908D01*
X88605720Y-77558908D01*
X88605718Y-77558907D01*
X88605714Y-77558907D01*
X88386002Y-77539685D01*
X88385998Y-77539685D01*
X88166285Y-77558907D01*
X88166275Y-77558909D01*
X87953244Y-77615990D01*
X87953235Y-77615994D01*
X87753344Y-77709204D01*
X87753342Y-77709205D01*
X87572668Y-77835713D01*
X87453681Y-77954701D01*
X87392358Y-77988186D01*
X87322666Y-77983202D01*
X87278319Y-77954701D01*
X87159330Y-77835712D01*
X86978662Y-77709207D01*
X86978654Y-77709203D01*
X86778769Y-77615995D01*
X86778755Y-77615990D01*
X86565724Y-77558909D01*
X86565722Y-77558908D01*
X86565720Y-77558908D01*
X86565718Y-77558907D01*
X86565714Y-77558907D01*
X86346002Y-77539685D01*
X86345998Y-77539685D01*
X86126285Y-77558907D01*
X86126275Y-77558909D01*
X85913244Y-77615990D01*
X85913235Y-77615994D01*
X85713344Y-77709204D01*
X85713342Y-77709205D01*
X85532668Y-77835713D01*
X85376713Y-77991668D01*
X85250205Y-78172342D01*
X85250204Y-78172344D01*
X85156994Y-78372235D01*
X85156990Y-78372244D01*
X85099909Y-78585275D01*
X85099907Y-78585285D01*
X85080685Y-78804998D01*
X85080685Y-78805001D01*
X83202936Y-78805001D01*
X83188124Y-78786427D01*
X82612532Y-79362018D01*
X82523922Y-79229403D01*
X82391597Y-79097078D01*
X82258980Y-79008466D01*
X82848489Y-78418957D01*
X82851998Y-78400917D01*
X82900300Y-78350432D01*
X82968228Y-78334075D01*
X82994214Y-78338150D01*
X82996961Y-78338887D01*
X82998157Y-78339214D01*
X83127445Y-78375440D01*
X83131909Y-78376053D01*
X83141558Y-78378001D01*
X83141576Y-78377912D01*
X83145557Y-78378704D01*
X83170307Y-78381962D01*
X83279094Y-78396284D01*
X83279301Y-78396312D01*
X83418902Y-78415500D01*
X83713098Y-78415500D01*
X83852735Y-78396306D01*
X83852845Y-78396292D01*
X83962290Y-78381883D01*
X83986428Y-78378706D01*
X83986430Y-78378705D01*
X83986442Y-78378704D01*
X83986453Y-78378700D01*
X83990419Y-78377912D01*
X83990437Y-78378003D01*
X84000088Y-78376053D01*
X84004555Y-78375440D01*
X84133836Y-78339216D01*
X84135085Y-78338873D01*
X84258739Y-78305742D01*
X84263222Y-78303885D01*
X84277230Y-78299040D01*
X84280745Y-78298054D01*
X84287841Y-78296067D01*
X84405129Y-78245120D01*
X84406801Y-78244411D01*
X84519183Y-78197863D01*
X84529028Y-78192178D01*
X84541611Y-78185838D01*
X84557682Y-78178859D01*
X84661290Y-78115852D01*
X84663629Y-78114465D01*
X84763317Y-78056912D01*
X84777480Y-78046043D01*
X84788538Y-78038471D01*
X84788540Y-78038470D01*
X84809049Y-78025999D01*
X84898095Y-77953553D01*
X84900789Y-77951424D01*
X84986965Y-77885300D01*
X85004189Y-77868074D01*
X85013585Y-77859595D01*
X85037260Y-77840335D01*
X85111184Y-77761180D01*
X85114067Y-77758196D01*
X85186300Y-77685965D01*
X85205074Y-77661497D01*
X85212816Y-77652360D01*
X85212817Y-77652359D01*
X85238065Y-77625326D01*
X85296783Y-77542138D01*
X85299681Y-77538203D01*
X85357912Y-77462317D01*
X85376580Y-77429981D01*
X85382656Y-77420486D01*
X85407722Y-77384976D01*
X85451592Y-77300308D01*
X85454256Y-77295441D01*
X85498863Y-77218183D01*
X85506517Y-77199701D01*
X85515629Y-77177706D01*
X85520089Y-77168118D01*
X85543072Y-77123764D01*
X85572828Y-77040034D01*
X85575102Y-77034123D01*
X85606742Y-76957739D01*
X85619759Y-76909154D01*
X85622682Y-76899757D01*
X85641592Y-76846554D01*
X85658354Y-76765885D01*
X85659978Y-76759057D01*
X85679704Y-76685442D01*
X85687115Y-76629147D01*
X85688646Y-76620117D01*
X85701448Y-76558511D01*
X85706627Y-76482800D01*
X85707398Y-76475084D01*
X85716499Y-76405958D01*
X85716500Y-76405951D01*
X85716500Y-76342698D01*
X85716789Y-76334236D01*
X85721525Y-76265000D01*
X85721525Y-76264999D01*
X94110475Y-76264999D01*
X94115211Y-76334236D01*
X94115500Y-76342698D01*
X94115500Y-76405953D01*
X94124600Y-76475080D01*
X94125372Y-76482800D01*
X94130551Y-76558508D01*
X94143353Y-76620117D01*
X94144885Y-76629156D01*
X94152295Y-76685435D01*
X94152297Y-76685445D01*
X94172021Y-76759057D01*
X94173646Y-76765895D01*
X94182073Y-76806443D01*
X94190408Y-76846555D01*
X94209306Y-76899727D01*
X94212240Y-76909158D01*
X94225255Y-76957730D01*
X94225263Y-76957754D01*
X94256896Y-77034123D01*
X94259175Y-77040050D01*
X94288926Y-77123760D01*
X94288928Y-77123767D01*
X94311909Y-77168118D01*
X94316371Y-77177709D01*
X94333137Y-77218184D01*
X94333138Y-77218185D01*
X94377725Y-77295412D01*
X94380415Y-77300326D01*
X94424278Y-77384976D01*
X94449349Y-77420494D01*
X94455424Y-77429991D01*
X94471722Y-77458219D01*
X94474088Y-77462317D01*
X94474093Y-77462323D01*
X94474094Y-77462325D01*
X94532317Y-77538203D01*
X94535246Y-77542182D01*
X94593929Y-77625319D01*
X94593932Y-77625322D01*
X94593935Y-77625326D01*
X94619182Y-77652359D01*
X94626932Y-77661507D01*
X94645698Y-77685963D01*
X94645701Y-77685966D01*
X94717873Y-77758138D01*
X94720815Y-77761182D01*
X94794732Y-77840327D01*
X94794735Y-77840330D01*
X94794740Y-77840335D01*
X94818395Y-77859580D01*
X94818397Y-77859581D01*
X94827826Y-77868091D01*
X94845027Y-77885293D01*
X94845031Y-77885296D01*
X94845035Y-77885300D01*
X94885005Y-77915970D01*
X94931185Y-77951406D01*
X94933952Y-77953593D01*
X95022945Y-78025994D01*
X95022949Y-78025998D01*
X95028802Y-78029557D01*
X95043461Y-78038471D01*
X95054525Y-78046048D01*
X95068677Y-78056908D01*
X95068680Y-78056909D01*
X95068683Y-78056912D01*
X95168352Y-78114455D01*
X95170701Y-78115847D01*
X95274318Y-78178859D01*
X95290372Y-78185832D01*
X95290377Y-78185834D01*
X95302973Y-78192179D01*
X95312817Y-78197863D01*
X95425194Y-78244410D01*
X95426907Y-78245137D01*
X95544159Y-78296067D01*
X95554767Y-78299039D01*
X95568764Y-78303879D01*
X95573261Y-78305742D01*
X95696917Y-78338874D01*
X95698159Y-78339215D01*
X95827445Y-78375440D01*
X95831909Y-78376053D01*
X95841558Y-78378001D01*
X95841576Y-78377912D01*
X95845557Y-78378704D01*
X95870307Y-78381962D01*
X95979094Y-78396284D01*
X95979301Y-78396312D01*
X96118902Y-78415500D01*
X96413098Y-78415500D01*
X96552735Y-78396306D01*
X96552845Y-78396292D01*
X96662290Y-78381883D01*
X96686428Y-78378706D01*
X96686430Y-78378705D01*
X96686442Y-78378704D01*
X96686453Y-78378700D01*
X96690419Y-78377912D01*
X96690437Y-78378003D01*
X96700088Y-78376053D01*
X96704555Y-78375440D01*
X96833836Y-78339215D01*
X96835054Y-78338882D01*
X96837772Y-78338154D01*
X96907619Y-78339806D01*
X96965488Y-78378960D01*
X96981958Y-78417405D01*
X97573019Y-79008466D01*
X97440403Y-79097078D01*
X97308078Y-79229403D01*
X97219467Y-79362019D01*
X96643875Y-78786427D01*
X96643874Y-78786427D01*
X96596028Y-78846425D01*
X96464883Y-79073573D01*
X96369058Y-79317729D01*
X96310693Y-79573449D01*
X96310692Y-79573454D01*
X96291093Y-79834995D01*
X96291093Y-79835004D01*
X96310692Y-80096545D01*
X96310693Y-80096550D01*
X96369058Y-80352270D01*
X96464883Y-80596426D01*
X96464882Y-80596426D01*
X96596027Y-80823573D01*
X96643874Y-80883571D01*
X97219466Y-80307979D01*
X97308078Y-80440597D01*
X97440403Y-80572922D01*
X97573018Y-80661532D01*
X96996830Y-81237720D01*
X97168546Y-81354793D01*
X97168550Y-81354795D01*
X97404854Y-81468594D01*
X97404858Y-81468595D01*
X97655494Y-81545907D01*
X97655500Y-81545909D01*
X97914848Y-81584999D01*
X97914857Y-81585000D01*
X98177143Y-81585000D01*
X98177151Y-81584999D01*
X98436499Y-81545909D01*
X98436505Y-81545907D01*
X98687143Y-81468595D01*
X98923445Y-81354798D01*
X98923447Y-81354797D01*
X99095168Y-81237720D01*
X98518980Y-80661533D01*
X98651597Y-80572922D01*
X98783922Y-80440597D01*
X98872533Y-80307980D01*
X99448125Y-80883572D01*
X99495971Y-80823573D01*
X99627116Y-80596426D01*
X99722941Y-80352270D01*
X99781306Y-80096550D01*
X99781307Y-80096545D01*
X99800907Y-79835004D01*
X99800907Y-79834995D01*
X99781307Y-79573454D01*
X99781306Y-79573449D01*
X99722941Y-79317729D01*
X99627116Y-79073573D01*
X99627117Y-79073573D01*
X99495972Y-78846426D01*
X99448124Y-78786427D01*
X98872532Y-79362018D01*
X98783922Y-79229403D01*
X98651597Y-79097078D01*
X98518980Y-79008466D01*
X99095168Y-78432278D01*
X98923454Y-78315206D01*
X98923445Y-78315201D01*
X98687142Y-78201404D01*
X98687144Y-78201404D01*
X98436505Y-78124092D01*
X98436499Y-78124090D01*
X98177151Y-78085000D01*
X97914846Y-78085000D01*
X97782723Y-78104914D01*
X97713499Y-78095441D01*
X97660385Y-78050045D01*
X97640246Y-77983141D01*
X97659475Y-77915970D01*
X97684479Y-77888622D01*
X97683913Y-77887976D01*
X97686953Y-77885308D01*
X97686965Y-77885300D01*
X97704189Y-77868074D01*
X97713585Y-77859595D01*
X97737260Y-77840335D01*
X97811184Y-77761180D01*
X97814067Y-77758196D01*
X97886300Y-77685965D01*
X97905074Y-77661497D01*
X97912816Y-77652360D01*
X97912817Y-77652359D01*
X97938065Y-77625326D01*
X97996783Y-77542138D01*
X97999681Y-77538203D01*
X98057912Y-77462317D01*
X98076580Y-77429981D01*
X98082656Y-77420486D01*
X98107722Y-77384976D01*
X98151592Y-77300308D01*
X98154256Y-77295441D01*
X98198863Y-77218183D01*
X98206517Y-77199701D01*
X98215629Y-77177706D01*
X98220089Y-77168118D01*
X98243072Y-77123764D01*
X98272828Y-77040034D01*
X98275102Y-77034123D01*
X98306742Y-76957739D01*
X98319759Y-76909154D01*
X98322682Y-76899757D01*
X98341592Y-76846554D01*
X98358354Y-76765885D01*
X98359978Y-76759057D01*
X98379704Y-76685442D01*
X98387115Y-76629147D01*
X98388646Y-76620117D01*
X98401448Y-76558511D01*
X98406627Y-76482800D01*
X98407398Y-76475084D01*
X98416499Y-76405958D01*
X98416500Y-76405951D01*
X98416500Y-76342698D01*
X98416789Y-76334236D01*
X98421525Y-76265000D01*
X98416788Y-76195762D01*
X98416500Y-76187301D01*
X98416500Y-76124055D01*
X98416499Y-76124046D01*
X98407396Y-76054903D01*
X98406626Y-76047192D01*
X98401448Y-75971489D01*
X98388647Y-75909888D01*
X98387114Y-75900844D01*
X98379704Y-75844561D01*
X98379704Y-75844558D01*
X98359978Y-75770940D01*
X98358348Y-75764084D01*
X98358346Y-75764076D01*
X98341592Y-75683446D01*
X98322686Y-75630252D01*
X98319760Y-75620848D01*
X98306742Y-75572261D01*
X98275088Y-75495842D01*
X98272833Y-75489977D01*
X98243072Y-75406236D01*
X98220078Y-75361861D01*
X98215634Y-75352306D01*
X98198863Y-75311817D01*
X98154270Y-75234581D01*
X98151581Y-75229669D01*
X98107722Y-75145024D01*
X98082653Y-75109510D01*
X98076574Y-75100006D01*
X98057920Y-75067696D01*
X98057914Y-75067687D01*
X98057912Y-75067683D01*
X98054573Y-75063332D01*
X97999705Y-74991827D01*
X97996775Y-74987848D01*
X97938066Y-74904676D01*
X97938065Y-74904674D01*
X97923000Y-74888544D01*
X97912814Y-74877636D01*
X97905066Y-74868491D01*
X97903805Y-74866848D01*
X97886300Y-74844035D01*
X97814094Y-74771829D01*
X97811183Y-74768817D01*
X97811156Y-74768788D01*
X97737260Y-74689665D01*
X97737251Y-74689658D01*
X97713601Y-74670417D01*
X97704172Y-74661907D01*
X97686973Y-74644707D01*
X97686968Y-74644703D01*
X97686965Y-74644700D01*
X97600762Y-74578553D01*
X97598130Y-74576473D01*
X97509049Y-74504001D01*
X97488537Y-74491527D01*
X97477481Y-74483956D01*
X97463318Y-74473089D01*
X97463319Y-74473089D01*
X97463317Y-74473088D01*
X97363656Y-74415549D01*
X97361270Y-74414135D01*
X97361250Y-74414123D01*
X97330906Y-74395670D01*
X97257682Y-74351140D01*
X97241611Y-74344159D01*
X97229028Y-74337820D01*
X97219185Y-74332138D01*
X97219171Y-74332131D01*
X97106910Y-74285632D01*
X97104961Y-74284805D01*
X96987846Y-74233935D01*
X96987844Y-74233934D01*
X96987841Y-74233933D01*
X96985830Y-74233369D01*
X96977219Y-74230956D01*
X96963244Y-74226123D01*
X96958751Y-74224262D01*
X96958730Y-74224255D01*
X96835120Y-74191133D01*
X96833761Y-74190761D01*
X96704565Y-74154562D01*
X96704550Y-74154559D01*
X96700068Y-74153943D01*
X96690440Y-74151999D01*
X96690423Y-74152088D01*
X96686443Y-74151296D01*
X96553112Y-74133742D01*
X96552414Y-74133648D01*
X96413100Y-74114500D01*
X96413098Y-74114500D01*
X96118902Y-74114500D01*
X96118900Y-74114500D01*
X95979584Y-74133648D01*
X95978886Y-74133742D01*
X95902256Y-74143831D01*
X95845558Y-74151296D01*
X95845557Y-74151296D01*
X95845551Y-74151297D01*
X95841575Y-74152088D01*
X95841557Y-74152001D01*
X95831943Y-74153941D01*
X95827444Y-74154559D01*
X95827441Y-74154560D01*
X95698237Y-74190761D01*
X95696878Y-74191134D01*
X95573254Y-74224259D01*
X95568758Y-74226122D01*
X95554774Y-74230958D01*
X95544167Y-74233930D01*
X95544162Y-74233932D01*
X95544159Y-74233933D01*
X95427010Y-74284816D01*
X95425110Y-74285623D01*
X95312822Y-74332134D01*
X95312804Y-74332143D01*
X95302975Y-74337818D01*
X95290386Y-74344161D01*
X95274314Y-74351142D01*
X95170746Y-74414123D01*
X95168319Y-74415562D01*
X95068685Y-74473086D01*
X95068681Y-74473089D01*
X95054517Y-74483957D01*
X95043470Y-74491522D01*
X95022953Y-74504000D01*
X95022951Y-74504001D01*
X94933941Y-74576414D01*
X94931177Y-74578598D01*
X94845030Y-74644703D01*
X94827825Y-74661908D01*
X94818406Y-74670409D01*
X94794747Y-74689658D01*
X94794738Y-74689666D01*
X94720842Y-74768788D01*
X94717903Y-74771829D01*
X94645703Y-74844030D01*
X94645693Y-74844043D01*
X94626928Y-74868496D01*
X94619183Y-74877638D01*
X94593935Y-74904674D01*
X94593930Y-74904680D01*
X94535228Y-74987841D01*
X94532300Y-74991818D01*
X94474089Y-75067680D01*
X94474084Y-75067687D01*
X94455422Y-75100010D01*
X94449343Y-75109511D01*
X94424281Y-75145016D01*
X94424278Y-75145021D01*
X94380434Y-75229636D01*
X94377725Y-75234585D01*
X94333142Y-75311807D01*
X94333135Y-75311821D01*
X94316374Y-75352282D01*
X94311915Y-75361867D01*
X94288929Y-75406231D01*
X94288926Y-75406239D01*
X94259179Y-75489939D01*
X94256901Y-75495864D01*
X94225257Y-75572262D01*
X94212242Y-75620833D01*
X94209309Y-75630261D01*
X94190408Y-75683444D01*
X94190403Y-75683460D01*
X94173652Y-75764076D01*
X94172021Y-75770940D01*
X94152296Y-75844558D01*
X94144885Y-75900843D01*
X94143353Y-75909880D01*
X94130552Y-75971487D01*
X94130551Y-75971494D01*
X94125372Y-76047198D01*
X94124600Y-76054917D01*
X94115500Y-76124046D01*
X94115500Y-76187301D01*
X94115211Y-76195763D01*
X94110475Y-76264999D01*
X85721525Y-76264999D01*
X85716788Y-76195762D01*
X85716500Y-76187301D01*
X85716500Y-76124055D01*
X85716499Y-76124046D01*
X85707396Y-76054903D01*
X85706626Y-76047192D01*
X85701448Y-75971489D01*
X85688647Y-75909888D01*
X85687114Y-75900844D01*
X85679704Y-75844561D01*
X85679704Y-75844558D01*
X85659978Y-75770940D01*
X85658348Y-75764084D01*
X85658346Y-75764076D01*
X85641592Y-75683446D01*
X85622686Y-75630252D01*
X85619760Y-75620848D01*
X85606742Y-75572261D01*
X85575088Y-75495842D01*
X85572833Y-75489977D01*
X85543072Y-75406236D01*
X85520078Y-75361861D01*
X85515634Y-75352306D01*
X85498863Y-75311817D01*
X85454270Y-75234581D01*
X85451581Y-75229669D01*
X85407722Y-75145024D01*
X85382653Y-75109510D01*
X85376574Y-75100006D01*
X85357920Y-75067696D01*
X85357914Y-75067687D01*
X85357912Y-75067683D01*
X85354573Y-75063332D01*
X85299705Y-74991827D01*
X85296775Y-74987848D01*
X85238066Y-74904676D01*
X85238065Y-74904674D01*
X85223000Y-74888544D01*
X85212814Y-74877636D01*
X85205066Y-74868491D01*
X85203805Y-74866848D01*
X85186300Y-74844035D01*
X85114094Y-74771829D01*
X85111183Y-74768817D01*
X85111156Y-74768788D01*
X85037260Y-74689665D01*
X85037251Y-74689658D01*
X85013601Y-74670417D01*
X85004172Y-74661907D01*
X84986973Y-74644707D01*
X84986968Y-74644703D01*
X84986965Y-74644700D01*
X84900762Y-74578553D01*
X84898130Y-74576473D01*
X84809049Y-74504001D01*
X84788537Y-74491527D01*
X84777481Y-74483956D01*
X84763318Y-74473089D01*
X84763319Y-74473089D01*
X84763317Y-74473088D01*
X84663656Y-74415549D01*
X84661270Y-74414135D01*
X84661250Y-74414123D01*
X84630906Y-74395670D01*
X84557682Y-74351140D01*
X84541611Y-74344159D01*
X84529028Y-74337820D01*
X84519185Y-74332138D01*
X84519171Y-74332131D01*
X84406910Y-74285632D01*
X84404961Y-74284805D01*
X84287846Y-74233935D01*
X84287844Y-74233934D01*
X84287841Y-74233933D01*
X84285830Y-74233369D01*
X84277219Y-74230956D01*
X84263244Y-74226123D01*
X84258751Y-74224262D01*
X84258730Y-74224255D01*
X84135120Y-74191133D01*
X84133761Y-74190761D01*
X84004565Y-74154562D01*
X84004550Y-74154559D01*
X84000068Y-74153943D01*
X83990440Y-74151999D01*
X83990423Y-74152088D01*
X83986443Y-74151296D01*
X83853112Y-74133742D01*
X83852414Y-74133648D01*
X83713100Y-74114500D01*
X83713098Y-74114500D01*
X83418902Y-74114500D01*
X83418900Y-74114500D01*
X83279584Y-74133648D01*
X83278886Y-74133742D01*
X83202256Y-74143831D01*
X83145558Y-74151296D01*
X83145557Y-74151296D01*
X83145551Y-74151297D01*
X83141575Y-74152088D01*
X83141557Y-74152001D01*
X83131943Y-74153941D01*
X83127444Y-74154559D01*
X83127441Y-74154560D01*
X82998237Y-74190761D01*
X82996878Y-74191134D01*
X82873254Y-74224259D01*
X82868758Y-74226122D01*
X82854774Y-74230958D01*
X82844167Y-74233930D01*
X82844162Y-74233932D01*
X82844159Y-74233933D01*
X82727010Y-74284816D01*
X82725110Y-74285623D01*
X82612822Y-74332134D01*
X82612804Y-74332143D01*
X82602975Y-74337818D01*
X82590386Y-74344161D01*
X82574314Y-74351142D01*
X82470746Y-74414123D01*
X82468319Y-74415562D01*
X82368685Y-74473086D01*
X82368681Y-74473089D01*
X82354517Y-74483957D01*
X82343470Y-74491522D01*
X82322953Y-74504000D01*
X82322951Y-74504001D01*
X82233941Y-74576414D01*
X82231177Y-74578598D01*
X82145030Y-74644703D01*
X82127825Y-74661908D01*
X82118406Y-74670409D01*
X82094747Y-74689658D01*
X82094738Y-74689666D01*
X82020842Y-74768788D01*
X82017903Y-74771829D01*
X81945703Y-74844030D01*
X81945693Y-74844043D01*
X81926928Y-74868496D01*
X81919183Y-74877638D01*
X81893935Y-74904674D01*
X81893930Y-74904680D01*
X81835228Y-74987841D01*
X81832300Y-74991818D01*
X81774089Y-75067680D01*
X81774084Y-75067687D01*
X81755422Y-75100010D01*
X81749343Y-75109511D01*
X81724281Y-75145016D01*
X81724278Y-75145021D01*
X81680434Y-75229636D01*
X81677725Y-75234585D01*
X81633142Y-75311807D01*
X81633135Y-75311821D01*
X81616374Y-75352282D01*
X81611915Y-75361867D01*
X81588929Y-75406231D01*
X81588926Y-75406239D01*
X81559179Y-75489939D01*
X81556901Y-75495864D01*
X81525257Y-75572262D01*
X81512242Y-75620833D01*
X81509309Y-75630261D01*
X81490408Y-75683444D01*
X81490403Y-75683460D01*
X81473652Y-75764076D01*
X81472021Y-75770940D01*
X81452296Y-75844558D01*
X81444885Y-75900843D01*
X81443353Y-75909880D01*
X81430552Y-75971487D01*
X81430551Y-75971494D01*
X81425372Y-76047198D01*
X81424600Y-76054917D01*
X81415500Y-76124046D01*
X81415500Y-76187301D01*
X81415211Y-76195763D01*
X81410475Y-76264999D01*
X81415211Y-76334236D01*
X81415500Y-76342698D01*
X81415500Y-76405953D01*
X81424600Y-76475080D01*
X81425372Y-76482800D01*
X81430551Y-76558508D01*
X81443353Y-76620117D01*
X81444885Y-76629156D01*
X81452295Y-76685435D01*
X81452297Y-76685445D01*
X81472021Y-76759057D01*
X81473646Y-76765895D01*
X81482073Y-76806443D01*
X81490408Y-76846555D01*
X81509306Y-76899727D01*
X81512240Y-76909158D01*
X81525255Y-76957730D01*
X81525263Y-76957754D01*
X81556896Y-77034123D01*
X81559175Y-77040050D01*
X81588926Y-77123760D01*
X81588928Y-77123767D01*
X81611909Y-77168118D01*
X81616371Y-77177709D01*
X81633137Y-77218184D01*
X81633138Y-77218185D01*
X81677725Y-77295412D01*
X81680415Y-77300326D01*
X81724278Y-77384976D01*
X81749349Y-77420494D01*
X81755424Y-77429991D01*
X81771722Y-77458219D01*
X81774088Y-77462317D01*
X81774093Y-77462323D01*
X81774094Y-77462325D01*
X81832317Y-77538203D01*
X81835246Y-77542182D01*
X81893929Y-77625319D01*
X81893932Y-77625322D01*
X81893935Y-77625326D01*
X81919182Y-77652359D01*
X81926932Y-77661507D01*
X81945698Y-77685963D01*
X81945701Y-77685966D01*
X82017873Y-77758138D01*
X82020815Y-77761182D01*
X82094732Y-77840327D01*
X82094735Y-77840330D01*
X82094740Y-77840335D01*
X82118395Y-77859580D01*
X82118397Y-77859581D01*
X82127826Y-77868091D01*
X82145027Y-77885293D01*
X82148078Y-77887968D01*
X82147902Y-77888168D01*
X82147907Y-77888173D01*
X82147836Y-77888243D01*
X82147044Y-77889146D01*
X82184431Y-77940313D01*
X82188609Y-78010057D01*
X82154417Y-78070989D01*
X82092710Y-78103762D01*
X82049276Y-78104914D01*
X81917153Y-78085000D01*
X81654848Y-78085000D01*
X81395500Y-78124090D01*
X81395494Y-78124092D01*
X81144858Y-78201404D01*
X81144854Y-78201405D01*
X80908547Y-78315205D01*
X80908539Y-78315210D01*
X80736830Y-78432277D01*
X81313019Y-79008466D01*
X81180403Y-79097078D01*
X81048078Y-79229403D01*
X80959467Y-79362019D01*
X80383875Y-78786427D01*
X80383874Y-78786427D01*
X80336028Y-78846425D01*
X80204883Y-79073573D01*
X80109058Y-79317729D01*
X80050693Y-79573449D01*
X80050692Y-79573454D01*
X80031093Y-79834995D01*
X80031093Y-79835004D01*
X73660000Y-79835004D01*
X73660000Y-75586541D01*
X73660001Y-75586146D01*
X73660019Y-75580491D01*
X73660023Y-75579776D01*
X73660086Y-75573460D01*
X73661780Y-75443911D01*
X73661844Y-75441246D01*
X73661961Y-75438000D01*
X74657065Y-75438000D01*
X74676784Y-75738852D01*
X74676786Y-75738864D01*
X74735602Y-76034553D01*
X74735607Y-76034573D01*
X74832514Y-76320052D01*
X74832518Y-76320062D01*
X74965868Y-76590469D01*
X75133371Y-76841155D01*
X75133374Y-76841159D01*
X75166973Y-76879470D01*
X75166974Y-76879470D01*
X75667747Y-76378697D01*
X75741588Y-76480330D01*
X75919670Y-76658412D01*
X76021301Y-76732251D01*
X75520528Y-77233024D01*
X75520528Y-77233025D01*
X75558840Y-77266625D01*
X75558844Y-77266628D01*
X75809530Y-77434131D01*
X76079937Y-77567481D01*
X76079947Y-77567485D01*
X76365426Y-77664392D01*
X76365446Y-77664397D01*
X76661135Y-77723213D01*
X76661147Y-77723215D01*
X76962000Y-77742934D01*
X77262852Y-77723215D01*
X77262864Y-77723213D01*
X77558553Y-77664397D01*
X77558573Y-77664392D01*
X77844052Y-77567485D01*
X77844062Y-77567481D01*
X78114469Y-77434131D01*
X78365157Y-77266627D01*
X78403470Y-77233025D01*
X78403470Y-77233023D01*
X77902698Y-76732251D01*
X78004330Y-76658412D01*
X78182412Y-76480330D01*
X78256251Y-76378698D01*
X78757023Y-76879470D01*
X78757025Y-76879470D01*
X78790627Y-76841157D01*
X78958131Y-76590469D01*
X79091481Y-76320062D01*
X79091485Y-76320052D01*
X79188392Y-76034573D01*
X79188397Y-76034553D01*
X79247213Y-75738864D01*
X79247215Y-75738852D01*
X79266934Y-75438000D01*
X79247215Y-75137147D01*
X79247213Y-75137135D01*
X79188397Y-74841446D01*
X79188393Y-74841431D01*
X79091483Y-74555944D01*
X79091474Y-74555923D01*
X78958129Y-74285528D01*
X78790633Y-74034851D01*
X78790625Y-74034840D01*
X78757025Y-73996528D01*
X78757024Y-73996528D01*
X78256251Y-74497301D01*
X78182412Y-74395670D01*
X78004330Y-74217588D01*
X77902697Y-74143747D01*
X78403470Y-73642974D01*
X78403470Y-73642973D01*
X78365159Y-73609374D01*
X78365155Y-73609371D01*
X78114469Y-73441868D01*
X77844062Y-73308518D01*
X77844052Y-73308514D01*
X77558573Y-73211607D01*
X77558553Y-73211602D01*
X77262864Y-73152786D01*
X77262852Y-73152784D01*
X76962000Y-73133065D01*
X76661147Y-73152784D01*
X76661135Y-73152786D01*
X76365446Y-73211602D01*
X76365431Y-73211606D01*
X76079944Y-73308516D01*
X76079923Y-73308525D01*
X75809528Y-73441870D01*
X75558844Y-73609370D01*
X75558837Y-73609376D01*
X75520528Y-73642972D01*
X75520527Y-73642974D01*
X76021301Y-74143748D01*
X75919670Y-74217588D01*
X75741588Y-74395670D01*
X75667748Y-74497301D01*
X75166974Y-73996527D01*
X75166972Y-73996528D01*
X75133376Y-74034837D01*
X75133370Y-74034844D01*
X74965870Y-74285528D01*
X74832525Y-74555923D01*
X74832516Y-74555944D01*
X74735606Y-74841431D01*
X74735602Y-74841446D01*
X74676786Y-75137135D01*
X74676784Y-75137147D01*
X74657065Y-75438000D01*
X73661961Y-75438000D01*
X73663345Y-75399568D01*
X73663680Y-75393916D01*
X73666307Y-75361877D01*
X73667077Y-75352479D01*
X73667329Y-75349776D01*
X73695074Y-75085805D01*
X73695456Y-75082591D01*
X73701650Y-75035537D01*
X73702661Y-75029148D01*
X73711324Y-74982409D01*
X73711951Y-74979260D01*
X73765710Y-74726341D01*
X73766419Y-74723212D01*
X73777514Y-74676995D01*
X73779181Y-74670776D01*
X73792676Y-74625219D01*
X73793638Y-74622120D01*
X73807775Y-74578611D01*
X73873538Y-74376216D01*
X73874573Y-74373168D01*
X73890433Y-74328379D01*
X73892727Y-74322399D01*
X73910972Y-74278351D01*
X73912158Y-74275593D01*
X74017377Y-74039263D01*
X74018726Y-74036340D01*
X74039168Y-73993483D01*
X74042092Y-73987743D01*
X74064805Y-73945912D01*
X74066328Y-73943192D01*
X74195643Y-73719211D01*
X74197252Y-73716507D01*
X74222118Y-73675930D01*
X74225595Y-73670574D01*
X74252581Y-73631310D01*
X74254368Y-73628782D01*
X74406385Y-73419549D01*
X74408276Y-73417017D01*
X74437226Y-73379289D01*
X74441280Y-73374282D01*
X74472157Y-73338130D01*
X74474279Y-73335711D01*
X74647339Y-73143507D01*
X74649386Y-73141293D01*
X74682186Y-73106728D01*
X74686728Y-73102186D01*
X74721293Y-73069386D01*
X74723507Y-73067339D01*
X74915731Y-72894260D01*
X74918130Y-72892157D01*
X74954282Y-72861280D01*
X74959289Y-72857226D01*
X74997017Y-72828276D01*
X74999549Y-72826385D01*
X75208782Y-72674368D01*
X75211310Y-72672581D01*
X75250574Y-72645595D01*
X75255930Y-72642118D01*
X75296507Y-72617252D01*
X75299211Y-72615643D01*
X75523192Y-72486328D01*
X75525912Y-72484805D01*
X75567743Y-72462092D01*
X75573483Y-72459168D01*
X75616366Y-72438713D01*
X75619263Y-72437377D01*
X75855593Y-72332158D01*
X75858351Y-72330972D01*
X75902399Y-72312727D01*
X75908379Y-72310433D01*
X75953169Y-72294572D01*
X75956216Y-72293538D01*
X76202141Y-72213631D01*
X76205219Y-72212676D01*
X76212050Y-72210652D01*
X76250776Y-72199181D01*
X76256995Y-72197514D01*
X76303229Y-72186414D01*
X76306341Y-72185710D01*
X76559279Y-72131947D01*
X76562409Y-72131324D01*
X76609148Y-72122661D01*
X76615523Y-72121652D01*
X76662591Y-72115456D01*
X76665805Y-72115074D01*
X76929776Y-72087329D01*
X76932479Y-72087077D01*
X76973924Y-72083679D01*
X76979568Y-72083345D01*
X77021246Y-72081844D01*
X77023911Y-72081780D01*
X77153460Y-72080086D01*
X77159755Y-72080023D01*
X77160350Y-72080019D01*
X77165837Y-72080002D01*
X77166239Y-72080001D01*
X77166628Y-72080000D01*
X99115907Y-72080000D01*
X99128061Y-72080597D01*
G37*
%TD.AperFunction*%
%TD*%
M02*
